M48
;Layer_Color=9474304
;FILE_FORMAT=4:2
METRIC
;TYPE=PLATED
T1F00S00C0.20
T2F00S00C0.25
T3F00S00C0.30
T4F00S00C0.40
T5F00S00C0.50
T6F00S00C0.80
T7F00S00C0.85
T8F00S00C0.86
T9F00S00C0.90
T10F00S00C0.95
T11F00S00C0.97
T12F00S00C1.00
T13F00S00C1.10
T14F00S00C1.80
T15F00S00C2.70
T16F00S00C3.00
;TYPE=NON_PLATED
T17F00S00C1.27
T18F00S00C3.20
%
T01
X012245Y011821
X013245Y011661
X013965
Y011811
X014115Y011851
X014115
Y011701
Y011551
X015265Y011611
Y011761
X016416Y011850
X016361Y011607
X016705Y011711
X016865
X017345Y011831
X017835Y011741
Y011571
X021160Y011600
X021495Y011600
X021590Y011500
X021830Y011600
X022015Y011615
X022010Y011530
X022095Y011831
X022177Y011825
X022320Y011810
X022375Y011765
X022431Y011810
X022490Y011760
X022636Y011596
X022666Y011526
X021000Y011830
X024460Y011900
X025650Y011710
X025855Y011721
X026245
X027785Y011871
Y011461
X028932Y011466
X029895Y011811
X030095
X030295
X030495
X030695
X030980Y011750
X031320
X031520
X032066Y012560
X032256Y012559
X032320Y012560
X032320Y012690
X032319Y012813
X032193Y012814
X032129Y012815
X032446Y012815
X032637Y012815
X032574Y012686
X032510Y012559
X032764
X032828Y012686
X032890Y012815
X033145
X033018Y013067
X033271
X033145Y013323
X032890
X032699Y013322
X032573Y013321
X032447Y013322
X032319Y013321
X032320Y013195
X032256Y013067
X032510
X032764
X032580Y013450
X032573Y013576
X032574Y013703
X032701
Y013576
X032827Y013575
X033018Y013575
X033271
X033145Y013831
X032954Y013956
X032828Y013957
X032701
Y014084
X032574
X032573Y013957
X032446
X032447Y013829
Y013702
X032319
X032193Y013703
X032191Y013830
X032065Y013829
X032065Y013702
X032040Y013476
Y013421
X032192Y013449
X032193Y013322
X032064Y013258
X031783Y013360
Y013415
Y013695
Y013750
Y013825
Y013880
Y014120
Y014175
Y014305
Y014360
Y014632
Y014687
X032066Y014592
Y014465
X032193
X032319Y014464
X032446Y014337
X032192
X032066Y014211
Y014084
X032193
X032319Y014083
X032319Y013830
X032574Y013830
X032827Y013829
X032954Y014083
X032954Y014337
X032828Y014338
X032700Y014337
X032574Y014211
X032700Y014718
X032446
X032319Y014845
X032193Y014846
X032192Y014718
Y015099
X032446
X032701Y015100
Y014973
Y015227
X032574
Y015354
X032700Y015354
X032701Y015481
X032828
Y015354
X033145Y015355
X033018Y015607
X032955Y015671
X032954Y015861
X032828Y015862
X033145Y015863
X033271Y015607
Y015099
X033018
X032954Y014847
X033145Y014847
X033271Y014591
X033018
X032953Y014528
X033145Y014339
X033271Y014083
Y012559
X033018
X031783Y012850
Y012905
X031825Y015195
X031825Y015350
X031783Y015607
Y015663
X032066Y015608
Y015735
X032192Y015861
X032446
X032574Y015735
Y015608
X032447
Y015481
X032446Y015354
X032319Y015481
X032319Y015607
X032193Y015608
X032192Y015480
X032701Y015608
X031730Y015548
X031675
X031390Y015350
Y015200
X031115Y015287
X031157Y015331
X029665Y015340
Y015420
X029664Y015562
Y015642
X029465Y015701
Y015781
Y015851
X029400Y015816
X029299Y015585
X029255Y015531
X029175Y015511
X029155Y015441
X029105Y015481
X029025
X028955
X028875
X028991Y015543
X028685Y015501
X028645Y015571
X028585Y015461
X028535Y015671
X028425Y015751
Y015831
X028526Y015865
X028745Y015771
X028200Y015600
X028260Y015520
Y015420
X028310Y015470
Y015370
X028260Y015320
X028310Y015270
Y015170
X028260Y015220
X028545Y014971
X028635Y015011
X028725Y014971
Y014811
X028635Y014811
X028545Y014811
X028815Y014811
X028905Y014811
X028995Y014811
X029085Y014811
X029175Y014811
X029266Y014815
X029424
X029515Y014811
X029605Y014815
Y014975
X029424
X029266
X029085Y014971
X028905
X028995Y015081
X029175
X029515Y015084
Y014436
X029175Y014440
X028995Y014441
X028995
X028815Y014440
X028635
X028248Y014518
X028295Y014568
X028338Y014615
X028050Y014530
X027950
X027850
X027880Y015520
X028180Y013305
X028280
X028230Y013235
X028130
X028175Y012291
X028317Y012183
X028295Y012067
X028428Y012108
Y012258
X028535Y012181
X028813Y012291
X028933Y012067
X029470Y012308
X029535
X029595
X029795Y012251
X029995
X030195
X030395
X030595
X030570Y012369
X030510Y012481
X030507Y012581
X030770Y012369
X030795Y012251
X030885Y011981
X030685Y011981
X030305Y011981
X030105
X029905Y011981
X029705
X029847Y012459
X029920Y012506
X029895Y012560
X029770Y012556
X029707Y012609
X029621Y012619
X029561
X029496
X030070Y012531
X030070Y012431
X030040Y013320
X029975
Y013400
X030040Y013400
Y013570
X029973
Y013650
X030040
Y013730
X029973
Y013810
X030040
Y013890
X029973
X029975Y013970
X030040
X029980Y014030
X030030Y014080
X030080Y014130
X030160Y014210
X030210Y014260
X031150Y012460
Y012330
X031350
Y012460
X031250Y012080
X031050
X031450
X031650Y012060
X027895Y012181
X027788Y012108
Y012258
X027680Y012260
X027677Y012183
X027720Y012321
X027680Y012370
X027750Y012415
X027720Y012470
X027680Y012519
X027627Y012545
X026488Y012812
X026486Y012881
X026525Y012920
X026449Y012774
X026380Y012780
X026341Y012741
X026161Y012890
X026055Y012926
X025955Y012958
X025949Y013031
X025844Y012996
X025773Y013067
X025702Y012996
X025666Y012820
X025736Y012749
X025490Y012780
X025418Y012718
X025420Y012855
X025489Y013068
X025384Y013103
X025384Y013173
X025313Y013173
X025206Y013209
X025171Y013315
X025347Y013350
X025348Y013492
X025206Y013492
X025100Y013598
X025137Y013704
X025065Y013774
X024994Y013704
X024853Y013844
X024782Y013915
X024712Y013844
X024676Y013951
X024676Y014021
X024712Y014129
X024676Y014233
X024818Y014234
X024820Y014095
X024783Y014057
X024852Y013988
X024994Y013986
X025065Y014056
X025007Y014115
X024889Y014163
X024889Y014305
X024890Y014448
X024959Y014517
X025101Y014517
X025171Y014446
X025242Y014588
X025313Y014658
X025383Y014729
X025383Y014588
X025383Y014517
X025454Y014517
X025419Y014411
X025313Y014375
X025313Y014234
X025383Y014304
X025418Y013986
X025349Y013916
X025418Y013845
X025348Y013775
X025242Y013810
X025136Y013846
X025342Y013632
X025454Y013739
X025525Y013668
X025666Y013668
X025632Y013774
X025701Y013845
X025807Y014022
X025878Y013951
X025949Y014163
X026020Y014092
Y014234
X026090Y014304
X026090Y014163
X026161Y014234
X026161Y013951
X026090Y013880
X026303Y013809
X026232Y013739
X026161Y013598
X026198Y013488
X026303Y013526
X026373Y013456
X026444Y013385
X026339Y013208
X026268Y013279
X026232Y013244
X026232Y013314
X025985Y013420
X026055Y013491
X025843Y013421
X025772Y013491
X025666Y013527
X025666Y013385
X025701Y013279
X025632Y013209
X025525Y013315
X025489Y013492
X025030Y013454
X024924Y013492
X024852Y013562
X024852Y013421
X024781Y013491
X024675Y013525
X024602Y013527
X024534Y013527
X024535Y013385
X024464Y013315
X024428Y013421
X024357Y013491
X024252Y013597
X024323Y013739
X024394Y013668
X024323Y013880
X024252Y013315
X024182Y013315
X024150Y013010
X024640Y013067
X024571Y013138
X024605Y012820
X024535Y012749
X024676Y012749
X024747Y012820
X024747Y012961
X024817Y013031
X024853Y012856
X024994Y012854
X025065Y012784
X024995Y012714
X025136Y012713
X025193Y012643
X025242Y012608
X025312Y012537
X025383Y012466
X025454Y012396
X025312Y012254
X025242Y012325
X025171Y012396
X025242Y012466
X025100Y012607
X025136Y013139
X025065Y013209
X024923Y013350
X023898Y013386
X023828Y013527
X023969Y013527
X024460Y012460
Y012380
Y012300
Y012220
Y012140
Y012060
Y011980
X024520Y012020
Y011940
X024520Y012100
X024520Y012180
Y012260
X024520Y012340
X024520Y012420
Y012500
X024800Y012060
X024900Y012150
X024950Y012100
X025000Y012050
X025050Y012000
X025242Y012042
X025383Y012042
X025737Y012466
X025949Y012678
X026180Y012010
X026798Y013597
X026868Y013526
X027060Y014280
X027040Y014510
X026850Y014520
X026760Y014430
X026670Y014340
X026581Y014251
X025808Y014304
X025666Y014164
X025667Y014587
X025737Y014658
X025667Y014729
X025525Y014729
X025525Y014868
X025596Y014799
X025453Y014940
X025348Y015046
X025350Y015150
X025400Y015200
X025450Y015150
X025500Y015200
X025550Y015150
X025600Y015200
X025700Y015210
X025860Y014970
X025961Y015050
X026010Y015100
X026080Y015170
X026120Y015270
X026120Y015270
X025779Y015698
Y015828
Y015828
X025180Y015540
Y015400
X025170Y015310
X025170Y015310
X025080Y015270
X024980
X024895Y015271
X024830Y015340
X024770Y015410
X024760Y015020
X024720Y014980
X024680Y015020
X024640Y014980
X024760Y014860
X024720Y014810
X024810Y014523
X024994Y014410
X025065Y014339
X025100Y014950
X025010Y015010
X024970Y015050
X025010Y015090
X025140Y015080
X025808Y014587
X025737Y014516
X025879
X027760Y014530
X027640Y015500
X027650Y015700
X027580Y015830
X027484Y015829
X027400Y015850
X027350Y015800
X027260Y015713
Y015520
X024530Y015820
X023600Y015580
Y015500
X023520Y015520
X023170Y015458
X023170Y015400
X023150Y015590
X023167Y015673
X023146Y015743
X022957Y015544
X022675Y015500
X022555
X022435
Y015620
Y015740
X022555
Y015620
X022675
Y015740
X021951Y015745
X021950Y015594
X021954Y015444
X021960Y015290
X021964Y015196
X022095Y015041
X022170Y015030
X022320Y015010
X022375Y014965
X022431Y015010
X022490Y014960
X022636Y014796
X022666Y014726
X022920Y014610
X022980Y014220
Y014220
X023240Y014170
X023500Y014020
X023600Y013790
X023600Y013720
X023612Y013645
X023630Y013573
X023688
Y013490
X023500Y013560
X023500Y013560
X023330Y013390
X022980Y013340
Y013340
X022535Y013341
X022280Y013300
X022180Y013080
X022110Y013050
X022440Y013010
X022500Y013050
X022580Y013010
X022555Y012540
X022435
Y012420
Y012300
X022555
Y012420
X022675
Y012540
Y012300
X022957Y012344
X023150Y012390
X023167Y012473
X023146Y012543
X023325Y012541
X023319Y012476
X023520Y012320
X023170Y012258
X023170Y012200
X021954Y012244
X021950Y012394
X021951Y012545
X021952Y012695
Y012695
X021950Y012770
X021610Y012940
X021590Y013230
X022070Y013560
X022280Y013760
X022530Y013820
X022530Y014220
X022280Y014180
X022070Y014020
Y014430
X022010Y014730
X022007Y014813
X021830Y014800
X021495
X021590Y014700
X021160Y014800
X021000Y015030
Y015130
X021140Y015220
Y015380
X021150Y015780
X020685Y015431
Y015261
X020195Y015501
Y014301
X020685Y014231
Y014061
Y013181
Y013011
X021000Y012930
Y012830
X021150Y012740
X021150Y012580
X021140Y012180
Y012020
X021000Y011930
X020680Y011966
Y012136
X020190Y012206
X020195Y013251
X021960Y012090
X021964Y011996
X022980Y013820
X023240Y013760
X023680Y013770
X023650Y013830
X023500Y014430
X023420Y014610
X019785Y014311
X019795Y014051
X019795Y014051
X019785Y013261
X019795Y013001
X019795Y013001
X019780Y012216
X019790Y011956
X019790
X018595Y012035
X018595Y013081
X017835Y013171
Y013341
X017885Y013293
X017945Y013284
X017725Y012941
X017575
X017166
X017016
X016605
X016455
X016361Y013207
X016416Y013450
X016700Y013301
X016865Y013311
X017345Y013431
X017166Y014541
X017016
X016605
X016455
X016361Y014807
X016417Y015048
X016705Y014911
X016865
X017345Y015031
X017835Y014941
Y014771
X017725Y014541
X017575
X018595Y014131
X018595Y015331
X019795Y015251
X019795
X019785Y015511
X016175Y015431
X016185Y015271
X016285Y015711
X016075Y014331
X016285Y014111
X016175Y013831
X016185Y013671
X016075Y012731
X016285Y012511
X016175Y012231
X016185Y012071
X015265Y012061
Y011911
Y013211
Y013361
Y013511
Y013661
Y014811
Y014961
Y015111
Y015261
X014115Y015051
X014115
X014116Y014902
Y014752
X013965Y014861
Y015011
X013955Y015201
X013955Y015371
X013735Y015281
Y015281
X013505Y015361
Y015191
X013405Y015561
X013245Y015822
X013965
Y015822
Y015672
Y014222
Y014072
X013955Y013771
X013955Y013601
X013965Y013411
Y013261
X014115Y013301
Y013451
Y013151
X013965Y012622
Y012472
Y012472
X013955Y012171
X013955Y012001
X013735Y012081
X013505Y012161
Y011991
X013405Y012361
X013245Y012622
X013245Y013261
X013505Y013591
Y013761
X013405Y013961
X013245Y014222
X013245Y014861
X012645Y015261
X012245Y015021
X012155Y015611
X012155Y014011
X012245Y013421
X012645Y013661
X013735Y013681
X012645Y012061
X012155Y012411
X011405Y012581
Y012731
Y014181
Y014331
Y015781
Y015931
Y017381
Y017531
X011700Y019280
X011410Y019800
X012175Y019831
X012150Y019680
X012380Y019660
X012511Y019654
X012640Y019670
X012390Y019400
X012000Y019280
X013810Y019310
Y019790
X014240Y018760
X014250Y018500
X014250
X014650Y018750
X014650Y018220
X014890Y019310
X014970
X015790Y019420
X015870Y019380
X015850Y019480
X015870Y019630
Y019750
X015800Y019690
X015265Y016861
Y016711
Y016561
Y016411
X014116Y016352
Y016502
X014115Y016651
X014115Y016651
X013965Y016611
Y016461
X013955Y016801
X013955
Y016971
X013735Y016881
X013505Y016961
Y016791
X013505Y016791
X013405Y017161
X013245Y017422
X013965
Y017272
Y017272
X013245Y016461
X012645Y016861
X012245Y016621
X012155Y017211
X016175Y017031
X016185Y016871
X016416Y016650
X016361Y016407
X016455Y016141
X016605
X017016
X017166
X017575
X017725
X017835Y016371
Y016541
X017915Y016481
X017985Y016551
X017345Y016631
X016865Y016511
X016705
X016075Y015931
X016285Y017311
X016075Y017531
X016455Y017741
X016605
X017016
X017166
X017575
X017725
X018590Y017432
X018595Y016381
X019795Y016301
X019795
X019785Y016561
X019795Y017351
X019795
X019785Y017611
X019820Y018233
Y018548
Y018728
X019433Y018718
X019023Y018728
Y018568
Y018233
X019483Y018234
X019483Y018328
Y019183
Y019278
X019620Y019428
X019820Y019183
X019023
X018802Y019415
X017445Y019401
X017415Y019341
X017445Y019281
X017415Y019461
X017225Y019261
X017145
X016685Y019381
Y019501
Y019591
Y019661
X016580Y019720
X016530Y019770
X016590Y019560
X016596Y019441
X016280Y019440
X016190Y019720
X016640Y018760
X016650Y018500
X016650
X017050Y018750
X020237Y018718
X020380Y018650
Y018940
X020281Y019184
X020800Y019250
X020950Y018900
Y018500
X020800Y018340
X020280Y018328
X020281Y018234
X020195Y017601
X020685Y017531
X020768Y017607
X020815Y017651
X020865Y017611
X020915Y017651
X020685Y017361
Y016481
Y016311
X021000Y016130
X021000
Y016030
X021150Y015930
X021610Y016140
X021590Y016430
X022110Y016250
X022180Y016280
X022280Y016500
X022535Y016541
X022500Y016250
X022440Y016210
X022580
X022980Y016540
Y016540
X023330Y016590
X023500Y016760
X023500
X023240Y016960
X022980Y017020
Y017420
Y017420
X023240Y017370
X023500Y017220
Y017630
X023630Y018280
X023691Y018769
X023681Y018830
X023795Y019481
X023195Y019481
X022960Y019600
X022840
X022620Y019710
X022620
X023095Y019781
X022670Y019100
Y018900
Y018700
Y018500
X022530Y017420
X022280Y017380
X022070Y017220
Y017630
Y016760
X022280Y016960
X022530Y017020
X021950Y015970
X021952Y015895
X020195Y016551
X023950Y016120
X024000Y016070
X024050Y016120
X024100Y016070
X024200
X024150Y016120
X024250
X024300Y016070
X024350Y016120
X024480Y015890
X024880Y016249
X024880Y016249
X024980Y016250
Y016370
X025080
X025170Y016410
X025170
X025180Y016500
Y016640
X024780Y016370
X025480Y016250
X026120Y016250
Y016370
X026400
X026400Y016250
X026580
X026760Y016250
X027200Y016170
X027117Y015948
X027540Y016170
X027700Y016020
X027760Y015900
X027750Y016450
X027640Y016600
X027650Y016800
X027580Y016930
X027484Y016929
X027400Y016950
X027350Y016900
X027260Y016813
Y016620
X027117Y017048
X027200Y017270
X027540Y017270
X027700Y017120
X027760Y017000
X027750Y017550
X027640Y017700
X027650Y017900
X027580Y018030
X027484Y018029
X027400Y018050
X027350Y018000
X027260Y017913
Y017720
X027117Y018148
X027200Y018370
X027540Y018370
X027700Y018220
X027760Y018100
X027750Y018650
X027640Y018800
X027649Y018900
X027650Y019000
X027580Y019130
X027484Y019129
X027400Y019150
X027350Y019100
X027260Y019013
X027235Y018945
X027260Y018820
X027117Y019248
X027200Y019470
X027540Y019470
X027700Y019320
X027760Y019200
X027020Y019760
X026930Y019720
X026830
X026630
X026580Y019550
X026760Y019550
X026400Y019550
X026120Y019550
X025480
X024980
X024880Y019549
X024202Y019611
X024245Y019661
X024202Y019711
X024245Y019761
X023937
X023895Y019711
X023937Y019661
X023895Y019611
X024052Y019343
X023875Y019125
X024134Y018751
X024350Y018750
X024638Y018652
Y018512
Y018360
X024880Y018449
X024980Y018450
X024980
X024980Y018570
X025080
X025170Y018610
X025170
X025180Y018700
Y018840
X024780Y018570
X025480Y018450
X026120
X026120Y018570
X026400Y018450
X026580
X026760Y018450
X026760Y017350
X026580Y017350
X026400
X026380Y017470
X026120
Y017350
X025480
X025170Y017510
X025170
X025180Y017600
Y017740
X025080Y017470
X024980
Y017350
X024880Y017349
X024780Y017470
X025779Y017898
Y018028
X025779Y018998
X025779
Y019128
X025779
X025779Y016928
Y016798
X025779
X028000Y017050
Y017150
Y017250
X028340Y017100
X028744Y017100
X028605Y016781
X028405Y016701
X028565Y016411
X028685Y016451
X028889Y016444
X028970Y016741
Y016741
X029100
X029100Y016741
X029425Y016381
X029395Y016311
X029407Y016167
X029460Y016116
X029411Y016066
X029456Y016016
X029465Y015931
X029397Y015963
X028530Y016016
X028490Y016066
X028530Y016116
X028490Y016166
X028530Y016216
X028365Y016161
X028425Y015941
X028465Y015881
X028200Y015970
X028000Y015950
Y016050
Y016150
X028289Y017655
X028000Y018150
Y018250
Y018350
X028295Y018751
X028695
X028820Y018990
Y019310
X029150Y019196
X029245Y019011
X029365Y018931
X029470Y018830
X029490Y019330
X029365Y019431
X029295
X029074Y019560
X029550Y019530
X029540Y019690
X030350Y019700
X030450Y019750
X030550Y019700
X030650Y019750
X030600Y019050
X031044Y019282
X029950Y019260
X029810Y019080
X029910Y018940
X029165Y018052
X029075Y017841
X031150Y017800
Y017700
Y017600
Y017500
Y017400
Y017900
Y018000
Y018100
X031480Y017175
Y016662
X031677Y016665
X031733
X031730Y016340
X031675
X031480Y016295
X031677Y015914
X031732
X028346Y019560
X028000Y019450
Y019350
Y019250
X027970Y019720
Y019780
X027970Y019840
X032066Y017639
X032383Y017641
X032510Y017640
X032637Y017641
X032573Y017512
X032446Y017385
X032192Y017386
X032319Y017514
X032827
X032827Y017385
X033081
X033080Y017130
Y017000
Y016880
X033210
X033271Y017131
X032830Y017130
X032826Y017005
X032577Y017005
X032192Y017004
X032066Y017004
X032067Y016876
X032193Y016751
X032319Y016750
X032446Y016624
X032192Y016623
X032066Y016497
Y016370
X032064Y016306
X032193Y016370
X032319Y016369
X032446Y016369
X032446Y016116
X032192
X032066Y016116
Y015989
X032193
X032319Y015988
X031783Y015977
Y016033
X031838Y016300
X031783Y016411
Y016466
X031838Y016562
X031788Y016730
Y016785
X031838Y016925
Y017000
Y017075
X032066Y017132
X032827Y016623
X033018Y016623
X033271
X033145Y016371
X032955Y016370
Y016243
X033018Y016115
X032955Y015988
X032827Y016115
X033271Y016115
X033208Y017639
X033018Y017641
X032890
X031044Y020220
X030600Y020000
X030550Y020650
X030450Y020700
X030350Y020650
X030650Y020700
X029950Y020210
X029810Y020010
X029700Y019920
X029365Y019881
X029285
X029150Y020140
X029110Y020350
X029285Y020371
X029365
X029490Y020350
Y020274
X029550Y020480
X029116Y020585
X028860Y020690
X028820Y020250
X028820
X028820Y019930
X027970Y020700
X027330
X026830
X026730Y020699
X027030Y019990
Y019850
X027637Y020148
X027629Y020278
X025615Y020511
X024925Y020411
X024925Y020241
X024665Y020511
X023445Y020531
X023470Y020240
X023095Y019910
X023095
X022620Y019940
X022630Y019860
X022550
X022550
X022290Y019950
X022230Y020240
X022200Y020540
X022733Y020501
X022465Y020131
X020280Y020080
Y020360
Y020633
X019880Y020670
X019860Y020260
X019755Y020235
X019610Y020170
X019560Y020330
Y020640
X017480Y020590
Y020760
Y020240
Y020070
X016510
X016160Y019970
X015930Y020240
X016160Y020480
X016420Y020530
X015950Y020760
X015770Y020740
X015670Y020460
X015500Y020460
X015360Y020590
X015310Y020840
X014660
Y020470
X014860Y020440
X014940Y020470
X015050Y020440
X014905Y020037
X015110Y019880
X015840Y020240
X014200Y020480
X013980Y020550
X013970Y020620
X013980Y020750
X014070Y020740
X013250Y020750
X013251Y020556
X013020Y020510
X012880
X012700Y020530
X012640Y020480
X012455Y020535
X012380Y020490
X012300
X012210Y020530
X012160Y020470
X012000Y020460
X013570Y020240
X013810Y020170
X013809Y019922
X013570Y019855
X011410Y019970
X011700Y020460
T02
X026360Y014599
X026219Y014740
X026360Y014882
X026502Y014740
X023145Y015110
X023050
X023827Y018938
X023895Y018870
T03
X028745Y015771
X028855
X028965
X029075
X029185
X026350Y015380
Y016480
X026350Y017580
X026350Y018680
X028745Y016211
Y016101
X028855
X028965
Y016211
X028855
X029075
Y016101
X029185
Y016211
Y015991
Y015881
X029075
Y015991
X028965
Y015881
X028855
Y015991
X028745
Y015881
X022862Y019873
Y020013
T04
X020190Y011676
X020195Y012721
Y013771
X020182Y014984
X015140Y018510
Y018680
X014650Y018220
X017050
X017540Y018510
Y018680
X020195Y017071
Y016021
X022670Y018900
T05
X030000Y020000
X030200
X030400
T06
X012950Y011428
X013858
X015070
X016050
X017930Y011430
X017950Y013000
X017952Y014548
Y014695
X016060
Y014548
Y013095
Y012947
X015080Y014548
Y014695
X013868
Y014548
X012950
Y014695
Y013015
X011140Y013042
X011140Y012750
X010886Y012496
X010632Y012750
X010632Y013042
X010886Y013296
X011140Y013550
X011140Y013842
X010886Y014096
X011140Y014350
X011140Y014642
X010886Y014896
X011140Y015150
Y015442
X010886Y015696
X010632Y015442
Y015150
Y014642
X010632Y014350
Y013842
X010632Y013550
X010632Y012242
X011140
X011140Y015950
X011140Y016242
X010886Y016496
X011140Y016750
Y017042
X010886Y017296
X011140Y017550
X010632
X010649Y017939
X011157Y018193
Y018447
X011411Y018701
X010649
X011411Y017939
X010632Y017042
Y016750
Y016242
X010632Y015950
X012950Y016205
Y017807
X013868
X015080
X016060
Y016295
Y016148
X017945Y016207
X017952Y017807
T07
X015845Y011555
X025840Y015370
X026760Y015820
X017715Y015718
X016420
Y014115
X017715
Y012528
X016420
X015845Y013152
X015345Y013931
X015845Y014757
X015345Y015531
Y012331
X015845Y016357
X015345Y017131
X015365Y018581
X012965
X016420Y017318
X017715
X025840Y017570
Y016470
X026760Y016930
X026770Y018030
X026770Y019130
X025840Y018670
X027690Y019820
X030060Y019590
Y020540
X028230Y020190
X023800Y020040
X023190Y020030
X023115Y020670
X022615Y020668
X020751Y020630
X020755Y020361
X020751Y020080
X019631Y019999
T08
X026700Y011590
X026900
X027100
X027300
X027500
Y011790
X027300
X027100
X026900
X026700
X026700Y012230
X026900
X027100
Y012430
X026900
X026700
X027300
X027500
Y012230
X027300
X027340Y014930
X027140
X026940
Y015130
X027140
X027340
X027540
X027740
Y014930
X027540
X018390Y014530
Y014330
X018190
Y014130
Y013930
Y013730
Y013530
X018390
Y013330
X018190
Y013130
X018390
Y012930
X018190
Y012730
X018390
Y013730
Y013930
Y014130
X018190Y014530
X030800Y016000
X031000
Y016200
X030800
Y016400
X031000
Y016600
X030800
Y016800
X031000
X031000Y017500
Y017700
Y017900
Y018100
Y018300
X030800
Y018100
Y017900
Y017700
Y017500
T09
X010506Y011491
Y011745
X010760
Y011491
X029150Y011900
X029400
X021600Y014450
X010760Y011999
X010506
X013450Y019410
X018050Y019160
X018300
X021600Y017650
X030050Y018150
X030300
T10
X018850Y012036
X019104
X019109Y013081
X018855
Y014131
X019109
Y015331
X018855
X015555Y014401
X015301
X014859
X014605
X014351
Y012801
X014605
X014859
X015301Y012801
X015555
X012715Y012790
X012535Y012610
X012356Y012431
X012240Y014400
X012494
X012748
Y016001
X012494
X012240
Y017601
X012494
X012748
X012530Y018340
Y018594
Y018848
X012030Y018854
Y018600
Y018346
X013310Y018580
X013564
X014351Y017601
X014605
X014859
X015301
X015555
X015710Y018580
X015555Y016001
X015301
X014859
X014605
X014351
X015964Y018580
X018855Y017431
X019109
Y016381
X018855
X011974Y020700
X011720
T11
X011625Y011593
Y011847
X012795Y011845
Y011591
Y012099
Y012353
Y013191
Y013445
Y013699
Y013953
Y014791
Y015045
Y015299
Y015553
X011625Y015555
Y015301
Y015047
Y014793
Y013955
Y013701
Y013447
Y013193
Y012355
Y012101
Y016393
Y016647
Y016901
Y017155
X012795Y017153
Y016899
Y016645
Y016391
X021550Y019992
Y020246
Y020500
Y020754
T12
X010340Y009750
X010490
X010640
X010790Y009750
X010940
X011090
X011090Y010400
X010940
X010790
X010640Y010400
X010490
X010340
X021340Y009750
X021490
X021640
X021790Y009750
X021940
X022090
X022090Y011225
X021940
X021790
X021640Y011225
X021490
X021340
X032290
X032440
X032590
X032740Y011225
X032890
X033040
X033040Y009750
X032890
X032740
X032590Y009750
X032440
X032290
X032289Y021165
X032439
X032589
X032739Y021165
X032889
X033039
X022089Y021165
X021939
X021789
X021639Y021165
X021489
X021339
X011089Y021165
X010939
X010789
X010639Y021165
X010489
X010339
T13
X024600Y019746
X024854
X025108
X025362
X025616
Y020000
X025362
X025108
X024854
X024600
X023215Y020943
X022515
T14
X031450Y019150
Y019700
X031870
X032290
X032710
Y019150
X032290
X031870
T15
X018290Y011730
X032700Y011800
X012000Y012900
X018290Y015930
X032700Y018400
X018290Y020130
X010900Y020130
T16
X032710Y020430
X031450
T17
X032700Y012381
X032395Y017819
T18
X010750Y010935
X033622Y011660
X010750Y019475
X033622Y020613
M30
