G04*
G04 #@! TF.GenerationSoftware,Altium Limited,Altium Designer,21.3.2 (30)*
G04*
G04 Layer_Color=37055*
%FSAX43Y43*%
%MOMM*%
G71*
G04*
G04 #@! TF.SameCoordinates,A5D7D915-5641-4F95-A411-C75C07C582E2*
G04*
G04*
G04 #@! TF.FilePolarity,Positive*
G04*
G01*
G75*
%ADD10C,0.100*%
%ADD11C,0.150*%
%ADD12C,0.250*%
%ADD13C,0.254*%
%ADD14C,0.200*%
D10*
X0229825Y0152550D02*
G03*
X0229825Y0152550I-0000050J0000000D01*
G01*
X0244975Y0135725D02*
Y0136325D01*
X0247125Y0135725D02*
Y0136325D01*
X0245800Y0135625D02*
X0246300D01*
X0245800Y0136425D02*
X0246300D01*
X0266550Y0131725D02*
X0287650Y0131725D01*
X0263283Y0136982D02*
X0263707Y0136558D01*
X0261762Y0135462D02*
X0262187Y0135037D01*
X0262275Y0136116D02*
X0262629Y0136469D01*
X0262841Y0135550D02*
X0263194Y0135904D01*
X0259421Y0116911D02*
Y0117511D01*
X0261571Y0116911D02*
Y0117511D01*
X0260246Y0116811D02*
X0260746D01*
X0260246Y0117611D02*
X0260746D01*
X0229600Y0150500D02*
Y0151000D01*
X0228800Y0150500D02*
Y0151000D01*
X0228900Y0149675D02*
X0229500D01*
X0228900Y0151825D02*
X0229500D01*
X0239150Y0190350D02*
Y0190850D01*
X0239950Y0190350D02*
Y0190850D01*
X0239250Y0191675D02*
X0239850D01*
X0239250Y0189525D02*
X0239850D01*
X0257394Y0168383D02*
Y0168883D01*
X0256594Y0168383D02*
Y0168883D01*
X0256694Y0167558D02*
X0257294D01*
X0256694Y0169708D02*
X0257294D01*
X0275894Y0201883D02*
Y0202383D01*
X0275094Y0201883D02*
Y0202383D01*
X0275194Y0201058D02*
X0275794D01*
X0275194Y0203208D02*
X0275794D01*
X0252600Y0142800D02*
Y0143300D01*
X0251800Y0142800D02*
Y0143300D01*
X0251900Y0141975D02*
X0252500D01*
X0251900Y0144125D02*
X0252500D01*
X0253885Y0126285D02*
X0254239Y0126639D01*
X0254451Y0125720D02*
X0254805Y0126073D01*
X0254893Y0127152D02*
X0255317Y0126727D01*
X0253373Y0125631D02*
X0253797Y0125207D01*
X0260266Y0136925D02*
X0260619Y0136571D01*
X0259700Y0136359D02*
X0260054Y0136006D01*
X0260708Y0135493D02*
X0261132Y0135917D01*
X0259187Y0137013D02*
X0259612Y0137438D01*
X0254200Y0142150D02*
Y0142650D01*
X0255000Y0142150D02*
Y0142650D01*
X0254300Y0143475D02*
X0254900D01*
X0254300Y0141325D02*
X0254900D01*
X0245900Y0133834D02*
X0246254Y0133481D01*
X0246466Y0134400D02*
X0246819Y0134046D01*
X0245387Y0134488D02*
X0245812Y0134913D01*
X0246908Y0132968D02*
X0247332Y0133392D01*
X0252596Y0127569D02*
X0252950Y0127216D01*
X0252031Y0127004D02*
X0252384Y0126650D01*
X0253038Y0126137D02*
X0253463Y0126562D01*
X0251518Y0127658D02*
X0251942Y0128082D01*
X0281365Y0121056D02*
Y0121556D01*
X0282165Y0121056D02*
Y0121556D01*
X0281465Y0122381D02*
X0282065D01*
X0281465Y0120231D02*
X0282065D01*
X0287752Y0121056D02*
Y0121556D01*
X0288552Y0121056D02*
Y0121556D01*
X0287852Y0122381D02*
X0288452D01*
X0287852Y0120231D02*
X0288452D01*
X0256694Y0158708D02*
X0257294D01*
X0256694Y0156558D02*
X0257294D01*
X0256594Y0157383D02*
Y0157883D01*
X0257394Y0157383D02*
Y0157883D01*
X0260283Y0147568D02*
X0260707Y0147992D01*
X0258762Y0149088D02*
X0259187Y0149513D01*
X0259841Y0149000D02*
X0260194Y0148646D01*
X0259275Y0148434D02*
X0259629Y0148081D01*
X0216300Y0116400D02*
X0216800D01*
X0216300Y0115600D02*
X0216800D01*
X0217625Y0115700D02*
Y0116300D01*
X0215475Y0115700D02*
Y0116300D01*
X0221400Y0115900D02*
Y0116400D01*
X0220600Y0115900D02*
Y0116400D01*
X0220700Y0115075D02*
X0221300D01*
X0220700Y0117225D02*
X0221300D01*
X0213100Y0115600D02*
X0213600D01*
X0213100Y0116400D02*
X0213600D01*
X0212275Y0115700D02*
Y0116300D01*
X0214425Y0115700D02*
Y0116300D01*
X0222625Y0118800D02*
Y0119400D01*
X0220475Y0118800D02*
Y0119400D01*
X0221300Y0119500D02*
X0221800D01*
X0221300Y0118700D02*
X0221800D01*
X0222875Y0118800D02*
Y0119400D01*
X0225025Y0118800D02*
Y0119400D01*
X0223700Y0118700D02*
X0224200D01*
X0223700Y0119500D02*
X0224200D01*
X0223875Y0128900D02*
Y0129500D01*
X0226025Y0128900D02*
Y0129500D01*
X0224700Y0128800D02*
X0225200D01*
X0224700Y0129600D02*
X0225200D01*
X0220000Y0127000D02*
Y0127500D01*
X0220800Y0127000D02*
Y0127500D01*
X0220100Y0128325D02*
X0220700D01*
X0220100Y0126175D02*
X0220700D01*
X0220900Y0120500D02*
Y0121000D01*
X0220100Y0120500D02*
Y0121000D01*
X0220200Y0119675D02*
X0220800D01*
X0220200Y0121825D02*
X0220800D01*
X0117546Y0152736D02*
X0118146D01*
X0117546Y0150586D02*
X0118146D01*
X0117446Y0151411D02*
Y0151911D01*
X0118246Y0151411D02*
Y0151911D01*
X0139071Y0151711D02*
Y0152311D01*
X0136921Y0151711D02*
Y0152311D01*
X0137746Y0152411D02*
X0138246D01*
X0137746Y0151611D02*
X0138246D01*
X0117546Y0136736D02*
X0118146D01*
X0117546Y0134586D02*
X0118146D01*
X0117446Y0135411D02*
Y0135911D01*
X0118246Y0135411D02*
Y0135911D01*
X0139071Y0135711D02*
Y0136311D01*
X0136921Y0135711D02*
Y0136311D01*
X0137746Y0136411D02*
X0138246D01*
X0137746Y0135611D02*
X0138246D01*
X0117546Y0168736D02*
X0118146D01*
X0117546Y0166586D02*
X0118146D01*
X0117446Y0167411D02*
Y0167911D01*
X0118246Y0167411D02*
Y0167911D01*
X0139071Y0167711D02*
Y0168311D01*
X0136921Y0167711D02*
Y0168311D01*
X0137746Y0168411D02*
X0138246D01*
X0137746Y0167611D02*
X0138246D01*
X0137746Y0119611D02*
X0138246D01*
X0137746Y0120411D02*
X0138246D01*
X0136921Y0119711D02*
Y0120311D01*
X0139071Y0119711D02*
Y0120311D01*
X0118246Y0119411D02*
Y0119911D01*
X0117446Y0119411D02*
Y0119911D01*
X0117546Y0118586D02*
X0118146D01*
X0117546Y0120736D02*
X0118146D01*
X0222625Y0150800D02*
Y0151400D01*
X0220475Y0150800D02*
Y0151400D01*
X0221300Y0151500D02*
X0221800D01*
X0221300Y0150700D02*
X0221800D01*
X0220700Y0149225D02*
X0221300D01*
X0220700Y0147075D02*
X0221300D01*
X0220600Y0147900D02*
Y0148400D01*
X0221400Y0147900D02*
Y0148400D01*
X0214425Y0147700D02*
Y0148300D01*
X0212275Y0147700D02*
Y0148300D01*
X0213100Y0148400D02*
X0213600D01*
X0213100Y0147600D02*
X0213600D01*
X0215475Y0147700D02*
Y0148300D01*
X0217625Y0147700D02*
Y0148300D01*
X0216300Y0147600D02*
X0216800D01*
X0216300Y0148400D02*
X0216800D01*
X0220200Y0153825D02*
X0220800D01*
X0220200Y0151675D02*
X0220800D01*
X0220100Y0152500D02*
Y0153000D01*
X0220900Y0152500D02*
Y0153000D01*
X0222875Y0150800D02*
Y0151400D01*
X0225025Y0150800D02*
Y0151400D01*
X0223700Y0150700D02*
X0224200D01*
X0223700Y0151500D02*
X0224200D01*
X0220100Y0158175D02*
X0220700D01*
X0220100Y0160325D02*
X0220700D01*
X0220800Y0159000D02*
Y0159500D01*
X0220000Y0159000D02*
Y0159500D01*
X0223875Y0160900D02*
Y0161500D01*
X0226025Y0160900D02*
Y0161500D01*
X0224700Y0160800D02*
X0225200D01*
X0224700Y0161600D02*
X0225200D01*
X0198171Y0121861D02*
X0198771D01*
X0198171Y0119711D02*
X0198771D01*
X0198071Y0120536D02*
Y0121036D01*
X0198871Y0120536D02*
Y0121036D01*
X0292346Y0163411D02*
X0292846D01*
X0292346Y0162611D02*
X0292846D01*
X0293671Y0162711D02*
Y0163311D01*
X0291521Y0162711D02*
Y0163311D01*
X0292221Y0157111D02*
Y0157711D01*
X0294371Y0157111D02*
Y0157711D01*
X0293046Y0157011D02*
X0293546D01*
X0293046Y0157811D02*
X0293546D01*
X0288645Y0157336D02*
X0289245D01*
X0288645Y0155186D02*
X0289245D01*
X0288545Y0156011D02*
Y0156511D01*
X0289345Y0156011D02*
Y0156511D01*
X0286971Y0157411D02*
Y0158011D01*
X0284821Y0157411D02*
Y0158011D01*
X0285646Y0158111D02*
X0286146D01*
X0285646Y0157311D02*
X0286146D01*
X0284546Y0164536D02*
X0285146D01*
X0284546Y0162386D02*
X0285146D01*
X0284446Y0163211D02*
Y0163711D01*
X0285246Y0163211D02*
Y0163711D01*
X0286546Y0167436D02*
X0287146D01*
X0286546Y0165286D02*
X0287146D01*
X0286446Y0166111D02*
Y0166611D01*
X0287246Y0166111D02*
Y0166611D01*
X0292221Y0158611D02*
Y0159211D01*
X0294371Y0158611D02*
Y0159211D01*
X0293046Y0158511D02*
X0293546D01*
X0293046Y0159311D02*
X0293546D01*
X0290746Y0157336D02*
X0291346D01*
X0290746Y0155186D02*
X0291346D01*
X0290646Y0156011D02*
Y0156511D01*
X0291446Y0156011D02*
Y0156511D01*
X0287871Y0156411D02*
Y0157011D01*
X0285721Y0156411D02*
Y0157011D01*
X0286546Y0157111D02*
X0287046D01*
X0286546Y0156311D02*
X0287046D01*
X0291346Y0177986D02*
X0291946D01*
X0291346Y0180136D02*
X0291946D01*
X0292046Y0178811D02*
Y0179311D01*
X0291246Y0178811D02*
Y0179311D01*
X0294846Y0146986D02*
X0295446D01*
X0294846Y0144836D02*
X0295446D01*
X0294746Y0145661D02*
Y0146161D01*
X0295546Y0145661D02*
Y0146161D01*
X0256694Y0191708D02*
X0257294D01*
X0256694Y0189558D02*
X0257294D01*
X0256594Y0190383D02*
Y0190883D01*
X0257394Y0190383D02*
Y0190883D01*
X0256694Y0180708D02*
X0257294D01*
X0256694Y0178558D02*
X0257294D01*
X0256594Y0179383D02*
Y0179883D01*
X0257394Y0179383D02*
Y0179883D01*
X0196225Y0203050D02*
Y0203650D01*
X0198375Y0203050D02*
Y0203650D01*
X0197050Y0202950D02*
X0197550D01*
X0197050Y0203750D02*
X0197550D01*
X0143600Y0186000D02*
Y0186500D01*
X0142800Y0186000D02*
Y0186500D01*
X0142900Y0185175D02*
X0143500D01*
X0142900Y0187325D02*
X0143500D01*
X0167600Y0186000D02*
Y0186500D01*
X0166800Y0186000D02*
Y0186500D01*
X0166900Y0185175D02*
X0167500D01*
X0166900Y0187325D02*
X0167500D01*
X0199046Y0131011D02*
Y0131511D01*
X0198246Y0131011D02*
Y0131511D01*
X0198346Y0130186D02*
X0198946D01*
X0198346Y0132336D02*
X0198946D01*
X0199046Y0141511D02*
Y0142011D01*
X0198246Y0141511D02*
Y0142011D01*
X0198346Y0140686D02*
X0198946D01*
X0198346Y0142836D02*
X0198946D01*
X0199046Y0153511D02*
Y0154011D01*
X0198246Y0153511D02*
Y0154011D01*
X0198346Y0152686D02*
X0198946D01*
X0198346Y0154836D02*
X0198946D01*
X0224825Y0198300D02*
Y0198900D01*
X0222675Y0198300D02*
Y0198900D01*
X0223500Y0199000D02*
X0224000D01*
X0223500Y0198200D02*
X0224000D01*
X0228825Y0196800D02*
Y0197400D01*
X0226675Y0196800D02*
Y0197400D01*
X0227500Y0197500D02*
X0228000D01*
X0227500Y0196700D02*
X0228000D01*
X0229175Y0196800D02*
Y0197400D01*
X0231325Y0196800D02*
Y0197400D01*
X0230000Y0196700D02*
X0230500D01*
X0230000Y0197500D02*
X0230500D01*
X0160821Y0115811D02*
Y0116411D01*
X0162971Y0115811D02*
Y0116411D01*
X0161646Y0115711D02*
X0162146D01*
X0161646Y0116511D02*
X0162146D01*
X0159121Y0120411D02*
Y0121011D01*
X0161271Y0120411D02*
Y0121011D01*
X0159946Y0120311D02*
X0160446D01*
X0159946Y0121111D02*
X0160446D01*
X0161646Y0132511D02*
X0162146D01*
X0161646Y0131711D02*
X0162146D01*
X0162971Y0131811D02*
Y0132411D01*
X0160821Y0131811D02*
Y0132411D01*
X0159946Y0137111D02*
X0160446D01*
X0159946Y0136311D02*
X0160446D01*
X0161271Y0136411D02*
Y0137011D01*
X0159121Y0136411D02*
Y0137011D01*
X0161646Y0148511D02*
X0162146D01*
X0161646Y0147711D02*
X0162146D01*
X0162971Y0147811D02*
Y0148411D01*
X0160821Y0147811D02*
Y0148411D01*
X0159946Y0153111D02*
X0160446D01*
X0159946Y0152311D02*
X0160446D01*
X0161271Y0152411D02*
Y0153011D01*
X0159121Y0152411D02*
Y0153011D01*
X0161646Y0164511D02*
X0162146D01*
X0161646Y0163711D02*
X0162146D01*
X0162971Y0163811D02*
Y0164411D01*
X0160821Y0163811D02*
Y0164411D01*
X0159946Y0169111D02*
X0160446D01*
X0159946Y0168311D02*
X0160446D01*
X0161271Y0168411D02*
Y0169011D01*
X0159121Y0168411D02*
Y0169011D01*
X0161525Y0196900D02*
Y0197500D01*
X0159375Y0196900D02*
Y0197500D01*
X0160200Y0197600D02*
X0160700D01*
X0160200Y0196800D02*
X0160700D01*
X0133400Y0205275D02*
X0134000D01*
X0133400Y0207425D02*
X0134000D01*
X0134100Y0206100D02*
Y0206600D01*
X0133300Y0206100D02*
Y0206600D01*
X0154000Y0206325D02*
X0154600D01*
X0154000Y0204175D02*
X0154600D01*
X0153900Y0205000D02*
Y0205500D01*
X0154700Y0205000D02*
Y0205500D01*
X0148375Y0203100D02*
Y0203700D01*
X0150525Y0203100D02*
Y0203700D01*
X0149200Y0203000D02*
X0149700D01*
X0149200Y0203800D02*
X0149700D01*
X0135275Y0197600D02*
Y0198200D01*
X0137425Y0197600D02*
Y0198200D01*
X0136100Y0197500D02*
X0136600D01*
X0136100Y0198300D02*
X0136600D01*
X0135275Y0198900D02*
Y0199500D01*
X0137425Y0198900D02*
Y0199500D01*
X0136100Y0198800D02*
X0136600D01*
X0136100Y0199600D02*
X0136600D01*
X0126825Y0197600D02*
Y0198200D01*
X0124675Y0197600D02*
Y0198200D01*
X0125500Y0198300D02*
X0126000D01*
X0125500Y0197500D02*
X0126000D01*
X0129225Y0206000D02*
Y0206600D01*
X0127075Y0206000D02*
Y0206600D01*
X0127900Y0206700D02*
X0128400D01*
X0127900Y0205900D02*
X0128400D01*
X0135275Y0201400D02*
Y0202000D01*
X0137425Y0201400D02*
Y0202000D01*
X0136100Y0201300D02*
X0136600D01*
X0136100Y0202100D02*
X0136600D01*
X0122175Y0197600D02*
Y0198200D01*
X0124325Y0197600D02*
Y0198200D01*
X0123000Y0197500D02*
X0123500D01*
X0123000Y0198300D02*
X0123500D01*
X0150477Y0199000D02*
Y0199600D01*
X0148327Y0199000D02*
Y0199600D01*
X0149152Y0199700D02*
X0149652D01*
X0149152Y0198900D02*
X0149652D01*
X0125825Y0203600D02*
Y0204200D01*
X0123675Y0203600D02*
Y0204200D01*
X0124500Y0204300D02*
X0125000D01*
X0124500Y0203500D02*
X0125000D01*
X0199046Y0174511D02*
Y0175011D01*
X0198246Y0174511D02*
Y0175011D01*
X0198346Y0173686D02*
X0198946D01*
X0198346Y0175836D02*
X0198946D01*
X0198346Y0165336D02*
X0198946D01*
X0198346Y0163186D02*
X0198946D01*
X0198246Y0164011D02*
Y0164511D01*
X0199046Y0164011D02*
Y0164511D01*
D11*
X0245154Y0144733D02*
G03*
X0245154Y0144733I-0000050J0000000D01*
G01*
X0241777Y0197992D02*
G03*
X0241777Y0197992I-0000050J0000000D01*
G01*
X0276800Y0162300D02*
X0277300D01*
X0276800Y0161100D02*
X0277300D01*
X0278525Y0161200D02*
Y0162200D01*
X0275564Y0161193D02*
Y0162193D01*
X0278235Y0158762D02*
X0278870D01*
X0278235Y0157238D02*
X0278870D01*
X0280140Y0157365D02*
Y0158635D01*
X0276965Y0157365D02*
Y0158635D01*
X0278235Y0169762D02*
X0278870D01*
X0278235Y0168238D02*
X0278870D01*
X0280140Y0168365D02*
Y0169635D01*
X0276965Y0168365D02*
Y0169635D01*
X0278235Y0180762D02*
X0278870D01*
X0278235Y0179238D02*
X0278870D01*
X0280140Y0179365D02*
Y0180635D01*
X0276965Y0179365D02*
Y0180635D01*
X0276800Y0184300D02*
X0277300D01*
X0276800Y0183100D02*
X0277300D01*
X0278525Y0183200D02*
Y0184200D01*
X0275564Y0183192D02*
Y0184192D01*
X0276800Y0173300D02*
X0277300D01*
X0276800Y0172100D02*
X0277300D01*
X0278525Y0172200D02*
Y0173200D01*
X0275564Y0172192D02*
Y0173192D01*
X0276965Y0190365D02*
Y0191635D01*
X0280140Y0190365D02*
Y0191635D01*
X0278235Y0190238D02*
X0278870D01*
X0278235Y0191762D02*
X0278870D01*
X0286736Y0173308D02*
Y0174308D01*
X0283775Y0173300D02*
Y0174300D01*
X0285000Y0174400D02*
X0285500D01*
X0285000Y0173200D02*
X0285500D01*
X0286736Y0171908D02*
Y0172908D01*
X0283775Y0171900D02*
Y0172900D01*
X0285000Y0173000D02*
X0285500D01*
X0285000Y0171800D02*
X0285500D01*
X0286736Y0170508D02*
Y0171508D01*
X0283775Y0170500D02*
Y0171500D01*
X0285000Y0171600D02*
X0285500D01*
X0285000Y0170400D02*
X0285500D01*
X0239971Y0145673D02*
X0240325Y0146026D01*
X0239123Y0146521D02*
X0239476Y0146875D01*
X0238327Y0145585D02*
X0239035Y0144877D01*
X0240416Y0147684D02*
X0241123Y0146977D01*
X0242300Y0143374D02*
X0242654Y0143727D01*
X0243148Y0142525D02*
X0243502Y0142879D01*
X0243590Y0144523D02*
X0244298Y0143815D01*
X0241502Y0142423D02*
X0242209Y0141716D01*
X0241024Y0144625D02*
X0241377Y0144979D01*
X0240175Y0145474D02*
X0240529Y0145827D01*
X0239380Y0144537D02*
X0240087Y0143829D01*
X0241468Y0146636D02*
X0242175Y0145929D01*
X0241248Y0144421D02*
X0241601Y0144775D01*
X0242096Y0143573D02*
X0242450Y0143926D01*
X0242538Y0145571D02*
X0243245Y0144863D01*
X0240450Y0143471D02*
X0241157Y0142764D01*
X0232807Y0149564D02*
X0233807D01*
X0232800Y0152525D02*
X0233800D01*
X0233900Y0150800D02*
Y0151300D01*
X0232700Y0150800D02*
Y0151300D01*
X0229692Y0148436D02*
X0230692D01*
X0229700Y0145475D02*
X0230700D01*
X0229600Y0146700D02*
Y0147200D01*
X0230800Y0146700D02*
Y0147200D01*
X0231193Y0148436D02*
X0232193D01*
X0231200Y0145475D02*
X0232200D01*
X0231100Y0146700D02*
Y0147200D01*
X0232300Y0146700D02*
Y0147200D01*
X0232693Y0148436D02*
X0233693D01*
X0232700Y0145475D02*
X0233700D01*
X0232600Y0146700D02*
Y0147200D01*
X0233800Y0146700D02*
Y0147200D01*
X0281192Y0159336D02*
X0282192D01*
X0281200Y0156375D02*
X0282200D01*
X0281100Y0157600D02*
Y0158100D01*
X0282300Y0157600D02*
Y0158100D01*
X0273850Y0135825D02*
X0274350D01*
X0273850Y0137025D02*
X0274350D01*
X0272625Y0135925D02*
Y0136925D01*
X0275586Y0135932D02*
Y0136932D01*
X0271392Y0138586D02*
X0272392D01*
X0271400Y0135625D02*
X0272400D01*
X0271300Y0136850D02*
Y0137350D01*
X0272500Y0136850D02*
Y0137350D01*
X0273850Y0138375D02*
X0274350D01*
X0273850Y0137175D02*
X0274350D01*
X0275575Y0137275D02*
Y0138275D01*
X0272614Y0137268D02*
Y0138268D01*
X0272646Y0140561D02*
Y0141561D01*
X0275607Y0140569D02*
Y0141569D01*
X0273882Y0140469D02*
X0274382D01*
X0273882Y0141669D02*
X0274382D01*
X0272475Y0140125D02*
Y0140625D01*
X0271275Y0140125D02*
Y0140625D01*
X0271375Y0138900D02*
X0272375D01*
X0271367Y0141861D02*
X0272367D01*
X0273875Y0139100D02*
X0274375D01*
X0273875Y0140300D02*
X0274375D01*
X0272650Y0139200D02*
Y0140200D01*
X0275611Y0139208D02*
Y0140208D01*
X0264200Y0123100D02*
Y0123600D01*
X0265400Y0123100D02*
Y0123600D01*
X0264300Y0124825D02*
X0265300D01*
X0264307Y0121864D02*
X0265307D01*
X0265664Y0119593D02*
Y0120593D01*
X0268625Y0119600D02*
Y0120600D01*
X0266900Y0119500D02*
X0267400D01*
X0266900Y0120700D02*
X0267400D01*
X0268564Y0119493D02*
Y0120493D01*
X0271525Y0119500D02*
Y0120500D01*
X0269800Y0119400D02*
X0270300D01*
X0269800Y0120600D02*
X0270300D01*
X0271664Y0119393D02*
Y0120393D01*
X0274625Y0119400D02*
Y0120400D01*
X0272900Y0119300D02*
X0273400D01*
X0272900Y0120500D02*
X0273400D01*
X0249639Y0204747D02*
X0250639D01*
X0249646Y0201786D02*
X0250646D01*
X0249546Y0203011D02*
Y0203511D01*
X0250746Y0203011D02*
Y0203511D01*
X0252654Y0201775D02*
X0253654D01*
X0252646Y0204736D02*
X0253646D01*
X0253746Y0203011D02*
Y0203511D01*
X0252546Y0203011D02*
Y0203511D01*
X0255546Y0203011D02*
Y0203511D01*
X0256746Y0203011D02*
Y0203511D01*
X0255646Y0204736D02*
X0256646D01*
X0255654Y0201775D02*
X0256654D01*
X0193146Y0192511D02*
Y0193011D01*
X0191946Y0192511D02*
Y0193011D01*
X0192046Y0191286D02*
X0193046D01*
X0192039Y0194247D02*
X0193039D01*
X0193146Y0183011D02*
Y0183511D01*
X0191946Y0183011D02*
Y0183511D01*
X0192046Y0181786D02*
X0193046D01*
X0192039Y0184747D02*
X0193039D01*
X0199264Y0122272D02*
X0200264D01*
X0199271Y0119311D02*
X0200271D01*
X0199171Y0120536D02*
Y0121036D01*
X0200371Y0120536D02*
Y0121036D01*
X0188525Y0192582D02*
Y0193082D01*
X0189725Y0192582D02*
Y0193082D01*
X0188625Y0194307D02*
X0189625D01*
X0188633Y0191345D02*
X0189633D01*
X0189725Y0184581D02*
Y0185082D01*
X0188525Y0184581D02*
Y0185082D01*
X0188625Y0183357D02*
X0189625D01*
X0188617Y0186318D02*
X0189617D01*
X0196604Y0192581D02*
Y0193081D01*
X0197804Y0192581D02*
Y0193081D01*
X0196704Y0194306D02*
X0197704D01*
X0196711Y0191345D02*
X0197711D01*
X0197799Y0184382D02*
Y0184882D01*
X0196599Y0184382D02*
Y0184882D01*
X0196699Y0183156D02*
X0197699D01*
X0196692Y0186118D02*
X0197692D01*
X0195864Y0204193D02*
Y0205193D01*
X0198825Y0204200D02*
Y0205200D01*
X0197100Y0204100D02*
X0197600D01*
X0197100Y0205300D02*
X0197600D01*
X0206700Y0191000D02*
Y0191500D01*
X0205500Y0191000D02*
Y0191500D01*
X0205600Y0189775D02*
X0206600D01*
X0205592Y0192737D02*
X0206592D01*
X0206700Y0184400D02*
Y0184900D01*
X0205500Y0184400D02*
Y0184900D01*
X0205600Y0183175D02*
X0206600D01*
X0205592Y0186137D02*
X0206592D01*
X0145100Y0186000D02*
Y0186500D01*
X0143900Y0186000D02*
Y0186500D01*
X0144000Y0184775D02*
X0145000D01*
X0143992Y0187737D02*
X0144992D01*
X0169100Y0186000D02*
Y0186500D01*
X0167900Y0186000D02*
Y0186500D01*
X0168000Y0184775D02*
X0169000D01*
X0167992Y0187737D02*
X0168992D01*
X0200546Y0131011D02*
Y0131511D01*
X0199346Y0131011D02*
Y0131511D01*
X0199446Y0129786D02*
X0200446D01*
X0199439Y0132747D02*
X0200439D01*
X0200546Y0141511D02*
Y0142011D01*
X0199346Y0141511D02*
Y0142011D01*
X0199446Y0140286D02*
X0200446D01*
X0199439Y0143247D02*
X0200439D01*
X0200546Y0153511D02*
Y0154011D01*
X0199346Y0153511D02*
Y0154011D01*
X0199446Y0152286D02*
X0200446D01*
X0199439Y0155247D02*
X0200439D01*
X0165446Y0116711D02*
Y0117211D01*
X0164246Y0116711D02*
Y0117211D01*
X0164346Y0115486D02*
X0165346D01*
X0164339Y0118447D02*
X0165339D01*
X0163646Y0121311D02*
Y0121811D01*
X0162446Y0121311D02*
Y0121811D01*
X0162546Y0120086D02*
X0163546D01*
X0162539Y0123047D02*
X0163539D01*
X0164339Y0134447D02*
X0165339D01*
X0164346Y0131486D02*
X0165346D01*
X0164246Y0132711D02*
Y0133211D01*
X0165446Y0132711D02*
Y0133211D01*
X0162539Y0139047D02*
X0163539D01*
X0162546Y0136086D02*
X0163546D01*
X0162446Y0137311D02*
Y0137811D01*
X0163646Y0137311D02*
Y0137811D01*
X0164339Y0150447D02*
X0165339D01*
X0164346Y0147486D02*
X0165346D01*
X0164246Y0148711D02*
Y0149211D01*
X0165446Y0148711D02*
Y0149211D01*
X0162539Y0155047D02*
X0163539D01*
X0162546Y0152086D02*
X0163546D01*
X0162446Y0153311D02*
Y0153811D01*
X0163646Y0153311D02*
Y0153811D01*
X0164339Y0166447D02*
X0165339D01*
X0164346Y0163486D02*
X0165346D01*
X0164246Y0164711D02*
Y0165211D01*
X0165446Y0164711D02*
Y0165211D01*
X0162539Y0171047D02*
X0163539D01*
X0162546Y0168086D02*
X0163546D01*
X0162446Y0169311D02*
Y0169811D01*
X0163646Y0169311D02*
Y0169811D01*
X0161936Y0198208D02*
Y0199208D01*
X0158975Y0198200D02*
Y0199200D01*
X0160200Y0199300D02*
X0160700D01*
X0160200Y0198100D02*
X0160700D01*
X0141508Y0205064D02*
X0142508D01*
X0141500Y0208025D02*
X0142500D01*
X0142600Y0206300D02*
Y0206800D01*
X0141400Y0206300D02*
Y0206800D01*
X0138900Y0206300D02*
Y0206800D01*
X0137700Y0206300D02*
Y0206800D01*
X0137800Y0205075D02*
X0138800D01*
X0137792Y0208037D02*
X0138792D01*
X0146000Y0206400D02*
Y0206900D01*
X0147200Y0206400D02*
Y0206900D01*
X0146100Y0208125D02*
X0147100D01*
X0146108Y0205164D02*
X0147107D01*
X0156000Y0206300D02*
Y0206800D01*
X0157200Y0206300D02*
Y0206800D01*
X0156100Y0208025D02*
X0157100D01*
X0156108Y0205064D02*
X0157108D01*
X0160530Y0193638D02*
X0161165D01*
X0160530Y0195162D02*
X0161165D01*
X0159260Y0193765D02*
Y0195035D01*
X0162435Y0193765D02*
Y0195035D01*
X0123000Y0199800D02*
X0123500D01*
X0123000Y0198600D02*
X0123500D01*
X0124725Y0198700D02*
Y0199700D01*
X0121764Y0198693D02*
Y0199693D01*
X0149115Y0197311D02*
X0149615D01*
X0149115Y0198511D02*
X0149615D01*
X0147890Y0197411D02*
Y0198411D01*
X0150852Y0197418D02*
Y0198418D01*
X0124500Y0202100D02*
X0125000D01*
X0124500Y0203300D02*
X0125000D01*
X0123275Y0202200D02*
Y0203200D01*
X0126236Y0202208D02*
Y0203208D01*
X0200546Y0174511D02*
Y0175011D01*
X0199346Y0174511D02*
Y0175011D01*
X0199446Y0173286D02*
X0200446D01*
X0199439Y0176247D02*
X0200439D01*
X0199439Y0165747D02*
X0200439D01*
X0199446Y0162786D02*
X0200446D01*
X0199346Y0164011D02*
Y0164511D01*
X0200546Y0164011D02*
Y0164511D01*
X0276800Y0195300D02*
X0277300D01*
X0276800Y0194100D02*
X0277300D01*
X0278525Y0194200D02*
Y0195200D01*
X0275564Y0194193D02*
Y0195193D01*
D12*
X0248171Y0202136D02*
G03*
X0248171Y0202136I-0000125J0000000D01*
G01*
D13*
X0303950Y0115550D02*
X0320225Y0131825D01*
X0287688Y0131812D02*
X0303963Y0148087D01*
X0320225Y0131825D01*
X0287688Y0131812D02*
X0303950Y0115550D01*
X0253475Y0118675D02*
X0269750Y0134950D01*
X0237212Y0134938D02*
X0253488Y0151212D01*
X0269750Y0134950D01*
X0237212Y0134938D02*
X0253475Y0118675D01*
D14*
X0232175Y0150050D02*
Y0150455D01*
Y0151745D02*
Y0152150D01*
X0229775Y0150050D02*
Y0150455D01*
Y0151745D02*
Y0152150D01*
X0247746Y0202911D02*
Y0203511D01*
X0245546Y0202911D02*
Y0203511D01*
Y0202911D02*
X0247746D01*
X0245546Y0203511D02*
X0247746D01*
X0104460Y0165751D02*
X0106046Y0165740D01*
X0104446Y0163940D02*
X0106046D01*
X0104460Y0157711D02*
X0106046Y0157700D01*
X0104446Y0155900D02*
X0106046D01*
X0104500Y0185600D02*
X0106100D01*
X0104500Y0183800D02*
X0106086Y0183789D01*
X0104514Y0182611D02*
X0106100Y0182600D01*
X0104500Y0180800D02*
X0106100D01*
X0104460Y0173671D02*
X0106046Y0173660D01*
X0104446Y0171860D02*
X0106046D01*
X0104460Y0133622D02*
X0106046Y0133611D01*
X0104446Y0131811D02*
X0106046D01*
X0104460Y0141622D02*
X0106046Y0141611D01*
X0104446Y0139811D02*
X0106046D01*
X0104460Y0125722D02*
X0106046Y0125711D01*
X0104446Y0123911D02*
X0106046D01*
X0104460Y0149722D02*
X0106046Y0149711D01*
X0104446Y0147911D02*
X0106046D01*
X0307580Y0133238D02*
X0307746Y0133405D01*
X0308079D01*
X0308246Y0133238D01*
Y0132572D01*
X0308079Y0132405D01*
X0307746D01*
X0307580Y0132572D01*
X0307246Y0133238D02*
X0307080Y0133405D01*
X0306747D01*
X0306580Y0133238D01*
Y0133072D01*
X0306747Y0132905D01*
X0306913D01*
X0306747D01*
X0306580Y0132739D01*
Y0132572D01*
X0306747Y0132405D01*
X0307080D01*
X0307246Y0132572D01*
X0306247Y0133238D02*
X0306080Y0133405D01*
X0305747D01*
X0305580Y0133238D01*
Y0132572D01*
X0305747Y0132405D01*
X0306080D01*
X0306247Y0132572D01*
Y0133238D01*
X0305247Y0133405D02*
X0304581D01*
Y0133238D01*
X0305247Y0132572D01*
Y0132405D01*
X0280266Y0156733D02*
X0280433Y0156900D01*
X0280766D01*
X0280933Y0156733D01*
Y0156067D01*
X0280766Y0155900D01*
X0280433D01*
X0280266Y0156067D01*
X0279933Y0155900D02*
X0279600D01*
X0279766D01*
Y0156900D01*
X0279933Y0156733D01*
X0278434Y0156900D02*
X0279100D01*
Y0156400D01*
X0278767Y0156567D01*
X0278600D01*
X0278434Y0156400D01*
Y0156067D01*
X0278600Y0155900D01*
X0278933D01*
X0279100Y0156067D01*
X0278100Y0156900D02*
X0277434D01*
Y0156733D01*
X0278100Y0156067D01*
Y0155900D01*
X0278000Y0160533D02*
X0278166Y0160700D01*
X0278500D01*
X0278666Y0160533D01*
Y0159867D01*
X0278500Y0159700D01*
X0278166D01*
X0278000Y0159867D01*
X0277666Y0159700D02*
X0277333D01*
X0277500D01*
Y0160700D01*
X0277666Y0160533D01*
X0276167Y0160700D02*
X0276833D01*
Y0160200D01*
X0276500Y0160367D01*
X0276334D01*
X0276167Y0160200D01*
Y0159867D01*
X0276334Y0159700D01*
X0276667D01*
X0276833Y0159867D01*
X0275834Y0160533D02*
X0275667Y0160700D01*
X0275334D01*
X0275167Y0160533D01*
Y0160367D01*
X0275334Y0160200D01*
X0275500D01*
X0275334D01*
X0275167Y0160033D01*
Y0159867D01*
X0275334Y0159700D01*
X0275667D01*
X0275834Y0159867D01*
X0280100Y0167733D02*
X0280266Y0167900D01*
X0280600D01*
X0280766Y0167733D01*
Y0167067D01*
X0280600Y0166900D01*
X0280266D01*
X0280100Y0167067D01*
X0279766Y0166900D02*
X0279433D01*
X0279600D01*
Y0167900D01*
X0279766Y0167733D01*
X0278267Y0167900D02*
X0278933D01*
Y0167400D01*
X0278600Y0167567D01*
X0278434D01*
X0278267Y0167400D01*
Y0167067D01*
X0278434Y0166900D01*
X0278767D01*
X0278933Y0167067D01*
X0277934Y0166900D02*
X0277600D01*
X0277767D01*
Y0167900D01*
X0277934Y0167733D01*
X0289669Y0172807D02*
X0289835Y0172974D01*
X0290169D01*
X0290335Y0172807D01*
Y0172140D01*
X0290169Y0171974D01*
X0289835D01*
X0289669Y0172140D01*
X0288836Y0171974D02*
Y0172974D01*
X0289336Y0172474D01*
X0288669D01*
X0289669Y0174207D02*
X0289835Y0174374D01*
X0290169D01*
X0290335Y0174207D01*
Y0173540D01*
X0290169Y0173374D01*
X0289835D01*
X0289669Y0173540D01*
X0289336Y0174207D02*
X0289169Y0174374D01*
X0288836D01*
X0288669Y0174207D01*
Y0174040D01*
X0288836Y0173874D01*
X0289002D01*
X0288836D01*
X0288669Y0173707D01*
Y0173540D01*
X0288836Y0173374D01*
X0289169D01*
X0289336Y0173540D01*
X0241796Y0141464D02*
X0241089Y0142171D01*
X0240736Y0141818D01*
Y0141582D01*
X0240971Y0141346D01*
X0241207D01*
X0241560Y0141700D01*
X0241325Y0141464D02*
Y0140993D01*
X0240500Y0141346D02*
X0240264D01*
X0240029Y0141111D01*
X0240029Y0140875D01*
X0240147Y0140757D01*
X0240382D01*
X0240500Y0140875D01*
X0240382Y0140757D01*
X0240382Y0140522D01*
X0240500Y0140404D01*
X0240736D01*
X0240971Y0140639D01*
Y0140875D01*
X0239793Y0140639D02*
X0239557D01*
X0239322Y0140404D01*
X0239322Y0140168D01*
X0239793Y0139697D01*
X0240029Y0139697D01*
X0240264Y0139932D01*
Y0140168D01*
X0239793Y0140639D01*
X0240806Y0142448D02*
X0240100Y0143155D01*
X0239746Y0142801D01*
Y0142566D01*
X0239982Y0142330D01*
X0240217D01*
X0240571Y0142684D01*
X0240335Y0142448D02*
Y0141977D01*
X0239628Y0141270D02*
X0240100Y0141741D01*
X0239157D01*
X0239039Y0141859D01*
X0239039Y0142094D01*
X0239275Y0142330D01*
X0239511D01*
X0238804Y0141623D02*
X0238568D01*
X0238332Y0141388D01*
X0238332Y0141152D01*
X0238450Y0141034D01*
X0238686D01*
X0238686Y0140799D01*
X0238804Y0140681D01*
X0239039Y0140681D01*
X0239275Y0140916D01*
Y0141152D01*
X0239157Y0141270D01*
X0238921D01*
Y0141505D01*
X0238804Y0141623D01*
X0238921Y0141270D02*
X0238686Y0141034D01*
X0238721Y0144539D02*
X0238014Y0145246D01*
X0237661Y0144893D01*
Y0144657D01*
X0237896Y0144421D01*
X0238132D01*
X0238485Y0144775D01*
X0238250Y0144539D02*
Y0144068D01*
X0237543Y0143361D02*
X0238014Y0143832D01*
X0237072D01*
X0236954Y0143950D01*
X0236954Y0144186D01*
X0237189Y0144421D01*
X0237425D01*
X0236600Y0143832D02*
X0236129Y0143361D01*
X0236247Y0143243D01*
X0237189D01*
X0237307Y0143125D01*
X0239734Y0143500D02*
X0239027Y0144207D01*
X0238673Y0143853D01*
Y0143618D01*
X0238909Y0143382D01*
X0239145D01*
X0239498Y0143736D01*
X0239262Y0143500D02*
Y0143029D01*
X0238555Y0142322D02*
X0239027Y0142793D01*
X0238084D01*
X0237966Y0142911D01*
X0237966Y0143147D01*
X0238202Y0143382D01*
X0238438D01*
X0238202Y0142204D02*
Y0141968D01*
X0237966Y0141733D01*
X0237731Y0141733D01*
X0237260Y0142204D01*
X0237260Y0142440D01*
X0237495Y0142675D01*
X0237731D01*
X0237849Y0142557D01*
Y0142322D01*
X0237495Y0141968D01*
X0278166Y0171533D02*
X0278333Y0171700D01*
X0278666D01*
X0278833Y0171533D01*
Y0170867D01*
X0278666Y0170700D01*
X0278333D01*
X0278166Y0170867D01*
X0277833Y0170700D02*
X0277500D01*
X0277666D01*
Y0171700D01*
X0277833Y0171533D01*
X0276500Y0170700D02*
Y0171700D01*
X0277000Y0171200D01*
X0276334D01*
X0276000Y0171700D02*
X0275334D01*
Y0171533D01*
X0276000Y0170867D01*
Y0170700D01*
X0243514Y0146804D02*
X0244221Y0147511D01*
X0243868Y0147864D01*
X0243632D01*
X0243396Y0147629D01*
Y0147393D01*
X0243750Y0147040D01*
X0243514Y0147275D02*
X0243043D01*
X0242336Y0147982D02*
X0242807Y0147511D01*
Y0148453D01*
X0242925Y0148571D01*
X0243161Y0148571D01*
X0243396Y0148336D01*
Y0148100D01*
X0241629Y0148689D02*
X0242100Y0148218D01*
Y0149160D01*
X0242218Y0149278D01*
X0242454Y0149278D01*
X0242689Y0149043D01*
Y0148807D01*
X0308202Y0138887D02*
X0308438D01*
X0308674Y0138652D01*
Y0138416D01*
X0308202Y0137945D01*
X0307967D01*
X0307731Y0138181D01*
Y0138416D01*
X0307613Y0139712D02*
X0308085Y0139241D01*
X0307731Y0138887D01*
X0307613Y0139241D01*
X0307496Y0139359D01*
X0307260D01*
X0307024Y0139123D01*
Y0138887D01*
X0307260Y0138652D01*
X0307496D01*
X0306671Y0139241D02*
X0306435Y0139476D01*
X0306553Y0139359D01*
X0307260Y0140066D01*
Y0139830D01*
X0240200Y0198201D02*
X0241200D01*
Y0198700D01*
X0241033Y0198867D01*
X0240700D01*
X0240533Y0198700D01*
Y0198201D01*
Y0198534D02*
X0240200Y0198867D01*
Y0199867D02*
Y0199200D01*
X0240867Y0199867D01*
X0241033D01*
X0241200Y0199700D01*
Y0199367D01*
X0241033Y0199200D01*
X0240200Y0200200D02*
Y0200533D01*
Y0200367D01*
X0241200D01*
X0241033Y0200200D01*
X0240200Y0201533D02*
X0241200D01*
X0240700Y0201033D01*
Y0201699D01*
X0224766Y0147934D02*
X0224933Y0148100D01*
X0225266D01*
X0225433Y0147934D01*
Y0147267D01*
X0225266Y0147101D01*
X0224933D01*
X0224766Y0147267D01*
X0223767Y0147101D02*
X0224433D01*
X0223767Y0147767D01*
Y0147934D01*
X0223933Y0148100D01*
X0224266D01*
X0224433Y0147934D01*
X0223433Y0148100D02*
X0222767D01*
Y0147934D01*
X0223433Y0147267D01*
Y0147101D01*
X0221767D02*
X0222434D01*
X0221767Y0147767D01*
Y0147934D01*
X0221934Y0148100D01*
X0222267D01*
X0222434Y0147934D01*
X0213600Y0149634D02*
X0213766Y0149800D01*
X0214100D01*
X0214266Y0149634D01*
Y0148967D01*
X0214100Y0148801D01*
X0213766D01*
X0213600Y0148967D01*
X0212600Y0148801D02*
X0213266D01*
X0212600Y0149467D01*
Y0149634D01*
X0212767Y0149800D01*
X0213100D01*
X0213266Y0149634D01*
X0212267Y0149800D02*
X0211600D01*
Y0149634D01*
X0212267Y0148967D01*
Y0148801D01*
X0211267D02*
X0210934D01*
X0211100D01*
Y0149800D01*
X0211267Y0149634D01*
X0219300Y0151334D02*
X0219466Y0151500D01*
X0219800D01*
X0219966Y0151334D01*
Y0150667D01*
X0219800Y0150501D01*
X0219466D01*
X0219300Y0150667D01*
X0218300Y0150501D02*
X0218966D01*
X0218300Y0151167D01*
Y0151334D01*
X0218467Y0151500D01*
X0218800D01*
X0218966Y0151334D01*
X0217967Y0151500D02*
X0217300D01*
Y0151334D01*
X0217967Y0150667D01*
Y0150501D01*
X0216967Y0151334D02*
X0216800Y0151500D01*
X0216467D01*
X0216301Y0151334D01*
Y0150667D01*
X0216467Y0150501D01*
X0216800D01*
X0216967Y0150667D01*
Y0151334D01*
X0218466Y0149533D02*
X0218633Y0149700D01*
X0218966D01*
X0219133Y0149533D01*
Y0148867D01*
X0218966Y0148700D01*
X0218633D01*
X0218466Y0148867D01*
X0217467Y0148700D02*
X0218133D01*
X0217467Y0149367D01*
Y0149533D01*
X0217633Y0149700D01*
X0217966D01*
X0218133Y0149533D01*
X0216467Y0149700D02*
X0216800Y0149533D01*
X0217133Y0149200D01*
Y0148867D01*
X0216967Y0148700D01*
X0216634D01*
X0216467Y0148867D01*
Y0149033D01*
X0216634Y0149200D01*
X0217133D01*
X0216134Y0148867D02*
X0215967Y0148700D01*
X0215634D01*
X0215467Y0148867D01*
Y0149533D01*
X0215634Y0149700D01*
X0215967D01*
X0216134Y0149533D01*
Y0149367D01*
X0215967Y0149200D01*
X0215467D01*
X0225766Y0152733D02*
X0225933Y0152900D01*
X0226266D01*
X0226433Y0152733D01*
Y0152067D01*
X0226266Y0151900D01*
X0225933D01*
X0225766Y0152067D01*
X0224767Y0151900D02*
X0225433D01*
X0224767Y0152567D01*
Y0152733D01*
X0224933Y0152900D01*
X0225266D01*
X0225433Y0152733D01*
X0223767Y0152900D02*
X0224100Y0152733D01*
X0224433Y0152400D01*
Y0152067D01*
X0224267Y0151900D01*
X0223934D01*
X0223767Y0152067D01*
Y0152233D01*
X0223934Y0152400D01*
X0224433D01*
X0223434Y0152733D02*
X0223267Y0152900D01*
X0222934D01*
X0222767Y0152733D01*
Y0152567D01*
X0222934Y0152400D01*
X0222767Y0152233D01*
Y0152067D01*
X0222934Y0151900D01*
X0223267D01*
X0223434Y0152067D01*
Y0152233D01*
X0223267Y0152400D01*
X0223434Y0152567D01*
Y0152733D01*
X0223267Y0152400D02*
X0222934D01*
X0229366Y0161533D02*
X0229533Y0161700D01*
X0229866D01*
X0230033Y0161533D01*
Y0160867D01*
X0229866Y0160700D01*
X0229533D01*
X0229366Y0160867D01*
X0228367Y0160700D02*
X0229033D01*
X0228367Y0161367D01*
Y0161533D01*
X0228533Y0161700D01*
X0228866D01*
X0229033Y0161533D01*
X0227367Y0161700D02*
X0227700Y0161533D01*
X0228033Y0161200D01*
Y0160867D01*
X0227867Y0160700D01*
X0227534D01*
X0227367Y0160867D01*
Y0161033D01*
X0227534Y0161200D01*
X0228033D01*
X0227034Y0161700D02*
X0226367D01*
Y0161533D01*
X0227034Y0160867D01*
Y0160700D01*
X0221933Y0158217D02*
X0222100Y0158051D01*
Y0157718D01*
X0221933Y0157551D01*
X0221267D01*
X0221100Y0157718D01*
Y0158051D01*
X0221267Y0158217D01*
X0221100Y0159217D02*
Y0158551D01*
X0221767Y0159217D01*
X0221933D01*
X0222100Y0159050D01*
Y0158717D01*
X0221933Y0158551D01*
X0222100Y0160217D02*
X0221933Y0159884D01*
X0221600Y0159550D01*
X0221267D01*
X0221100Y0159717D01*
Y0160050D01*
X0221267Y0160217D01*
X0221433D01*
X0221600Y0160050D01*
Y0159550D01*
X0222100Y0161216D02*
X0221933Y0160883D01*
X0221600Y0160550D01*
X0221267D01*
X0221100Y0160717D01*
Y0161050D01*
X0221267Y0161216D01*
X0221433D01*
X0221600Y0161050D01*
Y0160550D01*
X0222033Y0152334D02*
X0222200Y0152167D01*
Y0151834D01*
X0222033Y0151667D01*
X0221367D01*
X0221200Y0151834D01*
Y0152167D01*
X0221367Y0152334D01*
X0221200Y0153333D02*
Y0152667D01*
X0221867Y0153333D01*
X0222033D01*
X0222200Y0153167D01*
Y0152834D01*
X0222033Y0152667D01*
X0222200Y0154333D02*
X0222033Y0154000D01*
X0221700Y0153667D01*
X0221367D01*
X0221200Y0153833D01*
Y0154166D01*
X0221367Y0154333D01*
X0221533D01*
X0221700Y0154166D01*
Y0153667D01*
X0222200Y0155333D02*
Y0154666D01*
X0221700D01*
X0221867Y0155000D01*
Y0155166D01*
X0221700Y0155333D01*
X0221367D01*
X0221200Y0155166D01*
Y0154833D01*
X0221367Y0154666D01*
X0218483Y0117634D02*
X0218650Y0117800D01*
X0218983D01*
X0219149Y0117634D01*
Y0116967D01*
X0218983Y0116801D01*
X0218650D01*
X0218483Y0116967D01*
X0217483Y0116801D02*
X0218150D01*
X0217483Y0117467D01*
Y0117634D01*
X0217650Y0117800D01*
X0217983D01*
X0218150Y0117634D01*
X0217150Y0116801D02*
X0216817D01*
X0216983D01*
Y0117800D01*
X0217150Y0117634D01*
X0215651Y0116801D02*
X0216317D01*
X0215651Y0117467D01*
Y0117634D01*
X0215817Y0117800D01*
X0216150D01*
X0216317Y0117634D01*
X0164266Y0199134D02*
X0164433Y0199300D01*
X0164766D01*
X0164933Y0199134D01*
Y0198467D01*
X0164766Y0198301D01*
X0164433D01*
X0164266Y0198467D01*
X0163933Y0199134D02*
X0163767Y0199300D01*
X0163433D01*
X0163267Y0199134D01*
Y0198967D01*
X0163433Y0198800D01*
X0163267Y0198634D01*
Y0198467D01*
X0163433Y0198301D01*
X0163767D01*
X0163933Y0198467D01*
Y0198634D01*
X0163767Y0198800D01*
X0163933Y0198967D01*
Y0199134D01*
X0163767Y0198800D02*
X0163433D01*
X0162934Y0199134D02*
X0162767Y0199300D01*
X0162434D01*
X0162267Y0199134D01*
Y0198967D01*
X0162434Y0198800D01*
X0162267Y0198634D01*
Y0198467D01*
X0162434Y0198301D01*
X0162767D01*
X0162934Y0198467D01*
Y0198634D01*
X0162767Y0198800D01*
X0162934Y0198967D01*
Y0199134D01*
X0162767Y0198800D02*
X0162434D01*
X0164266Y0197734D02*
X0164433Y0197900D01*
X0164766D01*
X0164933Y0197734D01*
Y0197067D01*
X0164766Y0196901D01*
X0164433D01*
X0164266Y0197067D01*
X0163933Y0197734D02*
X0163767Y0197900D01*
X0163433D01*
X0163267Y0197734D01*
Y0197567D01*
X0163433Y0197400D01*
X0163267Y0197234D01*
Y0197067D01*
X0163433Y0196901D01*
X0163767D01*
X0163933Y0197067D01*
Y0197234D01*
X0163767Y0197400D01*
X0163933Y0197567D01*
Y0197734D01*
X0163767Y0197400D02*
X0163433D01*
X0162934Y0197900D02*
X0162267D01*
Y0197734D01*
X0162934Y0197067D01*
Y0196901D01*
X0278083Y0193533D02*
X0278250Y0193700D01*
X0278583D01*
X0278749Y0193533D01*
Y0192867D01*
X0278583Y0192700D01*
X0278250D01*
X0278083Y0192867D01*
X0277750Y0192700D02*
X0277417D01*
X0277583D01*
Y0193700D01*
X0277750Y0193533D01*
X0276917D02*
X0276750Y0193700D01*
X0276417D01*
X0276250Y0193533D01*
Y0193367D01*
X0276417Y0193200D01*
X0276583D01*
X0276417D01*
X0276250Y0193033D01*
Y0192867D01*
X0276417Y0192700D01*
X0276750D01*
X0276917Y0192867D01*
X0275251Y0193700D02*
X0275917D01*
Y0193200D01*
X0275584Y0193367D01*
X0275417D01*
X0275251Y0193200D01*
Y0192867D01*
X0275417Y0192700D01*
X0275750D01*
X0275917Y0192867D01*
X0231133Y0153825D02*
Y0152992D01*
X0230966Y0152825D01*
X0230633D01*
X0230466Y0152992D01*
Y0153825D01*
X0229467Y0152825D02*
X0230133D01*
X0229467Y0153492D01*
Y0153658D01*
X0229633Y0153825D01*
X0229967D01*
X0230133Y0153658D01*
X0228634Y0152825D02*
Y0153825D01*
X0229134Y0153325D01*
X0228467D01*
X0184233Y0124100D02*
Y0125100D01*
X0183733D01*
X0183566Y0124933D01*
Y0124600D01*
X0183733Y0124433D01*
X0184233D01*
X0183900D02*
X0183566Y0124100D01*
X0183233D02*
Y0125100D01*
X0182733D01*
X0182567Y0124933D01*
Y0124600D01*
X0182733Y0124433D01*
X0183233D01*
X0182234Y0124933D02*
X0182067Y0125100D01*
X0181734D01*
X0181567Y0124933D01*
Y0124767D01*
X0181734Y0124600D01*
X0181567Y0124433D01*
Y0124267D01*
X0181734Y0124100D01*
X0182067D01*
X0182234Y0124267D01*
Y0124433D01*
X0182067Y0124600D01*
X0182234Y0124767D01*
Y0124933D01*
X0182067Y0124600D02*
X0181734D01*
X0244833Y0114701D02*
Y0115700D01*
X0244333D01*
X0244166Y0115534D01*
Y0115200D01*
X0244333Y0115034D01*
X0244833D01*
X0244500D02*
X0244166Y0114701D01*
X0243833D02*
Y0115700D01*
X0243333D01*
X0243167Y0115534D01*
Y0115200D01*
X0243333Y0115034D01*
X0243833D01*
X0242834Y0115700D02*
X0242167D01*
Y0115534D01*
X0242834Y0114867D01*
Y0114701D01*
X0334808Y0196997D02*
Y0197997D01*
X0334308D01*
X0334142Y0197831D01*
Y0197497D01*
X0334308Y0197331D01*
X0334808D01*
X0334475D02*
X0334142Y0196997D01*
X0333808D02*
Y0197997D01*
X0333309D01*
X0333142Y0197831D01*
Y0197497D01*
X0333309Y0197331D01*
X0333808D01*
X0332142Y0197997D02*
X0332476Y0197831D01*
X0332809Y0197497D01*
Y0197164D01*
X0332642Y0196997D01*
X0332309D01*
X0332142Y0197164D01*
Y0197331D01*
X0332309Y0197497D01*
X0332809D01*
X0184233Y0193300D02*
Y0194300D01*
X0183733D01*
X0183566Y0194133D01*
Y0193800D01*
X0183733Y0193633D01*
X0184233D01*
X0183900D02*
X0183566Y0193300D01*
X0183233D02*
Y0194300D01*
X0182733D01*
X0182567Y0194133D01*
Y0193800D01*
X0182733Y0193633D01*
X0183233D01*
X0181567Y0194300D02*
X0182234D01*
Y0193800D01*
X0181900Y0193967D01*
X0181734D01*
X0181567Y0193800D01*
Y0193467D01*
X0181734Y0193300D01*
X0182067D01*
X0182234Y0193467D01*
X0164346Y0166778D02*
X0165346D01*
Y0167278D01*
X0165179Y0167445D01*
X0164846D01*
X0164680Y0167278D01*
Y0166778D01*
Y0167112D02*
X0164346Y0167445D01*
X0165179Y0167778D02*
X0165346Y0167945D01*
Y0168278D01*
X0165179Y0168445D01*
X0165013D01*
X0164846Y0168278D01*
Y0168111D01*
Y0168278D01*
X0164680Y0168445D01*
X0164513D01*
X0164346Y0168278D01*
Y0167945D01*
X0164513Y0167778D01*
X0165346Y0169444D02*
Y0168778D01*
X0164846D01*
X0165013Y0169111D01*
Y0169278D01*
X0164846Y0169444D01*
X0164513D01*
X0164346Y0169278D01*
Y0168944D01*
X0164513Y0168778D01*
X0164346Y0170444D02*
Y0169777D01*
X0165013Y0170444D01*
X0165179D01*
X0165346Y0170277D01*
Y0169944D01*
X0165179Y0169777D01*
X0162546Y0171212D02*
X0163546D01*
Y0171712D01*
X0163379Y0171878D01*
X0163046D01*
X0162880Y0171712D01*
Y0171212D01*
Y0171545D02*
X0162546Y0171878D01*
X0163379Y0172212D02*
X0163546Y0172378D01*
Y0172711D01*
X0163379Y0172878D01*
X0163213D01*
X0163046Y0172711D01*
Y0172545D01*
Y0172711D01*
X0162880Y0172878D01*
X0162713D01*
X0162546Y0172711D01*
Y0172378D01*
X0162713Y0172212D01*
X0162546Y0173711D02*
X0163546D01*
X0163046Y0173211D01*
Y0173878D01*
X0162546Y0174711D02*
X0163546D01*
X0163046Y0174211D01*
Y0174877D01*
X0164346Y0150695D02*
X0165346D01*
Y0151195D01*
X0165179Y0151362D01*
X0164846D01*
X0164680Y0151195D01*
Y0150695D01*
Y0151028D02*
X0164346Y0151362D01*
X0165179Y0151695D02*
X0165346Y0151861D01*
Y0152195D01*
X0165179Y0152361D01*
X0165013D01*
X0164846Y0152195D01*
Y0152028D01*
Y0152195D01*
X0164680Y0152361D01*
X0164513D01*
X0164346Y0152195D01*
Y0151861D01*
X0164513Y0151695D01*
X0164346Y0153361D02*
Y0152694D01*
X0165013Y0153361D01*
X0165179D01*
X0165346Y0153194D01*
Y0152861D01*
X0165179Y0152694D01*
X0165346Y0154361D02*
Y0153694D01*
X0164846D01*
X0165013Y0154027D01*
Y0154194D01*
X0164846Y0154361D01*
X0164513D01*
X0164346Y0154194D01*
Y0153861D01*
X0164513Y0153694D01*
X0162546Y0155462D02*
X0163546D01*
Y0155962D01*
X0163379Y0156128D01*
X0163046D01*
X0162880Y0155962D01*
Y0155462D01*
Y0155795D02*
X0162546Y0156128D01*
X0163379Y0156461D02*
X0163546Y0156628D01*
Y0156961D01*
X0163379Y0157128D01*
X0163213D01*
X0163046Y0156961D01*
Y0156795D01*
Y0156961D01*
X0162880Y0157128D01*
X0162713D01*
X0162546Y0156961D01*
Y0156628D01*
X0162713Y0156461D01*
X0162546Y0157461D02*
Y0157794D01*
Y0157628D01*
X0163546D01*
X0163379Y0157461D01*
X0163546Y0158294D02*
Y0158961D01*
X0163379D01*
X0162713Y0158294D01*
X0162546D01*
X0164346Y0134778D02*
X0165346D01*
Y0135278D01*
X0165179Y0135445D01*
X0164846D01*
X0164680Y0135278D01*
Y0134778D01*
Y0135112D02*
X0164346Y0135445D01*
Y0136445D02*
Y0135778D01*
X0165013Y0136445D01*
X0165179D01*
X0165346Y0136278D01*
Y0135945D01*
X0165179Y0135778D01*
X0165346Y0136778D02*
Y0137444D01*
X0165179D01*
X0164513Y0136778D01*
X0164346D01*
X0164513Y0137777D02*
X0164346Y0137944D01*
Y0138277D01*
X0164513Y0138444D01*
X0165179D01*
X0165346Y0138277D01*
Y0137944D01*
X0165179Y0137777D01*
X0165013D01*
X0164846Y0137944D01*
Y0138444D01*
X0162546Y0139545D02*
X0163546D01*
Y0140045D01*
X0163379Y0140212D01*
X0163046D01*
X0162880Y0140045D01*
Y0139545D01*
Y0139878D02*
X0162546Y0140212D01*
Y0141211D02*
Y0140545D01*
X0163213Y0141211D01*
X0163379D01*
X0163546Y0141045D01*
Y0140711D01*
X0163379Y0140545D01*
X0163546Y0141544D02*
Y0142211D01*
X0163379D01*
X0162713Y0141544D01*
X0162546D01*
Y0142544D02*
Y0142877D01*
Y0142711D01*
X0163546D01*
X0163379Y0142544D01*
X0164346Y0118778D02*
X0165346D01*
Y0119278D01*
X0165179Y0119445D01*
X0164846D01*
X0164680Y0119278D01*
Y0118778D01*
Y0119112D02*
X0164346Y0119445D01*
Y0120445D02*
Y0119778D01*
X0165013Y0120445D01*
X0165179D01*
X0165346Y0120278D01*
Y0119945D01*
X0165179Y0119778D01*
X0165346Y0121444D02*
Y0120778D01*
X0164846D01*
X0165013Y0121111D01*
Y0121278D01*
X0164846Y0121444D01*
X0164513D01*
X0164346Y0121278D01*
Y0120944D01*
X0164513Y0120778D01*
X0164346Y0122444D02*
Y0121777D01*
X0165013Y0122444D01*
X0165179D01*
X0165346Y0122277D01*
Y0121944D01*
X0165179Y0121777D01*
X0162546Y0123378D02*
X0163546D01*
Y0123878D01*
X0163379Y0124045D01*
X0163046D01*
X0162880Y0123878D01*
Y0123378D01*
Y0123712D02*
X0162546Y0124045D01*
Y0125045D02*
Y0124378D01*
X0163213Y0125045D01*
X0163379D01*
X0163546Y0124878D01*
Y0124545D01*
X0163379Y0124378D01*
X0162546Y0125878D02*
X0163546D01*
X0163046Y0125378D01*
Y0126044D01*
X0162546Y0126877D02*
X0163546D01*
X0163046Y0126377D01*
Y0127044D01*
X0251146Y0201862D02*
X0252146D01*
Y0202362D01*
X0251979Y0202528D01*
X0251646D01*
X0251480Y0202362D01*
Y0201862D01*
Y0202195D02*
X0251146Y0202528D01*
Y0203528D02*
Y0202861D01*
X0251813Y0203528D01*
X0251979D01*
X0252146Y0203361D01*
Y0203028D01*
X0251979Y0202861D01*
X0251146Y0203861D02*
Y0204194D01*
Y0204028D01*
X0252146D01*
X0251979Y0203861D01*
X0252146Y0204694D02*
Y0205361D01*
X0251979D01*
X0251313Y0204694D01*
X0251146D01*
X0254146Y0201962D02*
X0255146D01*
Y0202462D01*
X0254979Y0202628D01*
X0254646D01*
X0254480Y0202462D01*
Y0201962D01*
Y0202295D02*
X0254146Y0202628D01*
Y0203628D02*
Y0202961D01*
X0254813Y0203628D01*
X0254979D01*
X0255146Y0203461D01*
Y0203128D01*
X0254979Y0202961D01*
X0254146Y0203961D02*
Y0204294D01*
Y0204128D01*
X0255146D01*
X0254979Y0203961D01*
X0255146Y0205461D02*
X0254979Y0205127D01*
X0254646Y0204794D01*
X0254313D01*
X0254146Y0204961D01*
Y0205294D01*
X0254313Y0205461D01*
X0254480D01*
X0254646Y0205294D01*
Y0204794D01*
X0257146Y0201962D02*
X0258146D01*
Y0202462D01*
X0257979Y0202628D01*
X0257646D01*
X0257480Y0202462D01*
Y0201962D01*
Y0202295D02*
X0257146Y0202628D01*
Y0203628D02*
Y0202961D01*
X0257813Y0203628D01*
X0257979D01*
X0258146Y0203461D01*
Y0203128D01*
X0257979Y0202961D01*
X0257146Y0203961D02*
Y0204294D01*
Y0204128D01*
X0258146D01*
X0257979Y0203961D01*
X0258146Y0205461D02*
Y0204794D01*
X0257646D01*
X0257813Y0205127D01*
Y0205294D01*
X0257646Y0205461D01*
X0257313D01*
X0257146Y0205294D01*
Y0204961D01*
X0257313Y0204794D01*
X0232700Y0141551D02*
X0233700D01*
Y0142050D01*
X0233533Y0142217D01*
X0233200D01*
X0233033Y0142050D01*
Y0141551D01*
Y0141884D02*
X0232700Y0142217D01*
Y0142550D02*
Y0142883D01*
Y0142717D01*
X0233700D01*
X0233533Y0142550D01*
Y0143383D02*
X0233700Y0143550D01*
Y0143883D01*
X0233533Y0144050D01*
X0233367D01*
X0233200Y0143883D01*
Y0143717D01*
Y0143883D01*
X0233033Y0144050D01*
X0232867D01*
X0232700Y0143883D01*
Y0143550D01*
X0232867Y0143383D01*
X0233533Y0144383D02*
X0233700Y0144550D01*
Y0144883D01*
X0233533Y0145049D01*
X0233367D01*
X0233200Y0144883D01*
Y0144716D01*
Y0144883D01*
X0233033Y0145049D01*
X0232867D01*
X0232700Y0144883D01*
Y0144550D01*
X0232867Y0144383D01*
X0231200Y0141551D02*
X0232200D01*
Y0142050D01*
X0232033Y0142217D01*
X0231700D01*
X0231533Y0142050D01*
Y0141551D01*
Y0141884D02*
X0231200Y0142217D01*
Y0142550D02*
Y0142883D01*
Y0142717D01*
X0232200D01*
X0232033Y0142550D01*
Y0143383D02*
X0232200Y0143550D01*
Y0143883D01*
X0232033Y0144050D01*
X0231867D01*
X0231700Y0143883D01*
Y0143717D01*
Y0143883D01*
X0231533Y0144050D01*
X0231367D01*
X0231200Y0143883D01*
Y0143550D01*
X0231367Y0143383D01*
X0231200Y0145049D02*
Y0144383D01*
X0231867Y0145049D01*
X0232033D01*
X0232200Y0144883D01*
Y0144550D01*
X0232033Y0144383D01*
X0234225Y0149467D02*
X0235225D01*
Y0149967D01*
X0235058Y0150134D01*
X0234725D01*
X0234558Y0149967D01*
Y0149467D01*
Y0149800D02*
X0234225Y0150134D01*
Y0150467D02*
Y0150800D01*
Y0150633D01*
X0235225D01*
X0235058Y0150467D01*
Y0151300D02*
X0235225Y0151467D01*
Y0151800D01*
X0235058Y0151966D01*
X0234892D01*
X0234725Y0151800D01*
Y0151633D01*
Y0151800D01*
X0234558Y0151966D01*
X0234392D01*
X0234225Y0151800D01*
Y0151467D01*
X0234392Y0151300D01*
X0234225Y0152300D02*
Y0152633D01*
Y0152466D01*
X0235225D01*
X0235058Y0152300D01*
X0229700Y0141551D02*
X0230700D01*
Y0142050D01*
X0230533Y0142217D01*
X0230200D01*
X0230033Y0142050D01*
Y0141551D01*
Y0141884D02*
X0229700Y0142217D01*
Y0142550D02*
Y0142883D01*
Y0142717D01*
X0230700D01*
X0230533Y0142550D01*
Y0143383D02*
X0230700Y0143550D01*
Y0143883D01*
X0230533Y0144050D01*
X0230367D01*
X0230200Y0143883D01*
Y0143717D01*
Y0143883D01*
X0230033Y0144050D01*
X0229867D01*
X0229700Y0143883D01*
Y0143550D01*
X0229867Y0143383D01*
X0230533Y0144383D02*
X0230700Y0144550D01*
Y0144883D01*
X0230533Y0145049D01*
X0229867D01*
X0229700Y0144883D01*
Y0144550D01*
X0229867Y0144383D01*
X0230533D01*
X0282600Y0156734D02*
X0283600D01*
Y0157234D01*
X0283433Y0157400D01*
X0283100D01*
X0282933Y0157234D01*
Y0156734D01*
Y0157067D02*
X0282600Y0157400D01*
X0283433Y0157733D02*
X0283600Y0157900D01*
Y0158233D01*
X0283433Y0158400D01*
X0283267D01*
X0283100Y0158233D01*
Y0158067D01*
Y0158233D01*
X0282933Y0158400D01*
X0282767D01*
X0282600Y0158233D01*
Y0157900D01*
X0282767Y0157733D01*
X0282600Y0158733D02*
Y0159066D01*
Y0158900D01*
X0283600D01*
X0283433Y0158733D01*
X0101800Y0183867D02*
X0102800D01*
Y0184367D01*
X0102633Y0184534D01*
X0102300D01*
X0102133Y0184367D01*
Y0183867D01*
Y0184200D02*
X0101800Y0184534D01*
Y0185533D02*
Y0184867D01*
X0102467Y0185533D01*
X0102633D01*
X0102800Y0185367D01*
Y0185033D01*
X0102633Y0184867D01*
X0102800Y0186533D02*
X0102633Y0186200D01*
X0102300Y0185866D01*
X0101967D01*
X0101800Y0186033D01*
Y0186366D01*
X0101967Y0186533D01*
X0102133D01*
X0102300Y0186366D01*
Y0185866D01*
X0272558Y0142275D02*
Y0143275D01*
X0272058D01*
X0271891Y0143108D01*
Y0142775D01*
X0272058Y0142608D01*
X0272558D01*
X0272225D02*
X0271891Y0142275D01*
X0270892D02*
X0271558D01*
X0270892Y0142942D01*
Y0143108D01*
X0271058Y0143275D01*
X0271392D01*
X0271558Y0143108D01*
X0269892Y0143275D02*
X0270559D01*
Y0142775D01*
X0270225Y0142942D01*
X0270059D01*
X0269892Y0142775D01*
Y0142442D01*
X0270059Y0142275D01*
X0270392D01*
X0270559Y0142442D01*
X0272608Y0134250D02*
Y0135250D01*
X0272108D01*
X0271941Y0135083D01*
Y0134750D01*
X0272108Y0134583D01*
X0272608D01*
X0272275D02*
X0271941Y0134250D01*
X0270942D02*
X0271608D01*
X0270942Y0134917D01*
Y0135083D01*
X0271108Y0135250D01*
X0271442D01*
X0271608Y0135083D01*
X0270109Y0134250D02*
Y0135250D01*
X0270609Y0134750D01*
X0269942D01*
X0274775Y0125800D02*
Y0126800D01*
X0274275D01*
X0274108Y0126633D01*
Y0126300D01*
X0274275Y0126133D01*
X0274775D01*
X0274441D02*
X0274108Y0125800D01*
X0273775D02*
X0273442D01*
X0273608D01*
Y0126800D01*
X0273775Y0126633D01*
X0272942D02*
X0272775Y0126800D01*
X0272442D01*
X0272275Y0126633D01*
Y0126467D01*
X0272442Y0126300D01*
X0272275Y0126133D01*
Y0125967D01*
X0272442Y0125800D01*
X0272775D01*
X0272942Y0125967D01*
Y0126133D01*
X0272775Y0126300D01*
X0272942Y0126467D01*
Y0126633D01*
X0272775Y0126300D02*
X0272442D01*
X0271650Y0125800D02*
Y0126800D01*
X0271150D01*
X0270983Y0126633D01*
Y0126300D01*
X0271150Y0126133D01*
X0271650D01*
X0271316D02*
X0270983Y0125800D01*
X0270650D02*
X0270317D01*
X0270483D01*
Y0126800D01*
X0270650Y0126633D01*
X0269817Y0126800D02*
X0269150D01*
Y0126633D01*
X0269817Y0125967D01*
Y0125800D01*
X0268725D02*
Y0126800D01*
X0268225D01*
X0268058Y0126633D01*
Y0126300D01*
X0268225Y0126133D01*
X0268725D01*
X0268391D02*
X0268058Y0125800D01*
X0267725D02*
X0267392D01*
X0267558D01*
Y0126800D01*
X0267725Y0126633D01*
X0266225Y0126800D02*
X0266559Y0126633D01*
X0266892Y0126300D01*
Y0125967D01*
X0266725Y0125800D01*
X0266392D01*
X0266225Y0125967D01*
Y0126133D01*
X0266392Y0126300D01*
X0266892D01*
X0262975Y0122100D02*
X0263975D01*
Y0122600D01*
X0263808Y0122767D01*
X0263475D01*
X0263308Y0122600D01*
Y0122100D01*
Y0122434D02*
X0262975Y0122767D01*
Y0123100D02*
Y0123433D01*
Y0123267D01*
X0263975D01*
X0263808Y0123100D01*
X0263975Y0124600D02*
Y0123933D01*
X0263475D01*
X0263642Y0124266D01*
Y0124433D01*
X0263475Y0124600D01*
X0263142D01*
X0262975Y0124433D01*
Y0124100D01*
X0263142Y0123933D01*
X0245100Y0202367D02*
X0244100D01*
Y0202867D01*
X0244267Y0203033D01*
X0244933D01*
X0245100Y0202867D01*
Y0202367D01*
X0244267Y0203367D02*
X0244100Y0203533D01*
Y0203866D01*
X0244267Y0204033D01*
X0244933D01*
X0245100Y0203866D01*
Y0203533D01*
X0244933Y0203367D01*
X0244767D01*
X0244600Y0203533D01*
Y0204033D01*
X0119479Y0166545D02*
X0119646Y0166378D01*
Y0166045D01*
X0119479Y0165878D01*
X0118813D01*
X0118646Y0166045D01*
Y0166378D01*
X0118813Y0166545D01*
X0119479Y0166878D02*
X0119646Y0167045D01*
Y0167378D01*
X0119479Y0167545D01*
X0119313D01*
X0119146Y0167378D01*
Y0167211D01*
Y0167378D01*
X0118980Y0167545D01*
X0118813D01*
X0118646Y0167378D01*
Y0167045D01*
X0118813Y0166878D01*
X0119479Y0167878D02*
X0119646Y0168044D01*
Y0168378D01*
X0119479Y0168544D01*
X0118813D01*
X0118646Y0168378D01*
Y0168044D01*
X0118813Y0167878D01*
X0119479D01*
X0119646Y0169544D02*
X0119479Y0169211D01*
X0119146Y0168877D01*
X0118813D01*
X0118646Y0169044D01*
Y0169377D01*
X0118813Y0169544D01*
X0118980D01*
X0119146Y0169377D01*
Y0168877D01*
X0138679Y0166944D02*
X0138846Y0167111D01*
X0139179D01*
X0139346Y0166944D01*
Y0166278D01*
X0139179Y0166111D01*
X0138846D01*
X0138679Y0166278D01*
X0138346Y0166944D02*
X0138179Y0167111D01*
X0137846D01*
X0137679Y0166944D01*
Y0166778D01*
X0137846Y0166611D01*
X0138013D01*
X0137846D01*
X0137679Y0166445D01*
Y0166278D01*
X0137846Y0166111D01*
X0138179D01*
X0138346Y0166278D01*
X0137346Y0166944D02*
X0137180Y0167111D01*
X0136846D01*
X0136680Y0166944D01*
Y0166278D01*
X0136846Y0166111D01*
X0137180D01*
X0137346Y0166278D01*
Y0166944D01*
X0135680Y0167111D02*
X0136346D01*
Y0166611D01*
X0136013Y0166778D01*
X0135847D01*
X0135680Y0166611D01*
Y0166278D01*
X0135847Y0166111D01*
X0136180D01*
X0136346Y0166278D01*
X0159996Y0164444D02*
X0160162Y0164611D01*
X0160496D01*
X0160662Y0164444D01*
Y0163778D01*
X0160496Y0163611D01*
X0160162D01*
X0159996Y0163778D01*
X0159663Y0164444D02*
X0159496Y0164611D01*
X0159163D01*
X0158996Y0164444D01*
Y0164278D01*
X0159163Y0164111D01*
X0159329D01*
X0159163D01*
X0158996Y0163945D01*
Y0163778D01*
X0159163Y0163611D01*
X0159496D01*
X0159663Y0163778D01*
X0158663Y0164444D02*
X0158496Y0164611D01*
X0158163D01*
X0157996Y0164444D01*
Y0163778D01*
X0158163Y0163611D01*
X0158496D01*
X0158663Y0163778D01*
Y0164444D01*
X0156997Y0163611D02*
X0157663D01*
X0156997Y0164278D01*
Y0164444D01*
X0157163Y0164611D01*
X0157497D01*
X0157663Y0164444D01*
X0158296Y0169044D02*
X0158462Y0169211D01*
X0158796D01*
X0158962Y0169044D01*
Y0168378D01*
X0158796Y0168211D01*
X0158462D01*
X0158296Y0168378D01*
X0157296Y0168211D02*
X0157963D01*
X0157296Y0168878D01*
Y0169044D01*
X0157463Y0169211D01*
X0157796D01*
X0157963Y0169044D01*
X0156963Y0168378D02*
X0156796Y0168211D01*
X0156463D01*
X0156296Y0168378D01*
Y0169044D01*
X0156463Y0169211D01*
X0156796D01*
X0156963Y0169044D01*
Y0168878D01*
X0156796Y0168711D01*
X0156296D01*
X0155297Y0169211D02*
X0155630Y0169044D01*
X0155963Y0168711D01*
Y0168378D01*
X0155797Y0168211D01*
X0155463D01*
X0155297Y0168378D01*
Y0168545D01*
X0155463Y0168711D01*
X0155963D01*
X0119479Y0150545D02*
X0119646Y0150378D01*
Y0150045D01*
X0119479Y0149878D01*
X0118813D01*
X0118646Y0150045D01*
Y0150378D01*
X0118813Y0150545D01*
X0118646Y0151545D02*
Y0150878D01*
X0119313Y0151545D01*
X0119479D01*
X0119646Y0151378D01*
Y0151045D01*
X0119479Y0150878D01*
Y0151878D02*
X0119646Y0152044D01*
Y0152378D01*
X0119479Y0152544D01*
X0119313D01*
X0119146Y0152378D01*
X0118980Y0152544D01*
X0118813D01*
X0118646Y0152378D01*
Y0152044D01*
X0118813Y0151878D01*
X0118980D01*
X0119146Y0152044D01*
X0119313Y0151878D01*
X0119479D01*
X0119146Y0152044D02*
Y0152378D01*
X0118813Y0152877D02*
X0118646Y0153044D01*
Y0153377D01*
X0118813Y0153544D01*
X0119479D01*
X0119646Y0153377D01*
Y0153044D01*
X0119479Y0152877D01*
X0119313D01*
X0119146Y0153044D01*
Y0153544D01*
X0138679Y0150944D02*
X0138846Y0151111D01*
X0139179D01*
X0139346Y0150944D01*
Y0150278D01*
X0139179Y0150111D01*
X0138846D01*
X0138679Y0150278D01*
X0137679Y0150111D02*
X0138346D01*
X0137679Y0150778D01*
Y0150944D01*
X0137846Y0151111D01*
X0138179D01*
X0138346Y0150944D01*
X0137346D02*
X0137180Y0151111D01*
X0136846D01*
X0136680Y0150944D01*
Y0150778D01*
X0136846Y0150611D01*
X0136680Y0150445D01*
Y0150278D01*
X0136846Y0150111D01*
X0137180D01*
X0137346Y0150278D01*
Y0150445D01*
X0137180Y0150611D01*
X0137346Y0150778D01*
Y0150944D01*
X0137180Y0150611D02*
X0136846D01*
X0136346Y0150944D02*
X0136180Y0151111D01*
X0135847D01*
X0135680Y0150944D01*
Y0150778D01*
X0135847Y0150611D01*
X0135680Y0150445D01*
Y0150278D01*
X0135847Y0150111D01*
X0136180D01*
X0136346Y0150278D01*
Y0150445D01*
X0136180Y0150611D01*
X0136346Y0150778D01*
Y0150944D01*
X0136180Y0150611D02*
X0135847D01*
X0159996Y0148444D02*
X0160162Y0148611D01*
X0160496D01*
X0160662Y0148444D01*
Y0147778D01*
X0160496Y0147611D01*
X0160162D01*
X0159996Y0147778D01*
X0158996Y0147611D02*
X0159663D01*
X0158996Y0148278D01*
Y0148444D01*
X0159163Y0148611D01*
X0159496D01*
X0159663Y0148444D01*
X0158663D02*
X0158496Y0148611D01*
X0158163D01*
X0157996Y0148444D01*
Y0148278D01*
X0158163Y0148111D01*
X0157996Y0147945D01*
Y0147778D01*
X0158163Y0147611D01*
X0158496D01*
X0158663Y0147778D01*
Y0147945D01*
X0158496Y0148111D01*
X0158663Y0148278D01*
Y0148444D01*
X0158496Y0148111D02*
X0158163D01*
X0156997Y0148611D02*
X0157663D01*
Y0148111D01*
X0157330Y0148278D01*
X0157163D01*
X0156997Y0148111D01*
Y0147778D01*
X0157163Y0147611D01*
X0157497D01*
X0157663Y0147778D01*
X0158296Y0153044D02*
X0158462Y0153211D01*
X0158796D01*
X0158962Y0153044D01*
Y0152378D01*
X0158796Y0152211D01*
X0158462D01*
X0158296Y0152378D01*
X0157296Y0152211D02*
X0157963D01*
X0157296Y0152878D01*
Y0153044D01*
X0157463Y0153211D01*
X0157796D01*
X0157963Y0153044D01*
X0156963Y0153211D02*
X0156296D01*
Y0153044D01*
X0156963Y0152378D01*
Y0152211D01*
X0155963Y0152378D02*
X0155797Y0152211D01*
X0155463D01*
X0155297Y0152378D01*
Y0153044D01*
X0155463Y0153211D01*
X0155797D01*
X0155963Y0153044D01*
Y0152878D01*
X0155797Y0152711D01*
X0155297D01*
X0119479Y0134545D02*
X0119646Y0134378D01*
Y0134045D01*
X0119479Y0133878D01*
X0118813D01*
X0118646Y0134045D01*
Y0134378D01*
X0118813Y0134545D01*
X0118646Y0135545D02*
Y0134878D01*
X0119313Y0135545D01*
X0119479D01*
X0119646Y0135378D01*
Y0135045D01*
X0119479Y0134878D01*
X0118646Y0136378D02*
X0119646D01*
X0119146Y0135878D01*
Y0136544D01*
X0118813Y0136877D02*
X0118646Y0137044D01*
Y0137377D01*
X0118813Y0137544D01*
X0119479D01*
X0119646Y0137377D01*
Y0137044D01*
X0119479Y0136877D01*
X0119313D01*
X0119146Y0137044D01*
Y0137544D01*
X0138679Y0134944D02*
X0138846Y0135111D01*
X0139179D01*
X0139346Y0134944D01*
Y0134278D01*
X0139179Y0134111D01*
X0138846D01*
X0138679Y0134278D01*
X0137679Y0134111D02*
X0138346D01*
X0137679Y0134778D01*
Y0134944D01*
X0137846Y0135111D01*
X0138179D01*
X0138346Y0134944D01*
X0136846Y0134111D02*
Y0135111D01*
X0137346Y0134611D01*
X0136680D01*
X0136346Y0134944D02*
X0136180Y0135111D01*
X0135847D01*
X0135680Y0134944D01*
Y0134778D01*
X0135847Y0134611D01*
X0135680Y0134445D01*
Y0134278D01*
X0135847Y0134111D01*
X0136180D01*
X0136346Y0134278D01*
Y0134445D01*
X0136180Y0134611D01*
X0136346Y0134778D01*
Y0134944D01*
X0136180Y0134611D02*
X0135847D01*
X0159996Y0132444D02*
X0160162Y0132611D01*
X0160496D01*
X0160662Y0132444D01*
Y0131778D01*
X0160496Y0131611D01*
X0160162D01*
X0159996Y0131778D01*
X0158996Y0131611D02*
X0159663D01*
X0158996Y0132278D01*
Y0132444D01*
X0159163Y0132611D01*
X0159496D01*
X0159663Y0132444D01*
X0158163Y0131611D02*
Y0132611D01*
X0158663Y0132111D01*
X0157996D01*
X0156997Y0132611D02*
X0157663D01*
Y0132111D01*
X0157330Y0132278D01*
X0157163D01*
X0156997Y0132111D01*
Y0131778D01*
X0157163Y0131611D01*
X0157497D01*
X0157663Y0131778D01*
X0158296Y0137044D02*
X0158462Y0137211D01*
X0158796D01*
X0158962Y0137044D01*
Y0136378D01*
X0158796Y0136211D01*
X0158462D01*
X0158296Y0136378D01*
X0157296Y0136211D02*
X0157963D01*
X0157296Y0136878D01*
Y0137044D01*
X0157463Y0137211D01*
X0157796D01*
X0157963Y0137044D01*
X0156963D02*
X0156796Y0137211D01*
X0156463D01*
X0156296Y0137044D01*
Y0136878D01*
X0156463Y0136711D01*
X0156630D01*
X0156463D01*
X0156296Y0136545D01*
Y0136378D01*
X0156463Y0136211D01*
X0156796D01*
X0156963Y0136378D01*
X0155963D02*
X0155797Y0136211D01*
X0155463D01*
X0155297Y0136378D01*
Y0137044D01*
X0155463Y0137211D01*
X0155797D01*
X0155963Y0137044D01*
Y0136878D01*
X0155797Y0136711D01*
X0155297D01*
X0119479Y0118545D02*
X0119646Y0118378D01*
Y0118045D01*
X0119479Y0117878D01*
X0118813D01*
X0118646Y0118045D01*
Y0118378D01*
X0118813Y0118545D01*
X0118646Y0119545D02*
Y0118878D01*
X0119313Y0119545D01*
X0119479D01*
X0119646Y0119378D01*
Y0119045D01*
X0119479Y0118878D01*
Y0119878D02*
X0119646Y0120044D01*
Y0120378D01*
X0119479Y0120544D01*
X0119313D01*
X0119146Y0120378D01*
Y0120211D01*
Y0120378D01*
X0118980Y0120544D01*
X0118813D01*
X0118646Y0120378D01*
Y0120044D01*
X0118813Y0119878D01*
X0118646Y0121544D02*
Y0120877D01*
X0119313Y0121544D01*
X0119479D01*
X0119646Y0121377D01*
Y0121044D01*
X0119479Y0120877D01*
X0138346Y0118944D02*
X0138512Y0119111D01*
X0138846D01*
X0139012Y0118944D01*
Y0118278D01*
X0138846Y0118111D01*
X0138512D01*
X0138346Y0118278D01*
X0137346Y0118111D02*
X0138013D01*
X0137346Y0118778D01*
Y0118944D01*
X0137513Y0119111D01*
X0137846D01*
X0138013Y0118944D01*
X0137013D02*
X0136846Y0119111D01*
X0136513D01*
X0136346Y0118944D01*
Y0118778D01*
X0136513Y0118611D01*
X0136680D01*
X0136513D01*
X0136346Y0118445D01*
Y0118278D01*
X0136513Y0118111D01*
X0136846D01*
X0137013Y0118278D01*
X0136013Y0118111D02*
X0135680D01*
X0135847D01*
Y0119111D01*
X0136013Y0118944D01*
X0159912Y0116444D02*
X0160079Y0116611D01*
X0160412D01*
X0160579Y0116444D01*
Y0115778D01*
X0160412Y0115611D01*
X0160079D01*
X0159912Y0115778D01*
X0158913Y0115611D02*
X0159579D01*
X0158913Y0116278D01*
Y0116444D01*
X0159079Y0116611D01*
X0159413D01*
X0159579Y0116444D01*
X0157913Y0115611D02*
X0158580D01*
X0157913Y0116278D01*
Y0116444D01*
X0158080Y0116611D01*
X0158413D01*
X0158580Y0116444D01*
X0157580D02*
X0157413Y0116611D01*
X0157080D01*
X0156913Y0116444D01*
Y0116278D01*
X0157080Y0116111D01*
X0156913Y0115945D01*
Y0115778D01*
X0157080Y0115611D01*
X0157413D01*
X0157580Y0115778D01*
Y0115945D01*
X0157413Y0116111D01*
X0157580Y0116278D01*
Y0116444D01*
X0157413Y0116111D02*
X0157080D01*
X0158212Y0121044D02*
X0158379Y0121211D01*
X0158712D01*
X0158879Y0121044D01*
Y0120378D01*
X0158712Y0120211D01*
X0158379D01*
X0158212Y0120378D01*
X0157213Y0120211D02*
X0157879D01*
X0157213Y0120878D01*
Y0121044D01*
X0157379Y0121211D01*
X0157713D01*
X0157879Y0121044D01*
X0156213Y0120211D02*
X0156880D01*
X0156213Y0120878D01*
Y0121044D01*
X0156380Y0121211D01*
X0156713D01*
X0156880Y0121044D01*
X0155213Y0120211D02*
X0155880D01*
X0155213Y0120878D01*
Y0121044D01*
X0155380Y0121211D01*
X0155713D01*
X0155880Y0121044D01*
X0224683Y0115934D02*
X0224850Y0116100D01*
X0225183D01*
X0225349Y0115934D01*
Y0115267D01*
X0225183Y0115101D01*
X0224850D01*
X0224683Y0115267D01*
X0223683Y0115101D02*
X0224350D01*
X0223683Y0115767D01*
Y0115934D01*
X0223850Y0116100D01*
X0224183D01*
X0224350Y0115934D01*
X0223350Y0115101D02*
X0223017D01*
X0223183D01*
Y0116100D01*
X0223350Y0115934D01*
X0221851Y0116100D02*
X0222517D01*
Y0115600D01*
X0222184Y0115767D01*
X0222017D01*
X0221851Y0115600D01*
Y0115267D01*
X0222017Y0115101D01*
X0222350D01*
X0222517Y0115267D01*
X0213683Y0117634D02*
X0213850Y0117800D01*
X0214183D01*
X0214349Y0117634D01*
Y0116967D01*
X0214183Y0116801D01*
X0213850D01*
X0213683Y0116967D01*
X0212683Y0116801D02*
X0213350D01*
X0212683Y0117467D01*
Y0117634D01*
X0212850Y0117800D01*
X0213183D01*
X0213350Y0117634D01*
X0212350Y0116801D02*
X0212017D01*
X0212183D01*
Y0117800D01*
X0212350Y0117634D01*
X0211017Y0116801D02*
Y0117800D01*
X0211517Y0117300D01*
X0210851D01*
X0219383Y0119334D02*
X0219550Y0119500D01*
X0219883D01*
X0220049Y0119334D01*
Y0118667D01*
X0219883Y0118501D01*
X0219550D01*
X0219383Y0118667D01*
X0218383Y0118501D02*
X0219050D01*
X0218383Y0119167D01*
Y0119334D01*
X0218550Y0119500D01*
X0218883D01*
X0219050Y0119334D01*
X0218050Y0118501D02*
X0217717D01*
X0217883D01*
Y0119500D01*
X0218050Y0119334D01*
X0217217D02*
X0217050Y0119500D01*
X0216717D01*
X0216551Y0119334D01*
Y0119167D01*
X0216717Y0119000D01*
X0216884D01*
X0216717D01*
X0216551Y0118834D01*
Y0118667D01*
X0216717Y0118501D01*
X0217050D01*
X0217217Y0118667D01*
X0225516Y0120734D02*
X0225683Y0120900D01*
X0226016D01*
X0226183Y0120734D01*
Y0120067D01*
X0226016Y0119901D01*
X0225683D01*
X0225516Y0120067D01*
X0224517Y0119901D02*
X0225183D01*
X0224517Y0120567D01*
Y0120734D01*
X0224683Y0120900D01*
X0225017D01*
X0225183Y0120734D01*
X0224183Y0119901D02*
X0223850D01*
X0224017D01*
Y0120900D01*
X0224183Y0120734D01*
X0223350Y0119901D02*
X0223017D01*
X0223184D01*
Y0120900D01*
X0223350Y0120734D01*
X0229283Y0129534D02*
X0229450Y0129700D01*
X0229783D01*
X0229949Y0129534D01*
Y0128867D01*
X0229783Y0128701D01*
X0229450D01*
X0229283Y0128867D01*
X0228283Y0128701D02*
X0228950D01*
X0228283Y0129367D01*
Y0129534D01*
X0228450Y0129700D01*
X0228783D01*
X0228950Y0129534D01*
X0227950Y0128701D02*
X0227617D01*
X0227783D01*
Y0129700D01*
X0227950Y0129534D01*
X0227117D02*
X0226950Y0129700D01*
X0226617D01*
X0226451Y0129534D01*
Y0128867D01*
X0226617Y0128701D01*
X0226950D01*
X0227117Y0128867D01*
Y0129534D01*
X0221933Y0126134D02*
X0222100Y0125967D01*
Y0125634D01*
X0221933Y0125468D01*
X0221267D01*
X0221100Y0125634D01*
Y0125967D01*
X0221267Y0126134D01*
X0221100Y0127134D02*
Y0126467D01*
X0221767Y0127134D01*
X0221933D01*
X0222100Y0126967D01*
Y0126634D01*
X0221933Y0126467D01*
Y0127467D02*
X0222100Y0127634D01*
Y0127967D01*
X0221933Y0128133D01*
X0221267D01*
X0221100Y0127967D01*
Y0127634D01*
X0221267Y0127467D01*
X0221933D01*
X0221267Y0128467D02*
X0221100Y0128633D01*
Y0128967D01*
X0221267Y0129133D01*
X0221933D01*
X0222100Y0128967D01*
Y0128633D01*
X0221933Y0128467D01*
X0221767D01*
X0221600Y0128633D01*
Y0129133D01*
X0222033Y0120734D02*
X0222200Y0120568D01*
Y0120234D01*
X0222033Y0120068D01*
X0221367D01*
X0221200Y0120234D01*
Y0120568D01*
X0221367Y0120734D01*
X0221200Y0121734D02*
Y0121067D01*
X0221867Y0121734D01*
X0222033D01*
X0222200Y0121567D01*
Y0121234D01*
X0222033Y0121067D01*
Y0122067D02*
X0222200Y0122234D01*
Y0122567D01*
X0222033Y0122733D01*
X0221367D01*
X0221200Y0122567D01*
Y0122234D01*
X0221367Y0122067D01*
X0222033D01*
Y0123067D02*
X0222200Y0123233D01*
Y0123567D01*
X0222033Y0123733D01*
X0221867D01*
X0221700Y0123567D01*
X0221533Y0123733D01*
X0221367D01*
X0221200Y0123567D01*
Y0123233D01*
X0221367Y0123067D01*
X0221533D01*
X0221700Y0123233D01*
X0221867Y0123067D01*
X0222033D01*
X0221700Y0123233D02*
Y0123567D01*
X0260866Y0149719D02*
X0261101D01*
X0261337Y0149483D01*
Y0149248D01*
X0260866Y0148776D01*
X0260630D01*
X0260394Y0149012D01*
Y0149248D01*
X0260041Y0149366D02*
X0259805Y0149601D01*
X0259923Y0149483D01*
X0260630Y0150190D01*
Y0149955D01*
X0259570Y0150072D02*
X0259334D01*
X0259099Y0150308D01*
X0259099Y0150544D01*
X0259570Y0151015D01*
X0259805Y0151015D01*
X0260041Y0150779D01*
Y0150544D01*
X0259923Y0150426D01*
X0259688Y0150426D01*
X0259334Y0150779D01*
X0258745Y0150661D02*
X0258509Y0150897D01*
X0258627Y0150779D01*
X0259334Y0151486D01*
Y0151251D01*
X0227183Y0196234D02*
X0227350Y0196400D01*
X0227683D01*
X0227849Y0196234D01*
Y0195567D01*
X0227683Y0195401D01*
X0227350D01*
X0227183Y0195567D01*
X0226850Y0195401D02*
X0226517D01*
X0226683D01*
Y0196400D01*
X0226850Y0196234D01*
X0226017D02*
X0225850Y0196400D01*
X0225517D01*
X0225350Y0196234D01*
Y0196067D01*
X0225517Y0195900D01*
X0225350Y0195734D01*
Y0195567D01*
X0225517Y0195401D01*
X0225850D01*
X0226017Y0195567D01*
Y0195734D01*
X0225850Y0195900D01*
X0226017Y0196067D01*
Y0196234D01*
X0225850Y0195900D02*
X0225517D01*
X0225017Y0196234D02*
X0224850Y0196400D01*
X0224517D01*
X0224351Y0196234D01*
Y0196067D01*
X0224517Y0195900D01*
X0224684D01*
X0224517D01*
X0224351Y0195734D01*
Y0195567D01*
X0224517Y0195401D01*
X0224850D01*
X0225017Y0195567D01*
X0224783Y0197633D02*
X0224950Y0197800D01*
X0225283D01*
X0225449Y0197633D01*
Y0196967D01*
X0225283Y0196800D01*
X0224950D01*
X0224783Y0196967D01*
X0224450Y0196800D02*
X0224117D01*
X0224283D01*
Y0197800D01*
X0224450Y0197633D01*
X0223617D02*
X0223450Y0197800D01*
X0223117D01*
X0222950Y0197633D01*
Y0197467D01*
X0223117Y0197300D01*
X0222950Y0197133D01*
Y0196967D01*
X0223117Y0196800D01*
X0223450D01*
X0223617Y0196967D01*
Y0197133D01*
X0223450Y0197300D01*
X0223617Y0197467D01*
Y0197633D01*
X0223450Y0197300D02*
X0223117D01*
X0221951Y0196800D02*
X0222617D01*
X0221951Y0197467D01*
Y0197633D01*
X0222117Y0197800D01*
X0222450D01*
X0222617Y0197633D01*
X0232916Y0196234D02*
X0233083Y0196400D01*
X0233416D01*
X0233583Y0196234D01*
Y0195567D01*
X0233416Y0195401D01*
X0233083D01*
X0232916Y0195567D01*
X0232583Y0195401D02*
X0232250D01*
X0232417D01*
Y0196400D01*
X0232583Y0196234D01*
X0231750D02*
X0231583Y0196400D01*
X0231250D01*
X0231084Y0196234D01*
Y0196067D01*
X0231250Y0195900D01*
X0231084Y0195734D01*
Y0195567D01*
X0231250Y0195401D01*
X0231583D01*
X0231750Y0195567D01*
Y0195734D01*
X0231583Y0195900D01*
X0231750Y0196067D01*
Y0196234D01*
X0231583Y0195900D02*
X0231250D01*
X0230750Y0195401D02*
X0230417D01*
X0230584D01*
Y0196400D01*
X0230750Y0196234D01*
X0198879Y0170128D02*
X0199046Y0169962D01*
Y0169628D01*
X0198879Y0169462D01*
X0198213D01*
X0198046Y0169628D01*
Y0169962D01*
X0198213Y0170128D01*
X0198046Y0170461D02*
Y0170795D01*
Y0170628D01*
X0199046D01*
X0198879Y0170461D01*
X0199046Y0171294D02*
Y0171961D01*
X0198879D01*
X0198213Y0171294D01*
X0198046D01*
X0198879Y0172294D02*
X0199046Y0172461D01*
Y0172794D01*
X0198879Y0172961D01*
X0198713D01*
X0198546Y0172794D01*
X0198380Y0172961D01*
X0198213D01*
X0198046Y0172794D01*
Y0172461D01*
X0198213Y0172294D01*
X0198380D01*
X0198546Y0172461D01*
X0198713Y0172294D01*
X0198879D01*
X0198546Y0172461D02*
Y0172794D01*
X0200279Y0170128D02*
X0200446Y0169962D01*
Y0169628D01*
X0200279Y0169462D01*
X0199613D01*
X0199446Y0169628D01*
Y0169962D01*
X0199613Y0170128D01*
X0199446Y0170461D02*
Y0170795D01*
Y0170628D01*
X0200446D01*
X0200279Y0170461D01*
X0200446Y0171294D02*
Y0171961D01*
X0200279D01*
X0199613Y0171294D01*
X0199446D01*
X0200446Y0172294D02*
Y0172961D01*
X0200279D01*
X0199613Y0172294D01*
X0199446D01*
X0198879Y0159628D02*
X0199046Y0159462D01*
Y0159128D01*
X0198879Y0158962D01*
X0198213D01*
X0198046Y0159128D01*
Y0159462D01*
X0198213Y0159628D01*
X0198046Y0159961D02*
Y0160295D01*
Y0160128D01*
X0199046D01*
X0198879Y0159961D01*
X0199046Y0160794D02*
Y0161461D01*
X0198879D01*
X0198213Y0160794D01*
X0198046D01*
X0199046Y0162461D02*
X0198879Y0162127D01*
X0198546Y0161794D01*
X0198213D01*
X0198046Y0161961D01*
Y0162294D01*
X0198213Y0162461D01*
X0198380D01*
X0198546Y0162294D01*
Y0161794D01*
X0200279Y0159628D02*
X0200446Y0159462D01*
Y0159128D01*
X0200279Y0158962D01*
X0199613D01*
X0199446Y0159128D01*
Y0159462D01*
X0199613Y0159628D01*
X0199446Y0159961D02*
Y0160295D01*
Y0160128D01*
X0200446D01*
X0200279Y0159961D01*
X0200446Y0160794D02*
Y0161461D01*
X0200279D01*
X0199613Y0160794D01*
X0199446D01*
X0200446Y0162461D02*
Y0161794D01*
X0199946D01*
X0200113Y0162127D01*
Y0162294D01*
X0199946Y0162461D01*
X0199613D01*
X0199446Y0162294D01*
Y0161961D01*
X0199613Y0161794D01*
X0198879Y0149128D02*
X0199046Y0148962D01*
Y0148628D01*
X0198879Y0148462D01*
X0198213D01*
X0198046Y0148628D01*
Y0148962D01*
X0198213Y0149128D01*
X0198046Y0149461D02*
Y0149795D01*
Y0149628D01*
X0199046D01*
X0198879Y0149461D01*
X0199046Y0150294D02*
Y0150961D01*
X0198879D01*
X0198213Y0150294D01*
X0198046D01*
Y0151794D02*
X0199046D01*
X0198546Y0151294D01*
Y0151961D01*
X0200279Y0149128D02*
X0200446Y0148962D01*
Y0148628D01*
X0200279Y0148462D01*
X0199613D01*
X0199446Y0148628D01*
Y0148962D01*
X0199613Y0149128D01*
X0199446Y0149461D02*
Y0149795D01*
Y0149628D01*
X0200446D01*
X0200279Y0149461D01*
X0200446Y0150294D02*
Y0150961D01*
X0200279D01*
X0199613Y0150294D01*
X0199446D01*
X0200279Y0151294D02*
X0200446Y0151461D01*
Y0151794D01*
X0200279Y0151961D01*
X0200113D01*
X0199946Y0151794D01*
Y0151627D01*
Y0151794D01*
X0199780Y0151961D01*
X0199613D01*
X0199446Y0151794D01*
Y0151461D01*
X0199613Y0151294D01*
X0198879Y0136962D02*
X0199046Y0136795D01*
Y0136462D01*
X0198879Y0136295D01*
X0198213D01*
X0198046Y0136462D01*
Y0136795D01*
X0198213Y0136962D01*
X0198046Y0137295D02*
Y0137628D01*
Y0137461D01*
X0199046D01*
X0198879Y0137295D01*
X0199046Y0138128D02*
Y0138794D01*
X0198879D01*
X0198213Y0138128D01*
X0198046D01*
Y0139794D02*
Y0139128D01*
X0198713Y0139794D01*
X0198879D01*
X0199046Y0139627D01*
Y0139294D01*
X0198879Y0139128D01*
X0200279Y0137295D02*
X0200446Y0137128D01*
Y0136795D01*
X0200279Y0136628D01*
X0199613D01*
X0199446Y0136795D01*
Y0137128D01*
X0199613Y0137295D01*
X0199446Y0137628D02*
Y0137961D01*
Y0137795D01*
X0200446D01*
X0200279Y0137628D01*
X0200446Y0138461D02*
Y0139128D01*
X0200279D01*
X0199613Y0138461D01*
X0199446D01*
Y0139461D02*
Y0139794D01*
Y0139627D01*
X0200446D01*
X0200279Y0139461D01*
X0198879Y0126628D02*
X0199046Y0126462D01*
Y0126128D01*
X0198879Y0125962D01*
X0198213D01*
X0198046Y0126128D01*
Y0126462D01*
X0198213Y0126628D01*
X0198046Y0126961D02*
Y0127295D01*
Y0127128D01*
X0199046D01*
X0198879Y0126961D01*
X0199046Y0127794D02*
Y0128461D01*
X0198879D01*
X0198213Y0127794D01*
X0198046D01*
X0198879Y0128794D02*
X0199046Y0128961D01*
Y0129294D01*
X0198879Y0129461D01*
X0198213D01*
X0198046Y0129294D01*
Y0128961D01*
X0198213Y0128794D01*
X0198879D01*
X0200279Y0126628D02*
X0200446Y0126462D01*
Y0126128D01*
X0200279Y0125962D01*
X0199613D01*
X0199446Y0126128D01*
Y0126462D01*
X0199613Y0126628D01*
X0199446Y0126961D02*
Y0127295D01*
Y0127128D01*
X0200446D01*
X0200279Y0126961D01*
X0200446Y0128461D02*
X0200279Y0128128D01*
X0199946Y0127794D01*
X0199613D01*
X0199446Y0127961D01*
Y0128294D01*
X0199613Y0128461D01*
X0199780D01*
X0199946Y0128294D01*
Y0127794D01*
X0199613Y0128794D02*
X0199446Y0128961D01*
Y0129294D01*
X0199613Y0129461D01*
X0200279D01*
X0200446Y0129294D01*
Y0128961D01*
X0200279Y0128794D01*
X0200113D01*
X0199946Y0128961D01*
Y0129461D01*
X0198704Y0116153D02*
X0198871Y0115987D01*
Y0115653D01*
X0198704Y0115487D01*
X0198038D01*
X0197871Y0115653D01*
Y0115987D01*
X0198038Y0116153D01*
X0197871Y0116486D02*
Y0116820D01*
Y0116653D01*
X0198871D01*
X0198704Y0116486D01*
X0198871Y0117986D02*
X0198704Y0117653D01*
X0198371Y0117319D01*
X0198038D01*
X0197871Y0117486D01*
Y0117819D01*
X0198038Y0117986D01*
X0198205D01*
X0198371Y0117819D01*
Y0117319D01*
X0198704Y0118319D02*
X0198871Y0118486D01*
Y0118819D01*
X0198704Y0118986D01*
X0198538D01*
X0198371Y0118819D01*
X0198205Y0118986D01*
X0198038D01*
X0197871Y0118819D01*
Y0118486D01*
X0198038Y0118319D01*
X0198205D01*
X0198371Y0118486D01*
X0198538Y0118319D01*
X0198704D01*
X0198371Y0118486D02*
Y0118819D01*
X0200104Y0116153D02*
X0200271Y0115987D01*
Y0115653D01*
X0200104Y0115487D01*
X0199438D01*
X0199271Y0115653D01*
Y0115987D01*
X0199438Y0116153D01*
X0199271Y0116486D02*
Y0116820D01*
Y0116653D01*
X0200271D01*
X0200104Y0116486D01*
X0200271Y0117986D02*
X0200104Y0117653D01*
X0199771Y0117319D01*
X0199438D01*
X0199271Y0117486D01*
Y0117819D01*
X0199438Y0117986D01*
X0199605D01*
X0199771Y0117819D01*
Y0117319D01*
X0200271Y0118319D02*
Y0118986D01*
X0200104D01*
X0199438Y0118319D01*
X0199271D01*
X0167433Y0181617D02*
X0167600Y0181451D01*
Y0181118D01*
X0167433Y0180951D01*
X0166767D01*
X0166600Y0181118D01*
Y0181451D01*
X0166767Y0181617D01*
X0166600Y0181951D02*
Y0182284D01*
Y0182117D01*
X0167600D01*
X0167433Y0181951D01*
X0167600Y0183450D02*
X0167433Y0183117D01*
X0167100Y0182784D01*
X0166767D01*
X0166600Y0182950D01*
Y0183284D01*
X0166767Y0183450D01*
X0166933D01*
X0167100Y0183284D01*
Y0182784D01*
X0167600Y0184450D02*
X0167433Y0184117D01*
X0167100Y0183783D01*
X0166767D01*
X0166600Y0183950D01*
Y0184283D01*
X0166767Y0184450D01*
X0166933D01*
X0167100Y0184283D01*
Y0183783D01*
X0168833Y0181617D02*
X0169000Y0181451D01*
Y0181118D01*
X0168833Y0180951D01*
X0168167D01*
X0168000Y0181118D01*
Y0181451D01*
X0168167Y0181617D01*
X0168000Y0181951D02*
Y0182284D01*
Y0182117D01*
X0169000D01*
X0168833Y0181951D01*
X0169000Y0183450D02*
X0168833Y0183117D01*
X0168500Y0182784D01*
X0168167D01*
X0168000Y0182950D01*
Y0183284D01*
X0168167Y0183450D01*
X0168333D01*
X0168500Y0183284D01*
Y0182784D01*
X0169000Y0184450D02*
Y0183783D01*
X0168500D01*
X0168667Y0184117D01*
Y0184283D01*
X0168500Y0184450D01*
X0168167D01*
X0168000Y0184283D01*
Y0183950D01*
X0168167Y0183783D01*
X0143433Y0181617D02*
X0143600Y0181451D01*
Y0181118D01*
X0143433Y0180951D01*
X0142767D01*
X0142600Y0181118D01*
Y0181451D01*
X0142767Y0181617D01*
X0142600Y0181951D02*
Y0182284D01*
Y0182117D01*
X0143600D01*
X0143433Y0181951D01*
X0143600Y0183450D02*
X0143433Y0183117D01*
X0143100Y0182784D01*
X0142767D01*
X0142600Y0182950D01*
Y0183284D01*
X0142767Y0183450D01*
X0142933D01*
X0143100Y0183284D01*
Y0182784D01*
X0142600Y0184283D02*
X0143600D01*
X0143100Y0183783D01*
Y0184450D01*
X0144833Y0181617D02*
X0145000Y0181451D01*
Y0181118D01*
X0144833Y0180951D01*
X0144167D01*
X0144000Y0181118D01*
Y0181451D01*
X0144167Y0181617D01*
X0144000Y0181951D02*
Y0182284D01*
Y0182117D01*
X0145000D01*
X0144833Y0181951D01*
X0145000Y0183450D02*
X0144833Y0183117D01*
X0144500Y0182784D01*
X0144167D01*
X0144000Y0182950D01*
Y0183284D01*
X0144167Y0183450D01*
X0144333D01*
X0144500Y0183284D01*
Y0182784D01*
X0144833Y0183783D02*
X0145000Y0183950D01*
Y0184283D01*
X0144833Y0184450D01*
X0144667D01*
X0144500Y0184283D01*
Y0184117D01*
Y0184283D01*
X0144333Y0184450D01*
X0144167D01*
X0144000Y0184283D01*
Y0183950D01*
X0144167Y0183783D01*
X0194283Y0203533D02*
X0194450Y0203700D01*
X0194783D01*
X0194949Y0203533D01*
Y0202867D01*
X0194783Y0202700D01*
X0194450D01*
X0194283Y0202867D01*
X0193950Y0202700D02*
X0193617D01*
X0193783D01*
Y0203700D01*
X0193950Y0203533D01*
X0192450Y0203700D02*
X0192783Y0203533D01*
X0193117Y0203200D01*
Y0202867D01*
X0192950Y0202700D01*
X0192617D01*
X0192450Y0202867D01*
Y0203033D01*
X0192617Y0203200D01*
X0193117D01*
X0191451Y0202700D02*
X0192117D01*
X0191451Y0203367D01*
Y0203533D01*
X0191617Y0203700D01*
X0191950D01*
X0192117Y0203533D01*
X0194116Y0205033D02*
X0194283Y0205200D01*
X0194616D01*
X0194783Y0205033D01*
Y0204367D01*
X0194616Y0204200D01*
X0194283D01*
X0194116Y0204367D01*
X0193783Y0204200D02*
X0193450D01*
X0193617D01*
Y0205200D01*
X0193783Y0205033D01*
X0192284Y0205200D02*
X0192617Y0205033D01*
X0192950Y0204700D01*
Y0204367D01*
X0192783Y0204200D01*
X0192450D01*
X0192284Y0204367D01*
Y0204533D01*
X0192450Y0204700D01*
X0192950D01*
X0191950Y0204200D02*
X0191617D01*
X0191784D01*
Y0205200D01*
X0191950Y0205033D01*
X0228333Y0149667D02*
X0228500Y0149500D01*
Y0149167D01*
X0228333Y0149001D01*
X0227667D01*
X0227500Y0149167D01*
Y0149500D01*
X0227667Y0149667D01*
X0227500Y0150000D02*
Y0150333D01*
Y0150167D01*
X0228500D01*
X0228333Y0150000D01*
X0228500Y0151500D02*
X0228333Y0151167D01*
X0228000Y0150833D01*
X0227667D01*
X0227500Y0151000D01*
Y0151333D01*
X0227667Y0151500D01*
X0227833D01*
X0228000Y0151333D01*
Y0150833D01*
X0228333Y0151833D02*
X0228500Y0152000D01*
Y0152333D01*
X0228333Y0152499D01*
X0227667D01*
X0227500Y0152333D01*
Y0152000D01*
X0227667Y0151833D01*
X0228333D01*
X0238683Y0189667D02*
X0238850Y0189500D01*
Y0189167D01*
X0238683Y0189001D01*
X0238017D01*
X0237850Y0189167D01*
Y0189500D01*
X0238017Y0189667D01*
X0237850Y0190000D02*
Y0190333D01*
Y0190167D01*
X0238850D01*
X0238683Y0190000D01*
X0238850Y0191500D02*
Y0190833D01*
X0238350D01*
X0238517Y0191167D01*
Y0191333D01*
X0238350Y0191500D01*
X0238017D01*
X0237850Y0191333D01*
Y0191000D01*
X0238017Y0190833D01*
Y0191833D02*
X0237850Y0192000D01*
Y0192333D01*
X0238017Y0192499D01*
X0238683D01*
X0238850Y0192333D01*
Y0192000D01*
X0238683Y0191833D01*
X0238517D01*
X0238350Y0192000D01*
Y0192499D01*
X0280183Y0178733D02*
X0280350Y0178900D01*
X0280683D01*
X0280849Y0178733D01*
Y0178067D01*
X0280683Y0177900D01*
X0280350D01*
X0280183Y0178067D01*
X0279850Y0177900D02*
X0279517D01*
X0279683D01*
Y0178900D01*
X0279850Y0178733D01*
X0278517Y0177900D02*
Y0178900D01*
X0279017Y0178400D01*
X0278350D01*
X0277351Y0178900D02*
X0278017D01*
Y0178400D01*
X0277684Y0178567D01*
X0277517D01*
X0277351Y0178400D01*
Y0178067D01*
X0277517Y0177900D01*
X0277850D01*
X0278017Y0178067D01*
X0277916Y0182533D02*
X0278083Y0182700D01*
X0278416D01*
X0278583Y0182533D01*
Y0181867D01*
X0278416Y0181700D01*
X0278083D01*
X0277916Y0181867D01*
X0277583Y0181700D02*
X0277250D01*
X0277417D01*
Y0182700D01*
X0277583Y0182533D01*
X0276250Y0181700D02*
Y0182700D01*
X0276750Y0182200D01*
X0276084D01*
X0275750Y0181700D02*
X0275417D01*
X0275584D01*
Y0182700D01*
X0275750Y0182533D01*
X0280183Y0189733D02*
X0280350Y0189900D01*
X0280683D01*
X0280849Y0189733D01*
Y0189067D01*
X0280683Y0188900D01*
X0280350D01*
X0280183Y0189067D01*
X0279850Y0188900D02*
X0279517D01*
X0279683D01*
Y0189900D01*
X0279850Y0189733D01*
X0279017D02*
X0278850Y0189900D01*
X0278517D01*
X0278350Y0189733D01*
Y0189567D01*
X0278517Y0189400D01*
X0278683D01*
X0278517D01*
X0278350Y0189233D01*
Y0189067D01*
X0278517Y0188900D01*
X0278850D01*
X0279017Y0189067D01*
X0278017D02*
X0277850Y0188900D01*
X0277517D01*
X0277351Y0189067D01*
Y0189733D01*
X0277517Y0189900D01*
X0277850D01*
X0278017Y0189733D01*
Y0189567D01*
X0277850Y0189400D01*
X0277351D01*
X0274643Y0201232D02*
X0274810Y0201065D01*
Y0200732D01*
X0274643Y0200565D01*
X0273977D01*
X0273810Y0200732D01*
Y0201065D01*
X0273977Y0201232D01*
X0273810Y0201565D02*
Y0201898D01*
Y0201731D01*
X0274810D01*
X0274643Y0201565D01*
Y0202398D02*
X0274810Y0202564D01*
Y0202898D01*
X0274643Y0203064D01*
X0274477D01*
X0274310Y0202898D01*
Y0202731D01*
Y0202898D01*
X0274144Y0203064D01*
X0273977D01*
X0273810Y0202898D01*
Y0202564D01*
X0273977Y0202398D01*
X0273810Y0203897D02*
X0274810D01*
X0274310Y0203398D01*
Y0204064D01*
X0256144Y0156732D02*
X0256310Y0156565D01*
Y0156232D01*
X0256144Y0156065D01*
X0255477D01*
X0255311Y0156232D01*
Y0156565D01*
X0255477Y0156732D01*
X0255311Y0157065D02*
Y0157398D01*
Y0157231D01*
X0256310D01*
X0256144Y0157065D01*
Y0157898D02*
X0256310Y0158064D01*
Y0158398D01*
X0256144Y0158564D01*
X0255977D01*
X0255811Y0158398D01*
Y0158231D01*
Y0158398D01*
X0255644Y0158564D01*
X0255477D01*
X0255311Y0158398D01*
Y0158064D01*
X0255477Y0157898D01*
X0256144Y0158898D02*
X0256310Y0159064D01*
Y0159397D01*
X0256144Y0159564D01*
X0255977D01*
X0255811Y0159397D01*
Y0159231D01*
Y0159397D01*
X0255644Y0159564D01*
X0255477D01*
X0255311Y0159397D01*
Y0159064D01*
X0255477Y0158898D01*
X0256144Y0167732D02*
X0256310Y0167565D01*
Y0167232D01*
X0256144Y0167065D01*
X0255477D01*
X0255311Y0167232D01*
Y0167565D01*
X0255477Y0167732D01*
X0255311Y0168065D02*
Y0168398D01*
Y0168231D01*
X0256310D01*
X0256144Y0168065D01*
Y0168898D02*
X0256310Y0169064D01*
Y0169398D01*
X0256144Y0169564D01*
X0255977D01*
X0255811Y0169398D01*
Y0169231D01*
Y0169398D01*
X0255644Y0169564D01*
X0255477D01*
X0255311Y0169398D01*
Y0169064D01*
X0255477Y0168898D01*
X0255311Y0170564D02*
Y0169898D01*
X0255977Y0170564D01*
X0256144D01*
X0256310Y0170397D01*
Y0170064D01*
X0256144Y0169898D01*
X0256144Y0178898D02*
X0256310Y0178732D01*
Y0178398D01*
X0256144Y0178232D01*
X0255477D01*
X0255311Y0178398D01*
Y0178732D01*
X0255477Y0178898D01*
X0255311Y0179231D02*
Y0179565D01*
Y0179398D01*
X0256310D01*
X0256144Y0179231D01*
Y0180064D02*
X0256310Y0180231D01*
Y0180564D01*
X0256144Y0180731D01*
X0255977D01*
X0255811Y0180564D01*
Y0180398D01*
Y0180564D01*
X0255644Y0180731D01*
X0255477D01*
X0255311Y0180564D01*
Y0180231D01*
X0255477Y0180064D01*
X0255311Y0181064D02*
Y0181397D01*
Y0181231D01*
X0256310D01*
X0256144Y0181064D01*
X0256143Y0189565D02*
X0256310Y0189398D01*
Y0189065D01*
X0256143Y0188898D01*
X0255477D01*
X0255310Y0189065D01*
Y0189398D01*
X0255477Y0189565D01*
X0255310Y0189898D02*
Y0190231D01*
Y0190065D01*
X0256310D01*
X0256143Y0189898D01*
Y0190731D02*
X0256310Y0190898D01*
Y0191231D01*
X0256143Y0191398D01*
X0255977D01*
X0255810Y0191231D01*
Y0191064D01*
Y0191231D01*
X0255644Y0191398D01*
X0255477D01*
X0255310Y0191231D01*
Y0190898D01*
X0255477Y0190731D01*
X0256143Y0191731D02*
X0256310Y0191898D01*
Y0192231D01*
X0256143Y0192397D01*
X0255477D01*
X0255310Y0192231D01*
Y0191898D01*
X0255477Y0191731D01*
X0256143D01*
X0196133Y0190899D02*
X0196299Y0190732D01*
Y0190399D01*
X0196133Y0190232D01*
X0195466D01*
X0195300Y0190399D01*
Y0190732D01*
X0195466Y0190899D01*
X0195300Y0191232D02*
Y0191565D01*
Y0191398D01*
X0196299D01*
X0196133Y0191232D01*
X0195300Y0192731D02*
Y0192065D01*
X0195966Y0192731D01*
X0196133D01*
X0196299Y0192565D01*
Y0192231D01*
X0196133Y0192065D01*
X0195466Y0193064D02*
X0195300Y0193231D01*
Y0193564D01*
X0195466Y0193731D01*
X0196133D01*
X0196299Y0193564D01*
Y0193231D01*
X0196133Y0193064D01*
X0195966D01*
X0195799Y0193231D01*
Y0193731D01*
X0192879Y0195228D02*
X0193046Y0195062D01*
Y0194728D01*
X0192879Y0194562D01*
X0192213D01*
X0192046Y0194728D01*
Y0195062D01*
X0192213Y0195228D01*
X0192046Y0195561D02*
Y0195895D01*
Y0195728D01*
X0193046D01*
X0192879Y0195561D01*
X0192046Y0197061D02*
Y0196394D01*
X0192713Y0197061D01*
X0192879D01*
X0193046Y0196894D01*
Y0196561D01*
X0192879Y0196394D01*
Y0197394D02*
X0193046Y0197561D01*
Y0197894D01*
X0192879Y0198061D01*
X0192713D01*
X0192546Y0197894D01*
X0192380Y0198061D01*
X0192213D01*
X0192046Y0197894D01*
Y0197561D01*
X0192213Y0197394D01*
X0192380D01*
X0192546Y0197561D01*
X0192713Y0197394D01*
X0192879D01*
X0192546Y0197561D02*
Y0197894D01*
X0192879Y0185728D02*
X0193046Y0185562D01*
Y0185228D01*
X0192879Y0185062D01*
X0192213D01*
X0192046Y0185228D01*
Y0185562D01*
X0192213Y0185728D01*
X0192046Y0186061D02*
Y0186395D01*
Y0186228D01*
X0193046D01*
X0192879Y0186061D01*
X0192046Y0187561D02*
Y0186894D01*
X0192713Y0187561D01*
X0192879D01*
X0193046Y0187394D01*
Y0187061D01*
X0192879Y0186894D01*
X0193046Y0187894D02*
Y0188561D01*
X0192879D01*
X0192213Y0187894D01*
X0192046D01*
X0196133Y0183499D02*
X0196299Y0183332D01*
Y0182999D01*
X0196133Y0182832D01*
X0195466D01*
X0195300Y0182999D01*
Y0183332D01*
X0195466Y0183499D01*
X0195300Y0183832D02*
Y0184165D01*
Y0183998D01*
X0196299D01*
X0196133Y0183832D01*
X0195300Y0185331D02*
Y0184665D01*
X0195966Y0185331D01*
X0196133D01*
X0196299Y0185165D01*
Y0184831D01*
X0196133Y0184665D01*
X0196299Y0186331D02*
X0196133Y0185998D01*
X0195799Y0185664D01*
X0195466D01*
X0195300Y0185831D01*
Y0186164D01*
X0195466Y0186331D01*
X0195633D01*
X0195799Y0186164D01*
Y0185664D01*
X0188058Y0190899D02*
X0188225Y0190732D01*
Y0190399D01*
X0188058Y0190232D01*
X0187392D01*
X0187225Y0190399D01*
Y0190732D01*
X0187392Y0190899D01*
X0187225Y0191232D02*
Y0191565D01*
Y0191398D01*
X0188225D01*
X0188058Y0191232D01*
X0187225Y0192731D02*
Y0192065D01*
X0187892Y0192731D01*
X0188058D01*
X0188225Y0192565D01*
Y0192231D01*
X0188058Y0192065D01*
X0188225Y0193731D02*
Y0193064D01*
X0187725D01*
X0187892Y0193398D01*
Y0193564D01*
X0187725Y0193731D01*
X0187392D01*
X0187225Y0193564D01*
Y0193231D01*
X0187392Y0193064D01*
X0205033Y0190217D02*
X0205200Y0190051D01*
Y0189718D01*
X0205033Y0189551D01*
X0204367D01*
X0204200Y0189718D01*
Y0190051D01*
X0204367Y0190217D01*
X0204200Y0190551D02*
Y0190884D01*
Y0190717D01*
X0205200D01*
X0205033Y0190551D01*
X0204200Y0192050D02*
Y0191384D01*
X0204867Y0192050D01*
X0205033D01*
X0205200Y0191884D01*
Y0191550D01*
X0205033Y0191384D01*
X0204200Y0192883D02*
X0205200D01*
X0204700Y0192383D01*
Y0193050D01*
X0205033Y0183684D02*
X0205200Y0183517D01*
Y0183184D01*
X0205033Y0183018D01*
X0204367D01*
X0204200Y0183184D01*
Y0183517D01*
X0204367Y0183684D01*
X0204200Y0184017D02*
Y0184350D01*
Y0184184D01*
X0205200D01*
X0205033Y0184017D01*
X0204200Y0185517D02*
Y0184850D01*
X0204867Y0185517D01*
X0205033D01*
X0205200Y0185350D01*
Y0185017D01*
X0205033Y0184850D01*
X0204200Y0185850D02*
Y0186183D01*
Y0186017D01*
X0205200D01*
X0205033Y0185850D01*
X0188058Y0183782D02*
X0188225Y0183615D01*
Y0183282D01*
X0188058Y0183115D01*
X0187392D01*
X0187225Y0183282D01*
Y0183615D01*
X0187392Y0183782D01*
X0187225Y0184115D02*
Y0184448D01*
Y0184282D01*
X0188225D01*
X0188058Y0184115D01*
X0187225Y0184948D02*
Y0185281D01*
Y0185115D01*
X0188225D01*
X0188058Y0184948D01*
X0187392Y0185781D02*
X0187225Y0185948D01*
Y0186281D01*
X0187392Y0186448D01*
X0188058D01*
X0188225Y0186281D01*
Y0185948D01*
X0188058Y0185781D01*
X0187892D01*
X0187725Y0185948D01*
Y0186448D01*
X0143733Y0205601D02*
X0143900Y0205434D01*
Y0205101D01*
X0143733Y0204934D01*
X0143067D01*
X0142900Y0205101D01*
Y0205434D01*
X0143067Y0205601D01*
X0142900Y0205934D02*
Y0206267D01*
Y0206101D01*
X0143900D01*
X0143733Y0205934D01*
X0142900Y0206767D02*
Y0207100D01*
Y0206934D01*
X0143900D01*
X0143733Y0206767D01*
Y0207600D02*
X0143900Y0207767D01*
Y0208100D01*
X0143733Y0208267D01*
X0143567D01*
X0143400Y0208100D01*
X0143233Y0208267D01*
X0143067D01*
X0142900Y0208100D01*
Y0207767D01*
X0143067Y0207600D01*
X0143233D01*
X0143400Y0207767D01*
X0143567Y0207600D01*
X0143733D01*
X0143400Y0207767D02*
Y0208100D01*
X0137233Y0205601D02*
X0137400Y0205434D01*
Y0205101D01*
X0137233Y0204934D01*
X0136567D01*
X0136400Y0205101D01*
Y0205434D01*
X0136567Y0205601D01*
X0136400Y0205934D02*
Y0206267D01*
Y0206101D01*
X0137400D01*
X0137233Y0205934D01*
X0136400Y0206767D02*
Y0207100D01*
Y0206934D01*
X0137400D01*
X0137233Y0206767D01*
X0137400Y0207600D02*
Y0208266D01*
X0137233D01*
X0136567Y0207600D01*
X0136400D01*
X0135433Y0205601D02*
X0135600Y0205434D01*
Y0205101D01*
X0135433Y0204934D01*
X0134767D01*
X0134600Y0205101D01*
Y0205434D01*
X0134767Y0205601D01*
X0134600Y0205934D02*
Y0206267D01*
Y0206101D01*
X0135600D01*
X0135433Y0205934D01*
X0134600Y0206767D02*
Y0207100D01*
Y0206934D01*
X0135600D01*
X0135433Y0206767D01*
X0135600Y0208266D02*
X0135433Y0207933D01*
X0135100Y0207600D01*
X0134767D01*
X0134600Y0207767D01*
Y0208100D01*
X0134767Y0208266D01*
X0134933D01*
X0135100Y0208100D01*
Y0207600D01*
X0148333Y0205601D02*
X0148500Y0205434D01*
Y0205101D01*
X0148333Y0204934D01*
X0147667D01*
X0147500Y0205101D01*
Y0205434D01*
X0147667Y0205601D01*
X0147500Y0205934D02*
Y0206267D01*
Y0206101D01*
X0148500D01*
X0148333Y0205934D01*
X0147500Y0206767D02*
Y0207100D01*
Y0206934D01*
X0148500D01*
X0148333Y0206767D01*
X0148500Y0208266D02*
Y0207600D01*
X0148000D01*
X0148167Y0207933D01*
Y0208100D01*
X0148000Y0208266D01*
X0147667D01*
X0147500Y0208100D01*
Y0207767D01*
X0147667Y0207600D01*
X0155533Y0205801D02*
X0155700Y0205634D01*
Y0205301D01*
X0155533Y0205134D01*
X0154867D01*
X0154700Y0205301D01*
Y0205634D01*
X0154867Y0205801D01*
X0154700Y0206134D02*
Y0206467D01*
Y0206301D01*
X0155700D01*
X0155533Y0206134D01*
X0154700Y0206967D02*
Y0207300D01*
Y0207134D01*
X0155700D01*
X0155533Y0206967D01*
X0154700Y0208300D02*
X0155700D01*
X0155200Y0207800D01*
Y0208467D01*
X0153333Y0205001D02*
X0153500Y0204834D01*
Y0204501D01*
X0153333Y0204334D01*
X0152667D01*
X0152500Y0204501D01*
Y0204834D01*
X0152667Y0205001D01*
X0152500Y0205334D02*
Y0205667D01*
Y0205501D01*
X0153500D01*
X0153333Y0205334D01*
X0152500Y0206167D02*
Y0206500D01*
Y0206334D01*
X0153500D01*
X0153333Y0206167D01*
Y0207000D02*
X0153500Y0207167D01*
Y0207500D01*
X0153333Y0207667D01*
X0153167D01*
X0153000Y0207500D01*
Y0207333D01*
Y0207500D01*
X0152833Y0207667D01*
X0152667D01*
X0152500Y0207500D01*
Y0207167D01*
X0152667Y0207000D01*
X0150583Y0202534D02*
X0150750Y0202700D01*
X0151083D01*
X0151249Y0202534D01*
Y0201867D01*
X0151083Y0201701D01*
X0150750D01*
X0150583Y0201867D01*
X0150250Y0201701D02*
X0149917D01*
X0150083D01*
Y0202700D01*
X0150250Y0202534D01*
X0149417D02*
X0149250Y0202700D01*
X0148917D01*
X0148750Y0202534D01*
Y0201867D01*
X0148917Y0201701D01*
X0149250D01*
X0149417Y0201867D01*
Y0202534D01*
X0147917Y0201701D02*
Y0202700D01*
X0148417Y0202200D01*
X0147751D01*
X0162183Y0196334D02*
X0162350Y0196500D01*
X0162683D01*
X0162849Y0196334D01*
Y0195667D01*
X0162683Y0195501D01*
X0162350D01*
X0162183Y0195667D01*
X0161850Y0195501D02*
X0161517D01*
X0161683D01*
Y0196500D01*
X0161850Y0196334D01*
X0161017D02*
X0160850Y0196500D01*
X0160517D01*
X0160350Y0196334D01*
Y0195667D01*
X0160517Y0195501D01*
X0160850D01*
X0161017Y0195667D01*
Y0196334D01*
X0160017D02*
X0159850Y0196500D01*
X0159517D01*
X0159351Y0196334D01*
Y0196167D01*
X0159517Y0196000D01*
X0159684D01*
X0159517D01*
X0159351Y0195834D01*
Y0195667D01*
X0159517Y0195501D01*
X0159850D01*
X0160017Y0195667D01*
X0133766Y0198234D02*
X0133933Y0198400D01*
X0134266D01*
X0134433Y0198234D01*
Y0197567D01*
X0134266Y0197401D01*
X0133933D01*
X0133766Y0197567D01*
X0133433D02*
X0133267Y0197401D01*
X0132933D01*
X0132767Y0197567D01*
Y0198234D01*
X0132933Y0198400D01*
X0133267D01*
X0133433Y0198234D01*
Y0198067D01*
X0133267Y0197900D01*
X0132767D01*
X0132434Y0197567D02*
X0132267Y0197401D01*
X0131934D01*
X0131767Y0197567D01*
Y0198234D01*
X0131934Y0198400D01*
X0132267D01*
X0132434Y0198234D01*
Y0198067D01*
X0132267Y0197900D01*
X0131767D01*
X0134166Y0199534D02*
X0134333Y0199700D01*
X0134666D01*
X0134833Y0199534D01*
Y0198867D01*
X0134666Y0198701D01*
X0134333D01*
X0134166Y0198867D01*
X0133833D02*
X0133667Y0198701D01*
X0133333D01*
X0133167Y0198867D01*
Y0199534D01*
X0133333Y0199700D01*
X0133667D01*
X0133833Y0199534D01*
Y0199367D01*
X0133667Y0199200D01*
X0133167D01*
X0132834Y0199534D02*
X0132667Y0199700D01*
X0132334D01*
X0132167Y0199534D01*
Y0199367D01*
X0132334Y0199200D01*
X0132167Y0199034D01*
Y0198867D01*
X0132334Y0198701D01*
X0132667D01*
X0132834Y0198867D01*
Y0199034D01*
X0132667Y0199200D01*
X0132834Y0199367D01*
Y0199534D01*
X0132667Y0199200D02*
X0132334D01*
X0129266Y0198234D02*
X0129433Y0198400D01*
X0129766D01*
X0129933Y0198234D01*
Y0197567D01*
X0129766Y0197401D01*
X0129433D01*
X0129266Y0197567D01*
X0128933D02*
X0128767Y0197401D01*
X0128433D01*
X0128267Y0197567D01*
Y0198234D01*
X0128433Y0198400D01*
X0128767D01*
X0128933Y0198234D01*
Y0198067D01*
X0128767Y0197900D01*
X0128267D01*
X0127934Y0198400D02*
X0127267D01*
Y0198234D01*
X0127934Y0197567D01*
Y0197401D01*
X0129266Y0207934D02*
X0129433Y0208100D01*
X0129766D01*
X0129933Y0207934D01*
Y0207267D01*
X0129766Y0207101D01*
X0129433D01*
X0129266Y0207267D01*
X0128933D02*
X0128767Y0207101D01*
X0128433D01*
X0128267Y0207267D01*
Y0207934D01*
X0128433Y0208100D01*
X0128767D01*
X0128933Y0207934D01*
Y0207767D01*
X0128767Y0207600D01*
X0128267D01*
X0127267Y0208100D02*
X0127600Y0207934D01*
X0127934Y0207600D01*
Y0207267D01*
X0127767Y0207101D01*
X0127434D01*
X0127267Y0207267D01*
Y0207434D01*
X0127434Y0207600D01*
X0127934D01*
X0134266Y0202034D02*
X0134433Y0202200D01*
X0134766D01*
X0134933Y0202034D01*
Y0201367D01*
X0134766Y0201201D01*
X0134433D01*
X0134266Y0201367D01*
X0133933D02*
X0133767Y0201201D01*
X0133433D01*
X0133267Y0201367D01*
Y0202034D01*
X0133433Y0202200D01*
X0133767D01*
X0133933Y0202034D01*
Y0201867D01*
X0133767Y0201700D01*
X0133267D01*
X0132934Y0202034D02*
X0132767Y0202200D01*
X0132434D01*
X0132267Y0202034D01*
Y0201867D01*
X0132434Y0201700D01*
X0132600D01*
X0132434D01*
X0132267Y0201534D01*
Y0201367D01*
X0132434Y0201201D01*
X0132767D01*
X0132934Y0201367D01*
X0120366Y0199634D02*
X0120533Y0199800D01*
X0120866D01*
X0121033Y0199634D01*
Y0198967D01*
X0120866Y0198801D01*
X0120533D01*
X0120366Y0198967D01*
X0120033D02*
X0119867Y0198801D01*
X0119533D01*
X0119367Y0198967D01*
Y0199634D01*
X0119533Y0199800D01*
X0119867D01*
X0120033Y0199634D01*
Y0199467D01*
X0119867Y0199300D01*
X0119367D01*
X0118367Y0198801D02*
X0119034D01*
X0118367Y0199467D01*
Y0199634D01*
X0118534Y0199800D01*
X0118867D01*
X0119034Y0199634D01*
X0120100Y0198234D02*
X0120266Y0198400D01*
X0120600D01*
X0120766Y0198234D01*
Y0197567D01*
X0120600Y0197401D01*
X0120266D01*
X0120100Y0197567D01*
X0119767D02*
X0119600Y0197401D01*
X0119267D01*
X0119100Y0197567D01*
Y0198234D01*
X0119267Y0198400D01*
X0119600D01*
X0119767Y0198234D01*
Y0198067D01*
X0119600Y0197900D01*
X0119100D01*
X0118767Y0197401D02*
X0118434D01*
X0118600D01*
Y0198400D01*
X0118767Y0198234D01*
X0146866Y0198234D02*
X0147033Y0198400D01*
X0147366D01*
X0147533Y0198234D01*
Y0197567D01*
X0147366Y0197401D01*
X0147033D01*
X0146866Y0197567D01*
X0146533D02*
X0146367Y0197401D01*
X0146033D01*
X0145867Y0197567D01*
Y0198234D01*
X0146033Y0198400D01*
X0146367D01*
X0146533Y0198234D01*
Y0198067D01*
X0146367Y0197900D01*
X0145867D01*
X0145534Y0198234D02*
X0145367Y0198400D01*
X0145034D01*
X0144867Y0198234D01*
Y0197567D01*
X0145034Y0197401D01*
X0145367D01*
X0145534Y0197567D01*
Y0198234D01*
X0146866Y0199634D02*
X0147033Y0199800D01*
X0147366D01*
X0147533Y0199634D01*
Y0198967D01*
X0147366Y0198801D01*
X0147033D01*
X0146866Y0198967D01*
X0146533Y0199634D02*
X0146367Y0199800D01*
X0146033D01*
X0145867Y0199634D01*
Y0199467D01*
X0146033Y0199300D01*
X0145867Y0199134D01*
Y0198967D01*
X0146033Y0198801D01*
X0146367D01*
X0146533Y0198967D01*
Y0199134D01*
X0146367Y0199300D01*
X0146533Y0199467D01*
Y0199634D01*
X0146367Y0199300D02*
X0146033D01*
X0145534Y0198967D02*
X0145367Y0198801D01*
X0145034D01*
X0144867Y0198967D01*
Y0199634D01*
X0145034Y0199800D01*
X0145367D01*
X0145534Y0199634D01*
Y0199467D01*
X0145367Y0199300D01*
X0144867D01*
X0128566Y0202934D02*
X0128733Y0203100D01*
X0129066D01*
X0129233Y0202934D01*
Y0202267D01*
X0129066Y0202101D01*
X0128733D01*
X0128566Y0202267D01*
X0128233Y0202934D02*
X0128067Y0203100D01*
X0127733D01*
X0127567Y0202934D01*
Y0202767D01*
X0127733Y0202600D01*
X0127567Y0202434D01*
Y0202267D01*
X0127733Y0202101D01*
X0128067D01*
X0128233Y0202267D01*
Y0202434D01*
X0128067Y0202600D01*
X0128233Y0202767D01*
Y0202934D01*
X0128067Y0202600D02*
X0127733D01*
X0126567Y0203100D02*
X0126900Y0202934D01*
X0127234Y0202600D01*
Y0202267D01*
X0127067Y0202101D01*
X0126734D01*
X0126567Y0202267D01*
Y0202434D01*
X0126734Y0202600D01*
X0127234D01*
X0128566Y0204234D02*
X0128733Y0204400D01*
X0129066D01*
X0129233Y0204234D01*
Y0203567D01*
X0129066Y0203401D01*
X0128733D01*
X0128566Y0203567D01*
X0128233Y0204234D02*
X0128067Y0204400D01*
X0127733D01*
X0127567Y0204234D01*
Y0204067D01*
X0127733Y0203900D01*
X0127567Y0203734D01*
Y0203567D01*
X0127733Y0203401D01*
X0128067D01*
X0128233Y0203567D01*
Y0203734D01*
X0128067Y0203900D01*
X0128233Y0204067D01*
Y0204234D01*
X0128067Y0203900D02*
X0127733D01*
X0126567Y0204400D02*
X0127234D01*
Y0203900D01*
X0126900Y0204067D01*
X0126734D01*
X0126567Y0203900D01*
Y0203567D01*
X0126734Y0203401D01*
X0127067D01*
X0127234Y0203567D01*
X0261166Y0116333D02*
X0261333Y0116500D01*
X0261666D01*
X0261833Y0116333D01*
Y0115667D01*
X0261666Y0115500D01*
X0261333D01*
X0261166Y0115667D01*
X0260833Y0116333D02*
X0260667Y0116500D01*
X0260333D01*
X0260167Y0116333D01*
Y0116167D01*
X0260333Y0116000D01*
X0260167Y0115833D01*
Y0115667D01*
X0260333Y0115500D01*
X0260667D01*
X0260833Y0115667D01*
Y0115833D01*
X0260667Y0116000D01*
X0260833Y0116167D01*
Y0116333D01*
X0260667Y0116000D02*
X0260333D01*
X0259334Y0115500D02*
Y0116500D01*
X0259834Y0116000D01*
X0259167D01*
X0102542Y0164145D02*
X0102709Y0163978D01*
Y0163645D01*
X0102542Y0163478D01*
X0101876D01*
X0101709Y0163645D01*
Y0163978D01*
X0101876Y0164145D01*
X0102542Y0164478D02*
X0102709Y0164645D01*
Y0164978D01*
X0102542Y0165144D01*
X0102376D01*
X0102209Y0164978D01*
X0102042Y0165144D01*
X0101876D01*
X0101709Y0164978D01*
Y0164645D01*
X0101876Y0164478D01*
X0102042D01*
X0102209Y0164645D01*
X0102376Y0164478D01*
X0102542D01*
X0102209Y0164645D02*
Y0164978D01*
X0102542Y0165478D02*
X0102709Y0165644D01*
Y0165977D01*
X0102542Y0166144D01*
X0102376D01*
X0102209Y0165977D01*
Y0165811D01*
Y0165977D01*
X0102042Y0166144D01*
X0101876D01*
X0101709Y0165977D01*
Y0165644D01*
X0101876Y0165478D01*
X0102542Y0156145D02*
X0102709Y0155978D01*
Y0155645D01*
X0102542Y0155478D01*
X0101876D01*
X0101709Y0155645D01*
Y0155978D01*
X0101876Y0156145D01*
X0102542Y0156478D02*
X0102709Y0156645D01*
Y0156978D01*
X0102542Y0157144D01*
X0102376D01*
X0102209Y0156978D01*
X0102042Y0157144D01*
X0101876D01*
X0101709Y0156978D01*
Y0156645D01*
X0101876Y0156478D01*
X0102042D01*
X0102209Y0156645D01*
X0102376Y0156478D01*
X0102542D01*
X0102209Y0156645D02*
Y0156978D01*
X0101709Y0158144D02*
Y0157478D01*
X0102376Y0158144D01*
X0102542D01*
X0102709Y0157977D01*
Y0157644D01*
X0102542Y0157478D01*
X0102633Y0180700D02*
X0102800Y0180534D01*
Y0180200D01*
X0102633Y0180034D01*
X0101967D01*
X0101800Y0180200D01*
Y0180534D01*
X0101967Y0180700D01*
X0102633Y0181033D02*
X0102800Y0181200D01*
Y0181533D01*
X0102633Y0181700D01*
X0102467D01*
X0102300Y0181533D01*
X0102133Y0181700D01*
X0101967D01*
X0101800Y0181533D01*
Y0181200D01*
X0101967Y0181033D01*
X0102133D01*
X0102300Y0181200D01*
X0102467Y0181033D01*
X0102633D01*
X0102300Y0181200D02*
Y0181533D01*
X0101800Y0182033D02*
Y0182366D01*
Y0182200D01*
X0102800D01*
X0102633Y0182033D01*
X0102542Y0172065D02*
X0102709Y0171898D01*
Y0171565D01*
X0102542Y0171398D01*
X0101876D01*
X0101709Y0171565D01*
Y0171898D01*
X0101876Y0172065D01*
X0102542Y0172398D02*
X0102709Y0172564D01*
Y0172898D01*
X0102542Y0173064D01*
X0102376D01*
X0102209Y0172898D01*
X0102042Y0173064D01*
X0101876D01*
X0101709Y0172898D01*
Y0172564D01*
X0101876Y0172398D01*
X0102042D01*
X0102209Y0172564D01*
X0102376Y0172398D01*
X0102542D01*
X0102209Y0172564D02*
Y0172898D01*
X0102542Y0173397D02*
X0102709Y0173564D01*
Y0173897D01*
X0102542Y0174064D01*
X0101876D01*
X0101709Y0173897D01*
Y0173564D01*
X0101876Y0173397D01*
X0102542D01*
Y0148145D02*
X0102709Y0147978D01*
Y0147645D01*
X0102542Y0147478D01*
X0101876D01*
X0101709Y0147645D01*
Y0147978D01*
X0101876Y0148145D01*
X0102709Y0148478D02*
Y0149144D01*
X0102542D01*
X0101876Y0148478D01*
X0101709D01*
X0101876Y0149478D02*
X0101709Y0149644D01*
Y0149977D01*
X0101876Y0150144D01*
X0102542D01*
X0102709Y0149977D01*
Y0149644D01*
X0102542Y0149478D01*
X0102376D01*
X0102209Y0149644D01*
Y0150144D01*
X0102542Y0140065D02*
X0102709Y0139898D01*
Y0139565D01*
X0102542Y0139398D01*
X0101876D01*
X0101709Y0139565D01*
Y0139898D01*
X0101876Y0140065D01*
X0102709Y0140398D02*
Y0141064D01*
X0102542D01*
X0101876Y0140398D01*
X0101709D01*
X0102542Y0141397D02*
X0102709Y0141564D01*
Y0141897D01*
X0102542Y0142064D01*
X0102376D01*
X0102209Y0141897D01*
X0102042Y0142064D01*
X0101876D01*
X0101709Y0141897D01*
Y0141564D01*
X0101876Y0141397D01*
X0102042D01*
X0102209Y0141564D01*
X0102376Y0141397D01*
X0102542D01*
X0102209Y0141564D02*
Y0141897D01*
X0102542Y0132097D02*
X0102709Y0131931D01*
Y0131598D01*
X0102542Y0131431D01*
X0101876D01*
X0101709Y0131598D01*
Y0131931D01*
X0101876Y0132097D01*
X0102709Y0132431D02*
Y0133097D01*
X0102542D01*
X0101876Y0132431D01*
X0101709D01*
X0102709Y0133430D02*
Y0134097D01*
X0102542D01*
X0101876Y0133430D01*
X0101709D01*
X0102542Y0124145D02*
X0102709Y0123978D01*
Y0123645D01*
X0102542Y0123478D01*
X0101876D01*
X0101709Y0123645D01*
Y0123978D01*
X0101876Y0124145D01*
X0102709Y0124478D02*
Y0125144D01*
X0102542D01*
X0101876Y0124478D01*
X0101709D01*
X0102709Y0126144D02*
X0102542Y0125811D01*
X0102209Y0125478D01*
X0101876D01*
X0101709Y0125644D01*
Y0125977D01*
X0101876Y0126144D01*
X0102042D01*
X0102209Y0125977D01*
Y0125478D01*
X0290797Y0130714D02*
X0290963Y0130547D01*
Y0130214D01*
X0290797Y0130047D01*
X0290130D01*
X0289964Y0130214D01*
Y0130547D01*
X0290130Y0130714D01*
X0290963Y0131047D02*
Y0131713D01*
X0290797D01*
X0290130Y0131047D01*
X0289964D01*
Y0132547D02*
X0290963D01*
X0290463Y0132047D01*
Y0132713D01*
X0304205Y0118438D02*
X0304371Y0118605D01*
X0304705D01*
X0304871Y0118438D01*
Y0117772D01*
X0304705Y0117605D01*
X0304371D01*
X0304205Y0117772D01*
X0303872Y0118605D02*
X0303205D01*
Y0118438D01*
X0303872Y0117772D01*
Y0117605D01*
X0302872Y0118438D02*
X0302705Y0118605D01*
X0302372D01*
X0302205Y0118438D01*
Y0118272D01*
X0302372Y0118105D01*
X0302539D01*
X0302372D01*
X0302205Y0117939D01*
Y0117772D01*
X0302372Y0117605D01*
X0302705D01*
X0302872Y0117772D01*
X0303899Y0143162D02*
Y0143398D01*
X0304135Y0143633D01*
X0304370D01*
X0304841Y0143162D01*
Y0142926D01*
X0304606Y0142691D01*
X0304370D01*
X0303546Y0143044D02*
X0303074Y0142573D01*
X0303192Y0142455D01*
X0304135D01*
X0304252Y0142337D01*
X0303074Y0141159D02*
X0303546Y0141631D01*
X0302603D01*
X0302485Y0141748D01*
X0302485Y0141984D01*
X0302721Y0142220D01*
X0302956D01*
X0300677Y0138887D02*
X0300913D01*
X0301149Y0138652D01*
Y0138416D01*
X0300677Y0137945D01*
X0300442D01*
X0300206Y0138181D01*
Y0138416D01*
X0300560Y0139241D02*
X0300088Y0139712D01*
X0299971Y0139594D01*
Y0138652D01*
X0299853Y0138534D01*
X0299146Y0139241D02*
X0298910Y0139476D01*
X0299028Y0139359D01*
X0299735Y0140066D01*
Y0139830D01*
X0296622Y0135789D02*
X0296788Y0135622D01*
Y0135289D01*
X0296622Y0135122D01*
X0295955D01*
X0295789Y0135289D01*
Y0135622D01*
X0295955Y0135789D01*
X0296788Y0136122D02*
Y0136788D01*
X0296622D01*
X0295955Y0136122D01*
X0295789D01*
X0296622Y0137122D02*
X0296788Y0137288D01*
Y0137622D01*
X0296622Y0137788D01*
X0295955D01*
X0295789Y0137622D01*
Y0137288D01*
X0295955Y0137122D01*
X0296622D01*
X0294822Y0131739D02*
X0294988Y0131572D01*
Y0131239D01*
X0294822Y0131072D01*
X0294155D01*
X0293989Y0131239D01*
Y0131572D01*
X0294155Y0131739D01*
X0294988Y0132738D02*
X0294822Y0132405D01*
X0294488Y0132072D01*
X0294155D01*
X0293989Y0132239D01*
Y0132572D01*
X0294155Y0132738D01*
X0294322D01*
X0294488Y0132572D01*
Y0132072D01*
X0294155Y0133072D02*
X0293989Y0133238D01*
Y0133572D01*
X0294155Y0133738D01*
X0294822D01*
X0294988Y0133572D01*
Y0133238D01*
X0294822Y0133072D01*
X0294655D01*
X0294488Y0133238D01*
Y0133738D01*
X0296980Y0129013D02*
X0297146Y0129180D01*
X0297480D01*
X0297646Y0129013D01*
Y0128347D01*
X0297480Y0128180D01*
X0297146D01*
X0296980Y0128347D01*
X0295980Y0129180D02*
X0296313Y0129013D01*
X0296647Y0128680D01*
Y0128347D01*
X0296480Y0128180D01*
X0296147D01*
X0295980Y0128347D01*
Y0128514D01*
X0296147Y0128680D01*
X0296647D01*
X0295647Y0129013D02*
X0295480Y0129180D01*
X0295147D01*
X0294980Y0129013D01*
Y0128847D01*
X0295147Y0128680D01*
X0294980Y0128514D01*
Y0128347D01*
X0295147Y0128180D01*
X0295480D01*
X0295647Y0128347D01*
Y0128514D01*
X0295480Y0128680D01*
X0295647Y0128847D01*
Y0129013D01*
X0295480Y0128680D02*
X0295147D01*
X0300847Y0125864D02*
X0301013Y0125697D01*
Y0125364D01*
X0300847Y0125197D01*
X0300180D01*
X0300014Y0125364D01*
Y0125697D01*
X0300180Y0125864D01*
X0301013Y0126863D02*
X0300847Y0126530D01*
X0300513Y0126197D01*
X0300180D01*
X0300014Y0126364D01*
Y0126697D01*
X0300180Y0126863D01*
X0300347D01*
X0300513Y0126697D01*
Y0126197D01*
X0301013Y0127197D02*
Y0127863D01*
X0300847D01*
X0300180Y0127197D01*
X0300014D01*
X0301597Y0121614D02*
X0301763Y0121447D01*
Y0121114D01*
X0301597Y0120947D01*
X0300930D01*
X0300764Y0121114D01*
Y0121447D01*
X0300930Y0121614D01*
X0301763Y0122613D02*
X0301597Y0122280D01*
X0301263Y0121947D01*
X0300930D01*
X0300764Y0122114D01*
Y0122447D01*
X0300930Y0122613D01*
X0301097D01*
X0301263Y0122447D01*
Y0121947D01*
X0301763Y0123613D02*
X0301597Y0123280D01*
X0301263Y0122947D01*
X0300930D01*
X0300764Y0123113D01*
Y0123447D01*
X0300930Y0123613D01*
X0301097D01*
X0301263Y0123447D01*
Y0122947D01*
X0313474Y0133637D02*
Y0133873D01*
X0313710Y0134108D01*
X0313945D01*
X0314417Y0133637D01*
Y0133401D01*
X0314181Y0133166D01*
X0313945D01*
X0312649Y0133048D02*
X0313003Y0133166D01*
X0313474D01*
X0313710Y0132930D01*
Y0132695D01*
X0313474Y0132459D01*
X0313238D01*
X0313121Y0132577D01*
X0313121Y0132812D01*
X0313474Y0133166D01*
X0311942Y0132341D02*
X0312414Y0132812D01*
X0312767Y0132459D01*
X0312414Y0132341D01*
X0312296Y0132223D01*
Y0131988D01*
X0312531Y0131752D01*
X0312767Y0131752D01*
X0313003Y0131988D01*
Y0132223D01*
X0302972Y0139089D02*
X0303138Y0138922D01*
Y0138589D01*
X0302972Y0138422D01*
X0302305D01*
X0302139Y0138589D01*
Y0138922D01*
X0302305Y0139089D01*
X0303138Y0140088D02*
X0302972Y0139755D01*
X0302638Y0139422D01*
X0302305D01*
X0302139Y0139589D01*
Y0139922D01*
X0302305Y0140088D01*
X0302472D01*
X0302638Y0139922D01*
Y0139422D01*
X0302139Y0140922D02*
X0303138D01*
X0302638Y0140422D01*
Y0141088D01*
X0297255Y0133313D02*
X0297421Y0133480D01*
X0297755D01*
X0297921Y0133313D01*
Y0132647D01*
X0297755Y0132480D01*
X0297421D01*
X0297255Y0132647D01*
X0296255Y0133480D02*
X0296588Y0133313D01*
X0296922Y0132980D01*
Y0132647D01*
X0296755Y0132480D01*
X0296422D01*
X0296255Y0132647D01*
Y0132814D01*
X0296422Y0132980D01*
X0296922D01*
X0295922Y0133313D02*
X0295755Y0133480D01*
X0295422D01*
X0295255Y0133313D01*
Y0133147D01*
X0295422Y0132980D01*
X0295589D01*
X0295422D01*
X0295255Y0132814D01*
Y0132647D01*
X0295422Y0132480D01*
X0295755D01*
X0295922Y0132647D01*
X0305274Y0124012D02*
Y0124248D01*
X0305510Y0124483D01*
X0305745D01*
X0306216Y0124012D01*
Y0123776D01*
X0305981Y0123541D01*
X0305745D01*
X0304449Y0123423D02*
X0304803Y0123541D01*
X0305274D01*
X0305510Y0123305D01*
Y0123070D01*
X0305274Y0122834D01*
X0305038D01*
X0304921Y0122952D01*
X0304921Y0123187D01*
X0305274Y0123541D01*
X0304449Y0122009D02*
X0304921Y0122481D01*
X0303978D01*
X0303860Y0122598D01*
X0303860Y0122834D01*
X0304096Y0123070D01*
X0304331D01*
X0282133Y0117934D02*
X0282300Y0117767D01*
Y0117434D01*
X0282133Y0117267D01*
X0281467D01*
X0281300Y0117434D01*
Y0117767D01*
X0281467Y0117934D01*
X0282300Y0118933D02*
X0282133Y0118600D01*
X0281800Y0118267D01*
X0281467D01*
X0281300Y0118433D01*
Y0118767D01*
X0281467Y0118933D01*
X0281633D01*
X0281800Y0118767D01*
Y0118267D01*
X0282133Y0119266D02*
X0282300Y0119433D01*
Y0119766D01*
X0282133Y0119933D01*
X0281467D01*
X0281300Y0119766D01*
Y0119433D01*
X0281467Y0119266D01*
X0282133D01*
X0311345Y0132995D02*
X0311581D01*
X0311816Y0132759D01*
Y0132523D01*
X0311345Y0132052D01*
X0311110D01*
X0310874Y0132288D01*
Y0132523D01*
X0310756Y0133819D02*
X0311227Y0133348D01*
X0310874Y0132995D01*
X0310756Y0133348D01*
X0310638Y0133466D01*
X0310403D01*
X0310167Y0133230D01*
Y0132995D01*
X0310403Y0132759D01*
X0310638D01*
X0309931Y0133466D02*
X0309696D01*
X0309460Y0133701D01*
X0309460Y0133937D01*
X0309931Y0134408D01*
X0310167Y0134408D01*
X0310403Y0134173D01*
Y0133937D01*
X0310285Y0133819D01*
X0310049D01*
X0309696Y0134173D01*
X0305347Y0138289D02*
X0305513Y0138122D01*
Y0137789D01*
X0305347Y0137622D01*
X0304680D01*
X0304514Y0137789D01*
Y0138122D01*
X0304680Y0138289D01*
X0305513Y0139288D02*
Y0138622D01*
X0305013D01*
X0305180Y0138955D01*
Y0139122D01*
X0305013Y0139288D01*
X0304680D01*
X0304514Y0139122D01*
Y0138789D01*
X0304680Y0138622D01*
X0305347Y0139622D02*
X0305513Y0139788D01*
Y0140122D01*
X0305347Y0140288D01*
X0305180D01*
X0305013Y0140122D01*
X0304847Y0140288D01*
X0304680D01*
X0304514Y0140122D01*
Y0139788D01*
X0304680Y0139622D01*
X0304847D01*
X0305013Y0139788D01*
X0305180Y0139622D01*
X0305347D01*
X0305013Y0139788D02*
Y0140122D01*
X0297445Y0130570D02*
X0297681D01*
X0297917Y0130334D01*
Y0130098D01*
X0297445Y0129627D01*
X0297210D01*
X0296974Y0129863D01*
Y0130098D01*
X0296856Y0131394D02*
X0297327Y0130923D01*
X0296974Y0130570D01*
X0296856Y0130923D01*
X0296738Y0131041D01*
X0296503D01*
X0296267Y0130805D01*
Y0130570D01*
X0296503Y0130334D01*
X0296738D01*
X0296621Y0131630D02*
X0296149Y0132101D01*
X0296031Y0131983D01*
Y0131041D01*
X0295914Y0130923D01*
X0303420Y0123945D02*
X0303656D01*
X0303892Y0123709D01*
Y0123473D01*
X0303420Y0123002D01*
X0303185D01*
X0302949Y0123238D01*
Y0123473D01*
X0302831Y0124769D02*
X0303302Y0124298D01*
X0302949Y0123945D01*
X0302831Y0124298D01*
X0302713Y0124416D01*
X0302478D01*
X0302242Y0124180D01*
Y0123945D01*
X0302478Y0123709D01*
X0302713D01*
X0302124Y0125476D02*
X0302242Y0125123D01*
Y0124651D01*
X0302007Y0124416D01*
X0301771D01*
X0301535Y0124651D01*
X0301535Y0124887D01*
X0301653Y0125005D01*
X0301889Y0125005D01*
X0302242Y0124651D01*
X0288533Y0117934D02*
X0288700Y0117767D01*
Y0117434D01*
X0288533Y0117267D01*
X0287867D01*
X0287700Y0117434D01*
Y0117767D01*
X0287867Y0117934D01*
X0288700Y0118933D02*
Y0118267D01*
X0288200D01*
X0288367Y0118600D01*
Y0118767D01*
X0288200Y0118933D01*
X0287867D01*
X0287700Y0118767D01*
Y0118433D01*
X0287867Y0118267D01*
X0287700Y0119766D02*
X0288700D01*
X0288200Y0119266D01*
Y0119933D01*
X0278291Y0121133D02*
X0278458Y0121300D01*
X0278791D01*
X0278958Y0121133D01*
Y0120467D01*
X0278791Y0120300D01*
X0278458D01*
X0278291Y0120467D01*
X0277292Y0121300D02*
X0277958D01*
Y0120800D01*
X0277625Y0120967D01*
X0277458D01*
X0277292Y0120800D01*
Y0120467D01*
X0277458Y0120300D01*
X0277792D01*
X0277958Y0120467D01*
X0276959Y0121133D02*
X0276792Y0121300D01*
X0276459D01*
X0276292Y0121133D01*
Y0120967D01*
X0276459Y0120800D01*
X0276625D01*
X0276459D01*
X0276292Y0120633D01*
Y0120467D01*
X0276459Y0120300D01*
X0276792D01*
X0276959Y0120467D01*
X0284966Y0124133D02*
X0285133Y0124300D01*
X0285466D01*
X0285633Y0124133D01*
Y0123467D01*
X0285466Y0123300D01*
X0285133D01*
X0284966Y0123467D01*
X0283967Y0124300D02*
X0284633D01*
Y0123800D01*
X0284300Y0123967D01*
X0284133D01*
X0283967Y0123800D01*
Y0123467D01*
X0284133Y0123300D01*
X0284467D01*
X0284633Y0123467D01*
X0282967Y0123300D02*
X0283634D01*
X0282967Y0123967D01*
Y0124133D01*
X0283134Y0124300D01*
X0283467D01*
X0283634Y0124133D01*
X0312795Y0134795D02*
X0313031D01*
X0313267Y0134559D01*
Y0134323D01*
X0312795Y0133852D01*
X0312560D01*
X0312324Y0134088D01*
Y0134323D01*
X0312206Y0135619D02*
X0312677Y0135148D01*
X0312324Y0134795D01*
X0312206Y0135148D01*
X0312088Y0135266D01*
X0311853D01*
X0311617Y0135030D01*
Y0134795D01*
X0311853Y0134559D01*
X0312088D01*
X0311853Y0135737D02*
Y0135973D01*
X0311617Y0136208D01*
X0311382Y0136208D01*
X0310910Y0135737D01*
X0310910Y0135501D01*
X0311146Y0135266D01*
X0311382D01*
X0311853Y0135737D01*
X0318620Y0131945D02*
X0318856D01*
X0319091Y0131709D01*
Y0131473D01*
X0318620Y0131002D01*
X0318385D01*
X0318149Y0131238D01*
Y0131473D01*
X0317442Y0131945D02*
X0318149Y0132651D01*
Y0131945D01*
X0317678Y0132416D01*
X0317206Y0132416D02*
X0316971D01*
X0316735Y0132651D01*
X0316735Y0132887D01*
X0317206Y0133358D01*
X0317442Y0133358D01*
X0317678Y0133123D01*
Y0132887D01*
X0317560Y0132769D01*
X0317324D01*
X0316971Y0133123D01*
X0306272Y0141164D02*
X0306438Y0140997D01*
Y0140664D01*
X0306272Y0140497D01*
X0305605D01*
X0305439Y0140664D01*
Y0140997D01*
X0305605Y0141164D01*
X0305439Y0141997D02*
X0306438D01*
X0305938Y0141497D01*
Y0142163D01*
X0306272Y0142497D02*
X0306438Y0142663D01*
Y0142997D01*
X0306272Y0143163D01*
X0306105D01*
X0305938Y0142997D01*
X0305772Y0143163D01*
X0305605D01*
X0305439Y0142997D01*
Y0142663D01*
X0305605Y0142497D01*
X0305772D01*
X0305938Y0142663D01*
X0306105Y0142497D01*
X0306272D01*
X0305938Y0142663D02*
Y0142997D01*
X0310295Y0137070D02*
X0310531D01*
X0310767Y0136834D01*
Y0136598D01*
X0310295Y0136127D01*
X0310060D01*
X0309824Y0136363D01*
Y0136598D01*
X0309117Y0137070D02*
X0309824Y0137776D01*
Y0137070D01*
X0309353Y0137541D01*
X0309471Y0138130D02*
X0308999Y0138601D01*
X0308882Y0138483D01*
Y0137541D01*
X0308764Y0137423D01*
X0307947Y0124614D02*
X0308113Y0124447D01*
Y0124114D01*
X0307947Y0123947D01*
X0307280D01*
X0307114Y0124114D01*
Y0124447D01*
X0307280Y0124614D01*
X0307114Y0125447D02*
X0308113D01*
X0307613Y0124947D01*
Y0125613D01*
X0308113Y0126613D02*
X0307947Y0126280D01*
X0307613Y0125947D01*
X0307280D01*
X0307114Y0126113D01*
Y0126447D01*
X0307280Y0126613D01*
X0307447D01*
X0307613Y0126447D01*
Y0125947D01*
X0310755Y0128238D02*
X0310921Y0128405D01*
X0311255D01*
X0311421Y0128238D01*
Y0127572D01*
X0311255Y0127405D01*
X0310921D01*
X0310755Y0127572D01*
X0309922Y0127405D02*
Y0128405D01*
X0310422Y0127905D01*
X0309755D01*
X0308755Y0128405D02*
X0309422D01*
Y0127905D01*
X0309089Y0128072D01*
X0308922D01*
X0308755Y0127905D01*
Y0127572D01*
X0308922Y0127405D01*
X0309255D01*
X0309422Y0127572D01*
X0313749Y0131387D02*
Y0131623D01*
X0313985Y0131858D01*
X0314220D01*
X0314691Y0131387D01*
Y0131151D01*
X0314456Y0130916D01*
X0314220D01*
X0313749Y0130209D02*
X0313042Y0130916D01*
X0313749D01*
X0313278Y0130445D01*
X0313042Y0129502D02*
X0312335Y0130209D01*
X0313042D01*
X0312571Y0129738D01*
X0303199Y0121887D02*
Y0122123D01*
X0303435Y0122358D01*
X0303670D01*
X0304142Y0121887D01*
Y0121651D01*
X0303906Y0121416D01*
X0303670D01*
X0303199Y0120709D02*
X0302492Y0121416D01*
X0303199D01*
X0302728Y0120945D01*
X0302257D02*
X0302021D01*
X0301785Y0120709D01*
X0301785Y0120473D01*
X0301903Y0120356D01*
X0302139D01*
X0302257Y0120473D01*
X0302139Y0120356D01*
X0302139Y0120120D01*
X0302257Y0120002D01*
X0302492Y0120002D01*
X0302728Y0120238D01*
Y0120473D01*
X0304447Y0145264D02*
X0304613Y0145097D01*
Y0144764D01*
X0304447Y0144597D01*
X0303780D01*
X0303614Y0144764D01*
Y0145097D01*
X0303780Y0145264D01*
X0303614Y0146097D02*
X0304613D01*
X0304113Y0145597D01*
Y0146263D01*
X0303614Y0147263D02*
Y0146597D01*
X0304280Y0147263D01*
X0304447D01*
X0304613Y0147097D01*
Y0146763D01*
X0304447Y0146597D01*
X0301438Y0130413D02*
X0301605Y0130580D01*
X0301938D01*
X0302105Y0130413D01*
Y0129747D01*
X0301938Y0129580D01*
X0301605D01*
X0301438Y0129747D01*
X0300605Y0129580D02*
Y0130580D01*
X0301105Y0130080D01*
X0300439D01*
X0300105Y0129580D02*
X0299772D01*
X0299939D01*
Y0130580D01*
X0300105Y0130413D01*
X0308805Y0130888D02*
X0308971Y0131055D01*
X0309305D01*
X0309471Y0130888D01*
Y0130222D01*
X0309305Y0130055D01*
X0308971D01*
X0308805Y0130222D01*
X0307972Y0130055D02*
Y0131055D01*
X0308472Y0130555D01*
X0307805D01*
X0307472Y0130888D02*
X0307305Y0131055D01*
X0306972D01*
X0306805Y0130888D01*
Y0130222D01*
X0306972Y0130055D01*
X0307305D01*
X0307472Y0130222D01*
Y0130888D01*
X0303480Y0128713D02*
X0303646Y0128880D01*
X0303980D01*
X0304146Y0128713D01*
Y0128047D01*
X0303980Y0127880D01*
X0303646D01*
X0303480Y0128047D01*
X0303147Y0128713D02*
X0302980Y0128880D01*
X0302647D01*
X0302480Y0128713D01*
Y0128547D01*
X0302647Y0128380D01*
X0302813D01*
X0302647D01*
X0302480Y0128214D01*
Y0128047D01*
X0302647Y0127880D01*
X0302980D01*
X0303147Y0128047D01*
X0302147D02*
X0301980Y0127880D01*
X0301647D01*
X0301480Y0128047D01*
Y0128713D01*
X0301647Y0128880D01*
X0301980D01*
X0302147Y0128713D01*
Y0128547D01*
X0301980Y0128380D01*
X0301480D01*
X0301322Y0132714D02*
X0301488Y0132547D01*
Y0132214D01*
X0301322Y0132047D01*
X0300655D01*
X0300489Y0132214D01*
Y0132547D01*
X0300655Y0132714D01*
X0301322Y0133047D02*
X0301488Y0133214D01*
Y0133547D01*
X0301322Y0133713D01*
X0301155D01*
X0300988Y0133547D01*
Y0133380D01*
Y0133547D01*
X0300822Y0133713D01*
X0300655D01*
X0300489Y0133547D01*
Y0133214D01*
X0300655Y0133047D01*
X0301322Y0134047D02*
X0301488Y0134213D01*
Y0134547D01*
X0301322Y0134713D01*
X0301155D01*
X0300988Y0134547D01*
X0300822Y0134713D01*
X0300655D01*
X0300489Y0134547D01*
Y0134213D01*
X0300655Y0134047D01*
X0300822D01*
X0300988Y0134213D01*
X0301155Y0134047D01*
X0301322D01*
X0300988Y0134213D02*
Y0134547D01*
X0306405Y0135163D02*
X0306571Y0135330D01*
X0306905D01*
X0307071Y0135163D01*
Y0134497D01*
X0306905Y0134330D01*
X0306571D01*
X0306405Y0134497D01*
X0306072Y0135163D02*
X0305905Y0135330D01*
X0305572D01*
X0305405Y0135163D01*
Y0134997D01*
X0305572Y0134830D01*
X0305738D01*
X0305572D01*
X0305405Y0134664D01*
Y0134497D01*
X0305572Y0134330D01*
X0305905D01*
X0306072Y0134497D01*
X0305072Y0135330D02*
X0304405D01*
Y0135163D01*
X0305072Y0134497D01*
Y0134330D01*
X0306397Y0128739D02*
X0306563Y0128572D01*
Y0128239D01*
X0306397Y0128072D01*
X0305730D01*
X0305564Y0128239D01*
Y0128572D01*
X0305730Y0128739D01*
X0306397Y0129072D02*
X0306563Y0129239D01*
Y0129572D01*
X0306397Y0129738D01*
X0306230D01*
X0306063Y0129572D01*
Y0129405D01*
Y0129572D01*
X0305897Y0129738D01*
X0305730D01*
X0305564Y0129572D01*
Y0129239D01*
X0305730Y0129072D01*
X0306563Y0130738D02*
X0306397Y0130405D01*
X0306063Y0130072D01*
X0305730D01*
X0305564Y0130238D01*
Y0130572D01*
X0305730Y0130738D01*
X0305897D01*
X0306063Y0130572D01*
Y0130072D01*
X0303847Y0134889D02*
X0304013Y0134722D01*
Y0134389D01*
X0303847Y0134222D01*
X0303180D01*
X0303014Y0134389D01*
Y0134722D01*
X0303180Y0134889D01*
X0303847Y0135222D02*
X0304013Y0135389D01*
Y0135722D01*
X0303847Y0135888D01*
X0303680D01*
X0303513Y0135722D01*
Y0135555D01*
Y0135722D01*
X0303347Y0135888D01*
X0303180D01*
X0303014Y0135722D01*
Y0135389D01*
X0303180Y0135222D01*
X0304013Y0136888D02*
Y0136222D01*
X0303513D01*
X0303680Y0136555D01*
Y0136721D01*
X0303513Y0136888D01*
X0303180D01*
X0303014Y0136721D01*
Y0136388D01*
X0303180Y0136222D01*
X0274849Y0142802D02*
X0275015Y0142969D01*
X0275349D01*
X0275515Y0142802D01*
Y0142136D01*
X0275349Y0141969D01*
X0275015D01*
X0274849Y0142136D01*
X0274516Y0142802D02*
X0274349Y0142969D01*
X0274016D01*
X0273849Y0142802D01*
Y0142636D01*
X0274016Y0142469D01*
X0274182D01*
X0274016D01*
X0273849Y0142302D01*
Y0142136D01*
X0274016Y0141969D01*
X0274349D01*
X0274516Y0142136D01*
X0273016Y0141969D02*
Y0142969D01*
X0273516Y0142469D01*
X0272849D01*
X0276957Y0139603D02*
X0277124Y0139437D01*
Y0139104D01*
X0276957Y0138937D01*
X0276291D01*
X0276124Y0139104D01*
Y0139437D01*
X0276291Y0139603D01*
X0276957Y0139937D02*
X0277124Y0140103D01*
Y0140437D01*
X0276957Y0140603D01*
X0276791D01*
X0276624Y0140437D01*
Y0140270D01*
Y0140437D01*
X0276457Y0140603D01*
X0276291D01*
X0276124Y0140437D01*
Y0140103D01*
X0276291Y0139937D01*
X0276957Y0140936D02*
X0277124Y0141103D01*
Y0141436D01*
X0276957Y0141603D01*
X0276791D01*
X0276624Y0141436D01*
Y0141270D01*
Y0141436D01*
X0276457Y0141603D01*
X0276291D01*
X0276124Y0141436D01*
Y0141103D01*
X0276291Y0140936D01*
X0276883Y0136309D02*
X0277050Y0136142D01*
Y0135809D01*
X0276883Y0135642D01*
X0276217D01*
X0276050Y0135809D01*
Y0136142D01*
X0276217Y0136309D01*
X0276883Y0136642D02*
X0277050Y0136808D01*
Y0137142D01*
X0276883Y0137308D01*
X0276717D01*
X0276550Y0137142D01*
Y0136975D01*
Y0137142D01*
X0276383Y0137308D01*
X0276217D01*
X0276050Y0137142D01*
Y0136808D01*
X0276217Y0136642D01*
X0276050Y0138308D02*
Y0137641D01*
X0276717Y0138308D01*
X0276883D01*
X0277050Y0138141D01*
Y0137808D01*
X0276883Y0137641D01*
X0274900Y0135308D02*
X0275066Y0135475D01*
X0275400D01*
X0275566Y0135308D01*
Y0134642D01*
X0275400Y0134475D01*
X0275066D01*
X0274900Y0134642D01*
X0274567Y0135308D02*
X0274400Y0135475D01*
X0274067D01*
X0273900Y0135308D01*
Y0135142D01*
X0274067Y0134975D01*
X0274233D01*
X0274067D01*
X0273900Y0134808D01*
Y0134642D01*
X0274067Y0134475D01*
X0274400D01*
X0274567Y0134642D01*
X0273567Y0134475D02*
X0273234D01*
X0273400D01*
Y0135475D01*
X0273567Y0135308D01*
X0297166Y0157733D02*
X0297333Y0157900D01*
X0297666D01*
X0297833Y0157733D01*
Y0157067D01*
X0297666Y0156900D01*
X0297333D01*
X0297166Y0157067D01*
X0296833Y0157733D02*
X0296667Y0157900D01*
X0296333D01*
X0296167Y0157733D01*
Y0157567D01*
X0296333Y0157400D01*
X0296500D01*
X0296333D01*
X0296167Y0157233D01*
Y0157067D01*
X0296333Y0156900D01*
X0296667D01*
X0296833Y0157067D01*
X0295834Y0157733D02*
X0295667Y0157900D01*
X0295334D01*
X0295167Y0157733D01*
Y0157067D01*
X0295334Y0156900D01*
X0295667D01*
X0295834Y0157067D01*
Y0157733D01*
X0289533Y0151734D02*
X0289700Y0151567D01*
Y0151234D01*
X0289533Y0151067D01*
X0288867D01*
X0288700Y0151234D01*
Y0151567D01*
X0288867Y0151734D01*
X0288700Y0152733D02*
Y0152067D01*
X0289367Y0152733D01*
X0289533D01*
X0289700Y0152567D01*
Y0152233D01*
X0289533Y0152067D01*
X0288867Y0153066D02*
X0288700Y0153233D01*
Y0153566D01*
X0288867Y0153733D01*
X0289533D01*
X0289700Y0153566D01*
Y0153233D01*
X0289533Y0153066D01*
X0289367D01*
X0289200Y0153233D01*
Y0153733D01*
X0286633Y0159234D02*
X0286800Y0159067D01*
Y0158734D01*
X0286633Y0158567D01*
X0285967D01*
X0285800Y0158734D01*
Y0159067D01*
X0285967Y0159234D01*
X0285800Y0160233D02*
Y0159567D01*
X0286467Y0160233D01*
X0286633D01*
X0286800Y0160067D01*
Y0159733D01*
X0286633Y0159567D01*
Y0160566D02*
X0286800Y0160733D01*
Y0161066D01*
X0286633Y0161233D01*
X0286467D01*
X0286300Y0161066D01*
X0286133Y0161233D01*
X0285967D01*
X0285800Y0161066D01*
Y0160733D01*
X0285967Y0160566D01*
X0286133D01*
X0286300Y0160733D01*
X0286467Y0160566D01*
X0286633D01*
X0286300Y0160733D02*
Y0161066D01*
X0290285Y0145477D02*
X0290452Y0145310D01*
Y0144977D01*
X0290285Y0144810D01*
X0289619D01*
X0289452Y0144977D01*
Y0145310D01*
X0289619Y0145477D01*
X0289452Y0146476D02*
Y0145810D01*
X0290118Y0146476D01*
X0290285D01*
X0290452Y0146310D01*
Y0145977D01*
X0290285Y0145810D01*
X0290452Y0146810D02*
Y0147476D01*
X0290285D01*
X0289619Y0146810D01*
X0289452D01*
X0284079Y0163124D02*
X0284246Y0162957D01*
Y0162624D01*
X0284079Y0162457D01*
X0283413D01*
X0283246Y0162624D01*
Y0162957D01*
X0283413Y0163124D01*
X0283246Y0164123D02*
Y0163457D01*
X0283913Y0164123D01*
X0284079D01*
X0284246Y0163957D01*
Y0163624D01*
X0284079Y0163457D01*
X0284246Y0165123D02*
X0284079Y0164790D01*
X0283746Y0164457D01*
X0283413D01*
X0283246Y0164623D01*
Y0164956D01*
X0283413Y0165123D01*
X0283580D01*
X0283746Y0164956D01*
Y0164457D01*
X0288479Y0145445D02*
X0288646Y0145278D01*
Y0144945D01*
X0288479Y0144778D01*
X0287813D01*
X0287646Y0144945D01*
Y0145278D01*
X0287813Y0145445D01*
X0287646Y0146444D02*
Y0145778D01*
X0288313Y0146444D01*
X0288479D01*
X0288646Y0146278D01*
Y0145945D01*
X0288479Y0145778D01*
X0288646Y0147444D02*
Y0146778D01*
X0288146D01*
X0288313Y0147111D01*
Y0147277D01*
X0288146Y0147444D01*
X0287813D01*
X0287646Y0147277D01*
Y0146944D01*
X0287813Y0146778D01*
X0288349Y0165645D02*
X0288515Y0165478D01*
Y0165145D01*
X0288349Y0164978D01*
X0287682D01*
X0287516Y0165145D01*
Y0165478D01*
X0287682Y0165645D01*
X0287516Y0166644D02*
Y0165978D01*
X0288182Y0166644D01*
X0288349D01*
X0288515Y0166478D01*
Y0166145D01*
X0288349Y0165978D01*
X0287516Y0167477D02*
X0288515D01*
X0288015Y0166978D01*
Y0167644D01*
X0286633Y0145634D02*
X0286800Y0145467D01*
Y0145134D01*
X0286633Y0144967D01*
X0285967D01*
X0285800Y0145134D01*
Y0145467D01*
X0285967Y0145634D01*
X0285800Y0146633D02*
Y0145967D01*
X0286467Y0146633D01*
X0286633D01*
X0286800Y0146467D01*
Y0146133D01*
X0286633Y0145967D01*
Y0146966D02*
X0286800Y0147133D01*
Y0147466D01*
X0286633Y0147633D01*
X0286467D01*
X0286300Y0147466D01*
Y0147300D01*
Y0147466D01*
X0286133Y0147633D01*
X0285967D01*
X0285800Y0147466D01*
Y0147133D01*
X0285967Y0146966D01*
X0296833Y0145334D02*
X0297000Y0145167D01*
Y0144834D01*
X0296833Y0144667D01*
X0296167D01*
X0296000Y0144834D01*
Y0145167D01*
X0296167Y0145334D01*
X0296000Y0146333D02*
Y0145667D01*
X0296667Y0146333D01*
X0296833D01*
X0297000Y0146167D01*
Y0145833D01*
X0296833Y0145667D01*
X0296000Y0147333D02*
Y0146666D01*
X0296667Y0147333D01*
X0296833D01*
X0297000Y0147166D01*
Y0146833D01*
X0296833Y0146666D01*
X0297000Y0159233D02*
X0297166Y0159400D01*
X0297500D01*
X0297666Y0159233D01*
Y0158567D01*
X0297500Y0158400D01*
X0297166D01*
X0297000Y0158567D01*
X0296000Y0158400D02*
X0296667D01*
X0296000Y0159067D01*
Y0159233D01*
X0296167Y0159400D01*
X0296500D01*
X0296667Y0159233D01*
X0295667Y0158400D02*
X0295334D01*
X0295500D01*
Y0159400D01*
X0295667Y0159233D01*
X0291533Y0151734D02*
X0291700Y0151567D01*
Y0151234D01*
X0291533Y0151067D01*
X0290867D01*
X0290700Y0151234D01*
Y0151567D01*
X0290867Y0151734D01*
X0290700Y0152733D02*
Y0152067D01*
X0291367Y0152733D01*
X0291533D01*
X0291700Y0152567D01*
Y0152233D01*
X0291533Y0152067D01*
Y0153066D02*
X0291700Y0153233D01*
Y0153566D01*
X0291533Y0153733D01*
X0290867D01*
X0290700Y0153566D01*
Y0153233D01*
X0290867Y0153066D01*
X0291533D01*
X0285183Y0155933D02*
X0285350Y0156100D01*
X0285683D01*
X0285850Y0155933D01*
Y0155267D01*
X0285683Y0155100D01*
X0285350D01*
X0285183Y0155267D01*
X0284850Y0155100D02*
X0284517D01*
X0284683D01*
Y0156100D01*
X0284850Y0155933D01*
X0284017Y0155267D02*
X0283850Y0155100D01*
X0283517D01*
X0283350Y0155267D01*
Y0155933D01*
X0283517Y0156100D01*
X0283850D01*
X0284017Y0155933D01*
Y0155767D01*
X0283850Y0155600D01*
X0283350D01*
X0292929Y0164644D02*
X0293096Y0164811D01*
X0293429D01*
X0293596Y0164644D01*
Y0163978D01*
X0293429Y0163811D01*
X0293096D01*
X0292929Y0163978D01*
X0292596Y0163811D02*
X0292263D01*
X0292430D01*
Y0164811D01*
X0292596Y0164644D01*
X0291763D02*
X0291596Y0164811D01*
X0291263D01*
X0291097Y0164644D01*
Y0164478D01*
X0291263Y0164311D01*
X0291097Y0164145D01*
Y0163978D01*
X0291263Y0163811D01*
X0291596D01*
X0291763Y0163978D01*
Y0164145D01*
X0291596Y0164311D01*
X0291763Y0164478D01*
Y0164644D01*
X0291596Y0164311D02*
X0291263D01*
X0296908Y0148792D02*
X0297075Y0148625D01*
Y0148292D01*
X0296908Y0148125D01*
X0296242D01*
X0296075Y0148292D01*
Y0148625D01*
X0296242Y0148792D01*
X0296075Y0149125D02*
Y0149458D01*
Y0149292D01*
X0297075D01*
X0296908Y0149125D01*
X0297075Y0149958D02*
Y0150625D01*
X0296908D01*
X0296242Y0149958D01*
X0296075D01*
X0292033Y0145617D02*
X0292200Y0145450D01*
Y0145117D01*
X0292033Y0144950D01*
X0291367D01*
X0291200Y0145117D01*
Y0145450D01*
X0291367Y0145617D01*
X0291200Y0145950D02*
Y0146283D01*
Y0146117D01*
X0292200D01*
X0292033Y0145950D01*
X0292200Y0147450D02*
X0292033Y0147116D01*
X0291700Y0146783D01*
X0291367D01*
X0291200Y0146950D01*
Y0147283D01*
X0291367Y0147450D01*
X0291533D01*
X0291700Y0147283D01*
Y0146783D01*
X0290069Y0171407D02*
X0290235Y0171574D01*
X0290569D01*
X0290735Y0171407D01*
Y0170740D01*
X0290569Y0170574D01*
X0290235D01*
X0290069Y0170740D01*
X0289069Y0170574D02*
X0289736D01*
X0289069Y0171240D01*
Y0171407D01*
X0289236Y0171574D01*
X0289569D01*
X0289736Y0171407D01*
X0291979Y0177011D02*
X0292146Y0176845D01*
Y0176511D01*
X0291979Y0176345D01*
X0291313D01*
X0291146Y0176511D01*
Y0176845D01*
X0291313Y0177011D01*
X0291146Y0177344D02*
Y0177678D01*
Y0177511D01*
X0292146D01*
X0291979Y0177344D01*
M02*
