G04*
G04 #@! TF.GenerationSoftware,Altium Limited,Altium Designer,21.3.2 (30)*
G04*
G04 Layer_Color=37055*
%FSAX43Y43*%
%MOMM*%
G71*
G04*
G04 #@! TF.SameCoordinates,45D360A2-150A-4C48-8BE0-6443E8338445*
G04*
G04*
G04 #@! TF.FilePolarity,Positive*
G04*
G01*
G75*
%ADD10C,0.100*%
%ADD11C,0.250*%
%ADD12C,0.150*%
%ADD14C,0.200*%
D10*
X0259100Y0147000D02*
G03*
X0259100Y0147000I-0000050J0000000D01*
G01*
X0229825Y0152550D02*
G03*
X0229825Y0152550I-0000050J0000000D01*
G01*
X0273500Y0142100D02*
X0299900D01*
X0319576Y0149050D02*
X0319600Y0129900D01*
X0300476Y0129850D02*
X0319600Y0129900D01*
X0300476Y0129850D02*
Y0149050D01*
X0319576D01*
X0253800Y0145000D02*
X0272900D01*
X0253800Y0125800D02*
Y0145000D01*
Y0125800D02*
X0272924Y0125850D01*
X0272900Y0145000D02*
X0272924Y0125850D01*
X0229600Y0150500D02*
Y0151000D01*
X0228800Y0150500D02*
Y0151000D01*
X0228900Y0149675D02*
X0229500D01*
X0228900Y0151825D02*
X0229500D01*
X0254600Y0147400D02*
X0255100D01*
X0254600Y0148200D02*
X0255100D01*
X0253775Y0147500D02*
Y0148100D01*
X0255925Y0147500D02*
Y0148100D01*
X0257394Y0168383D02*
Y0168883D01*
X0256594Y0168383D02*
Y0168883D01*
X0256694Y0167558D02*
X0257294D01*
X0256694Y0169708D02*
X0257294D01*
X0275894Y0201883D02*
Y0202383D01*
X0275094Y0201883D02*
Y0202383D01*
X0275194Y0201058D02*
X0275794D01*
X0275194Y0203208D02*
X0275794D01*
X0267746Y0132611D02*
Y0133111D01*
X0266946Y0132611D02*
Y0133111D01*
X0267046Y0131786D02*
X0267646D01*
X0267046Y0133936D02*
X0267646D01*
X0266446Y0140611D02*
X0266946D01*
X0266446Y0139811D02*
X0266946D01*
X0267771Y0139911D02*
Y0140511D01*
X0265621Y0139911D02*
Y0140511D01*
X0260446Y0138611D02*
X0260946D01*
X0260446Y0139411D02*
X0260946D01*
X0259621Y0138711D02*
Y0139311D01*
X0261771Y0138711D02*
Y0139311D01*
X0256946Y0131811D02*
X0257446D01*
X0256946Y0131011D02*
X0257446D01*
X0258271Y0131111D02*
Y0131711D01*
X0256121Y0131111D02*
Y0131711D01*
X0267746Y0142211D02*
Y0142711D01*
X0266946Y0142211D02*
Y0142711D01*
X0267046Y0141386D02*
X0267646D01*
X0267046Y0143536D02*
X0267646D01*
X0260446Y0139611D02*
X0260946D01*
X0260446Y0140411D02*
X0260946D01*
X0259621Y0139711D02*
Y0140311D01*
X0261771Y0139711D02*
Y0140311D01*
X0256946Y0130211D02*
X0257446D01*
X0256946Y0129411D02*
X0257446D01*
X0258271Y0129511D02*
Y0130111D01*
X0256121Y0129511D02*
Y0130111D01*
X0267746Y0129511D02*
X0268246D01*
X0267746Y0130311D02*
X0268246D01*
X0266921Y0129611D02*
Y0130211D01*
X0269071Y0129611D02*
Y0130211D01*
X0281365Y0121056D02*
Y0121556D01*
X0282165Y0121056D02*
Y0121556D01*
X0281465Y0122381D02*
X0282065D01*
X0281465Y0120231D02*
X0282065D01*
X0287752Y0121056D02*
Y0121556D01*
X0288552Y0121056D02*
Y0121556D01*
X0287852Y0122381D02*
X0288452D01*
X0287852Y0120231D02*
X0288452D01*
X0256694Y0158708D02*
X0257294D01*
X0256694Y0156558D02*
X0257294D01*
X0256594Y0157383D02*
Y0157883D01*
X0257394Y0157383D02*
Y0157883D01*
X0262746Y0151536D02*
X0263346D01*
X0262746Y0149386D02*
X0263346D01*
X0262646Y0150211D02*
Y0150711D01*
X0263446Y0150211D02*
Y0150711D01*
X0272146Y0117611D02*
X0272646D01*
X0272146Y0116811D02*
X0272646D01*
X0273471Y0116911D02*
Y0117511D01*
X0271321Y0116911D02*
Y0117511D01*
X0302596Y0126136D02*
X0303196D01*
X0302596Y0123986D02*
X0303196D01*
X0302496Y0124811D02*
Y0125311D01*
X0303296Y0124811D02*
Y0125311D01*
X0216300Y0116400D02*
X0216800D01*
X0216300Y0115600D02*
X0216800D01*
X0217625Y0115700D02*
Y0116300D01*
X0215475Y0115700D02*
Y0116300D01*
X0221400Y0115900D02*
Y0116400D01*
X0220600Y0115900D02*
Y0116400D01*
X0220700Y0115075D02*
X0221300D01*
X0220700Y0117225D02*
X0221300D01*
X0213100Y0115600D02*
X0213600D01*
X0213100Y0116400D02*
X0213600D01*
X0212275Y0115700D02*
Y0116300D01*
X0214425Y0115700D02*
Y0116300D01*
X0222625Y0118800D02*
Y0119400D01*
X0220475Y0118800D02*
Y0119400D01*
X0221300Y0119500D02*
X0221800D01*
X0221300Y0118700D02*
X0221800D01*
X0222875Y0118800D02*
Y0119400D01*
X0225025Y0118800D02*
Y0119400D01*
X0223700Y0118700D02*
X0224200D01*
X0223700Y0119500D02*
X0224200D01*
X0223875Y0128900D02*
Y0129500D01*
X0226025Y0128900D02*
Y0129500D01*
X0224700Y0128800D02*
X0225200D01*
X0224700Y0129600D02*
X0225200D01*
X0220000Y0127000D02*
Y0127500D01*
X0220800Y0127000D02*
Y0127500D01*
X0220100Y0128325D02*
X0220700D01*
X0220100Y0126175D02*
X0220700D01*
X0220900Y0120500D02*
Y0121000D01*
X0220100Y0120500D02*
Y0121000D01*
X0220200Y0119675D02*
X0220800D01*
X0220200Y0121825D02*
X0220800D01*
X0117546Y0152736D02*
X0118146D01*
X0117546Y0150586D02*
X0118146D01*
X0117446Y0151411D02*
Y0151911D01*
X0118246Y0151411D02*
Y0151911D01*
X0139071Y0151711D02*
Y0152311D01*
X0136921Y0151711D02*
Y0152311D01*
X0137746Y0152411D02*
X0138246D01*
X0137746Y0151611D02*
X0138246D01*
X0117546Y0136736D02*
X0118146D01*
X0117546Y0134586D02*
X0118146D01*
X0117446Y0135411D02*
Y0135911D01*
X0118246Y0135411D02*
Y0135911D01*
X0139071Y0135711D02*
Y0136311D01*
X0136921Y0135711D02*
Y0136311D01*
X0137746Y0136411D02*
X0138246D01*
X0137746Y0135611D02*
X0138246D01*
X0117546Y0168736D02*
X0118146D01*
X0117546Y0166586D02*
X0118146D01*
X0117446Y0167411D02*
Y0167911D01*
X0118246Y0167411D02*
Y0167911D01*
X0139071Y0167711D02*
Y0168311D01*
X0136921Y0167711D02*
Y0168311D01*
X0137746Y0168411D02*
X0138246D01*
X0137746Y0167611D02*
X0138246D01*
X0137746Y0119611D02*
X0138246D01*
X0137746Y0120411D02*
X0138246D01*
X0136921Y0119711D02*
Y0120311D01*
X0139071Y0119711D02*
Y0120311D01*
X0118246Y0119411D02*
Y0119911D01*
X0117446Y0119411D02*
Y0119911D01*
X0117546Y0118586D02*
X0118146D01*
X0117546Y0120736D02*
X0118146D01*
X0222625Y0150800D02*
Y0151400D01*
X0220475Y0150800D02*
Y0151400D01*
X0221300Y0151500D02*
X0221800D01*
X0221300Y0150700D02*
X0221800D01*
X0220700Y0149225D02*
X0221300D01*
X0220700Y0147075D02*
X0221300D01*
X0220600Y0147900D02*
Y0148400D01*
X0221400Y0147900D02*
Y0148400D01*
X0214425Y0147700D02*
Y0148300D01*
X0212275Y0147700D02*
Y0148300D01*
X0213100Y0148400D02*
X0213600D01*
X0213100Y0147600D02*
X0213600D01*
X0215475Y0147700D02*
Y0148300D01*
X0217625Y0147700D02*
Y0148300D01*
X0216300Y0147600D02*
X0216800D01*
X0216300Y0148400D02*
X0216800D01*
X0220200Y0153825D02*
X0220800D01*
X0220200Y0151675D02*
X0220800D01*
X0220100Y0152500D02*
Y0153000D01*
X0220900Y0152500D02*
Y0153000D01*
X0222875Y0150800D02*
Y0151400D01*
X0225025Y0150800D02*
Y0151400D01*
X0223700Y0150700D02*
X0224200D01*
X0223700Y0151500D02*
X0224200D01*
X0220100Y0158175D02*
X0220700D01*
X0220100Y0160325D02*
X0220700D01*
X0220800Y0159000D02*
Y0159500D01*
X0220000Y0159000D02*
Y0159500D01*
X0223875Y0160900D02*
Y0161500D01*
X0226025Y0160900D02*
Y0161500D01*
X0224700Y0160800D02*
X0225200D01*
X0224700Y0161600D02*
X0225200D01*
X0198171Y0121861D02*
X0198771D01*
X0198171Y0119711D02*
X0198771D01*
X0198071Y0120536D02*
Y0121036D01*
X0198871Y0120536D02*
Y0121036D01*
X0292346Y0163411D02*
X0292846D01*
X0292346Y0162611D02*
X0292846D01*
X0293671Y0162711D02*
Y0163311D01*
X0291521Y0162711D02*
Y0163311D01*
X0292221Y0157111D02*
Y0157711D01*
X0294371Y0157111D02*
Y0157711D01*
X0293046Y0157011D02*
X0293546D01*
X0293046Y0157811D02*
X0293546D01*
X0288645Y0157336D02*
X0289245D01*
X0288645Y0155186D02*
X0289245D01*
X0288545Y0156011D02*
Y0156511D01*
X0289345Y0156011D02*
Y0156511D01*
X0286971Y0157411D02*
Y0158011D01*
X0284821Y0157411D02*
Y0158011D01*
X0285646Y0158111D02*
X0286146D01*
X0285646Y0157311D02*
X0286146D01*
X0284546Y0164536D02*
X0285146D01*
X0284546Y0162386D02*
X0285146D01*
X0284446Y0163211D02*
Y0163711D01*
X0285246Y0163211D02*
Y0163711D01*
X0286546Y0167436D02*
X0287146D01*
X0286546Y0165286D02*
X0287146D01*
X0286446Y0166111D02*
Y0166611D01*
X0287246Y0166111D02*
Y0166611D01*
X0292221Y0158611D02*
Y0159211D01*
X0294371Y0158611D02*
Y0159211D01*
X0293046Y0158511D02*
X0293546D01*
X0293046Y0159311D02*
X0293546D01*
X0290746Y0157336D02*
X0291346D01*
X0290746Y0155186D02*
X0291346D01*
X0290646Y0156011D02*
Y0156511D01*
X0291446Y0156011D02*
Y0156511D01*
X0287871Y0156411D02*
Y0157011D01*
X0285721Y0156411D02*
Y0157011D01*
X0286546Y0157111D02*
X0287046D01*
X0286546Y0156311D02*
X0287046D01*
X0291346Y0177986D02*
X0291946D01*
X0291346Y0180136D02*
X0291946D01*
X0292046Y0178811D02*
Y0179311D01*
X0291246Y0178811D02*
Y0179311D01*
X0294846Y0146986D02*
X0295446D01*
X0294846Y0144836D02*
X0295446D01*
X0294746Y0145661D02*
Y0146161D01*
X0295546Y0145661D02*
Y0146161D01*
X0256694Y0191708D02*
X0257294D01*
X0256694Y0189558D02*
X0257294D01*
X0256594Y0190383D02*
Y0190883D01*
X0257394Y0190383D02*
Y0190883D01*
X0256694Y0180708D02*
X0257294D01*
X0256694Y0178558D02*
X0257294D01*
X0256594Y0179383D02*
Y0179883D01*
X0257394Y0179383D02*
Y0179883D01*
X0196225Y0203050D02*
Y0203650D01*
X0198375Y0203050D02*
Y0203650D01*
X0197050Y0202950D02*
X0197550D01*
X0197050Y0203750D02*
X0197550D01*
X0143600Y0186000D02*
Y0186500D01*
X0142800Y0186000D02*
Y0186500D01*
X0142900Y0185175D02*
X0143500D01*
X0142900Y0187325D02*
X0143500D01*
X0167600Y0186000D02*
Y0186500D01*
X0166800Y0186000D02*
Y0186500D01*
X0166900Y0185175D02*
X0167500D01*
X0166900Y0187325D02*
X0167500D01*
X0199046Y0131011D02*
Y0131511D01*
X0198246Y0131011D02*
Y0131511D01*
X0198346Y0130186D02*
X0198946D01*
X0198346Y0132336D02*
X0198946D01*
X0199046Y0141511D02*
Y0142011D01*
X0198246Y0141511D02*
Y0142011D01*
X0198346Y0140686D02*
X0198946D01*
X0198346Y0142836D02*
X0198946D01*
X0199046Y0153511D02*
Y0154011D01*
X0198246Y0153511D02*
Y0154011D01*
X0198346Y0152686D02*
X0198946D01*
X0198346Y0154836D02*
X0198946D01*
X0224825Y0198300D02*
Y0198900D01*
X0222675Y0198300D02*
Y0198900D01*
X0223500Y0199000D02*
X0224000D01*
X0223500Y0198200D02*
X0224000D01*
X0228825Y0196800D02*
Y0197400D01*
X0226675Y0196800D02*
Y0197400D01*
X0227500Y0197500D02*
X0228000D01*
X0227500Y0196700D02*
X0228000D01*
X0229175Y0196800D02*
Y0197400D01*
X0231325Y0196800D02*
Y0197400D01*
X0230000Y0196700D02*
X0230500D01*
X0230000Y0197500D02*
X0230500D01*
X0160821Y0115811D02*
Y0116411D01*
X0162971Y0115811D02*
Y0116411D01*
X0161646Y0115711D02*
X0162146D01*
X0161646Y0116511D02*
X0162146D01*
X0159121Y0120411D02*
Y0121011D01*
X0161271Y0120411D02*
Y0121011D01*
X0159946Y0120311D02*
X0160446D01*
X0159946Y0121111D02*
X0160446D01*
X0161646Y0132511D02*
X0162146D01*
X0161646Y0131711D02*
X0162146D01*
X0162971Y0131811D02*
Y0132411D01*
X0160821Y0131811D02*
Y0132411D01*
X0159946Y0137111D02*
X0160446D01*
X0159946Y0136311D02*
X0160446D01*
X0161271Y0136411D02*
Y0137011D01*
X0159121Y0136411D02*
Y0137011D01*
X0161646Y0148511D02*
X0162146D01*
X0161646Y0147711D02*
X0162146D01*
X0162971Y0147811D02*
Y0148411D01*
X0160821Y0147811D02*
Y0148411D01*
X0159946Y0153111D02*
X0160446D01*
X0159946Y0152311D02*
X0160446D01*
X0161271Y0152411D02*
Y0153011D01*
X0159121Y0152411D02*
Y0153011D01*
X0161646Y0164511D02*
X0162146D01*
X0161646Y0163711D02*
X0162146D01*
X0162971Y0163811D02*
Y0164411D01*
X0160821Y0163811D02*
Y0164411D01*
X0159946Y0169111D02*
X0160446D01*
X0159946Y0168311D02*
X0160446D01*
X0161271Y0168411D02*
Y0169011D01*
X0159121Y0168411D02*
Y0169011D01*
X0161525Y0196900D02*
Y0197500D01*
X0159375Y0196900D02*
Y0197500D01*
X0160200Y0197600D02*
X0160700D01*
X0160200Y0196800D02*
X0160700D01*
X0133400Y0205275D02*
X0134000D01*
X0133400Y0207425D02*
X0134000D01*
X0134100Y0206100D02*
Y0206600D01*
X0133300Y0206100D02*
Y0206600D01*
X0154000Y0206325D02*
X0154600D01*
X0154000Y0204175D02*
X0154600D01*
X0153900Y0205000D02*
Y0205500D01*
X0154700Y0205000D02*
Y0205500D01*
X0148375Y0203100D02*
Y0203700D01*
X0150525Y0203100D02*
Y0203700D01*
X0149200Y0203000D02*
X0149700D01*
X0149200Y0203800D02*
X0149700D01*
X0135275Y0197600D02*
Y0198200D01*
X0137425Y0197600D02*
Y0198200D01*
X0136100Y0197500D02*
X0136600D01*
X0136100Y0198300D02*
X0136600D01*
X0135275Y0198900D02*
Y0199500D01*
X0137425Y0198900D02*
Y0199500D01*
X0136100Y0198800D02*
X0136600D01*
X0136100Y0199600D02*
X0136600D01*
X0126825Y0197600D02*
Y0198200D01*
X0124675Y0197600D02*
Y0198200D01*
X0125500Y0198300D02*
X0126000D01*
X0125500Y0197500D02*
X0126000D01*
X0129225Y0206000D02*
Y0206600D01*
X0127075Y0206000D02*
Y0206600D01*
X0127900Y0206700D02*
X0128400D01*
X0127900Y0205900D02*
X0128400D01*
X0135275Y0201400D02*
Y0202000D01*
X0137425Y0201400D02*
Y0202000D01*
X0136100Y0201300D02*
X0136600D01*
X0136100Y0202100D02*
X0136600D01*
X0122175Y0197600D02*
Y0198200D01*
X0124325Y0197600D02*
Y0198200D01*
X0123000Y0197500D02*
X0123500D01*
X0123000Y0198300D02*
X0123500D01*
X0150477Y0199000D02*
Y0199600D01*
X0148327Y0199000D02*
Y0199600D01*
X0149152Y0199700D02*
X0149652D01*
X0149152Y0198900D02*
X0149652D01*
X0125825Y0203600D02*
Y0204200D01*
X0123675Y0203600D02*
Y0204200D01*
X0124500Y0204300D02*
X0125000D01*
X0124500Y0203500D02*
X0125000D01*
X0199046Y0174511D02*
Y0175011D01*
X0198246Y0174511D02*
Y0175011D01*
X0198346Y0173686D02*
X0198946D01*
X0198346Y0175836D02*
X0198946D01*
X0198346Y0165336D02*
X0198946D01*
X0198346Y0163186D02*
X0198946D01*
X0198246Y0164011D02*
Y0164511D01*
X0199046Y0164011D02*
Y0164511D01*
D11*
X0248171Y0202136D02*
G03*
X0248171Y0202136I-0000125J0000000D01*
G01*
D12*
X0241777Y0197992D02*
G03*
X0241777Y0197992I-0000050J0000000D01*
G01*
X0286736Y0173308D02*
Y0174308D01*
X0283775Y0173300D02*
Y0174300D01*
X0285000Y0174400D02*
X0285500D01*
X0285000Y0173200D02*
X0285500D01*
X0286736Y0171908D02*
Y0172908D01*
X0283775Y0171900D02*
Y0172900D01*
X0285000Y0173000D02*
X0285500D01*
X0285000Y0171800D02*
X0285500D01*
X0286736Y0170508D02*
Y0171508D01*
X0283775Y0170500D02*
Y0171500D01*
X0285000Y0171600D02*
X0285500D01*
X0285000Y0170400D02*
X0285500D01*
X0255287Y0150003D02*
Y0150503D01*
X0256487Y0150003D02*
Y0150503D01*
X0255387Y0151728D02*
X0256387D01*
X0255395Y0148767D02*
X0256395D01*
X0247900Y0131000D02*
X0248400D01*
X0247900Y0132200D02*
X0248400D01*
X0246675Y0131100D02*
Y0132100D01*
X0249636Y0131108D02*
Y0132108D01*
X0247900Y0127700D02*
X0248400D01*
X0247900Y0126500D02*
X0248400D01*
X0249625Y0126600D02*
Y0127600D01*
X0246664Y0126592D02*
Y0127592D01*
X0247900Y0129500D02*
X0248400D01*
X0247900Y0130700D02*
X0248400D01*
X0246675Y0129600D02*
Y0130600D01*
X0249636Y0129608D02*
Y0130608D01*
X0247900Y0129200D02*
X0248400D01*
X0247900Y0128000D02*
X0248400D01*
X0249625Y0128100D02*
Y0129100D01*
X0246664Y0128092D02*
Y0129092D01*
X0274264Y0160492D02*
Y0161492D01*
X0277225Y0160500D02*
Y0161500D01*
X0275500Y0160400D02*
X0276000D01*
X0275500Y0161600D02*
X0276000D01*
X0274264Y0171492D02*
Y0172492D01*
X0277225Y0171500D02*
Y0172500D01*
X0275500Y0171400D02*
X0276000D01*
X0275500Y0172600D02*
X0276000D01*
X0274264Y0182492D02*
Y0183492D01*
X0277225Y0182500D02*
Y0183500D01*
X0275500Y0182400D02*
X0276000D01*
X0275500Y0183600D02*
X0276000D01*
X0274264Y0193492D02*
Y0194492D01*
X0277225Y0193500D02*
Y0194500D01*
X0275500Y0193400D02*
X0276000D01*
X0275500Y0194600D02*
X0276000D01*
X0235536Y0150607D02*
Y0151607D01*
X0232575Y0150600D02*
Y0151600D01*
X0233800Y0151700D02*
X0234300D01*
X0233800Y0150500D02*
X0234300D01*
X0229692Y0148436D02*
X0230692D01*
X0229700Y0145475D02*
X0230700D01*
X0229600Y0146700D02*
Y0147200D01*
X0230800Y0146700D02*
Y0147200D01*
X0231193Y0148436D02*
X0232193D01*
X0231200Y0145475D02*
X0232200D01*
X0231100Y0146700D02*
Y0147200D01*
X0232300Y0146700D02*
Y0147200D01*
X0232692Y0148436D02*
X0233692D01*
X0232700Y0145475D02*
X0233700D01*
X0232600Y0146700D02*
Y0147200D01*
X0233800Y0146700D02*
Y0147200D01*
X0258393Y0151736D02*
X0259393D01*
X0258400Y0148775D02*
X0259400D01*
X0258300Y0150000D02*
Y0150500D01*
X0259500Y0150000D02*
Y0150500D01*
X0256895Y0148767D02*
X0257895D01*
X0256887Y0151728D02*
X0257887D01*
X0257987Y0150003D02*
Y0150503D01*
X0256787Y0150003D02*
Y0150503D01*
X0253895Y0148767D02*
X0254895D01*
X0253887Y0151728D02*
X0254887D01*
X0254987Y0150003D02*
Y0150503D01*
X0253787Y0150003D02*
Y0150503D01*
X0281192Y0159336D02*
X0282192D01*
X0281200Y0156375D02*
X0282200D01*
X0281100Y0157600D02*
Y0158100D01*
X0282300Y0157600D02*
Y0158100D01*
X0268700Y0146500D02*
X0269200D01*
X0268700Y0147700D02*
X0269200D01*
X0267475Y0146600D02*
Y0147600D01*
X0270436Y0146607D02*
Y0147607D01*
X0265232Y0149460D02*
X0266232D01*
X0265239Y0146499D02*
X0266239D01*
X0265139Y0147724D02*
Y0148224D01*
X0266339Y0147724D02*
Y0148224D01*
X0268700Y0149400D02*
X0269200D01*
X0268700Y0148200D02*
X0269200D01*
X0270425Y0148300D02*
Y0149300D01*
X0267464Y0148292D02*
Y0149292D01*
X0267426Y0151623D02*
Y0152623D01*
X0270387Y0151630D02*
Y0152630D01*
X0268662Y0151530D02*
X0269162D01*
X0268662Y0152730D02*
X0269162D01*
X0266328Y0151030D02*
Y0151530D01*
X0265128Y0151030D02*
Y0151530D01*
X0265228Y0149805D02*
X0266228D01*
X0265220Y0152766D02*
X0266220D01*
X0268651Y0149830D02*
X0269151D01*
X0268651Y0151030D02*
X0269151D01*
X0267426Y0149930D02*
Y0150930D01*
X0270387Y0149938D02*
Y0150938D01*
X0286046Y0132011D02*
Y0132511D01*
X0284846Y0132011D02*
Y0132511D01*
X0284946Y0130786D02*
X0285946D01*
X0284939Y0133747D02*
X0285939D01*
X0286939Y0133747D02*
X0287939D01*
X0286946Y0130786D02*
X0287946D01*
X0286846Y0132011D02*
Y0132511D01*
X0288046Y0132011D02*
Y0132511D01*
X0288939Y0133747D02*
X0289939D01*
X0288946Y0130786D02*
X0289946D01*
X0288846Y0132011D02*
Y0132511D01*
X0290046Y0132011D02*
Y0132511D01*
X0290939Y0133747D02*
X0291939D01*
X0290946Y0130786D02*
X0291946D01*
X0290846Y0132011D02*
Y0132511D01*
X0292046Y0132011D02*
Y0132511D01*
X0249639Y0204747D02*
X0250639D01*
X0249646Y0201786D02*
X0250646D01*
X0249546Y0203011D02*
Y0203511D01*
X0250746Y0203011D02*
Y0203511D01*
X0252654Y0201775D02*
X0253654D01*
X0252646Y0204736D02*
X0253646D01*
X0253746Y0203011D02*
Y0203511D01*
X0252546Y0203011D02*
Y0203511D01*
X0255546Y0203011D02*
Y0203511D01*
X0256746Y0203011D02*
Y0203511D01*
X0255646Y0204736D02*
X0256646D01*
X0255654Y0201775D02*
X0256654D01*
X0193146Y0192511D02*
Y0193011D01*
X0191946Y0192511D02*
Y0193011D01*
X0192046Y0191286D02*
X0193046D01*
X0192039Y0194247D02*
X0193039D01*
X0193146Y0183011D02*
Y0183511D01*
X0191946Y0183011D02*
Y0183511D01*
X0192046Y0181786D02*
X0193046D01*
X0192039Y0184747D02*
X0193039D01*
X0199264Y0122272D02*
X0200264D01*
X0199271Y0119311D02*
X0200271D01*
X0199171Y0120536D02*
Y0121036D01*
X0200371Y0120536D02*
Y0121036D01*
X0188525Y0192582D02*
Y0193082D01*
X0189725Y0192582D02*
Y0193082D01*
X0188625Y0194307D02*
X0189625D01*
X0188633Y0191345D02*
X0189633D01*
X0189725Y0184581D02*
Y0185082D01*
X0188525Y0184581D02*
Y0185082D01*
X0188625Y0183357D02*
X0189625D01*
X0188617Y0186318D02*
X0189617D01*
X0196604Y0192581D02*
Y0193081D01*
X0197804Y0192581D02*
Y0193081D01*
X0196704Y0194306D02*
X0197704D01*
X0196711Y0191345D02*
X0197711D01*
X0197799Y0184382D02*
Y0184882D01*
X0196599Y0184382D02*
Y0184882D01*
X0196699Y0183156D02*
X0197699D01*
X0196692Y0186118D02*
X0197692D01*
X0269408Y0154564D02*
X0270408D01*
X0269400Y0157525D02*
X0270400D01*
X0270500Y0155800D02*
Y0156300D01*
X0269300Y0155800D02*
Y0156300D01*
X0195864Y0204193D02*
Y0205193D01*
X0198825Y0204200D02*
Y0205200D01*
X0197100Y0204100D02*
X0197600D01*
X0197100Y0205300D02*
X0197600D01*
X0206700Y0191000D02*
Y0191500D01*
X0205500Y0191000D02*
Y0191500D01*
X0205600Y0189775D02*
X0206600D01*
X0205592Y0192737D02*
X0206592D01*
X0206700Y0184400D02*
Y0184900D01*
X0205500Y0184400D02*
Y0184900D01*
X0205600Y0183175D02*
X0206600D01*
X0205592Y0186137D02*
X0206592D01*
X0145100Y0186000D02*
Y0186500D01*
X0143900Y0186000D02*
Y0186500D01*
X0144000Y0184775D02*
X0145000D01*
X0143992Y0187737D02*
X0144992D01*
X0169100Y0186000D02*
Y0186500D01*
X0167900Y0186000D02*
Y0186500D01*
X0168000Y0184775D02*
X0169000D01*
X0167992Y0187737D02*
X0168992D01*
X0200546Y0131011D02*
Y0131511D01*
X0199346Y0131011D02*
Y0131511D01*
X0199446Y0129786D02*
X0200446D01*
X0199439Y0132747D02*
X0200439D01*
X0200546Y0141511D02*
Y0142011D01*
X0199346Y0141511D02*
Y0142011D01*
X0199446Y0140286D02*
X0200446D01*
X0199439Y0143247D02*
X0200439D01*
X0200546Y0153511D02*
Y0154011D01*
X0199346Y0153511D02*
Y0154011D01*
X0199446Y0152286D02*
X0200446D01*
X0199439Y0155247D02*
X0200439D01*
X0165446Y0116711D02*
Y0117211D01*
X0164246Y0116711D02*
Y0117211D01*
X0164346Y0115486D02*
X0165346D01*
X0164339Y0118447D02*
X0165339D01*
X0163646Y0121311D02*
Y0121811D01*
X0162446Y0121311D02*
Y0121811D01*
X0162546Y0120086D02*
X0163546D01*
X0162539Y0123047D02*
X0163539D01*
X0164339Y0134447D02*
X0165339D01*
X0164346Y0131486D02*
X0165346D01*
X0164246Y0132711D02*
Y0133211D01*
X0165446Y0132711D02*
Y0133211D01*
X0162539Y0139047D02*
X0163539D01*
X0162546Y0136086D02*
X0163546D01*
X0162446Y0137311D02*
Y0137811D01*
X0163646Y0137311D02*
Y0137811D01*
X0164339Y0150447D02*
X0165339D01*
X0164346Y0147486D02*
X0165346D01*
X0164246Y0148711D02*
Y0149211D01*
X0165446Y0148711D02*
Y0149211D01*
X0162539Y0155047D02*
X0163539D01*
X0162546Y0152086D02*
X0163546D01*
X0162446Y0153311D02*
Y0153811D01*
X0163646Y0153311D02*
Y0153811D01*
X0164339Y0166447D02*
X0165339D01*
X0164346Y0163486D02*
X0165346D01*
X0164246Y0164711D02*
Y0165211D01*
X0165446Y0164711D02*
Y0165211D01*
X0162539Y0171047D02*
X0163539D01*
X0162546Y0168086D02*
X0163546D01*
X0162446Y0169311D02*
Y0169811D01*
X0163646Y0169311D02*
Y0169811D01*
X0161936Y0198208D02*
Y0199208D01*
X0158975Y0198200D02*
Y0199200D01*
X0160200Y0199300D02*
X0160700D01*
X0160200Y0198100D02*
X0160700D01*
X0141508Y0205064D02*
X0142508D01*
X0141500Y0208025D02*
X0142500D01*
X0142600Y0206300D02*
Y0206800D01*
X0141400Y0206300D02*
Y0206800D01*
X0138900Y0206300D02*
Y0206800D01*
X0137700Y0206300D02*
Y0206800D01*
X0137800Y0205075D02*
X0138800D01*
X0137792Y0208037D02*
X0138792D01*
X0146000Y0206400D02*
Y0206900D01*
X0147200Y0206400D02*
Y0206900D01*
X0146100Y0208125D02*
X0147100D01*
X0146108Y0205164D02*
X0147107D01*
X0156000Y0206300D02*
Y0206800D01*
X0157200Y0206300D02*
Y0206800D01*
X0156100Y0208025D02*
X0157100D01*
X0156108Y0205064D02*
X0157108D01*
X0160530Y0193638D02*
X0161165D01*
X0160530Y0195162D02*
X0161165D01*
X0159260Y0193765D02*
Y0195035D01*
X0162435Y0193765D02*
Y0195035D01*
X0123000Y0199800D02*
X0123500D01*
X0123000Y0198600D02*
X0123500D01*
X0124725Y0198700D02*
Y0199700D01*
X0121764Y0198693D02*
Y0199693D01*
X0149115Y0197311D02*
X0149615D01*
X0149115Y0198511D02*
X0149615D01*
X0147890Y0197411D02*
Y0198411D01*
X0150852Y0197418D02*
Y0198418D01*
X0124500Y0202100D02*
X0125000D01*
X0124500Y0203300D02*
X0125000D01*
X0123275Y0202200D02*
Y0203200D01*
X0126236Y0202208D02*
Y0203208D01*
X0200546Y0174511D02*
Y0175011D01*
X0199346Y0174511D02*
Y0175011D01*
X0199446Y0173286D02*
X0200446D01*
X0199439Y0176247D02*
X0200439D01*
X0199439Y0165747D02*
X0200439D01*
X0199446Y0162786D02*
X0200446D01*
X0199346Y0164011D02*
Y0164511D01*
X0200546Y0164011D02*
Y0164511D01*
X0269300Y0166800D02*
Y0167300D01*
X0270500Y0166800D02*
Y0167300D01*
X0269400Y0168525D02*
X0270400D01*
X0269408Y0165564D02*
X0270408D01*
X0278108D02*
X0279108D01*
X0278100Y0168525D02*
X0279100D01*
X0279200Y0166800D02*
Y0167300D01*
X0278000Y0166800D02*
Y0167300D01*
X0278108Y0168764D02*
X0279108D01*
X0278100Y0171725D02*
X0279100D01*
X0279200Y0170000D02*
Y0170500D01*
X0278000Y0170000D02*
Y0170500D01*
X0269300Y0177800D02*
Y0178300D01*
X0270500Y0177800D02*
Y0178300D01*
X0269400Y0179525D02*
X0270400D01*
X0269408Y0176564D02*
X0270408D01*
X0278108D02*
X0279108D01*
X0278100Y0179525D02*
X0279100D01*
X0279200Y0177800D02*
Y0178300D01*
X0278000Y0177800D02*
Y0178300D01*
X0278108Y0179764D02*
X0279108D01*
X0278100Y0182725D02*
X0279100D01*
X0279200Y0181000D02*
Y0181500D01*
X0278000Y0181000D02*
Y0181500D01*
Y0155800D02*
Y0156300D01*
X0279200Y0155800D02*
Y0156300D01*
X0278100Y0157525D02*
X0279100D01*
X0278108Y0154564D02*
X0279108D01*
X0278000Y0159000D02*
Y0159500D01*
X0279200Y0159000D02*
Y0159500D01*
X0278100Y0160725D02*
X0279100D01*
X0278108Y0157764D02*
X0279108D01*
X0269300Y0188800D02*
Y0189300D01*
X0270500Y0188800D02*
Y0189300D01*
X0269400Y0190525D02*
X0270400D01*
X0269408Y0187564D02*
X0270408D01*
X0278000Y0188800D02*
Y0189300D01*
X0279200Y0188800D02*
Y0189300D01*
X0278100Y0190525D02*
X0279100D01*
X0278108Y0187564D02*
X0279107D01*
X0278000Y0192000D02*
Y0192500D01*
X0279200Y0192000D02*
Y0192500D01*
X0278100Y0193725D02*
X0279100D01*
X0278108Y0190764D02*
X0279107D01*
D14*
X0258245Y0147000D02*
X0258650D01*
X0256550D02*
X0256955D01*
X0258245Y0144600D02*
X0258650D01*
X0256550D02*
X0256955D01*
X0232175Y0150050D02*
Y0150455D01*
Y0151745D02*
Y0152150D01*
X0229775Y0150050D02*
Y0150455D01*
Y0151745D02*
Y0152150D01*
X0247746Y0202911D02*
Y0203511D01*
X0245546Y0202911D02*
Y0203511D01*
Y0202911D02*
X0247746D01*
X0245546Y0203511D02*
X0247746D01*
X0104460Y0165751D02*
X0106046Y0165740D01*
X0104446Y0163940D02*
X0106046D01*
X0104460Y0157711D02*
X0106046Y0157700D01*
X0104446Y0155900D02*
X0106046D01*
X0104500Y0185600D02*
X0106100D01*
X0104500Y0183800D02*
X0106086Y0183789D01*
X0104514Y0182611D02*
X0106100Y0182600D01*
X0104500Y0180800D02*
X0106100D01*
X0104460Y0173671D02*
X0106046Y0173660D01*
X0104446Y0171860D02*
X0106046D01*
X0104460Y0133622D02*
X0106046Y0133611D01*
X0104446Y0131811D02*
X0106046D01*
X0104460Y0141622D02*
X0106046Y0141611D01*
X0104446Y0139811D02*
X0106046D01*
X0104460Y0125722D02*
X0106046Y0125711D01*
X0104446Y0123911D02*
X0106046D01*
X0104460Y0149722D02*
X0106046Y0149711D01*
X0104446Y0147911D02*
X0106046D01*
X0290668Y0172807D02*
X0290835Y0172974D01*
X0291168D01*
X0291335Y0172807D01*
Y0172140D01*
X0291168Y0171974D01*
X0290835D01*
X0290668Y0172140D01*
X0289669Y0171974D02*
X0290335D01*
X0289669Y0172640D01*
Y0172807D01*
X0289835Y0172974D01*
X0290169D01*
X0290335Y0172807D01*
X0289336Y0172140D02*
X0289169Y0171974D01*
X0288836D01*
X0288669Y0172140D01*
Y0172807D01*
X0288836Y0172974D01*
X0289169D01*
X0289336Y0172807D01*
Y0172640D01*
X0289169Y0172474D01*
X0288669D01*
X0288336Y0172807D02*
X0288169Y0172974D01*
X0287836D01*
X0287669Y0172807D01*
Y0172640D01*
X0287836Y0172474D01*
X0287669Y0172307D01*
Y0172140D01*
X0287836Y0171974D01*
X0288169D01*
X0288336Y0172140D01*
Y0172307D01*
X0288169Y0172474D01*
X0288336Y0172640D01*
Y0172807D01*
X0288169Y0172474D02*
X0287836D01*
X0290668Y0174207D02*
X0290835Y0174374D01*
X0291168D01*
X0291335Y0174207D01*
Y0173540D01*
X0291168Y0173374D01*
X0290835D01*
X0290668Y0173540D01*
X0289669Y0173374D02*
X0290335D01*
X0289669Y0174040D01*
Y0174207D01*
X0289835Y0174374D01*
X0290169D01*
X0290335Y0174207D01*
X0289336Y0173540D02*
X0289169Y0173374D01*
X0288836D01*
X0288669Y0173540D01*
Y0174207D01*
X0288836Y0174374D01*
X0289169D01*
X0289336Y0174207D01*
Y0174040D01*
X0289169Y0173874D01*
X0288669D01*
X0288336Y0174374D02*
X0287669D01*
Y0174207D01*
X0288336Y0173540D01*
Y0173374D01*
X0249566Y0120500D02*
Y0121500D01*
X0249066D01*
X0248900Y0121333D01*
Y0121000D01*
X0249066Y0120833D01*
X0249566D01*
X0249233D02*
X0248900Y0120500D01*
X0248566D02*
X0248233D01*
X0248400D01*
Y0121500D01*
X0248566Y0121333D01*
X0247733Y0120500D02*
X0247400D01*
X0247567D01*
Y0121500D01*
X0247733Y0121333D01*
X0246900Y0121500D02*
X0246234D01*
Y0121333D01*
X0246900Y0120667D01*
Y0120500D01*
X0249566Y0122000D02*
Y0123000D01*
X0249066D01*
X0248900Y0122833D01*
Y0122500D01*
X0249066Y0122333D01*
X0249566D01*
X0249233D02*
X0248900Y0122000D01*
X0248566D02*
X0248233D01*
X0248400D01*
Y0123000D01*
X0248566Y0122833D01*
X0247733Y0122000D02*
X0247400D01*
X0247567D01*
Y0123000D01*
X0247733Y0122833D01*
X0246234Y0123000D02*
X0246900D01*
Y0122500D01*
X0246567Y0122667D01*
X0246400D01*
X0246234Y0122500D01*
Y0122167D01*
X0246400Y0122000D01*
X0246734D01*
X0246900Y0122167D01*
X0249533Y0125000D02*
Y0126000D01*
X0249033D01*
X0248866Y0125833D01*
Y0125500D01*
X0249033Y0125333D01*
X0249533D01*
X0249200D02*
X0248866Y0125000D01*
X0247867D02*
X0248533D01*
X0247867Y0125667D01*
Y0125833D01*
X0248033Y0126000D01*
X0248367D01*
X0248533Y0125833D01*
X0246867Y0126000D02*
X0247200Y0125833D01*
X0247534Y0125500D01*
Y0125167D01*
X0247367Y0125000D01*
X0247034D01*
X0246867Y0125167D01*
Y0125333D01*
X0247034Y0125500D01*
X0247534D01*
X0249566Y0123500D02*
Y0124500D01*
X0249066D01*
X0248900Y0124333D01*
Y0124000D01*
X0249066Y0123833D01*
X0249566D01*
X0249233D02*
X0248900Y0123500D01*
X0248566D02*
X0248233D01*
X0248400D01*
Y0124500D01*
X0248566Y0124333D01*
X0247733Y0123500D02*
X0247400D01*
X0247567D01*
Y0124500D01*
X0247733Y0124333D01*
X0246234Y0124500D02*
X0246567Y0124333D01*
X0246900Y0124000D01*
Y0123667D01*
X0246734Y0123500D01*
X0246400D01*
X0246234Y0123667D01*
Y0123833D01*
X0246400Y0124000D01*
X0246900D01*
X0273366Y0161333D02*
X0273533Y0161500D01*
X0273866D01*
X0274033Y0161333D01*
Y0160667D01*
X0273866Y0160500D01*
X0273533D01*
X0273366Y0160667D01*
X0272367Y0160500D02*
X0273033D01*
X0272367Y0161167D01*
Y0161333D01*
X0272533Y0161500D01*
X0272866D01*
X0273033Y0161333D01*
X0272033Y0160667D02*
X0271867Y0160500D01*
X0271534D01*
X0271367Y0160667D01*
Y0161333D01*
X0271534Y0161500D01*
X0271867D01*
X0272033Y0161333D01*
Y0161167D01*
X0271867Y0161000D01*
X0271367D01*
X0270367Y0161500D02*
X0270701Y0161333D01*
X0271034Y0161000D01*
Y0160667D01*
X0270867Y0160500D01*
X0270534D01*
X0270367Y0160667D01*
Y0160833D01*
X0270534Y0161000D01*
X0271034D01*
X0273366Y0172333D02*
X0273533Y0172500D01*
X0273866D01*
X0274033Y0172333D01*
Y0171667D01*
X0273866Y0171500D01*
X0273533D01*
X0273366Y0171667D01*
X0272367Y0171500D02*
X0273033D01*
X0272367Y0172167D01*
Y0172333D01*
X0272533Y0172500D01*
X0272866D01*
X0273033Y0172333D01*
X0272033Y0171667D02*
X0271867Y0171500D01*
X0271534D01*
X0271367Y0171667D01*
Y0172333D01*
X0271534Y0172500D01*
X0271867D01*
X0272033Y0172333D01*
Y0172167D01*
X0271867Y0172000D01*
X0271367D01*
X0270367Y0172500D02*
X0271034D01*
Y0172000D01*
X0270701Y0172167D01*
X0270534D01*
X0270367Y0172000D01*
Y0171667D01*
X0270534Y0171500D01*
X0270867D01*
X0271034Y0171667D01*
X0273266Y0183333D02*
X0273433Y0183500D01*
X0273766D01*
X0273933Y0183333D01*
Y0182667D01*
X0273766Y0182500D01*
X0273433D01*
X0273266Y0182667D01*
X0272267Y0182500D02*
X0272933D01*
X0272267Y0183167D01*
Y0183333D01*
X0272433Y0183500D01*
X0272766D01*
X0272933Y0183333D01*
X0271933Y0182667D02*
X0271767Y0182500D01*
X0271434D01*
X0271267Y0182667D01*
Y0183333D01*
X0271434Y0183500D01*
X0271767D01*
X0271933Y0183333D01*
Y0183167D01*
X0271767Y0183000D01*
X0271267D01*
X0270434Y0182500D02*
Y0183500D01*
X0270934Y0183000D01*
X0270267D01*
X0273266Y0194333D02*
X0273433Y0194500D01*
X0273766D01*
X0273933Y0194333D01*
Y0193667D01*
X0273766Y0193500D01*
X0273433D01*
X0273266Y0193667D01*
X0272267Y0193500D02*
X0272933D01*
X0272267Y0194167D01*
Y0194333D01*
X0272433Y0194500D01*
X0272766D01*
X0272933Y0194333D01*
X0271933Y0193667D02*
X0271767Y0193500D01*
X0271434D01*
X0271267Y0193667D01*
Y0194333D01*
X0271434Y0194500D01*
X0271767D01*
X0271933Y0194333D01*
Y0194167D01*
X0271767Y0194000D01*
X0271267D01*
X0270934Y0194333D02*
X0270767Y0194500D01*
X0270434D01*
X0270267Y0194333D01*
Y0194167D01*
X0270434Y0194000D01*
X0270600D01*
X0270434D01*
X0270267Y0193833D01*
Y0193667D01*
X0270434Y0193500D01*
X0270767D01*
X0270934Y0193667D01*
X0255850Y0146700D02*
Y0145867D01*
X0255683Y0145700D01*
X0255350D01*
X0255183Y0145867D01*
Y0146700D01*
X0254850Y0145700D02*
X0254517D01*
X0254683D01*
Y0146700D01*
X0254850Y0146533D01*
X0254017D02*
X0253850Y0146700D01*
X0253517D01*
X0253350Y0146533D01*
Y0146367D01*
X0253517Y0146200D01*
X0253350Y0146033D01*
Y0145867D01*
X0253517Y0145700D01*
X0253850D01*
X0254017Y0145867D01*
Y0146033D01*
X0253850Y0146200D01*
X0254017Y0146367D01*
Y0146533D01*
X0253850Y0146200D02*
X0253517D01*
X0318713Y0131744D02*
X0318879Y0131911D01*
X0319212D01*
X0319379Y0131744D01*
Y0131078D01*
X0319212Y0130911D01*
X0318879D01*
X0318713Y0131078D01*
X0318379Y0131911D02*
X0317713D01*
Y0131744D01*
X0318379Y0131078D01*
Y0130911D01*
X0317380Y0131744D02*
X0317213Y0131911D01*
X0316880D01*
X0316713Y0131744D01*
Y0131578D01*
X0316880Y0131411D01*
X0317047D01*
X0316880D01*
X0316713Y0131245D01*
Y0131078D01*
X0316880Y0130911D01*
X0317213D01*
X0317380Y0131078D01*
X0316579Y0148045D02*
X0316746Y0147878D01*
Y0147545D01*
X0316579Y0147378D01*
X0315913D01*
X0315746Y0147545D01*
Y0147878D01*
X0315913Y0148045D01*
X0315746Y0148878D02*
X0316746D01*
X0316246Y0148378D01*
Y0149044D01*
X0315913Y0149378D02*
X0315746Y0149544D01*
Y0149877D01*
X0315913Y0150044D01*
X0316579D01*
X0316746Y0149877D01*
Y0149544D01*
X0316579Y0149378D01*
X0316413D01*
X0316246Y0149544D01*
Y0150044D01*
X0240146Y0198078D02*
X0241146D01*
Y0198578D01*
X0240979Y0198745D01*
X0240646D01*
X0240480Y0198578D01*
Y0198078D01*
Y0198412D02*
X0240146Y0198745D01*
Y0199745D02*
Y0199078D01*
X0240813Y0199745D01*
X0240979D01*
X0241146Y0199578D01*
Y0199245D01*
X0240979Y0199078D01*
Y0200078D02*
X0241146Y0200244D01*
Y0200578D01*
X0240979Y0200744D01*
X0240313D01*
X0240146Y0200578D01*
Y0200244D01*
X0240313Y0200078D01*
X0240979D01*
Y0201077D02*
X0241146Y0201244D01*
Y0201577D01*
X0240979Y0201744D01*
X0240813D01*
X0240646Y0201577D01*
X0240480Y0201744D01*
X0240313D01*
X0240146Y0201577D01*
Y0201244D01*
X0240313Y0201077D01*
X0240480D01*
X0240646Y0201244D01*
X0240813Y0201077D01*
X0240979D01*
X0240646Y0201244D02*
Y0201577D01*
X0224766Y0147934D02*
X0224933Y0148100D01*
X0225266D01*
X0225433Y0147934D01*
Y0147267D01*
X0225266Y0147101D01*
X0224933D01*
X0224766Y0147267D01*
X0223767Y0147101D02*
X0224433D01*
X0223767Y0147767D01*
Y0147934D01*
X0223933Y0148100D01*
X0224266D01*
X0224433Y0147934D01*
X0222767Y0148100D02*
X0223433D01*
Y0147600D01*
X0223100Y0147767D01*
X0222934D01*
X0222767Y0147600D01*
Y0147267D01*
X0222934Y0147101D01*
X0223267D01*
X0223433Y0147267D01*
X0222434Y0147934D02*
X0222267Y0148100D01*
X0221934D01*
X0221767Y0147934D01*
Y0147767D01*
X0221934Y0147600D01*
X0221767Y0147434D01*
Y0147267D01*
X0221934Y0147101D01*
X0222267D01*
X0222434Y0147267D01*
Y0147434D01*
X0222267Y0147600D01*
X0222434Y0147767D01*
Y0147934D01*
X0222267Y0147600D02*
X0221934D01*
X0213766Y0149634D02*
X0213933Y0149800D01*
X0214266D01*
X0214433Y0149634D01*
Y0148967D01*
X0214266Y0148801D01*
X0213933D01*
X0213766Y0148967D01*
X0212767Y0148801D02*
X0213433D01*
X0212767Y0149467D01*
Y0149634D01*
X0212933Y0149800D01*
X0213266D01*
X0213433Y0149634D01*
X0211767Y0149800D02*
X0212433D01*
Y0149300D01*
X0212100Y0149467D01*
X0211934D01*
X0211767Y0149300D01*
Y0148967D01*
X0211934Y0148801D01*
X0212267D01*
X0212433Y0148967D01*
X0211434Y0149800D02*
X0210767D01*
Y0149634D01*
X0211434Y0148967D01*
Y0148801D01*
X0219300Y0151334D02*
X0219466Y0151500D01*
X0219800D01*
X0219966Y0151334D01*
Y0150667D01*
X0219800Y0150501D01*
X0219466D01*
X0219300Y0150667D01*
X0218300Y0150501D02*
X0218966D01*
X0218300Y0151167D01*
Y0151334D01*
X0218467Y0151500D01*
X0218800D01*
X0218966Y0151334D01*
X0217300Y0151500D02*
X0217967D01*
Y0151000D01*
X0217634Y0151167D01*
X0217467D01*
X0217300Y0151000D01*
Y0150667D01*
X0217467Y0150501D01*
X0217800D01*
X0217967Y0150667D01*
X0216301Y0151500D02*
X0216634Y0151334D01*
X0216967Y0151000D01*
Y0150667D01*
X0216800Y0150501D01*
X0216467D01*
X0216301Y0150667D01*
Y0150834D01*
X0216467Y0151000D01*
X0216967D01*
X0218466Y0149533D02*
X0218633Y0149700D01*
X0218966D01*
X0219133Y0149533D01*
Y0148867D01*
X0218966Y0148700D01*
X0218633D01*
X0218466Y0148867D01*
X0217467Y0148700D02*
X0218133D01*
X0217467Y0149367D01*
Y0149533D01*
X0217633Y0149700D01*
X0217966D01*
X0218133Y0149533D01*
X0216467Y0149700D02*
X0217133D01*
Y0149200D01*
X0216800Y0149367D01*
X0216634D01*
X0216467Y0149200D01*
Y0148867D01*
X0216634Y0148700D01*
X0216967D01*
X0217133Y0148867D01*
X0215467Y0149700D02*
X0216134D01*
Y0149200D01*
X0215800Y0149367D01*
X0215634D01*
X0215467Y0149200D01*
Y0148867D01*
X0215634Y0148700D01*
X0215967D01*
X0216134Y0148867D01*
X0225766Y0152733D02*
X0225933Y0152900D01*
X0226266D01*
X0226433Y0152733D01*
Y0152067D01*
X0226266Y0151900D01*
X0225933D01*
X0225766Y0152067D01*
X0224767Y0151900D02*
X0225433D01*
X0224767Y0152567D01*
Y0152733D01*
X0224933Y0152900D01*
X0225266D01*
X0225433Y0152733D01*
X0223767Y0152900D02*
X0224433D01*
Y0152400D01*
X0224100Y0152567D01*
X0223934D01*
X0223767Y0152400D01*
Y0152067D01*
X0223934Y0151900D01*
X0224267D01*
X0224433Y0152067D01*
X0222934Y0151900D02*
Y0152900D01*
X0223434Y0152400D01*
X0222767D01*
X0229366Y0161533D02*
X0229533Y0161700D01*
X0229866D01*
X0230033Y0161533D01*
Y0160867D01*
X0229866Y0160700D01*
X0229533D01*
X0229366Y0160867D01*
X0228367Y0160700D02*
X0229033D01*
X0228367Y0161367D01*
Y0161533D01*
X0228533Y0161700D01*
X0228866D01*
X0229033Y0161533D01*
X0227367Y0161700D02*
X0228033D01*
Y0161200D01*
X0227700Y0161367D01*
X0227534D01*
X0227367Y0161200D01*
Y0160867D01*
X0227534Y0160700D01*
X0227867D01*
X0228033Y0160867D01*
X0227034Y0161533D02*
X0226867Y0161700D01*
X0226534D01*
X0226367Y0161533D01*
Y0161367D01*
X0226534Y0161200D01*
X0226700D01*
X0226534D01*
X0226367Y0161033D01*
Y0160867D01*
X0226534Y0160700D01*
X0226867D01*
X0227034Y0160867D01*
X0221933Y0158217D02*
X0222100Y0158051D01*
Y0157718D01*
X0221933Y0157551D01*
X0221267D01*
X0221100Y0157718D01*
Y0158051D01*
X0221267Y0158217D01*
X0221100Y0159217D02*
Y0158551D01*
X0221767Y0159217D01*
X0221933D01*
X0222100Y0159050D01*
Y0158717D01*
X0221933Y0158551D01*
X0222100Y0160217D02*
Y0159550D01*
X0221600D01*
X0221767Y0159884D01*
Y0160050D01*
X0221600Y0160217D01*
X0221267D01*
X0221100Y0160050D01*
Y0159717D01*
X0221267Y0159550D01*
X0221100Y0161216D02*
Y0160550D01*
X0221767Y0161216D01*
X0221933D01*
X0222100Y0161050D01*
Y0160717D01*
X0221933Y0160550D01*
X0222033Y0152500D02*
X0222200Y0152334D01*
Y0152000D01*
X0222033Y0151834D01*
X0221367D01*
X0221200Y0152000D01*
Y0152334D01*
X0221367Y0152500D01*
X0221200Y0153500D02*
Y0152834D01*
X0221867Y0153500D01*
X0222033D01*
X0222200Y0153333D01*
Y0153000D01*
X0222033Y0152834D01*
X0222200Y0154500D02*
Y0153833D01*
X0221700D01*
X0221867Y0154166D01*
Y0154333D01*
X0221700Y0154500D01*
X0221367D01*
X0221200Y0154333D01*
Y0154000D01*
X0221367Y0153833D01*
X0221200Y0154833D02*
Y0155166D01*
Y0155000D01*
X0222200D01*
X0222033Y0154833D01*
X0218483Y0117634D02*
X0218650Y0117800D01*
X0218983D01*
X0219149Y0117634D01*
Y0116967D01*
X0218983Y0116801D01*
X0218650D01*
X0218483Y0116967D01*
X0218150Y0116801D02*
X0217817D01*
X0217983D01*
Y0117800D01*
X0218150Y0117634D01*
X0217317Y0116967D02*
X0217150Y0116801D01*
X0216817D01*
X0216650Y0116967D01*
Y0117634D01*
X0216817Y0117800D01*
X0217150D01*
X0217317Y0117634D01*
Y0117467D01*
X0217150Y0117300D01*
X0216650D01*
X0216317Y0117634D02*
X0216150Y0117800D01*
X0215817D01*
X0215651Y0117634D01*
Y0117467D01*
X0215817Y0117300D01*
X0215651Y0117134D01*
Y0116967D01*
X0215817Y0116801D01*
X0216150D01*
X0216317Y0116967D01*
Y0117134D01*
X0216150Y0117300D01*
X0216317Y0117467D01*
Y0117634D01*
X0216150Y0117300D02*
X0215817D01*
X0164266Y0199134D02*
X0164433Y0199300D01*
X0164766D01*
X0164933Y0199134D01*
Y0198467D01*
X0164766Y0198301D01*
X0164433D01*
X0164266Y0198467D01*
X0163933Y0199134D02*
X0163767Y0199300D01*
X0163433D01*
X0163267Y0199134D01*
Y0198967D01*
X0163433Y0198800D01*
X0163267Y0198634D01*
Y0198467D01*
X0163433Y0198301D01*
X0163767D01*
X0163933Y0198467D01*
Y0198634D01*
X0163767Y0198800D01*
X0163933Y0198967D01*
Y0199134D01*
X0163767Y0198800D02*
X0163433D01*
X0162267Y0199300D02*
X0162600Y0199134D01*
X0162934Y0198800D01*
Y0198467D01*
X0162767Y0198301D01*
X0162434D01*
X0162267Y0198467D01*
Y0198634D01*
X0162434Y0198800D01*
X0162934D01*
X0164266Y0197734D02*
X0164433Y0197900D01*
X0164766D01*
X0164933Y0197734D01*
Y0197067D01*
X0164766Y0196901D01*
X0164433D01*
X0164266Y0197067D01*
X0163933Y0197734D02*
X0163767Y0197900D01*
X0163433D01*
X0163267Y0197734D01*
Y0197567D01*
X0163433Y0197400D01*
X0163267Y0197234D01*
Y0197067D01*
X0163433Y0196901D01*
X0163767D01*
X0163933Y0197067D01*
Y0197234D01*
X0163767Y0197400D01*
X0163933Y0197567D01*
Y0197734D01*
X0163767Y0197400D02*
X0163433D01*
X0162267Y0197900D02*
X0162934D01*
Y0197400D01*
X0162600Y0197567D01*
X0162434D01*
X0162267Y0197400D01*
Y0197067D01*
X0162434Y0196901D01*
X0162767D01*
X0162934Y0197067D01*
X0272133Y0187917D02*
X0272300Y0187750D01*
Y0187417D01*
X0272133Y0187251D01*
X0271467D01*
X0271300Y0187417D01*
Y0187750D01*
X0271467Y0187917D01*
X0271300Y0188250D02*
Y0188583D01*
Y0188417D01*
X0272300D01*
X0272133Y0188250D01*
Y0189083D02*
X0272300Y0189250D01*
Y0189583D01*
X0272133Y0189750D01*
X0271967D01*
X0271800Y0189583D01*
Y0189417D01*
Y0189583D01*
X0271633Y0189750D01*
X0271467D01*
X0271300Y0189583D01*
Y0189250D01*
X0271467Y0189083D01*
X0272300Y0190749D02*
Y0190083D01*
X0271800D01*
X0271967Y0190416D01*
Y0190583D01*
X0271800Y0190749D01*
X0271467D01*
X0271300Y0190583D01*
Y0190250D01*
X0271467Y0190083D01*
X0279383Y0186933D02*
X0279550Y0187100D01*
X0279883D01*
X0280049Y0186933D01*
Y0186267D01*
X0279883Y0186100D01*
X0279550D01*
X0279383Y0186267D01*
X0279050Y0186100D02*
X0278717D01*
X0278883D01*
Y0187100D01*
X0279050Y0186933D01*
X0278217D02*
X0278050Y0187100D01*
X0277717D01*
X0277550Y0186933D01*
Y0186767D01*
X0277717Y0186600D01*
X0277883D01*
X0277717D01*
X0277550Y0186433D01*
Y0186267D01*
X0277717Y0186100D01*
X0278050D01*
X0278217Y0186267D01*
X0276717Y0186100D02*
Y0187100D01*
X0277217Y0186600D01*
X0276551D01*
X0279483Y0195933D02*
X0279650Y0196100D01*
X0279983D01*
X0280149Y0195933D01*
Y0195267D01*
X0279983Y0195100D01*
X0279650D01*
X0279483Y0195267D01*
X0279150Y0195100D02*
X0278817D01*
X0278983D01*
Y0196100D01*
X0279150Y0195933D01*
X0278317D02*
X0278150Y0196100D01*
X0277817D01*
X0277650Y0195933D01*
Y0195767D01*
X0277817Y0195600D01*
X0277983D01*
X0277817D01*
X0277650Y0195433D01*
Y0195267D01*
X0277817Y0195100D01*
X0278150D01*
X0278317Y0195267D01*
X0277317Y0195933D02*
X0277150Y0196100D01*
X0276817D01*
X0276651Y0195933D01*
Y0195767D01*
X0276817Y0195600D01*
X0276984D01*
X0276817D01*
X0276651Y0195433D01*
Y0195267D01*
X0276817Y0195100D01*
X0277150D01*
X0277317Y0195267D01*
X0272133Y0177017D02*
X0272300Y0176850D01*
Y0176517D01*
X0272133Y0176351D01*
X0271467D01*
X0271300Y0176517D01*
Y0176850D01*
X0271467Y0177017D01*
X0271300Y0177350D02*
Y0177683D01*
Y0177517D01*
X0272300D01*
X0272133Y0177350D01*
Y0178183D02*
X0272300Y0178350D01*
Y0178683D01*
X0272133Y0178850D01*
X0271967D01*
X0271800Y0178683D01*
Y0178517D01*
Y0178683D01*
X0271633Y0178850D01*
X0271467D01*
X0271300Y0178683D01*
Y0178350D01*
X0271467Y0178183D01*
X0272133Y0179183D02*
X0272300Y0179350D01*
Y0179683D01*
X0272133Y0179849D01*
X0271967D01*
X0271800Y0179683D01*
X0271633Y0179849D01*
X0271467D01*
X0271300Y0179683D01*
Y0179350D01*
X0271467Y0179183D01*
X0271633D01*
X0271800Y0179350D01*
X0271967Y0179183D01*
X0272133D01*
X0271800Y0179350D02*
Y0179683D01*
X0230650Y0154000D02*
Y0153167D01*
X0230483Y0153000D01*
X0230150D01*
X0229983Y0153167D01*
Y0154000D01*
X0229650Y0153000D02*
X0229317D01*
X0229483D01*
Y0154000D01*
X0229650Y0153833D01*
X0228817Y0153167D02*
X0228650Y0153000D01*
X0228317D01*
X0228150Y0153167D01*
Y0153833D01*
X0228317Y0154000D01*
X0228650D01*
X0228817Y0153833D01*
Y0153667D01*
X0228650Y0153500D01*
X0228150D01*
X0183333Y0124101D02*
Y0125100D01*
X0182833D01*
X0182666Y0124934D01*
Y0124600D01*
X0182833Y0124434D01*
X0183333D01*
X0183000D02*
X0182666Y0124101D01*
X0182333D02*
Y0125100D01*
X0181833D01*
X0181667Y0124934D01*
Y0124600D01*
X0181833Y0124434D01*
X0182333D01*
X0181334Y0124934D02*
X0181167Y0125100D01*
X0180834D01*
X0180667Y0124934D01*
Y0124767D01*
X0180834Y0124600D01*
X0180667Y0124434D01*
Y0124267D01*
X0180834Y0124101D01*
X0181167D01*
X0181334Y0124267D01*
Y0124434D01*
X0181167Y0124600D01*
X0181334Y0124767D01*
Y0124934D01*
X0181167Y0124600D02*
X0180834D01*
X0244833Y0114701D02*
Y0115700D01*
X0244333D01*
X0244166Y0115534D01*
Y0115200D01*
X0244333Y0115034D01*
X0244833D01*
X0244500D02*
X0244166Y0114701D01*
X0243833D02*
Y0115700D01*
X0243333D01*
X0243167Y0115534D01*
Y0115200D01*
X0243333Y0115034D01*
X0243833D01*
X0242834Y0115700D02*
X0242167D01*
Y0115534D01*
X0242834Y0114867D01*
Y0114701D01*
X0334808Y0196997D02*
Y0197997D01*
X0334308D01*
X0334142Y0197831D01*
Y0197497D01*
X0334308Y0197331D01*
X0334808D01*
X0334475D02*
X0334142Y0196997D01*
X0333808D02*
Y0197997D01*
X0333309D01*
X0333142Y0197831D01*
Y0197497D01*
X0333309Y0197331D01*
X0333808D01*
X0332142Y0197997D02*
X0332476Y0197831D01*
X0332809Y0197497D01*
Y0197164D01*
X0332642Y0196997D01*
X0332309D01*
X0332142Y0197164D01*
Y0197331D01*
X0332309Y0197497D01*
X0332809D01*
X0183333Y0193301D02*
Y0194300D01*
X0182833D01*
X0182666Y0194134D01*
Y0193800D01*
X0182833Y0193634D01*
X0183333D01*
X0183000D02*
X0182666Y0193301D01*
X0182333D02*
Y0194300D01*
X0181833D01*
X0181667Y0194134D01*
Y0193800D01*
X0181833Y0193634D01*
X0182333D01*
X0180667Y0194300D02*
X0181334D01*
Y0193800D01*
X0181000Y0193967D01*
X0180834D01*
X0180667Y0193800D01*
Y0193467D01*
X0180834Y0193301D01*
X0181167D01*
X0181334Y0193467D01*
X0164346Y0166778D02*
X0165346D01*
Y0167278D01*
X0165179Y0167445D01*
X0164846D01*
X0164680Y0167278D01*
Y0166778D01*
Y0167112D02*
X0164346Y0167445D01*
X0165179Y0167778D02*
X0165346Y0167945D01*
Y0168278D01*
X0165179Y0168445D01*
X0165013D01*
X0164846Y0168278D01*
Y0168111D01*
Y0168278D01*
X0164680Y0168445D01*
X0164513D01*
X0164346Y0168278D01*
Y0167945D01*
X0164513Y0167778D01*
X0164346Y0169278D02*
X0165346D01*
X0164846Y0168778D01*
Y0169444D01*
X0165346Y0170444D02*
X0165179Y0170111D01*
X0164846Y0169777D01*
X0164513D01*
X0164346Y0169944D01*
Y0170277D01*
X0164513Y0170444D01*
X0164680D01*
X0164846Y0170277D01*
Y0169777D01*
X0162546Y0171212D02*
X0163546D01*
Y0171712D01*
X0163379Y0171878D01*
X0163046D01*
X0162880Y0171712D01*
Y0171212D01*
Y0171545D02*
X0162546Y0171878D01*
X0163379Y0172212D02*
X0163546Y0172378D01*
Y0172711D01*
X0163379Y0172878D01*
X0163213D01*
X0163046Y0172711D01*
Y0172545D01*
Y0172711D01*
X0162880Y0172878D01*
X0162713D01*
X0162546Y0172711D01*
Y0172378D01*
X0162713Y0172212D01*
X0163379Y0173211D02*
X0163546Y0173378D01*
Y0173711D01*
X0163379Y0173878D01*
X0163213D01*
X0163046Y0173711D01*
Y0173544D01*
Y0173711D01*
X0162880Y0173878D01*
X0162713D01*
X0162546Y0173711D01*
Y0173378D01*
X0162713Y0173211D01*
X0163379Y0174211D02*
X0163546Y0174377D01*
Y0174711D01*
X0163379Y0174877D01*
X0163213D01*
X0163046Y0174711D01*
X0162880Y0174877D01*
X0162713D01*
X0162546Y0174711D01*
Y0174377D01*
X0162713Y0174211D01*
X0162880D01*
X0163046Y0174377D01*
X0163213Y0174211D01*
X0163379D01*
X0163046Y0174377D02*
Y0174711D01*
X0164346Y0150778D02*
X0165346D01*
Y0151278D01*
X0165179Y0151445D01*
X0164846D01*
X0164680Y0151278D01*
Y0150778D01*
Y0151112D02*
X0164346Y0151445D01*
X0165179Y0151778D02*
X0165346Y0151945D01*
Y0152278D01*
X0165179Y0152445D01*
X0165013D01*
X0164846Y0152278D01*
Y0152111D01*
Y0152278D01*
X0164680Y0152445D01*
X0164513D01*
X0164346Y0152278D01*
Y0151945D01*
X0164513Y0151778D01*
X0164346Y0152778D02*
Y0153111D01*
Y0152944D01*
X0165346D01*
X0165179Y0152778D01*
X0164513Y0153611D02*
X0164346Y0153777D01*
Y0154111D01*
X0164513Y0154277D01*
X0165179D01*
X0165346Y0154111D01*
Y0153777D01*
X0165179Y0153611D01*
X0165013D01*
X0164846Y0153777D01*
Y0154277D01*
X0162546Y0155628D02*
X0163546D01*
Y0156128D01*
X0163379Y0156295D01*
X0163046D01*
X0162880Y0156128D01*
Y0155628D01*
Y0155962D02*
X0162546Y0156295D01*
X0163379Y0156628D02*
X0163546Y0156795D01*
Y0157128D01*
X0163379Y0157294D01*
X0163213D01*
X0163046Y0157128D01*
Y0156961D01*
Y0157128D01*
X0162880Y0157294D01*
X0162713D01*
X0162546Y0157128D01*
Y0156795D01*
X0162713Y0156628D01*
X0162546Y0157628D02*
Y0157961D01*
Y0157794D01*
X0163546D01*
X0163379Y0157628D01*
X0162546Y0158461D02*
Y0158794D01*
Y0158627D01*
X0163546D01*
X0163379Y0158461D01*
X0164346Y0134778D02*
X0165346D01*
Y0135278D01*
X0165179Y0135445D01*
X0164846D01*
X0164680Y0135278D01*
Y0134778D01*
Y0135112D02*
X0164346Y0135445D01*
Y0136445D02*
Y0135778D01*
X0165013Y0136445D01*
X0165179D01*
X0165346Y0136278D01*
Y0135945D01*
X0165179Y0135778D01*
X0165346Y0136778D02*
Y0137444D01*
X0165179D01*
X0164513Y0136778D01*
X0164346D01*
X0165179Y0137777D02*
X0165346Y0137944D01*
Y0138277D01*
X0165179Y0138444D01*
X0165013D01*
X0164846Y0138277D01*
Y0138111D01*
Y0138277D01*
X0164680Y0138444D01*
X0164513D01*
X0164346Y0138277D01*
Y0137944D01*
X0164513Y0137777D01*
X0162546Y0139378D02*
X0163546D01*
Y0139878D01*
X0163379Y0140045D01*
X0163046D01*
X0162880Y0139878D01*
Y0139378D01*
Y0139712D02*
X0162546Y0140045D01*
Y0141045D02*
Y0140378D01*
X0163213Y0141045D01*
X0163379D01*
X0163546Y0140878D01*
Y0140545D01*
X0163379Y0140378D01*
X0163546Y0142044D02*
X0163379Y0141711D01*
X0163046Y0141378D01*
X0162713D01*
X0162546Y0141544D01*
Y0141878D01*
X0162713Y0142044D01*
X0162880D01*
X0163046Y0141878D01*
Y0141378D01*
X0163546Y0143044D02*
Y0142377D01*
X0163046D01*
X0163213Y0142711D01*
Y0142877D01*
X0163046Y0143044D01*
X0162713D01*
X0162546Y0142877D01*
Y0142544D01*
X0162713Y0142377D01*
X0164346Y0118778D02*
X0165346D01*
Y0119278D01*
X0165179Y0119445D01*
X0164846D01*
X0164680Y0119278D01*
Y0118778D01*
Y0119112D02*
X0164346Y0119445D01*
Y0120445D02*
Y0119778D01*
X0165013Y0120445D01*
X0165179D01*
X0165346Y0120278D01*
Y0119945D01*
X0165179Y0119778D01*
X0164346Y0121278D02*
X0165346D01*
X0164846Y0120778D01*
Y0121444D01*
X0165346Y0122444D02*
X0165179Y0122111D01*
X0164846Y0121777D01*
X0164513D01*
X0164346Y0121944D01*
Y0122277D01*
X0164513Y0122444D01*
X0164680D01*
X0164846Y0122277D01*
Y0121777D01*
X0162546Y0123378D02*
X0163546D01*
Y0123878D01*
X0163379Y0124045D01*
X0163046D01*
X0162880Y0123878D01*
Y0123378D01*
Y0123712D02*
X0162546Y0124045D01*
Y0125045D02*
Y0124378D01*
X0163213Y0125045D01*
X0163379D01*
X0163546Y0124878D01*
Y0124545D01*
X0163379Y0124378D01*
Y0125378D02*
X0163546Y0125544D01*
Y0125878D01*
X0163379Y0126044D01*
X0163213D01*
X0163046Y0125878D01*
Y0125711D01*
Y0125878D01*
X0162880Y0126044D01*
X0162713D01*
X0162546Y0125878D01*
Y0125544D01*
X0162713Y0125378D01*
X0163379Y0126377D02*
X0163546Y0126544D01*
Y0126877D01*
X0163379Y0127044D01*
X0163213D01*
X0163046Y0126877D01*
X0162880Y0127044D01*
X0162713D01*
X0162546Y0126877D01*
Y0126544D01*
X0162713Y0126377D01*
X0162880D01*
X0163046Y0126544D01*
X0163213Y0126377D01*
X0163379D01*
X0163046Y0126544D02*
Y0126877D01*
X0251146Y0202028D02*
X0252146D01*
Y0202528D01*
X0251979Y0202695D01*
X0251646D01*
X0251480Y0202528D01*
Y0202028D01*
Y0202362D02*
X0251146Y0202695D01*
Y0203694D02*
Y0203028D01*
X0251813Y0203694D01*
X0251979D01*
X0252146Y0203528D01*
Y0203195D01*
X0251979Y0203028D01*
X0251146Y0204028D02*
Y0204361D01*
Y0204194D01*
X0252146D01*
X0251979Y0204028D01*
X0251146Y0204861D02*
Y0205194D01*
Y0205027D01*
X0252146D01*
X0251979Y0204861D01*
X0254146Y0201962D02*
X0255146D01*
Y0202462D01*
X0254979Y0202628D01*
X0254646D01*
X0254480Y0202462D01*
Y0201962D01*
Y0202295D02*
X0254146Y0202628D01*
Y0203628D02*
Y0202961D01*
X0254813Y0203628D01*
X0254979D01*
X0255146Y0203461D01*
Y0203128D01*
X0254979Y0202961D01*
X0254146Y0203961D02*
Y0204294D01*
Y0204128D01*
X0255146D01*
X0254979Y0203961D01*
Y0204794D02*
X0255146Y0204961D01*
Y0205294D01*
X0254979Y0205461D01*
X0254313D01*
X0254146Y0205294D01*
Y0204961D01*
X0254313Y0204794D01*
X0254979D01*
X0257146Y0201878D02*
X0258146D01*
Y0202378D01*
X0257979Y0202545D01*
X0257646D01*
X0257480Y0202378D01*
Y0201878D01*
Y0202212D02*
X0257146Y0202545D01*
Y0203545D02*
Y0202878D01*
X0257813Y0203545D01*
X0257979D01*
X0258146Y0203378D01*
Y0203045D01*
X0257979Y0202878D01*
Y0203878D02*
X0258146Y0204044D01*
Y0204378D01*
X0257979Y0204544D01*
X0257313D01*
X0257146Y0204378D01*
Y0204044D01*
X0257313Y0203878D01*
X0257979D01*
X0257313Y0204877D02*
X0257146Y0205044D01*
Y0205377D01*
X0257313Y0205544D01*
X0257979D01*
X0258146Y0205377D01*
Y0205044D01*
X0257979Y0204877D01*
X0257813D01*
X0257646Y0205044D01*
Y0205544D01*
X0232700Y0141551D02*
X0233700D01*
Y0142050D01*
X0233533Y0142217D01*
X0233200D01*
X0233033Y0142050D01*
Y0141551D01*
Y0141884D02*
X0232700Y0142217D01*
Y0142550D02*
Y0142883D01*
Y0142717D01*
X0233700D01*
X0233533Y0142550D01*
X0232700Y0144050D02*
Y0143383D01*
X0233367Y0144050D01*
X0233533D01*
X0233700Y0143883D01*
Y0143550D01*
X0233533Y0143383D01*
X0232867Y0144383D02*
X0232700Y0144550D01*
Y0144883D01*
X0232867Y0145049D01*
X0233533D01*
X0233700Y0144883D01*
Y0144550D01*
X0233533Y0144383D01*
X0233367D01*
X0233200Y0144550D01*
Y0145049D01*
X0231200Y0141551D02*
X0232200D01*
Y0142050D01*
X0232033Y0142217D01*
X0231700D01*
X0231533Y0142050D01*
Y0141551D01*
Y0141884D02*
X0231200Y0142217D01*
Y0142550D02*
Y0142883D01*
Y0142717D01*
X0232200D01*
X0232033Y0142550D01*
X0231200Y0144050D02*
Y0143383D01*
X0231867Y0144050D01*
X0232033D01*
X0232200Y0143883D01*
Y0143550D01*
X0232033Y0143383D01*
Y0144383D02*
X0232200Y0144550D01*
Y0144883D01*
X0232033Y0145049D01*
X0231867D01*
X0231700Y0144883D01*
X0231533Y0145049D01*
X0231367D01*
X0231200Y0144883D01*
Y0144550D01*
X0231367Y0144383D01*
X0231533D01*
X0231700Y0144550D01*
X0231867Y0144383D01*
X0232033D01*
X0231700Y0144550D02*
Y0144883D01*
X0236149Y0149100D02*
Y0150100D01*
X0235650D01*
X0235483Y0149933D01*
Y0149600D01*
X0235650Y0149433D01*
X0236149D01*
X0235816D02*
X0235483Y0149100D01*
X0235150D02*
X0234817D01*
X0234983D01*
Y0150100D01*
X0235150Y0149933D01*
X0233650Y0149100D02*
X0234317D01*
X0233650Y0149767D01*
Y0149933D01*
X0233817Y0150100D01*
X0234150D01*
X0234317Y0149933D01*
X0233317Y0150100D02*
X0232651D01*
Y0149933D01*
X0233317Y0149267D01*
Y0149100D01*
X0229700Y0141551D02*
X0230700D01*
Y0142050D01*
X0230533Y0142217D01*
X0230200D01*
X0230033Y0142050D01*
Y0141551D01*
Y0141884D02*
X0229700Y0142217D01*
Y0142550D02*
Y0142883D01*
Y0142717D01*
X0230700D01*
X0230533Y0142550D01*
X0229700Y0144050D02*
Y0143383D01*
X0230367Y0144050D01*
X0230533D01*
X0230700Y0143883D01*
Y0143550D01*
X0230533Y0143383D01*
X0230700Y0145049D02*
X0230533Y0144716D01*
X0230200Y0144383D01*
X0229867D01*
X0229700Y0144550D01*
Y0144883D01*
X0229867Y0145049D01*
X0230033D01*
X0230200Y0144883D01*
Y0144383D01*
X0253600Y0152151D02*
X0254600D01*
Y0152650D01*
X0254433Y0152817D01*
X0254100D01*
X0253933Y0152650D01*
Y0152151D01*
Y0152484D02*
X0253600Y0152817D01*
Y0153150D02*
Y0153483D01*
Y0153317D01*
X0254600D01*
X0254433Y0153150D01*
X0253600Y0154650D02*
Y0153983D01*
X0254267Y0154650D01*
X0254433D01*
X0254600Y0154483D01*
Y0154150D01*
X0254433Y0153983D01*
X0253600Y0155649D02*
Y0154983D01*
X0254267Y0155649D01*
X0254433D01*
X0254600Y0155483D01*
Y0155150D01*
X0254433Y0154983D01*
X0255000Y0152117D02*
X0256000D01*
Y0152617D01*
X0255833Y0152784D01*
X0255500D01*
X0255333Y0152617D01*
Y0152117D01*
Y0152450D02*
X0255000Y0152784D01*
Y0153117D02*
Y0153450D01*
Y0153283D01*
X0256000D01*
X0255833Y0153117D01*
X0255000Y0154616D02*
Y0153950D01*
X0255667Y0154616D01*
X0255833D01*
X0256000Y0154450D01*
Y0154117D01*
X0255833Y0153950D01*
X0255000Y0154950D02*
Y0155283D01*
Y0155116D01*
X0256000D01*
X0255833Y0154950D01*
X0259600Y0152151D02*
X0260600D01*
Y0152650D01*
X0260433Y0152817D01*
X0260100D01*
X0259933Y0152650D01*
Y0152151D01*
Y0152484D02*
X0259600Y0152817D01*
Y0153150D02*
Y0153483D01*
Y0153317D01*
X0260600D01*
X0260433Y0153150D01*
X0259600Y0154650D02*
Y0153983D01*
X0260267Y0154650D01*
X0260433D01*
X0260600Y0154483D01*
Y0154150D01*
X0260433Y0153983D01*
Y0154983D02*
X0260600Y0155150D01*
Y0155483D01*
X0260433Y0155649D01*
X0259767D01*
X0259600Y0155483D01*
Y0155150D01*
X0259767Y0154983D01*
X0260433D01*
X0256300Y0152034D02*
X0257300D01*
Y0152534D01*
X0257133Y0152700D01*
X0256800D01*
X0256633Y0152534D01*
Y0152034D01*
Y0152367D02*
X0256300Y0152700D01*
Y0153034D02*
Y0153367D01*
Y0153200D01*
X0257300D01*
X0257133Y0153034D01*
X0256300Y0153867D02*
Y0154200D01*
Y0154033D01*
X0257300D01*
X0257133Y0153867D01*
X0256467Y0154700D02*
X0256300Y0154866D01*
Y0155200D01*
X0256467Y0155366D01*
X0257133D01*
X0257300Y0155200D01*
Y0154866D01*
X0257133Y0154700D01*
X0256967D01*
X0256800Y0154866D01*
Y0155366D01*
X0282600Y0156567D02*
X0283600D01*
Y0157067D01*
X0283433Y0157234D01*
X0283100D01*
X0282933Y0157067D01*
Y0156567D01*
Y0156900D02*
X0282600Y0157234D01*
Y0158233D02*
Y0157567D01*
X0283267Y0158233D01*
X0283433D01*
X0283600Y0158067D01*
Y0157733D01*
X0283433Y0157567D01*
Y0158566D02*
X0283600Y0158733D01*
Y0159066D01*
X0283433Y0159233D01*
X0283267D01*
X0283100Y0159066D01*
X0282933Y0159233D01*
X0282767D01*
X0282600Y0159066D01*
Y0158733D01*
X0282767Y0158566D01*
X0282933D01*
X0283100Y0158733D01*
X0283267Y0158566D01*
X0283433D01*
X0283100Y0158733D02*
Y0159066D01*
X0101800Y0183867D02*
X0102800D01*
Y0184367D01*
X0102633Y0184534D01*
X0102300D01*
X0102133Y0184367D01*
Y0183867D01*
Y0184200D02*
X0101800Y0184534D01*
Y0185533D02*
Y0184867D01*
X0102467Y0185533D01*
X0102633D01*
X0102800Y0185367D01*
Y0185033D01*
X0102633Y0184867D01*
X0102800Y0185866D02*
Y0186533D01*
X0102633D01*
X0101967Y0185866D01*
X0101800D01*
X0267033Y0153100D02*
Y0154100D01*
X0266533D01*
X0266366Y0153933D01*
Y0153600D01*
X0266533Y0153433D01*
X0267033D01*
X0266700D02*
X0266366Y0153100D01*
X0265367D02*
X0266033D01*
X0265367Y0153767D01*
Y0153933D01*
X0265533Y0154100D01*
X0265867D01*
X0266033Y0153933D01*
X0264367Y0154100D02*
X0265034D01*
Y0153600D01*
X0264700Y0153767D01*
X0264534D01*
X0264367Y0153600D01*
Y0153267D01*
X0264534Y0153100D01*
X0264867D01*
X0265034Y0153267D01*
X0266733Y0145300D02*
Y0146300D01*
X0266233D01*
X0266066Y0146133D01*
Y0145800D01*
X0266233Y0145633D01*
X0266733D01*
X0266400D02*
X0266066Y0145300D01*
X0265067D02*
X0265733D01*
X0265067Y0145967D01*
Y0146133D01*
X0265233Y0146300D01*
X0265567D01*
X0265733Y0146133D01*
X0264734D02*
X0264567Y0146300D01*
X0264234D01*
X0264067Y0146133D01*
Y0145967D01*
X0264234Y0145800D01*
X0264400D01*
X0264234D01*
X0264067Y0145633D01*
Y0145467D01*
X0264234Y0145300D01*
X0264567D01*
X0264734Y0145467D01*
X0290846Y0128001D02*
X0291846D01*
Y0128501D01*
X0291679Y0128668D01*
X0291346D01*
X0291180Y0128501D01*
Y0128001D01*
Y0128335D02*
X0290846Y0128668D01*
Y0129001D02*
Y0129334D01*
Y0129168D01*
X0291846D01*
X0291679Y0129001D01*
Y0129834D02*
X0291846Y0130001D01*
Y0130334D01*
X0291679Y0130501D01*
X0291513D01*
X0291346Y0130334D01*
X0291180Y0130501D01*
X0291013D01*
X0290846Y0130334D01*
Y0130001D01*
X0291013Y0129834D01*
X0291180D01*
X0291346Y0130001D01*
X0291513Y0129834D01*
X0291679D01*
X0291346Y0130001D02*
Y0130334D01*
X0288846Y0128001D02*
X0289846D01*
Y0128501D01*
X0289679Y0128668D01*
X0289346D01*
X0289180Y0128501D01*
Y0128001D01*
Y0128335D02*
X0288846Y0128668D01*
Y0129001D02*
Y0129334D01*
Y0129168D01*
X0289846D01*
X0289679Y0129001D01*
X0289846Y0129834D02*
Y0130501D01*
X0289679D01*
X0289013Y0129834D01*
X0288846D01*
X0286890Y0128001D02*
X0287889D01*
Y0128501D01*
X0287723Y0128668D01*
X0287389D01*
X0287223Y0128501D01*
Y0128001D01*
Y0128335D02*
X0286890Y0128668D01*
Y0129001D02*
Y0129334D01*
Y0129168D01*
X0287889D01*
X0287723Y0129001D01*
X0287889Y0130501D02*
X0287723Y0130167D01*
X0287389Y0129834D01*
X0287056D01*
X0286890Y0130001D01*
Y0130334D01*
X0287056Y0130501D01*
X0287223D01*
X0287389Y0130334D01*
Y0129834D01*
X0284846Y0128001D02*
X0285846D01*
Y0128501D01*
X0285679Y0128668D01*
X0285346D01*
X0285180Y0128501D01*
Y0128001D01*
Y0128335D02*
X0284846Y0128668D01*
Y0129001D02*
Y0129334D01*
Y0129168D01*
X0285846D01*
X0285679Y0129001D01*
X0285846Y0130501D02*
Y0129834D01*
X0285346D01*
X0285513Y0130167D01*
Y0130334D01*
X0285346Y0130501D01*
X0285013D01*
X0284846Y0130334D01*
Y0130001D01*
X0285013Y0129834D01*
X0245100Y0202367D02*
X0244100D01*
Y0202867D01*
X0244267Y0203033D01*
X0244933D01*
X0245100Y0202867D01*
Y0202367D01*
X0244933Y0203367D02*
X0245100Y0203533D01*
Y0203866D01*
X0244933Y0204033D01*
X0244767D01*
X0244600Y0203866D01*
X0244433Y0204033D01*
X0244267D01*
X0244100Y0203866D01*
Y0203533D01*
X0244267Y0203367D01*
X0244433D01*
X0244600Y0203533D01*
X0244767Y0203367D01*
X0244933D01*
X0244600Y0203533D02*
Y0203866D01*
X0119479Y0166545D02*
X0119646Y0166378D01*
Y0166045D01*
X0119479Y0165878D01*
X0118813D01*
X0118646Y0166045D01*
Y0166378D01*
X0118813Y0166545D01*
X0118646Y0167545D02*
Y0166878D01*
X0119313Y0167545D01*
X0119479D01*
X0119646Y0167378D01*
Y0167045D01*
X0119479Y0166878D01*
X0118813Y0167878D02*
X0118646Y0168044D01*
Y0168378D01*
X0118813Y0168544D01*
X0119479D01*
X0119646Y0168378D01*
Y0168044D01*
X0119479Y0167878D01*
X0119313D01*
X0119146Y0168044D01*
Y0168544D01*
X0118646Y0169544D02*
Y0168877D01*
X0119313Y0169544D01*
X0119479D01*
X0119646Y0169377D01*
Y0169044D01*
X0119479Y0168877D01*
X0138512Y0166944D02*
X0138679Y0167111D01*
X0139012D01*
X0139179Y0166944D01*
Y0166278D01*
X0139012Y0166111D01*
X0138679D01*
X0138512Y0166278D01*
X0137513Y0166111D02*
X0138179D01*
X0137513Y0166778D01*
Y0166944D01*
X0137679Y0167111D01*
X0138013D01*
X0138179Y0166944D01*
X0137180Y0166278D02*
X0137013Y0166111D01*
X0136680D01*
X0136513Y0166278D01*
Y0166944D01*
X0136680Y0167111D01*
X0137013D01*
X0137180Y0166944D01*
Y0166778D01*
X0137013Y0166611D01*
X0136513D01*
X0136180Y0166111D02*
X0135847D01*
X0136013D01*
Y0167111D01*
X0136180Y0166944D01*
X0159996Y0164444D02*
X0160162Y0164611D01*
X0160496D01*
X0160662Y0164444D01*
Y0163778D01*
X0160496Y0163611D01*
X0160162D01*
X0159996Y0163778D01*
X0158996Y0163611D02*
X0159663D01*
X0158996Y0164278D01*
Y0164444D01*
X0159163Y0164611D01*
X0159496D01*
X0159663Y0164444D01*
X0158663D02*
X0158496Y0164611D01*
X0158163D01*
X0157996Y0164444D01*
Y0164278D01*
X0158163Y0164111D01*
X0157996Y0163945D01*
Y0163778D01*
X0158163Y0163611D01*
X0158496D01*
X0158663Y0163778D01*
Y0163945D01*
X0158496Y0164111D01*
X0158663Y0164278D01*
Y0164444D01*
X0158496Y0164111D02*
X0158163D01*
X0157663Y0164444D02*
X0157497Y0164611D01*
X0157163D01*
X0156997Y0164444D01*
Y0164278D01*
X0157163Y0164111D01*
X0156997Y0163945D01*
Y0163778D01*
X0157163Y0163611D01*
X0157497D01*
X0157663Y0163778D01*
Y0163945D01*
X0157497Y0164111D01*
X0157663Y0164278D01*
Y0164444D01*
X0157497Y0164111D02*
X0157163D01*
X0158296Y0169044D02*
X0158462Y0169211D01*
X0158796D01*
X0158962Y0169044D01*
Y0168378D01*
X0158796Y0168211D01*
X0158462D01*
X0158296Y0168378D01*
X0157296Y0168211D02*
X0157963D01*
X0157296Y0168878D01*
Y0169044D01*
X0157463Y0169211D01*
X0157796D01*
X0157963Y0169044D01*
X0156963D02*
X0156796Y0169211D01*
X0156463D01*
X0156296Y0169044D01*
Y0168878D01*
X0156463Y0168711D01*
X0156296Y0168545D01*
Y0168378D01*
X0156463Y0168211D01*
X0156796D01*
X0156963Y0168378D01*
Y0168545D01*
X0156796Y0168711D01*
X0156963Y0168878D01*
Y0169044D01*
X0156796Y0168711D02*
X0156463D01*
X0155297Y0168211D02*
X0155963D01*
X0155297Y0168878D01*
Y0169044D01*
X0155463Y0169211D01*
X0155797D01*
X0155963Y0169044D01*
X0119479Y0150545D02*
X0119646Y0150378D01*
Y0150045D01*
X0119479Y0149878D01*
X0118813D01*
X0118646Y0150045D01*
Y0150378D01*
X0118813Y0150545D01*
X0118646Y0151545D02*
Y0150878D01*
X0119313Y0151545D01*
X0119479D01*
X0119646Y0151378D01*
Y0151045D01*
X0119479Y0150878D01*
X0119646Y0151878D02*
Y0152544D01*
X0119479D01*
X0118813Y0151878D01*
X0118646D01*
X0119646Y0153544D02*
Y0152877D01*
X0119146D01*
X0119313Y0153211D01*
Y0153377D01*
X0119146Y0153544D01*
X0118813D01*
X0118646Y0153377D01*
Y0153044D01*
X0118813Y0152877D01*
X0138679Y0150944D02*
X0138846Y0151111D01*
X0139179D01*
X0139346Y0150944D01*
Y0150278D01*
X0139179Y0150111D01*
X0138846D01*
X0138679Y0150278D01*
X0137679Y0150111D02*
X0138346D01*
X0137679Y0150778D01*
Y0150944D01*
X0137846Y0151111D01*
X0138179D01*
X0138346Y0150944D01*
X0137346Y0151111D02*
X0136680D01*
Y0150944D01*
X0137346Y0150278D01*
Y0150111D01*
X0135847D02*
Y0151111D01*
X0136346Y0150611D01*
X0135680D01*
X0159829Y0148444D02*
X0159996Y0148611D01*
X0160329D01*
X0160496Y0148444D01*
Y0147778D01*
X0160329Y0147611D01*
X0159996D01*
X0159829Y0147778D01*
X0158829Y0147611D02*
X0159496D01*
X0158829Y0148278D01*
Y0148444D01*
X0158996Y0148611D01*
X0159329D01*
X0159496Y0148444D01*
X0158496Y0148611D02*
X0157830D01*
Y0148444D01*
X0158496Y0147778D01*
Y0147611D01*
X0157497D02*
X0157163D01*
X0157330D01*
Y0148611D01*
X0157497Y0148444D01*
X0158296Y0153044D02*
X0158462Y0153211D01*
X0158796D01*
X0158962Y0153044D01*
Y0152378D01*
X0158796Y0152211D01*
X0158462D01*
X0158296Y0152378D01*
X0157296Y0152211D02*
X0157963D01*
X0157296Y0152878D01*
Y0153044D01*
X0157463Y0153211D01*
X0157796D01*
X0157963Y0153044D01*
X0156296Y0153211D02*
X0156630Y0153044D01*
X0156963Y0152711D01*
Y0152378D01*
X0156796Y0152211D01*
X0156463D01*
X0156296Y0152378D01*
Y0152545D01*
X0156463Y0152711D01*
X0156963D01*
X0155297Y0153211D02*
X0155963D01*
Y0152711D01*
X0155630Y0152878D01*
X0155463D01*
X0155297Y0152711D01*
Y0152378D01*
X0155463Y0152211D01*
X0155797D01*
X0155963Y0152378D01*
X0119479Y0134545D02*
X0119646Y0134378D01*
Y0134045D01*
X0119479Y0133878D01*
X0118813D01*
X0118646Y0134045D01*
Y0134378D01*
X0118813Y0134545D01*
X0118646Y0135545D02*
Y0134878D01*
X0119313Y0135545D01*
X0119479D01*
X0119646Y0135378D01*
Y0135045D01*
X0119479Y0134878D01*
Y0135878D02*
X0119646Y0136044D01*
Y0136378D01*
X0119479Y0136544D01*
X0119313D01*
X0119146Y0136378D01*
Y0136211D01*
Y0136378D01*
X0118980Y0136544D01*
X0118813D01*
X0118646Y0136378D01*
Y0136044D01*
X0118813Y0135878D01*
X0119646Y0137544D02*
Y0136877D01*
X0119146D01*
X0119313Y0137211D01*
Y0137377D01*
X0119146Y0137544D01*
X0118813D01*
X0118646Y0137377D01*
Y0137044D01*
X0118813Y0136877D01*
X0138679Y0134944D02*
X0138846Y0135111D01*
X0139179D01*
X0139346Y0134944D01*
Y0134278D01*
X0139179Y0134111D01*
X0138846D01*
X0138679Y0134278D01*
X0137679Y0134111D02*
X0138346D01*
X0137679Y0134778D01*
Y0134944D01*
X0137846Y0135111D01*
X0138179D01*
X0138346Y0134944D01*
X0137346D02*
X0137180Y0135111D01*
X0136846D01*
X0136680Y0134944D01*
Y0134778D01*
X0136846Y0134611D01*
X0137013D01*
X0136846D01*
X0136680Y0134445D01*
Y0134278D01*
X0136846Y0134111D01*
X0137180D01*
X0137346Y0134278D01*
X0135847Y0134111D02*
Y0135111D01*
X0136346Y0134611D01*
X0135680D01*
X0159829Y0132444D02*
X0159996Y0132611D01*
X0160329D01*
X0160496Y0132444D01*
Y0131778D01*
X0160329Y0131611D01*
X0159996D01*
X0159829Y0131778D01*
X0158829Y0131611D02*
X0159496D01*
X0158829Y0132278D01*
Y0132444D01*
X0158996Y0132611D01*
X0159329D01*
X0159496Y0132444D01*
X0158496D02*
X0158330Y0132611D01*
X0157996D01*
X0157830Y0132444D01*
Y0132278D01*
X0157996Y0132111D01*
X0158163D01*
X0157996D01*
X0157830Y0131945D01*
Y0131778D01*
X0157996Y0131611D01*
X0158330D01*
X0158496Y0131778D01*
X0157497Y0131611D02*
X0157163D01*
X0157330D01*
Y0132611D01*
X0157497Y0132444D01*
X0158296Y0137044D02*
X0158462Y0137211D01*
X0158796D01*
X0158962Y0137044D01*
Y0136378D01*
X0158796Y0136211D01*
X0158462D01*
X0158296Y0136378D01*
X0157296Y0136211D02*
X0157963D01*
X0157296Y0136878D01*
Y0137044D01*
X0157463Y0137211D01*
X0157796D01*
X0157963Y0137044D01*
X0156296Y0136211D02*
X0156963D01*
X0156296Y0136878D01*
Y0137044D01*
X0156463Y0137211D01*
X0156796D01*
X0156963Y0137044D01*
X0155297Y0137211D02*
X0155963D01*
Y0136711D01*
X0155630Y0136878D01*
X0155463D01*
X0155297Y0136711D01*
Y0136378D01*
X0155463Y0136211D01*
X0155797D01*
X0155963Y0136378D01*
X0119479Y0118628D02*
X0119646Y0118462D01*
Y0118128D01*
X0119479Y0117962D01*
X0118813D01*
X0118646Y0118128D01*
Y0118462D01*
X0118813Y0118628D01*
X0118646Y0119628D02*
Y0118961D01*
X0119313Y0119628D01*
X0119479D01*
X0119646Y0119461D01*
Y0119128D01*
X0119479Y0118961D01*
X0118646Y0119961D02*
Y0120294D01*
Y0120128D01*
X0119646D01*
X0119479Y0119961D01*
Y0120794D02*
X0119646Y0120961D01*
Y0121294D01*
X0119479Y0121461D01*
X0119313D01*
X0119146Y0121294D01*
X0118980Y0121461D01*
X0118813D01*
X0118646Y0121294D01*
Y0120961D01*
X0118813Y0120794D01*
X0118980D01*
X0119146Y0120961D01*
X0119313Y0120794D01*
X0119479D01*
X0119146Y0120961D02*
Y0121294D01*
X0138429Y0118944D02*
X0138596Y0119111D01*
X0138929D01*
X0139096Y0118944D01*
Y0118278D01*
X0138929Y0118111D01*
X0138596D01*
X0138429Y0118278D01*
X0137429Y0118111D02*
X0138096D01*
X0137429Y0118778D01*
Y0118944D01*
X0137596Y0119111D01*
X0137929D01*
X0138096Y0118944D01*
X0137096Y0118111D02*
X0136763D01*
X0136930D01*
Y0119111D01*
X0137096Y0118944D01*
X0136263Y0119111D02*
X0135597D01*
Y0118944D01*
X0136263Y0118278D01*
Y0118111D01*
X0159829Y0116444D02*
X0159996Y0116611D01*
X0160329D01*
X0160496Y0116444D01*
Y0115778D01*
X0160329Y0115611D01*
X0159996D01*
X0159829Y0115778D01*
X0158829Y0115611D02*
X0159496D01*
X0158829Y0116278D01*
Y0116444D01*
X0158996Y0116611D01*
X0159329D01*
X0159496Y0116444D01*
X0158496Y0115611D02*
X0158163D01*
X0158330D01*
Y0116611D01*
X0158496Y0116444D01*
X0157163Y0115611D02*
Y0116611D01*
X0157663Y0116111D01*
X0156997D01*
X0158212Y0121044D02*
X0158379Y0121211D01*
X0158712D01*
X0158879Y0121044D01*
Y0120378D01*
X0158712Y0120211D01*
X0158379D01*
X0158212Y0120378D01*
X0157213Y0120211D02*
X0157879D01*
X0157213Y0120878D01*
Y0121044D01*
X0157379Y0121211D01*
X0157713D01*
X0157879Y0121044D01*
X0156880D02*
X0156713Y0121211D01*
X0156380D01*
X0156213Y0121044D01*
Y0120378D01*
X0156380Y0120211D01*
X0156713D01*
X0156880Y0120378D01*
Y0121044D01*
X0155880D02*
X0155713Y0121211D01*
X0155380D01*
X0155213Y0121044D01*
Y0120878D01*
X0155380Y0120711D01*
X0155213Y0120545D01*
Y0120378D01*
X0155380Y0120211D01*
X0155713D01*
X0155880Y0120378D01*
Y0120545D01*
X0155713Y0120711D01*
X0155880Y0120878D01*
Y0121044D01*
X0155713Y0120711D02*
X0155380D01*
X0224600Y0115934D02*
X0224766Y0116100D01*
X0225100D01*
X0225266Y0115934D01*
Y0115267D01*
X0225100Y0115101D01*
X0224766D01*
X0224600Y0115267D01*
X0223600Y0115101D02*
X0224266D01*
X0223600Y0115767D01*
Y0115934D01*
X0223767Y0116100D01*
X0224100D01*
X0224266Y0115934D01*
X0223267D02*
X0223100Y0116100D01*
X0222767D01*
X0222600Y0115934D01*
Y0115267D01*
X0222767Y0115101D01*
X0223100D01*
X0223267Y0115267D01*
Y0115934D01*
X0222267Y0115101D02*
X0221934D01*
X0222100D01*
Y0116100D01*
X0222267Y0115934D01*
X0213766Y0117634D02*
X0213933Y0117800D01*
X0214266D01*
X0214433Y0117634D01*
Y0116967D01*
X0214266Y0116801D01*
X0213933D01*
X0213766Y0116967D01*
X0212767Y0116801D02*
X0213433D01*
X0212767Y0117467D01*
Y0117634D01*
X0212933Y0117800D01*
X0213266D01*
X0213433Y0117634D01*
X0212433D02*
X0212267Y0117800D01*
X0211934D01*
X0211767Y0117634D01*
Y0116967D01*
X0211934Y0116801D01*
X0212267D01*
X0212433Y0116967D01*
Y0117634D01*
X0211434D02*
X0211267Y0117800D01*
X0210934D01*
X0210767Y0117634D01*
Y0116967D01*
X0210934Y0116801D01*
X0211267D01*
X0211434Y0116967D01*
Y0117634D01*
X0219383Y0119334D02*
X0219550Y0119500D01*
X0219883D01*
X0220049Y0119334D01*
Y0118667D01*
X0219883Y0118501D01*
X0219550D01*
X0219383Y0118667D01*
X0219050Y0118501D02*
X0218717D01*
X0218883D01*
Y0119500D01*
X0219050Y0119334D01*
X0218217Y0118667D02*
X0218050Y0118501D01*
X0217717D01*
X0217550Y0118667D01*
Y0119334D01*
X0217717Y0119500D01*
X0218050D01*
X0218217Y0119334D01*
Y0119167D01*
X0218050Y0119000D01*
X0217550D01*
X0217217Y0118667D02*
X0217050Y0118501D01*
X0216717D01*
X0216551Y0118667D01*
Y0119334D01*
X0216717Y0119500D01*
X0217050D01*
X0217217Y0119334D01*
Y0119167D01*
X0217050Y0119000D01*
X0216551D01*
X0225683Y0120734D02*
X0225850Y0120900D01*
X0226183D01*
X0226349Y0120734D01*
Y0120067D01*
X0226183Y0119901D01*
X0225850D01*
X0225683Y0120067D01*
X0225350Y0119901D02*
X0225017D01*
X0225183D01*
Y0120900D01*
X0225350Y0120734D01*
X0224517Y0120067D02*
X0224350Y0119901D01*
X0224017D01*
X0223850Y0120067D01*
Y0120734D01*
X0224017Y0120900D01*
X0224350D01*
X0224517Y0120734D01*
Y0120567D01*
X0224350Y0120400D01*
X0223850D01*
X0223517Y0120900D02*
X0222851D01*
Y0120734D01*
X0223517Y0120067D01*
Y0119901D01*
X0229283Y0129534D02*
X0229450Y0129700D01*
X0229783D01*
X0229949Y0129534D01*
Y0128867D01*
X0229783Y0128701D01*
X0229450D01*
X0229283Y0128867D01*
X0228950Y0128701D02*
X0228617D01*
X0228783D01*
Y0129700D01*
X0228950Y0129534D01*
X0228117Y0128867D02*
X0227950Y0128701D01*
X0227617D01*
X0227450Y0128867D01*
Y0129534D01*
X0227617Y0129700D01*
X0227950D01*
X0228117Y0129534D01*
Y0129367D01*
X0227950Y0129200D01*
X0227450D01*
X0226451Y0129700D02*
X0226784Y0129534D01*
X0227117Y0129200D01*
Y0128867D01*
X0226950Y0128701D01*
X0226617D01*
X0226451Y0128867D01*
Y0129034D01*
X0226617Y0129200D01*
X0227117D01*
X0221933Y0126217D02*
X0222100Y0126051D01*
Y0125718D01*
X0221933Y0125551D01*
X0221267D01*
X0221100Y0125718D01*
Y0126051D01*
X0221267Y0126217D01*
X0221100Y0126551D02*
Y0126884D01*
Y0126717D01*
X0222100D01*
X0221933Y0126551D01*
X0221267Y0127384D02*
X0221100Y0127550D01*
Y0127884D01*
X0221267Y0128050D01*
X0221933D01*
X0222100Y0127884D01*
Y0127550D01*
X0221933Y0127384D01*
X0221767D01*
X0221600Y0127550D01*
Y0128050D01*
X0222100Y0129050D02*
Y0128383D01*
X0221600D01*
X0221767Y0128717D01*
Y0128883D01*
X0221600Y0129050D01*
X0221267D01*
X0221100Y0128883D01*
Y0128550D01*
X0221267Y0128383D01*
X0222033Y0120817D02*
X0222200Y0120651D01*
Y0120318D01*
X0222033Y0120151D01*
X0221367D01*
X0221200Y0120318D01*
Y0120651D01*
X0221367Y0120817D01*
X0221200Y0121151D02*
Y0121484D01*
Y0121317D01*
X0222200D01*
X0222033Y0121151D01*
X0221367Y0121984D02*
X0221200Y0122150D01*
Y0122484D01*
X0221367Y0122650D01*
X0222033D01*
X0222200Y0122484D01*
Y0122150D01*
X0222033Y0121984D01*
X0221867D01*
X0221700Y0122150D01*
Y0122650D01*
X0221200Y0123483D02*
X0222200D01*
X0221700Y0122983D01*
Y0123650D01*
X0303983Y0127433D02*
X0304150Y0127600D01*
X0304483D01*
X0304649Y0127433D01*
Y0126767D01*
X0304483Y0126600D01*
X0304150D01*
X0303983Y0126767D01*
X0303650Y0126600D02*
X0303317D01*
X0303483D01*
Y0127600D01*
X0303650Y0127433D01*
X0302817Y0127600D02*
X0302150D01*
Y0127433D01*
X0302817Y0126767D01*
Y0126600D01*
X0301817Y0127433D02*
X0301650Y0127600D01*
X0301317D01*
X0301151Y0127433D01*
Y0127267D01*
X0301317Y0127100D01*
X0301151Y0126933D01*
Y0126767D01*
X0301317Y0126600D01*
X0301650D01*
X0301817Y0126767D01*
Y0126933D01*
X0301650Y0127100D01*
X0301817Y0127267D01*
Y0127433D01*
X0301650Y0127100D02*
X0301317D01*
X0261413Y0150594D02*
X0261246Y0150761D01*
Y0151094D01*
X0261413Y0151261D01*
X0262079D01*
X0262246Y0151094D01*
Y0150761D01*
X0262079Y0150594D01*
X0262246Y0150261D02*
Y0149928D01*
Y0150094D01*
X0261246D01*
X0261413Y0150261D01*
X0261246Y0149428D02*
Y0148761D01*
X0261413D01*
X0262079Y0149428D01*
X0262246D01*
X0261246Y0148428D02*
Y0147762D01*
X0261413D01*
X0262079Y0148428D01*
X0262246D01*
X0227183Y0196234D02*
X0227350Y0196400D01*
X0227683D01*
X0227849Y0196234D01*
Y0195567D01*
X0227683Y0195401D01*
X0227350D01*
X0227183Y0195567D01*
X0226850Y0195401D02*
X0226517D01*
X0226683D01*
Y0196400D01*
X0226850Y0196234D01*
X0225350Y0196400D02*
X0225683Y0196234D01*
X0226017Y0195900D01*
Y0195567D01*
X0225850Y0195401D01*
X0225517D01*
X0225350Y0195567D01*
Y0195734D01*
X0225517Y0195900D01*
X0226017D01*
X0225017Y0195567D02*
X0224850Y0195401D01*
X0224517D01*
X0224351Y0195567D01*
Y0196234D01*
X0224517Y0196400D01*
X0224850D01*
X0225017Y0196234D01*
Y0196067D01*
X0224850Y0195900D01*
X0224351D01*
X0224783Y0197633D02*
X0224950Y0197800D01*
X0225283D01*
X0225449Y0197633D01*
Y0196967D01*
X0225283Y0196800D01*
X0224950D01*
X0224783Y0196967D01*
X0224450Y0196800D02*
X0224117D01*
X0224283D01*
Y0197800D01*
X0224450Y0197633D01*
X0222950Y0197800D02*
X0223283Y0197633D01*
X0223617Y0197300D01*
Y0196967D01*
X0223450Y0196800D01*
X0223117D01*
X0222950Y0196967D01*
Y0197133D01*
X0223117Y0197300D01*
X0223617D01*
X0222617Y0197633D02*
X0222450Y0197800D01*
X0222117D01*
X0221951Y0197633D01*
Y0197467D01*
X0222117Y0197300D01*
X0221951Y0197133D01*
Y0196967D01*
X0222117Y0196800D01*
X0222450D01*
X0222617Y0196967D01*
Y0197133D01*
X0222450Y0197300D01*
X0222617Y0197467D01*
Y0197633D01*
X0222450Y0197300D02*
X0222117D01*
X0233083Y0196234D02*
X0233250Y0196400D01*
X0233583D01*
X0233749Y0196234D01*
Y0195567D01*
X0233583Y0195401D01*
X0233250D01*
X0233083Y0195567D01*
X0232750Y0195401D02*
X0232417D01*
X0232583D01*
Y0196400D01*
X0232750Y0196234D01*
X0231250Y0196400D02*
X0231583Y0196234D01*
X0231917Y0195900D01*
Y0195567D01*
X0231750Y0195401D01*
X0231417D01*
X0231250Y0195567D01*
Y0195734D01*
X0231417Y0195900D01*
X0231917D01*
X0230917Y0196400D02*
X0230251D01*
Y0196234D01*
X0230917Y0195567D01*
Y0195401D01*
X0198879Y0170128D02*
X0199046Y0169962D01*
Y0169628D01*
X0198879Y0169462D01*
X0198213D01*
X0198046Y0169628D01*
Y0169962D01*
X0198213Y0170128D01*
X0198046Y0170461D02*
Y0170795D01*
Y0170628D01*
X0199046D01*
X0198879Y0170461D01*
X0199046Y0171961D02*
X0198879Y0171628D01*
X0198546Y0171294D01*
X0198213D01*
X0198046Y0171461D01*
Y0171794D01*
X0198213Y0171961D01*
X0198380D01*
X0198546Y0171794D01*
Y0171294D01*
X0198046Y0172794D02*
X0199046D01*
X0198546Y0172294D01*
Y0172961D01*
X0200279Y0170128D02*
X0200446Y0169962D01*
Y0169628D01*
X0200279Y0169462D01*
X0199613D01*
X0199446Y0169628D01*
Y0169962D01*
X0199613Y0170128D01*
X0199446Y0170461D02*
Y0170795D01*
Y0170628D01*
X0200446D01*
X0200279Y0170461D01*
X0200446Y0171961D02*
X0200279Y0171628D01*
X0199946Y0171294D01*
X0199613D01*
X0199446Y0171461D01*
Y0171794D01*
X0199613Y0171961D01*
X0199780D01*
X0199946Y0171794D01*
Y0171294D01*
X0200279Y0172294D02*
X0200446Y0172461D01*
Y0172794D01*
X0200279Y0172961D01*
X0200113D01*
X0199946Y0172794D01*
Y0172627D01*
Y0172794D01*
X0199780Y0172961D01*
X0199613D01*
X0199446Y0172794D01*
Y0172461D01*
X0199613Y0172294D01*
X0198879Y0159628D02*
X0199046Y0159462D01*
Y0159128D01*
X0198879Y0158962D01*
X0198213D01*
X0198046Y0159128D01*
Y0159462D01*
X0198213Y0159628D01*
X0198046Y0159961D02*
Y0160295D01*
Y0160128D01*
X0199046D01*
X0198879Y0159961D01*
X0199046Y0161461D02*
X0198879Y0161128D01*
X0198546Y0160794D01*
X0198213D01*
X0198046Y0160961D01*
Y0161294D01*
X0198213Y0161461D01*
X0198380D01*
X0198546Y0161294D01*
Y0160794D01*
X0198046Y0162461D02*
Y0161794D01*
X0198713Y0162461D01*
X0198879D01*
X0199046Y0162294D01*
Y0161961D01*
X0198879Y0161794D01*
X0200279Y0159795D02*
X0200446Y0159628D01*
Y0159295D01*
X0200279Y0159128D01*
X0199613D01*
X0199446Y0159295D01*
Y0159628D01*
X0199613Y0159795D01*
X0199446Y0160128D02*
Y0160461D01*
Y0160295D01*
X0200446D01*
X0200279Y0160128D01*
X0200446Y0161628D02*
X0200279Y0161294D01*
X0199946Y0160961D01*
X0199613D01*
X0199446Y0161128D01*
Y0161461D01*
X0199613Y0161628D01*
X0199780D01*
X0199946Y0161461D01*
Y0160961D01*
X0199446Y0161961D02*
Y0162294D01*
Y0162127D01*
X0200446D01*
X0200279Y0161961D01*
X0198879Y0149128D02*
X0199046Y0148962D01*
Y0148628D01*
X0198879Y0148462D01*
X0198213D01*
X0198046Y0148628D01*
Y0148962D01*
X0198213Y0149128D01*
X0198046Y0149461D02*
Y0149795D01*
Y0149628D01*
X0199046D01*
X0198879Y0149461D01*
X0199046Y0150961D02*
X0198879Y0150628D01*
X0198546Y0150294D01*
X0198213D01*
X0198046Y0150461D01*
Y0150794D01*
X0198213Y0150961D01*
X0198380D01*
X0198546Y0150794D01*
Y0150294D01*
X0198879Y0151294D02*
X0199046Y0151461D01*
Y0151794D01*
X0198879Y0151961D01*
X0198213D01*
X0198046Y0151794D01*
Y0151461D01*
X0198213Y0151294D01*
X0198879D01*
X0200279Y0149128D02*
X0200446Y0148962D01*
Y0148628D01*
X0200279Y0148462D01*
X0199613D01*
X0199446Y0148628D01*
Y0148962D01*
X0199613Y0149128D01*
X0199446Y0149461D02*
Y0149795D01*
Y0149628D01*
X0200446D01*
X0200279Y0149461D01*
X0200446Y0150961D02*
Y0150294D01*
X0199946D01*
X0200113Y0150628D01*
Y0150794D01*
X0199946Y0150961D01*
X0199613D01*
X0199446Y0150794D01*
Y0150461D01*
X0199613Y0150294D01*
Y0151294D02*
X0199446Y0151461D01*
Y0151794D01*
X0199613Y0151961D01*
X0200279D01*
X0200446Y0151794D01*
Y0151461D01*
X0200279Y0151294D01*
X0200113D01*
X0199946Y0151461D01*
Y0151961D01*
X0198879Y0136962D02*
X0199046Y0136795D01*
Y0136462D01*
X0198879Y0136295D01*
X0198213D01*
X0198046Y0136462D01*
Y0136795D01*
X0198213Y0136962D01*
X0198046Y0137295D02*
Y0137628D01*
Y0137461D01*
X0199046D01*
X0198879Y0137295D01*
X0199046Y0138794D02*
Y0138128D01*
X0198546D01*
X0198713Y0138461D01*
Y0138628D01*
X0198546Y0138794D01*
X0198213D01*
X0198046Y0138628D01*
Y0138294D01*
X0198213Y0138128D01*
X0198879Y0139128D02*
X0199046Y0139294D01*
Y0139627D01*
X0198879Y0139794D01*
X0198713D01*
X0198546Y0139627D01*
X0198380Y0139794D01*
X0198213D01*
X0198046Y0139627D01*
Y0139294D01*
X0198213Y0139128D01*
X0198380D01*
X0198546Y0139294D01*
X0198713Y0139128D01*
X0198879D01*
X0198546Y0139294D02*
Y0139627D01*
X0200279Y0137128D02*
X0200446Y0136962D01*
Y0136628D01*
X0200279Y0136462D01*
X0199613D01*
X0199446Y0136628D01*
Y0136962D01*
X0199613Y0137128D01*
X0199446Y0137461D02*
Y0137795D01*
Y0137628D01*
X0200446D01*
X0200279Y0137461D01*
X0200446Y0138961D02*
Y0138294D01*
X0199946D01*
X0200113Y0138628D01*
Y0138794D01*
X0199946Y0138961D01*
X0199613D01*
X0199446Y0138794D01*
Y0138461D01*
X0199613Y0138294D01*
X0200446Y0139294D02*
Y0139961D01*
X0200279D01*
X0199613Y0139294D01*
X0199446D01*
X0198879Y0126628D02*
X0199046Y0126462D01*
Y0126128D01*
X0198879Y0125962D01*
X0198213D01*
X0198046Y0126128D01*
Y0126462D01*
X0198213Y0126628D01*
X0198046Y0126961D02*
Y0127295D01*
Y0127128D01*
X0199046D01*
X0198879Y0126961D01*
X0199046Y0128461D02*
Y0127794D01*
X0198546D01*
X0198713Y0128128D01*
Y0128294D01*
X0198546Y0128461D01*
X0198213D01*
X0198046Y0128294D01*
Y0127961D01*
X0198213Y0127794D01*
X0199046Y0129461D02*
X0198879Y0129127D01*
X0198546Y0128794D01*
X0198213D01*
X0198046Y0128961D01*
Y0129294D01*
X0198213Y0129461D01*
X0198380D01*
X0198546Y0129294D01*
Y0128794D01*
X0200279Y0126628D02*
X0200446Y0126462D01*
Y0126128D01*
X0200279Y0125962D01*
X0199613D01*
X0199446Y0126128D01*
Y0126462D01*
X0199613Y0126628D01*
X0199446Y0126961D02*
Y0127295D01*
Y0127128D01*
X0200446D01*
X0200279Y0126961D01*
X0200446Y0128461D02*
Y0127794D01*
X0199946D01*
X0200113Y0128128D01*
Y0128294D01*
X0199946Y0128461D01*
X0199613D01*
X0199446Y0128294D01*
Y0127961D01*
X0199613Y0127794D01*
X0200446Y0129461D02*
Y0128794D01*
X0199946D01*
X0200113Y0129127D01*
Y0129294D01*
X0199946Y0129461D01*
X0199613D01*
X0199446Y0129294D01*
Y0128961D01*
X0199613Y0128794D01*
X0198704Y0116153D02*
X0198871Y0115987D01*
Y0115653D01*
X0198704Y0115487D01*
X0198038D01*
X0197871Y0115653D01*
Y0115987D01*
X0198038Y0116153D01*
X0197871Y0116486D02*
Y0116820D01*
Y0116653D01*
X0198871D01*
X0198704Y0116486D01*
X0198871Y0117986D02*
Y0117319D01*
X0198371D01*
X0198538Y0117653D01*
Y0117819D01*
X0198371Y0117986D01*
X0198038D01*
X0197871Y0117819D01*
Y0117486D01*
X0198038Y0117319D01*
X0197871Y0118819D02*
X0198871D01*
X0198371Y0118319D01*
Y0118986D01*
X0200104Y0116153D02*
X0200271Y0115987D01*
Y0115653D01*
X0200104Y0115487D01*
X0199438D01*
X0199271Y0115653D01*
Y0115987D01*
X0199438Y0116153D01*
X0199271Y0116486D02*
Y0116820D01*
Y0116653D01*
X0200271D01*
X0200104Y0116486D01*
X0200271Y0117986D02*
Y0117319D01*
X0199771D01*
X0199938Y0117653D01*
Y0117819D01*
X0199771Y0117986D01*
X0199438D01*
X0199271Y0117819D01*
Y0117486D01*
X0199438Y0117319D01*
X0200104Y0118319D02*
X0200271Y0118486D01*
Y0118819D01*
X0200104Y0118986D01*
X0199938D01*
X0199771Y0118819D01*
Y0118652D01*
Y0118819D01*
X0199605Y0118986D01*
X0199438D01*
X0199271Y0118819D01*
Y0118486D01*
X0199438Y0118319D01*
X0167433Y0181617D02*
X0167600Y0181451D01*
Y0181118D01*
X0167433Y0180951D01*
X0166767D01*
X0166600Y0181118D01*
Y0181451D01*
X0166767Y0181617D01*
X0166600Y0181951D02*
Y0182284D01*
Y0182117D01*
X0167600D01*
X0167433Y0181951D01*
X0167600Y0183450D02*
Y0182784D01*
X0167100D01*
X0167267Y0183117D01*
Y0183284D01*
X0167100Y0183450D01*
X0166767D01*
X0166600Y0183284D01*
Y0182950D01*
X0166767Y0182784D01*
X0166600Y0184450D02*
Y0183783D01*
X0167267Y0184450D01*
X0167433D01*
X0167600Y0184283D01*
Y0183950D01*
X0167433Y0183783D01*
X0168833Y0181784D02*
X0169000Y0181617D01*
Y0181284D01*
X0168833Y0181118D01*
X0168167D01*
X0168000Y0181284D01*
Y0181617D01*
X0168167Y0181784D01*
X0168000Y0182117D02*
Y0182450D01*
Y0182284D01*
X0169000D01*
X0168833Y0182117D01*
X0169000Y0183617D02*
Y0182950D01*
X0168500D01*
X0168667Y0183284D01*
Y0183450D01*
X0168500Y0183617D01*
X0168167D01*
X0168000Y0183450D01*
Y0183117D01*
X0168167Y0182950D01*
X0168000Y0183950D02*
Y0184283D01*
Y0184117D01*
X0169000D01*
X0168833Y0183950D01*
X0143433Y0181617D02*
X0143600Y0181451D01*
Y0181118D01*
X0143433Y0180951D01*
X0142767D01*
X0142600Y0181118D01*
Y0181451D01*
X0142767Y0181617D01*
X0142600Y0181951D02*
Y0182284D01*
Y0182117D01*
X0143600D01*
X0143433Y0181951D01*
X0143600Y0183450D02*
Y0182784D01*
X0143100D01*
X0143267Y0183117D01*
Y0183284D01*
X0143100Y0183450D01*
X0142767D01*
X0142600Y0183284D01*
Y0182950D01*
X0142767Y0182784D01*
X0143433Y0183783D02*
X0143600Y0183950D01*
Y0184283D01*
X0143433Y0184450D01*
X0142767D01*
X0142600Y0184283D01*
Y0183950D01*
X0142767Y0183783D01*
X0143433D01*
X0144833Y0181617D02*
X0145000Y0181451D01*
Y0181118D01*
X0144833Y0180951D01*
X0144167D01*
X0144000Y0181118D01*
Y0181451D01*
X0144167Y0181617D01*
X0144000Y0181951D02*
Y0182284D01*
Y0182117D01*
X0145000D01*
X0144833Y0181951D01*
X0144000Y0183284D02*
X0145000D01*
X0144500Y0182784D01*
Y0183450D01*
X0144167Y0183783D02*
X0144000Y0183950D01*
Y0184283D01*
X0144167Y0184450D01*
X0144833D01*
X0145000Y0184283D01*
Y0183950D01*
X0144833Y0183783D01*
X0144667D01*
X0144500Y0183950D01*
Y0184450D01*
X0194283Y0203533D02*
X0194450Y0203700D01*
X0194783D01*
X0194949Y0203533D01*
Y0202867D01*
X0194783Y0202700D01*
X0194450D01*
X0194283Y0202867D01*
X0193950Y0202700D02*
X0193617D01*
X0193783D01*
Y0203700D01*
X0193950Y0203533D01*
X0192617Y0202700D02*
Y0203700D01*
X0193117Y0203200D01*
X0192450D01*
X0192117Y0203533D02*
X0191950Y0203700D01*
X0191617D01*
X0191451Y0203533D01*
Y0203367D01*
X0191617Y0203200D01*
X0191451Y0203033D01*
Y0202867D01*
X0191617Y0202700D01*
X0191950D01*
X0192117Y0202867D01*
Y0203033D01*
X0191950Y0203200D01*
X0192117Y0203367D01*
Y0203533D01*
X0191950Y0203200D02*
X0191617D01*
X0194283Y0205033D02*
X0194450Y0205200D01*
X0194783D01*
X0194949Y0205033D01*
Y0204367D01*
X0194783Y0204200D01*
X0194450D01*
X0194283Y0204367D01*
X0193950Y0204200D02*
X0193617D01*
X0193783D01*
Y0205200D01*
X0193950Y0205033D01*
X0192617Y0204200D02*
Y0205200D01*
X0193117Y0204700D01*
X0192450D01*
X0192117Y0205200D02*
X0191451D01*
Y0205033D01*
X0192117Y0204367D01*
Y0204200D01*
X0228433Y0149717D02*
X0228600Y0149550D01*
Y0149217D01*
X0228433Y0149051D01*
X0227767D01*
X0227600Y0149217D01*
Y0149550D01*
X0227767Y0149717D01*
X0227600Y0150050D02*
Y0150383D01*
Y0150217D01*
X0228600D01*
X0228433Y0150050D01*
X0227600Y0151383D02*
X0228600D01*
X0228100Y0150883D01*
Y0151550D01*
X0228600Y0152549D02*
X0228433Y0152216D01*
X0228100Y0151883D01*
X0227767D01*
X0227600Y0152050D01*
Y0152383D01*
X0227767Y0152549D01*
X0227933D01*
X0228100Y0152383D01*
Y0151883D01*
X0252683Y0147833D02*
X0252850Y0148000D01*
X0253183D01*
X0253349Y0147833D01*
Y0147167D01*
X0253183Y0147000D01*
X0252850D01*
X0252683Y0147167D01*
X0252350Y0147000D02*
X0252017D01*
X0252183D01*
Y0148000D01*
X0252350Y0147833D01*
X0251017Y0147000D02*
Y0148000D01*
X0251517Y0147500D01*
X0250850D01*
X0249851Y0148000D02*
X0250517D01*
Y0147500D01*
X0250184Y0147667D01*
X0250017D01*
X0249851Y0147500D01*
Y0147167D01*
X0250017Y0147000D01*
X0250350D01*
X0250517Y0147167D01*
X0271833Y0154917D02*
X0272000Y0154750D01*
Y0154417D01*
X0271833Y0154251D01*
X0271167D01*
X0271000Y0154417D01*
Y0154750D01*
X0271167Y0154917D01*
X0271000Y0155250D02*
Y0155583D01*
Y0155417D01*
X0272000D01*
X0271833Y0155250D01*
X0271000Y0156583D02*
X0272000D01*
X0271500Y0156083D01*
Y0156750D01*
X0271000Y0157583D02*
X0272000D01*
X0271500Y0157083D01*
Y0157749D01*
X0279383Y0154033D02*
X0279550Y0154200D01*
X0279883D01*
X0280049Y0154033D01*
Y0153367D01*
X0279883Y0153200D01*
X0279550D01*
X0279383Y0153367D01*
X0279050Y0153200D02*
X0278717D01*
X0278883D01*
Y0154200D01*
X0279050Y0154033D01*
X0277717Y0153200D02*
Y0154200D01*
X0278217Y0153700D01*
X0277550D01*
X0277217Y0154033D02*
X0277050Y0154200D01*
X0276717D01*
X0276551Y0154033D01*
Y0153867D01*
X0276717Y0153700D01*
X0276884D01*
X0276717D01*
X0276551Y0153533D01*
Y0153367D01*
X0276717Y0153200D01*
X0277050D01*
X0277217Y0153367D01*
X0279583Y0162733D02*
X0279750Y0162900D01*
X0280083D01*
X0280249Y0162733D01*
Y0162067D01*
X0280083Y0161900D01*
X0279750D01*
X0279583Y0162067D01*
X0279250Y0161900D02*
X0278917D01*
X0279083D01*
Y0162900D01*
X0279250Y0162733D01*
X0277917Y0161900D02*
Y0162900D01*
X0278417Y0162400D01*
X0277750D01*
X0276751Y0161900D02*
X0277417D01*
X0276751Y0162567D01*
Y0162733D01*
X0276917Y0162900D01*
X0277250D01*
X0277417Y0162733D01*
X0271833Y0166084D02*
X0272000Y0165917D01*
Y0165584D01*
X0271833Y0165417D01*
X0271167D01*
X0271000Y0165584D01*
Y0165917D01*
X0271167Y0166084D01*
X0271000Y0166417D02*
Y0166750D01*
Y0166583D01*
X0272000D01*
X0271833Y0166417D01*
X0271000Y0167750D02*
X0272000D01*
X0271500Y0167250D01*
Y0167916D01*
X0271000Y0168250D02*
Y0168583D01*
Y0168416D01*
X0272000D01*
X0271833Y0168250D01*
X0279583Y0164833D02*
X0279750Y0165000D01*
X0280083D01*
X0280249Y0164833D01*
Y0164167D01*
X0280083Y0164000D01*
X0279750D01*
X0279583Y0164167D01*
X0279250Y0164000D02*
X0278917D01*
X0279083D01*
Y0165000D01*
X0279250Y0164833D01*
X0277917Y0164000D02*
Y0165000D01*
X0278417Y0164500D01*
X0277750D01*
X0277417Y0164833D02*
X0277250Y0165000D01*
X0276917D01*
X0276751Y0164833D01*
Y0164167D01*
X0276917Y0164000D01*
X0277250D01*
X0277417Y0164167D01*
Y0164833D01*
X0276983Y0170633D02*
X0277150Y0170800D01*
X0277483D01*
X0277649Y0170633D01*
Y0169967D01*
X0277483Y0169800D01*
X0277150D01*
X0276983Y0169967D01*
X0276650Y0169800D02*
X0276317D01*
X0276483D01*
Y0170800D01*
X0276650Y0170633D01*
X0275817D02*
X0275650Y0170800D01*
X0275317D01*
X0275150Y0170633D01*
Y0170467D01*
X0275317Y0170300D01*
X0275483D01*
X0275317D01*
X0275150Y0170133D01*
Y0169967D01*
X0275317Y0169800D01*
X0275650D01*
X0275817Y0169967D01*
X0274817D02*
X0274650Y0169800D01*
X0274317D01*
X0274151Y0169967D01*
Y0170633D01*
X0274317Y0170800D01*
X0274650D01*
X0274817Y0170633D01*
Y0170467D01*
X0274650Y0170300D01*
X0274151D01*
X0278383Y0176134D02*
X0278550Y0176300D01*
X0278883D01*
X0279049Y0176134D01*
Y0175467D01*
X0278883Y0175301D01*
X0278550D01*
X0278383Y0175467D01*
X0278050Y0175301D02*
X0277717D01*
X0277883D01*
Y0176300D01*
X0278050Y0176134D01*
X0277217D02*
X0277050Y0176300D01*
X0276717D01*
X0276550Y0176134D01*
Y0175967D01*
X0276717Y0175800D01*
X0276883D01*
X0276717D01*
X0276550Y0175634D01*
Y0175467D01*
X0276717Y0175301D01*
X0277050D01*
X0277217Y0175467D01*
X0276217Y0176300D02*
X0275551D01*
Y0176134D01*
X0276217Y0175467D01*
Y0175301D01*
X0279383Y0184733D02*
X0279550Y0184900D01*
X0279883D01*
X0280049Y0184733D01*
Y0184067D01*
X0279883Y0183900D01*
X0279550D01*
X0279383Y0184067D01*
X0279050Y0183900D02*
X0278717D01*
X0278883D01*
Y0184900D01*
X0279050Y0184733D01*
X0278217D02*
X0278050Y0184900D01*
X0277717D01*
X0277550Y0184733D01*
Y0184567D01*
X0277717Y0184400D01*
X0277883D01*
X0277717D01*
X0277550Y0184233D01*
Y0184067D01*
X0277717Y0183900D01*
X0278050D01*
X0278217Y0184067D01*
X0276551Y0184900D02*
X0276884Y0184733D01*
X0277217Y0184400D01*
Y0184067D01*
X0277050Y0183900D01*
X0276717D01*
X0276551Y0184067D01*
Y0184233D01*
X0276717Y0184400D01*
X0277217D01*
X0274643Y0201232D02*
X0274810Y0201065D01*
Y0200732D01*
X0274643Y0200565D01*
X0273977D01*
X0273810Y0200732D01*
Y0201065D01*
X0273977Y0201232D01*
X0273810Y0201565D02*
Y0201898D01*
Y0201731D01*
X0274810D01*
X0274643Y0201565D01*
Y0202398D02*
X0274810Y0202564D01*
Y0202898D01*
X0274643Y0203064D01*
X0274477D01*
X0274310Y0202898D01*
Y0202731D01*
Y0202898D01*
X0274144Y0203064D01*
X0273977D01*
X0273810Y0202898D01*
Y0202564D01*
X0273977Y0202398D01*
X0273810Y0204064D02*
Y0203398D01*
X0274477Y0204064D01*
X0274643D01*
X0274810Y0203897D01*
Y0203564D01*
X0274643Y0203398D01*
X0256144Y0156898D02*
X0256310Y0156732D01*
Y0156398D01*
X0256144Y0156232D01*
X0255477D01*
X0255311Y0156398D01*
Y0156732D01*
X0255477Y0156898D01*
X0255311Y0157231D02*
Y0157565D01*
Y0157398D01*
X0256310D01*
X0256144Y0157231D01*
Y0158064D02*
X0256310Y0158231D01*
Y0158564D01*
X0256144Y0158731D01*
X0255977D01*
X0255811Y0158564D01*
Y0158398D01*
Y0158564D01*
X0255644Y0158731D01*
X0255477D01*
X0255311Y0158564D01*
Y0158231D01*
X0255477Y0158064D01*
X0255311Y0159064D02*
Y0159397D01*
Y0159231D01*
X0256310D01*
X0256144Y0159064D01*
Y0167732D02*
X0256310Y0167565D01*
Y0167232D01*
X0256144Y0167065D01*
X0255477D01*
X0255311Y0167232D01*
Y0167565D01*
X0255477Y0167732D01*
X0255311Y0168065D02*
Y0168398D01*
Y0168231D01*
X0256310D01*
X0256144Y0168065D01*
Y0168898D02*
X0256310Y0169064D01*
Y0169398D01*
X0256144Y0169564D01*
X0255977D01*
X0255811Y0169398D01*
Y0169231D01*
Y0169398D01*
X0255644Y0169564D01*
X0255477D01*
X0255311Y0169398D01*
Y0169064D01*
X0255477Y0168898D01*
X0256144Y0169898D02*
X0256310Y0170064D01*
Y0170397D01*
X0256144Y0170564D01*
X0255477D01*
X0255311Y0170397D01*
Y0170064D01*
X0255477Y0169898D01*
X0256144D01*
X0256144Y0178732D02*
X0256310Y0178565D01*
Y0178232D01*
X0256144Y0178065D01*
X0255477D01*
X0255311Y0178232D01*
Y0178565D01*
X0255477Y0178732D01*
X0255311Y0179065D02*
Y0179398D01*
Y0179231D01*
X0256310D01*
X0256144Y0179065D01*
X0255311Y0180564D02*
Y0179898D01*
X0255977Y0180564D01*
X0256144D01*
X0256310Y0180398D01*
Y0180064D01*
X0256144Y0179898D01*
X0255477Y0180898D02*
X0255311Y0181064D01*
Y0181397D01*
X0255477Y0181564D01*
X0256144D01*
X0256310Y0181397D01*
Y0181064D01*
X0256144Y0180898D01*
X0255977D01*
X0255811Y0181064D01*
Y0181564D01*
X0256143Y0189565D02*
X0256310Y0189398D01*
Y0189065D01*
X0256143Y0188898D01*
X0255477D01*
X0255310Y0189065D01*
Y0189398D01*
X0255477Y0189565D01*
X0255310Y0189898D02*
Y0190231D01*
Y0190065D01*
X0256310D01*
X0256143Y0189898D01*
X0255310Y0191398D02*
Y0190731D01*
X0255977Y0191398D01*
X0256143D01*
X0256310Y0191231D01*
Y0190898D01*
X0256143Y0190731D01*
Y0191731D02*
X0256310Y0191898D01*
Y0192231D01*
X0256143Y0192397D01*
X0255977D01*
X0255810Y0192231D01*
X0255644Y0192397D01*
X0255477D01*
X0255310Y0192231D01*
Y0191898D01*
X0255477Y0191731D01*
X0255644D01*
X0255810Y0191898D01*
X0255977Y0191731D01*
X0256143D01*
X0255810Y0191898D02*
Y0192231D01*
X0196133Y0190899D02*
X0196299Y0190732D01*
Y0190399D01*
X0196133Y0190232D01*
X0195466D01*
X0195300Y0190399D01*
Y0190732D01*
X0195466Y0190899D01*
X0195300Y0191232D02*
Y0191565D01*
Y0191398D01*
X0196299D01*
X0196133Y0191232D01*
X0195300Y0192731D02*
Y0192065D01*
X0195966Y0192731D01*
X0196133D01*
X0196299Y0192565D01*
Y0192231D01*
X0196133Y0192065D01*
X0196299Y0193064D02*
Y0193731D01*
X0196133D01*
X0195466Y0193064D01*
X0195300D01*
X0192879Y0195228D02*
X0193046Y0195062D01*
Y0194728D01*
X0192879Y0194562D01*
X0192213D01*
X0192046Y0194728D01*
Y0195062D01*
X0192213Y0195228D01*
X0192046Y0195561D02*
Y0195895D01*
Y0195728D01*
X0193046D01*
X0192879Y0195561D01*
X0192046Y0197061D02*
Y0196394D01*
X0192713Y0197061D01*
X0192879D01*
X0193046Y0196894D01*
Y0196561D01*
X0192879Y0196394D01*
X0193046Y0198061D02*
X0192879Y0197727D01*
X0192546Y0197394D01*
X0192213D01*
X0192046Y0197561D01*
Y0197894D01*
X0192213Y0198061D01*
X0192380D01*
X0192546Y0197894D01*
Y0197394D01*
X0192879Y0185728D02*
X0193046Y0185562D01*
Y0185228D01*
X0192879Y0185062D01*
X0192213D01*
X0192046Y0185228D01*
Y0185562D01*
X0192213Y0185728D01*
X0192046Y0186061D02*
Y0186395D01*
Y0186228D01*
X0193046D01*
X0192879Y0186061D01*
X0192046Y0187561D02*
Y0186894D01*
X0192713Y0187561D01*
X0192879D01*
X0193046Y0187394D01*
Y0187061D01*
X0192879Y0186894D01*
X0193046Y0188561D02*
Y0187894D01*
X0192546D01*
X0192713Y0188227D01*
Y0188394D01*
X0192546Y0188561D01*
X0192213D01*
X0192046Y0188394D01*
Y0188061D01*
X0192213Y0187894D01*
X0196133Y0183499D02*
X0196299Y0183332D01*
Y0182999D01*
X0196133Y0182832D01*
X0195466D01*
X0195300Y0182999D01*
Y0183332D01*
X0195466Y0183499D01*
X0195300Y0183832D02*
Y0184165D01*
Y0183998D01*
X0196299D01*
X0196133Y0183832D01*
X0195300Y0185331D02*
Y0184665D01*
X0195966Y0185331D01*
X0196133D01*
X0196299Y0185165D01*
Y0184831D01*
X0196133Y0184665D01*
X0195300Y0186164D02*
X0196299D01*
X0195799Y0185664D01*
Y0186331D01*
X0188058Y0190899D02*
X0188225Y0190732D01*
Y0190399D01*
X0188058Y0190232D01*
X0187392D01*
X0187225Y0190399D01*
Y0190732D01*
X0187392Y0190899D01*
X0187225Y0191232D02*
Y0191565D01*
Y0191398D01*
X0188225D01*
X0188058Y0191232D01*
X0187225Y0192731D02*
Y0192065D01*
X0187892Y0192731D01*
X0188058D01*
X0188225Y0192565D01*
Y0192231D01*
X0188058Y0192065D01*
Y0193064D02*
X0188225Y0193231D01*
Y0193564D01*
X0188058Y0193731D01*
X0187892D01*
X0187725Y0193564D01*
Y0193398D01*
Y0193564D01*
X0187558Y0193731D01*
X0187392D01*
X0187225Y0193564D01*
Y0193231D01*
X0187392Y0193064D01*
X0205033Y0190217D02*
X0205200Y0190051D01*
Y0189718D01*
X0205033Y0189551D01*
X0204367D01*
X0204200Y0189718D01*
Y0190051D01*
X0204367Y0190217D01*
X0204200Y0190551D02*
Y0190884D01*
Y0190717D01*
X0205200D01*
X0205033Y0190551D01*
X0204200Y0192050D02*
Y0191384D01*
X0204867Y0192050D01*
X0205033D01*
X0205200Y0191884D01*
Y0191550D01*
X0205033Y0191384D01*
X0204200Y0193050D02*
Y0192383D01*
X0204867Y0193050D01*
X0205033D01*
X0205200Y0192883D01*
Y0192550D01*
X0205033Y0192383D01*
X0205033Y0183601D02*
X0205200Y0183434D01*
Y0183101D01*
X0205033Y0182934D01*
X0204367D01*
X0204200Y0183101D01*
Y0183434D01*
X0204367Y0183601D01*
X0204200Y0183934D02*
Y0184267D01*
Y0184101D01*
X0205200D01*
X0205033Y0183934D01*
X0204200Y0184767D02*
Y0185100D01*
Y0184934D01*
X0205200D01*
X0205033Y0184767D01*
X0204367Y0185600D02*
X0204200Y0185767D01*
Y0186100D01*
X0204367Y0186267D01*
X0205033D01*
X0205200Y0186100D01*
Y0185767D01*
X0205033Y0185600D01*
X0204867D01*
X0204700Y0185767D01*
Y0186267D01*
X0188058Y0183782D02*
X0188225Y0183615D01*
Y0183282D01*
X0188058Y0183115D01*
X0187392D01*
X0187225Y0183282D01*
Y0183615D01*
X0187392Y0183782D01*
X0187225Y0184115D02*
Y0184448D01*
Y0184282D01*
X0188225D01*
X0188058Y0184115D01*
X0187225Y0184948D02*
Y0185281D01*
Y0185115D01*
X0188225D01*
X0188058Y0184948D01*
X0188225Y0185781D02*
Y0186448D01*
X0188058D01*
X0187392Y0185781D01*
X0187225D01*
X0143733Y0205601D02*
X0143900Y0205434D01*
Y0205101D01*
X0143733Y0204934D01*
X0143067D01*
X0142900Y0205101D01*
Y0205434D01*
X0143067Y0205601D01*
X0142900Y0205934D02*
Y0206267D01*
Y0206101D01*
X0143900D01*
X0143733Y0205934D01*
X0142900Y0206767D02*
Y0207100D01*
Y0206934D01*
X0143900D01*
X0143733Y0206767D01*
X0143900Y0208267D02*
X0143733Y0207933D01*
X0143400Y0207600D01*
X0143067D01*
X0142900Y0207767D01*
Y0208100D01*
X0143067Y0208267D01*
X0143233D01*
X0143400Y0208100D01*
Y0207600D01*
X0137233Y0205601D02*
X0137400Y0205434D01*
Y0205101D01*
X0137233Y0204934D01*
X0136567D01*
X0136400Y0205101D01*
Y0205434D01*
X0136567Y0205601D01*
X0136400Y0205934D02*
Y0206267D01*
Y0206101D01*
X0137400D01*
X0137233Y0205934D01*
X0136400Y0206767D02*
Y0207100D01*
Y0206934D01*
X0137400D01*
X0137233Y0206767D01*
X0137400Y0208266D02*
Y0207600D01*
X0136900D01*
X0137067Y0207933D01*
Y0208100D01*
X0136900Y0208266D01*
X0136567D01*
X0136400Y0208100D01*
Y0207767D01*
X0136567Y0207600D01*
X0135433Y0205601D02*
X0135600Y0205434D01*
Y0205101D01*
X0135433Y0204934D01*
X0134767D01*
X0134600Y0205101D01*
Y0205434D01*
X0134767Y0205601D01*
X0134600Y0205934D02*
Y0206267D01*
Y0206101D01*
X0135600D01*
X0135433Y0205934D01*
X0134600Y0206767D02*
Y0207100D01*
Y0206934D01*
X0135600D01*
X0135433Y0206767D01*
X0134600Y0208100D02*
X0135600D01*
X0135100Y0207600D01*
Y0208266D01*
X0148333Y0205601D02*
X0148500Y0205434D01*
Y0205101D01*
X0148333Y0204934D01*
X0147667D01*
X0147500Y0205101D01*
Y0205434D01*
X0147667Y0205601D01*
X0147500Y0205934D02*
Y0206267D01*
Y0206101D01*
X0148500D01*
X0148333Y0205934D01*
X0147500Y0206767D02*
Y0207100D01*
Y0206934D01*
X0148500D01*
X0148333Y0206767D01*
Y0207600D02*
X0148500Y0207767D01*
Y0208100D01*
X0148333Y0208266D01*
X0148167D01*
X0148000Y0208100D01*
Y0207933D01*
Y0208100D01*
X0147833Y0208266D01*
X0147667D01*
X0147500Y0208100D01*
Y0207767D01*
X0147667Y0207600D01*
X0155533Y0205801D02*
X0155700Y0205634D01*
Y0205301D01*
X0155533Y0205134D01*
X0154867D01*
X0154700Y0205301D01*
Y0205634D01*
X0154867Y0205801D01*
X0154700Y0206134D02*
Y0206467D01*
Y0206301D01*
X0155700D01*
X0155533Y0206134D01*
X0154700Y0206967D02*
Y0207300D01*
Y0207134D01*
X0155700D01*
X0155533Y0206967D01*
X0154700Y0208467D02*
Y0207800D01*
X0155367Y0208467D01*
X0155533D01*
X0155700Y0208300D01*
Y0207967D01*
X0155533Y0207800D01*
X0153333Y0205167D02*
X0153500Y0205001D01*
Y0204667D01*
X0153333Y0204501D01*
X0152667D01*
X0152500Y0204667D01*
Y0205001D01*
X0152667Y0205167D01*
X0152500Y0205501D02*
Y0205834D01*
Y0205667D01*
X0153500D01*
X0153333Y0205501D01*
X0152500Y0206334D02*
Y0206667D01*
Y0206500D01*
X0153500D01*
X0153333Y0206334D01*
X0152500Y0207167D02*
Y0207500D01*
Y0207333D01*
X0153500D01*
X0153333Y0207167D01*
X0150583Y0202534D02*
X0150750Y0202700D01*
X0151083D01*
X0151249Y0202534D01*
Y0201867D01*
X0151083Y0201701D01*
X0150750D01*
X0150583Y0201867D01*
X0150250Y0201701D02*
X0149917D01*
X0150083D01*
Y0202700D01*
X0150250Y0202534D01*
X0149417D02*
X0149250Y0202700D01*
X0148917D01*
X0148750Y0202534D01*
Y0201867D01*
X0148917Y0201701D01*
X0149250D01*
X0149417Y0201867D01*
Y0202534D01*
X0147751Y0201701D02*
X0148417D01*
X0147751Y0202367D01*
Y0202534D01*
X0147917Y0202700D01*
X0148250D01*
X0148417Y0202534D01*
X0162016Y0196334D02*
X0162183Y0196500D01*
X0162516D01*
X0162683Y0196334D01*
Y0195667D01*
X0162516Y0195501D01*
X0162183D01*
X0162016Y0195667D01*
X0161683Y0195501D02*
X0161350D01*
X0161517D01*
Y0196500D01*
X0161683Y0196334D01*
X0160850D02*
X0160683Y0196500D01*
X0160350D01*
X0160184Y0196334D01*
Y0195667D01*
X0160350Y0195501D01*
X0160683D01*
X0160850Y0195667D01*
Y0196334D01*
X0159850Y0195501D02*
X0159517D01*
X0159684D01*
Y0196500D01*
X0159850Y0196334D01*
X0133766Y0198234D02*
X0133933Y0198400D01*
X0134266D01*
X0134433Y0198234D01*
Y0197567D01*
X0134266Y0197401D01*
X0133933D01*
X0133766Y0197567D01*
X0133433D02*
X0133267Y0197401D01*
X0132933D01*
X0132767Y0197567D01*
Y0198234D01*
X0132933Y0198400D01*
X0133267D01*
X0133433Y0198234D01*
Y0198067D01*
X0133267Y0197900D01*
X0132767D01*
X0132434Y0198400D02*
X0131767D01*
Y0198234D01*
X0132434Y0197567D01*
Y0197401D01*
X0134166Y0199534D02*
X0134333Y0199700D01*
X0134666D01*
X0134833Y0199534D01*
Y0198867D01*
X0134666Y0198701D01*
X0134333D01*
X0134166Y0198867D01*
X0133833D02*
X0133667Y0198701D01*
X0133333D01*
X0133167Y0198867D01*
Y0199534D01*
X0133333Y0199700D01*
X0133667D01*
X0133833Y0199534D01*
Y0199367D01*
X0133667Y0199200D01*
X0133167D01*
X0132167Y0199700D02*
X0132500Y0199534D01*
X0132834Y0199200D01*
Y0198867D01*
X0132667Y0198701D01*
X0132334D01*
X0132167Y0198867D01*
Y0199034D01*
X0132334Y0199200D01*
X0132834D01*
X0129266Y0198234D02*
X0129433Y0198400D01*
X0129766D01*
X0129933Y0198234D01*
Y0197567D01*
X0129766Y0197401D01*
X0129433D01*
X0129266Y0197567D01*
X0128933D02*
X0128767Y0197401D01*
X0128433D01*
X0128267Y0197567D01*
Y0198234D01*
X0128433Y0198400D01*
X0128767D01*
X0128933Y0198234D01*
Y0198067D01*
X0128767Y0197900D01*
X0128267D01*
X0127267Y0198400D02*
X0127934D01*
Y0197900D01*
X0127600Y0198067D01*
X0127434D01*
X0127267Y0197900D01*
Y0197567D01*
X0127434Y0197401D01*
X0127767D01*
X0127934Y0197567D01*
X0129266Y0207934D02*
X0129433Y0208100D01*
X0129766D01*
X0129933Y0207934D01*
Y0207267D01*
X0129766Y0207101D01*
X0129433D01*
X0129266Y0207267D01*
X0128933D02*
X0128767Y0207101D01*
X0128433D01*
X0128267Y0207267D01*
Y0207934D01*
X0128433Y0208100D01*
X0128767D01*
X0128933Y0207934D01*
Y0207767D01*
X0128767Y0207600D01*
X0128267D01*
X0127434Y0207101D02*
Y0208100D01*
X0127934Y0207600D01*
X0127267D01*
X0134100Y0202034D02*
X0134266Y0202200D01*
X0134600D01*
X0134766Y0202034D01*
Y0201367D01*
X0134600Y0201201D01*
X0134266D01*
X0134100Y0201367D01*
X0133767D02*
X0133600Y0201201D01*
X0133267D01*
X0133100Y0201367D01*
Y0202034D01*
X0133267Y0202200D01*
X0133600D01*
X0133767Y0202034D01*
Y0201867D01*
X0133600Y0201700D01*
X0133100D01*
X0132767Y0201201D02*
X0132434D01*
X0132600D01*
Y0202200D01*
X0132767Y0202034D01*
X0120366Y0199634D02*
X0120533Y0199800D01*
X0120866D01*
X0121033Y0199634D01*
Y0198967D01*
X0120866Y0198801D01*
X0120533D01*
X0120366Y0198967D01*
X0120033D02*
X0119867Y0198801D01*
X0119533D01*
X0119367Y0198967D01*
Y0199634D01*
X0119533Y0199800D01*
X0119867D01*
X0120033Y0199634D01*
Y0199467D01*
X0119867Y0199300D01*
X0119367D01*
X0119034Y0199634D02*
X0118867Y0199800D01*
X0118534D01*
X0118367Y0199634D01*
Y0198967D01*
X0118534Y0198801D01*
X0118867D01*
X0119034Y0198967D01*
Y0199634D01*
X0120266Y0198234D02*
X0120433Y0198400D01*
X0120766D01*
X0120933Y0198234D01*
Y0197567D01*
X0120766Y0197401D01*
X0120433D01*
X0120266Y0197567D01*
X0119933Y0198234D02*
X0119767Y0198400D01*
X0119433D01*
X0119267Y0198234D01*
Y0198067D01*
X0119433Y0197900D01*
X0119267Y0197734D01*
Y0197567D01*
X0119433Y0197401D01*
X0119767D01*
X0119933Y0197567D01*
Y0197734D01*
X0119767Y0197900D01*
X0119933Y0198067D01*
Y0198234D01*
X0119767Y0197900D02*
X0119433D01*
X0118934Y0197567D02*
X0118767Y0197401D01*
X0118434D01*
X0118267Y0197567D01*
Y0198234D01*
X0118434Y0198400D01*
X0118767D01*
X0118934Y0198234D01*
Y0198067D01*
X0118767Y0197900D01*
X0118267D01*
X0146866Y0198234D02*
X0147033Y0198400D01*
X0147366D01*
X0147533Y0198234D01*
Y0197567D01*
X0147366Y0197401D01*
X0147033D01*
X0146866Y0197567D01*
X0146533Y0198234D02*
X0146367Y0198400D01*
X0146033D01*
X0145867Y0198234D01*
Y0198067D01*
X0146033Y0197900D01*
X0145867Y0197734D01*
Y0197567D01*
X0146033Y0197401D01*
X0146367D01*
X0146533Y0197567D01*
Y0197734D01*
X0146367Y0197900D01*
X0146533Y0198067D01*
Y0198234D01*
X0146367Y0197900D02*
X0146033D01*
X0145534Y0198234D02*
X0145367Y0198400D01*
X0145034D01*
X0144867Y0198234D01*
Y0198067D01*
X0145034Y0197900D01*
X0144867Y0197734D01*
Y0197567D01*
X0145034Y0197401D01*
X0145367D01*
X0145534Y0197567D01*
Y0197734D01*
X0145367Y0197900D01*
X0145534Y0198067D01*
Y0198234D01*
X0145367Y0197900D02*
X0145034D01*
X0146866Y0199634D02*
X0147033Y0199800D01*
X0147366D01*
X0147533Y0199634D01*
Y0198967D01*
X0147366Y0198801D01*
X0147033D01*
X0146866Y0198967D01*
X0146533Y0199634D02*
X0146367Y0199800D01*
X0146033D01*
X0145867Y0199634D01*
Y0199467D01*
X0146033Y0199300D01*
X0145867Y0199134D01*
Y0198967D01*
X0146033Y0198801D01*
X0146367D01*
X0146533Y0198967D01*
Y0199134D01*
X0146367Y0199300D01*
X0146533Y0199467D01*
Y0199634D01*
X0146367Y0199300D02*
X0146033D01*
X0145534Y0199800D02*
X0144867D01*
Y0199634D01*
X0145534Y0198967D01*
Y0198801D01*
X0128566Y0202934D02*
X0128733Y0203100D01*
X0129066D01*
X0129233Y0202934D01*
Y0202267D01*
X0129066Y0202101D01*
X0128733D01*
X0128566Y0202267D01*
X0128233Y0202934D02*
X0128067Y0203100D01*
X0127733D01*
X0127567Y0202934D01*
Y0202767D01*
X0127733Y0202600D01*
X0127567Y0202434D01*
Y0202267D01*
X0127733Y0202101D01*
X0128067D01*
X0128233Y0202267D01*
Y0202434D01*
X0128067Y0202600D01*
X0128233Y0202767D01*
Y0202934D01*
X0128067Y0202600D02*
X0127733D01*
X0126734Y0202101D02*
Y0203100D01*
X0127234Y0202600D01*
X0126567D01*
X0128566Y0204234D02*
X0128733Y0204400D01*
X0129066D01*
X0129233Y0204234D01*
Y0203567D01*
X0129066Y0203401D01*
X0128733D01*
X0128566Y0203567D01*
X0128233Y0204234D02*
X0128067Y0204400D01*
X0127733D01*
X0127567Y0204234D01*
Y0204067D01*
X0127733Y0203900D01*
X0127567Y0203734D01*
Y0203567D01*
X0127733Y0203401D01*
X0128067D01*
X0128233Y0203567D01*
Y0203734D01*
X0128067Y0203900D01*
X0128233Y0204067D01*
Y0204234D01*
X0128067Y0203900D02*
X0127733D01*
X0127234Y0204234D02*
X0127067Y0204400D01*
X0126734D01*
X0126567Y0204234D01*
Y0204067D01*
X0126734Y0203900D01*
X0126900D01*
X0126734D01*
X0126567Y0203734D01*
Y0203567D01*
X0126734Y0203401D01*
X0127067D01*
X0127234Y0203567D01*
X0273066Y0116333D02*
X0273233Y0116500D01*
X0273566D01*
X0273733Y0116333D01*
Y0115667D01*
X0273566Y0115500D01*
X0273233D01*
X0273066Y0115667D01*
X0272733Y0116333D02*
X0272567Y0116500D01*
X0272233D01*
X0272067Y0116333D01*
Y0116167D01*
X0272233Y0116000D01*
X0272067Y0115833D01*
Y0115667D01*
X0272233Y0115500D01*
X0272567D01*
X0272733Y0115667D01*
Y0115833D01*
X0272567Y0116000D01*
X0272733Y0116167D01*
Y0116333D01*
X0272567Y0116000D02*
X0272233D01*
X0271067Y0115500D02*
X0271734D01*
X0271067Y0116167D01*
Y0116333D01*
X0271234Y0116500D01*
X0271567D01*
X0271734Y0116333D01*
X0102542Y0164311D02*
X0102709Y0164145D01*
Y0163811D01*
X0102542Y0163645D01*
X0101876D01*
X0101709Y0163811D01*
Y0164145D01*
X0101876Y0164311D01*
X0102542Y0164645D02*
X0102709Y0164811D01*
Y0165144D01*
X0102542Y0165311D01*
X0102376D01*
X0102209Y0165144D01*
X0102042Y0165311D01*
X0101876D01*
X0101709Y0165144D01*
Y0164811D01*
X0101876Y0164645D01*
X0102042D01*
X0102209Y0164811D01*
X0102376Y0164645D01*
X0102542D01*
X0102209Y0164811D02*
Y0165144D01*
X0101709Y0165644D02*
Y0165977D01*
Y0165811D01*
X0102709D01*
X0102542Y0165644D01*
Y0156145D02*
X0102709Y0155978D01*
Y0155645D01*
X0102542Y0155478D01*
X0101876D01*
X0101709Y0155645D01*
Y0155978D01*
X0101876Y0156145D01*
X0102542Y0156478D02*
X0102709Y0156645D01*
Y0156978D01*
X0102542Y0157144D01*
X0102376D01*
X0102209Y0156978D01*
X0102042Y0157144D01*
X0101876D01*
X0101709Y0156978D01*
Y0156645D01*
X0101876Y0156478D01*
X0102042D01*
X0102209Y0156645D01*
X0102376Y0156478D01*
X0102542D01*
X0102209Y0156645D02*
Y0156978D01*
X0102542Y0157478D02*
X0102709Y0157644D01*
Y0157977D01*
X0102542Y0158144D01*
X0101876D01*
X0101709Y0157977D01*
Y0157644D01*
X0101876Y0157478D01*
X0102542D01*
X0102633Y0180534D02*
X0102800Y0180367D01*
Y0180034D01*
X0102633Y0179867D01*
X0101967D01*
X0101800Y0180034D01*
Y0180367D01*
X0101967Y0180534D01*
X0102800Y0180867D02*
Y0181533D01*
X0102633D01*
X0101967Y0180867D01*
X0101800D01*
X0101967Y0181866D02*
X0101800Y0182033D01*
Y0182366D01*
X0101967Y0182533D01*
X0102633D01*
X0102800Y0182366D01*
Y0182033D01*
X0102633Y0181866D01*
X0102467D01*
X0102300Y0182033D01*
Y0182533D01*
X0102542Y0172065D02*
X0102709Y0171898D01*
Y0171565D01*
X0102542Y0171398D01*
X0101876D01*
X0101709Y0171565D01*
Y0171898D01*
X0101876Y0172065D01*
X0102709Y0172398D02*
Y0173064D01*
X0102542D01*
X0101876Y0172398D01*
X0101709D01*
X0102542Y0173397D02*
X0102709Y0173564D01*
Y0173897D01*
X0102542Y0174064D01*
X0102376D01*
X0102209Y0173897D01*
X0102042Y0174064D01*
X0101876D01*
X0101709Y0173897D01*
Y0173564D01*
X0101876Y0173397D01*
X0102042D01*
X0102209Y0173564D01*
X0102376Y0173397D01*
X0102542D01*
X0102209Y0173564D02*
Y0173897D01*
X0102542Y0148145D02*
X0102709Y0147978D01*
Y0147645D01*
X0102542Y0147478D01*
X0101876D01*
X0101709Y0147645D01*
Y0147978D01*
X0101876Y0148145D01*
X0102709Y0148478D02*
Y0149144D01*
X0102542D01*
X0101876Y0148478D01*
X0101709D01*
X0102709Y0149478D02*
Y0150144D01*
X0102542D01*
X0101876Y0149478D01*
X0101709D01*
X0102542Y0140065D02*
X0102709Y0139898D01*
Y0139565D01*
X0102542Y0139398D01*
X0101876D01*
X0101709Y0139565D01*
Y0139898D01*
X0101876Y0140065D01*
X0102709Y0140398D02*
Y0141064D01*
X0102542D01*
X0101876Y0140398D01*
X0101709D01*
X0102709Y0142064D02*
X0102542Y0141731D01*
X0102209Y0141397D01*
X0101876D01*
X0101709Y0141564D01*
Y0141897D01*
X0101876Y0142064D01*
X0102042D01*
X0102209Y0141897D01*
Y0141397D01*
X0102542Y0132097D02*
X0102709Y0131931D01*
Y0131598D01*
X0102542Y0131431D01*
X0101876D01*
X0101709Y0131598D01*
Y0131931D01*
X0101876Y0132097D01*
X0102709Y0132431D02*
Y0133097D01*
X0102542D01*
X0101876Y0132431D01*
X0101709D01*
X0102709Y0134097D02*
Y0133430D01*
X0102209D01*
X0102376Y0133764D01*
Y0133930D01*
X0102209Y0134097D01*
X0101876D01*
X0101709Y0133930D01*
Y0133597D01*
X0101876Y0133430D01*
X0102542Y0124145D02*
X0102709Y0123978D01*
Y0123645D01*
X0102542Y0123478D01*
X0101876D01*
X0101709Y0123645D01*
Y0123978D01*
X0101876Y0124145D01*
X0102709Y0124478D02*
Y0125144D01*
X0102542D01*
X0101876Y0124478D01*
X0101709D01*
Y0125977D02*
X0102709D01*
X0102209Y0125478D01*
Y0126144D01*
X0302179Y0130345D02*
X0302346Y0130178D01*
Y0129845D01*
X0302179Y0129678D01*
X0301513D01*
X0301346Y0129845D01*
Y0130178D01*
X0301513Y0130345D01*
X0302346Y0130678D02*
Y0131344D01*
X0302179D01*
X0301513Y0130678D01*
X0301346D01*
Y0132344D02*
Y0131678D01*
X0302013Y0132344D01*
X0302179D01*
X0302346Y0132177D01*
Y0131844D01*
X0302179Y0131678D01*
X0302379Y0136711D02*
X0302546Y0136545D01*
Y0136211D01*
X0302379Y0136045D01*
X0301713D01*
X0301546Y0136211D01*
Y0136545D01*
X0301713Y0136711D01*
X0302546Y0137045D02*
Y0137711D01*
X0302379D01*
X0301713Y0137045D01*
X0301546D01*
Y0138044D02*
Y0138377D01*
Y0138211D01*
X0302546D01*
X0302379Y0138044D01*
X0302879Y0139645D02*
X0303046Y0139478D01*
Y0139145D01*
X0302879Y0138978D01*
X0302213D01*
X0302046Y0139145D01*
Y0139478D01*
X0302213Y0139645D01*
X0303046Y0139978D02*
Y0140644D01*
X0302879D01*
X0302213Y0139978D01*
X0302046D01*
X0302879Y0140978D02*
X0303046Y0141144D01*
Y0141477D01*
X0302879Y0141644D01*
X0302213D01*
X0302046Y0141477D01*
Y0141144D01*
X0302213Y0140978D01*
X0302879D01*
X0303879Y0147045D02*
X0304046Y0146878D01*
Y0146545D01*
X0303879Y0146378D01*
X0303213D01*
X0303046Y0146545D01*
Y0146878D01*
X0303213Y0147045D01*
X0304046Y0148044D02*
X0303879Y0147711D01*
X0303546Y0147378D01*
X0303213D01*
X0303046Y0147545D01*
Y0147878D01*
X0303213Y0148044D01*
X0303380D01*
X0303546Y0147878D01*
Y0147378D01*
X0303213Y0148378D02*
X0303046Y0148544D01*
Y0148877D01*
X0303213Y0149044D01*
X0303879D01*
X0304046Y0148877D01*
Y0148544D01*
X0303879Y0148378D01*
X0303713D01*
X0303546Y0148544D01*
Y0149044D01*
X0303813Y0142744D02*
X0303979Y0142911D01*
X0304312D01*
X0304479Y0142744D01*
Y0142078D01*
X0304312Y0141911D01*
X0303979D01*
X0303813Y0142078D01*
X0302813Y0142911D02*
X0303146Y0142744D01*
X0303479Y0142411D01*
Y0142078D01*
X0303313Y0141911D01*
X0302980D01*
X0302813Y0142078D01*
Y0142245D01*
X0302980Y0142411D01*
X0303479D01*
X0302480Y0142744D02*
X0302313Y0142911D01*
X0301980D01*
X0301813Y0142744D01*
Y0142578D01*
X0301980Y0142411D01*
X0301813Y0142245D01*
Y0142078D01*
X0301980Y0141911D01*
X0302313D01*
X0302480Y0142078D01*
Y0142245D01*
X0302313Y0142411D01*
X0302480Y0142578D01*
Y0142744D01*
X0302313Y0142411D02*
X0301980D01*
X0303879Y0130845D02*
X0304046Y0130678D01*
Y0130345D01*
X0303879Y0130178D01*
X0303213D01*
X0303046Y0130345D01*
Y0130678D01*
X0303213Y0130845D01*
X0304046Y0131844D02*
X0303879Y0131511D01*
X0303546Y0131178D01*
X0303213D01*
X0303046Y0131345D01*
Y0131678D01*
X0303213Y0131844D01*
X0303380D01*
X0303546Y0131678D01*
Y0131178D01*
X0304046Y0132178D02*
Y0132844D01*
X0303879D01*
X0303213Y0132178D01*
X0303046D01*
X0308713Y0133144D02*
X0308879Y0133311D01*
X0309212D01*
X0309379Y0133144D01*
Y0132478D01*
X0309212Y0132311D01*
X0308879D01*
X0308713Y0132478D01*
X0307713Y0133311D02*
X0308046Y0133144D01*
X0308379Y0132811D01*
Y0132478D01*
X0308213Y0132311D01*
X0307880D01*
X0307713Y0132478D01*
Y0132645D01*
X0307880Y0132811D01*
X0308379D01*
X0306713Y0133311D02*
X0307047Y0133144D01*
X0307380Y0132811D01*
Y0132478D01*
X0307213Y0132311D01*
X0306880D01*
X0306713Y0132478D01*
Y0132645D01*
X0306880Y0132811D01*
X0307380D01*
X0312579Y0131145D02*
X0312746Y0130978D01*
Y0130645D01*
X0312579Y0130478D01*
X0311913D01*
X0311746Y0130645D01*
Y0130978D01*
X0311913Y0131145D01*
X0312746Y0132144D02*
X0312579Y0131811D01*
X0312246Y0131478D01*
X0311913D01*
X0311746Y0131645D01*
Y0131978D01*
X0311913Y0132144D01*
X0312080D01*
X0312246Y0131978D01*
Y0131478D01*
X0312746Y0133144D02*
Y0132478D01*
X0312246D01*
X0312413Y0132811D01*
Y0132977D01*
X0312246Y0133144D01*
X0311913D01*
X0311746Y0132977D01*
Y0132644D01*
X0311913Y0132478D01*
X0314079Y0131045D02*
X0314246Y0130878D01*
Y0130545D01*
X0314079Y0130378D01*
X0313413D01*
X0313246Y0130545D01*
Y0130878D01*
X0313413Y0131045D01*
X0314246Y0132044D02*
X0314079Y0131711D01*
X0313746Y0131378D01*
X0313413D01*
X0313246Y0131545D01*
Y0131878D01*
X0313413Y0132044D01*
X0313580D01*
X0313746Y0131878D01*
Y0131378D01*
X0313246Y0132877D02*
X0314246D01*
X0313746Y0132378D01*
Y0133044D01*
X0313479Y0135945D02*
X0313646Y0135778D01*
Y0135445D01*
X0313479Y0135278D01*
X0312813D01*
X0312646Y0135445D01*
Y0135778D01*
X0312813Y0135945D01*
X0313646Y0136944D02*
X0313479Y0136611D01*
X0313146Y0136278D01*
X0312813D01*
X0312646Y0136445D01*
Y0136778D01*
X0312813Y0136944D01*
X0312980D01*
X0313146Y0136778D01*
Y0136278D01*
X0313479Y0137278D02*
X0313646Y0137444D01*
Y0137777D01*
X0313479Y0137944D01*
X0313313D01*
X0313146Y0137777D01*
Y0137611D01*
Y0137777D01*
X0312980Y0137944D01*
X0312813D01*
X0312646Y0137777D01*
Y0137444D01*
X0312813Y0137278D01*
X0312813Y0144544D02*
X0312979Y0144711D01*
X0313312D01*
X0313479Y0144544D01*
Y0143878D01*
X0313312Y0143711D01*
X0312979D01*
X0312813Y0143878D01*
X0311813Y0144711D02*
X0312146Y0144544D01*
X0312479Y0144211D01*
Y0143878D01*
X0312313Y0143711D01*
X0311980D01*
X0311813Y0143878D01*
Y0144045D01*
X0311980Y0144211D01*
X0312479D01*
X0310813Y0143711D02*
X0311480D01*
X0310813Y0144378D01*
Y0144544D01*
X0310980Y0144711D01*
X0311313D01*
X0311480Y0144544D01*
X0307146Y0142944D02*
X0307313Y0143111D01*
X0307646D01*
X0307812Y0142944D01*
Y0142278D01*
X0307646Y0142111D01*
X0307313D01*
X0307146Y0142278D01*
X0306146Y0143111D02*
X0306480Y0142944D01*
X0306813Y0142611D01*
Y0142278D01*
X0306646Y0142111D01*
X0306313D01*
X0306146Y0142278D01*
Y0142445D01*
X0306313Y0142611D01*
X0306813D01*
X0305813Y0142111D02*
X0305480D01*
X0305647D01*
Y0143111D01*
X0305813Y0142944D01*
X0303713Y0135544D02*
X0303879Y0135711D01*
X0304212D01*
X0304379Y0135544D01*
Y0134878D01*
X0304212Y0134711D01*
X0303879D01*
X0303713Y0134878D01*
X0302713Y0135711D02*
X0303046Y0135544D01*
X0303379Y0135211D01*
Y0134878D01*
X0303213Y0134711D01*
X0302880D01*
X0302713Y0134878D01*
Y0135045D01*
X0302880Y0135211D01*
X0303379D01*
X0302380Y0135544D02*
X0302213Y0135711D01*
X0301880D01*
X0301713Y0135544D01*
Y0134878D01*
X0301880Y0134711D01*
X0302213D01*
X0302380Y0134878D01*
Y0135544D01*
X0282133Y0117934D02*
X0282300Y0117767D01*
Y0117434D01*
X0282133Y0117267D01*
X0281467D01*
X0281300Y0117434D01*
Y0117767D01*
X0281467Y0117934D01*
X0282300Y0118933D02*
Y0118267D01*
X0281800D01*
X0281967Y0118600D01*
Y0118767D01*
X0281800Y0118933D01*
X0281467D01*
X0281300Y0118767D01*
Y0118433D01*
X0281467Y0118267D01*
X0282133Y0119266D02*
X0282300Y0119433D01*
Y0119766D01*
X0282133Y0119933D01*
X0281967D01*
X0281800Y0119766D01*
X0281633Y0119933D01*
X0281467D01*
X0281300Y0119766D01*
Y0119433D01*
X0281467Y0119266D01*
X0281633D01*
X0281800Y0119433D01*
X0281967Y0119266D01*
X0282133D01*
X0281800Y0119433D02*
Y0119766D01*
X0313479Y0145845D02*
X0313646Y0145678D01*
Y0145345D01*
X0313479Y0145178D01*
X0312813D01*
X0312646Y0145345D01*
Y0145678D01*
X0312813Y0145845D01*
X0313646Y0146844D02*
Y0146178D01*
X0313146D01*
X0313313Y0146511D01*
Y0146678D01*
X0313146Y0146844D01*
X0312813D01*
X0312646Y0146678D01*
Y0146345D01*
X0312813Y0146178D01*
X0313646Y0147178D02*
Y0147844D01*
X0313479D01*
X0312813Y0147178D01*
X0312646D01*
X0307113Y0144244D02*
X0307279Y0144411D01*
X0307612D01*
X0307779Y0144244D01*
Y0143578D01*
X0307612Y0143411D01*
X0307279D01*
X0307113Y0143578D01*
X0306113Y0144411D02*
X0306779D01*
Y0143911D01*
X0306446Y0144078D01*
X0306280D01*
X0306113Y0143911D01*
Y0143578D01*
X0306280Y0143411D01*
X0306613D01*
X0306779Y0143578D01*
X0305113Y0144411D02*
X0305447Y0144244D01*
X0305780Y0143911D01*
Y0143578D01*
X0305613Y0143411D01*
X0305280D01*
X0305113Y0143578D01*
Y0143745D01*
X0305280Y0143911D01*
X0305780D01*
X0303713Y0133944D02*
X0303879Y0134111D01*
X0304212D01*
X0304379Y0133944D01*
Y0133278D01*
X0304212Y0133111D01*
X0303879D01*
X0303713Y0133278D01*
X0302713Y0134111D02*
X0303379D01*
Y0133611D01*
X0303046Y0133778D01*
X0302880D01*
X0302713Y0133611D01*
Y0133278D01*
X0302880Y0133111D01*
X0303213D01*
X0303379Y0133278D01*
X0301713Y0134111D02*
X0302380D01*
Y0133611D01*
X0302047Y0133778D01*
X0301880D01*
X0301713Y0133611D01*
Y0133278D01*
X0301880Y0133111D01*
X0302213D01*
X0302380Y0133278D01*
X0314413Y0134144D02*
X0314579Y0134311D01*
X0314912D01*
X0315079Y0134144D01*
Y0133478D01*
X0314912Y0133311D01*
X0314579D01*
X0314413Y0133478D01*
X0313413Y0134311D02*
X0314079D01*
Y0133811D01*
X0313746Y0133978D01*
X0313580D01*
X0313413Y0133811D01*
Y0133478D01*
X0313580Y0133311D01*
X0313913D01*
X0314079Y0133478D01*
X0312580Y0133311D02*
Y0134311D01*
X0313080Y0133811D01*
X0312413D01*
X0288533Y0117934D02*
X0288700Y0117767D01*
Y0117434D01*
X0288533Y0117267D01*
X0287867D01*
X0287700Y0117434D01*
Y0117767D01*
X0287867Y0117934D01*
X0288700Y0118933D02*
Y0118267D01*
X0288200D01*
X0288367Y0118600D01*
Y0118767D01*
X0288200Y0118933D01*
X0287867D01*
X0287700Y0118767D01*
Y0118433D01*
X0287867Y0118267D01*
X0287700Y0119933D02*
Y0119266D01*
X0288367Y0119933D01*
X0288533D01*
X0288700Y0119766D01*
Y0119433D01*
X0288533Y0119266D01*
X0275600Y0122233D02*
X0275766Y0122400D01*
X0276100D01*
X0276266Y0122233D01*
Y0121567D01*
X0276100Y0121400D01*
X0275766D01*
X0275600Y0121567D01*
X0274600Y0122400D02*
X0275267D01*
Y0121900D01*
X0274933Y0122067D01*
X0274767D01*
X0274600Y0121900D01*
Y0121567D01*
X0274767Y0121400D01*
X0275100D01*
X0275267Y0121567D01*
X0274267Y0121400D02*
X0273934D01*
X0274100D01*
Y0122400D01*
X0274267Y0122233D01*
X0284966Y0124133D02*
X0285133Y0124300D01*
X0285466D01*
X0285633Y0124133D01*
Y0123467D01*
X0285466Y0123300D01*
X0285133D01*
X0284966Y0123467D01*
X0283967Y0124300D02*
X0284633D01*
Y0123800D01*
X0284300Y0123967D01*
X0284133D01*
X0283967Y0123800D01*
Y0123467D01*
X0284133Y0123300D01*
X0284467D01*
X0284633Y0123467D01*
X0283634Y0124133D02*
X0283467Y0124300D01*
X0283134D01*
X0282967Y0124133D01*
Y0123467D01*
X0283134Y0123300D01*
X0283467D01*
X0283634Y0123467D01*
Y0124133D01*
X0302113Y0147544D02*
X0302279Y0147711D01*
X0302612D01*
X0302779Y0147544D01*
Y0146878D01*
X0302612Y0146711D01*
X0302279D01*
X0302113Y0146878D01*
X0301280Y0146711D02*
Y0147711D01*
X0301779Y0147211D01*
X0301113D01*
X0300780Y0147544D02*
X0300613Y0147711D01*
X0300280D01*
X0300113Y0147544D01*
Y0147378D01*
X0300280Y0147211D01*
X0300113Y0147045D01*
Y0146878D01*
X0300280Y0146711D01*
X0300613D01*
X0300780Y0146878D01*
Y0147045D01*
X0300613Y0147211D01*
X0300780Y0147378D01*
Y0147544D01*
X0300613Y0147211D02*
X0300280D01*
X0305213Y0145944D02*
X0305379Y0146111D01*
X0305712D01*
X0305879Y0145944D01*
Y0145278D01*
X0305712Y0145111D01*
X0305379D01*
X0305213Y0145278D01*
X0304380Y0145111D02*
Y0146111D01*
X0304879Y0145611D01*
X0304213D01*
X0303880Y0146111D02*
X0303213D01*
Y0145944D01*
X0303880Y0145278D01*
Y0145111D01*
X0308313Y0145644D02*
X0308479Y0145811D01*
X0308812D01*
X0308979Y0145644D01*
Y0144978D01*
X0308812Y0144811D01*
X0308479D01*
X0308313Y0144978D01*
X0307480Y0144811D02*
Y0145811D01*
X0307979Y0145311D01*
X0307313D01*
X0306313Y0145811D02*
X0306647Y0145644D01*
X0306980Y0145311D01*
Y0144978D01*
X0306813Y0144811D01*
X0306480D01*
X0306313Y0144978D01*
Y0145145D01*
X0306480Y0145311D01*
X0306980D01*
X0311413Y0146044D02*
X0311579Y0146211D01*
X0311912D01*
X0312079Y0146044D01*
Y0145378D01*
X0311912Y0145211D01*
X0311579D01*
X0311413Y0145378D01*
X0310580Y0145211D02*
Y0146211D01*
X0311079Y0145711D01*
X0310413D01*
X0309413Y0146211D02*
X0310080D01*
Y0145711D01*
X0309747Y0145878D01*
X0309580D01*
X0309413Y0145711D01*
Y0145378D01*
X0309580Y0145211D01*
X0309913D01*
X0310080Y0145378D01*
X0315079Y0145945D02*
X0315246Y0145778D01*
Y0145445D01*
X0315079Y0145278D01*
X0314413D01*
X0314246Y0145445D01*
Y0145778D01*
X0314413Y0145945D01*
X0314246Y0146778D02*
X0315246D01*
X0314746Y0146278D01*
Y0146944D01*
X0314246Y0147777D02*
X0315246D01*
X0314746Y0147278D01*
Y0147944D01*
X0315879Y0142845D02*
X0316046Y0142678D01*
Y0142345D01*
X0315879Y0142178D01*
X0315213D01*
X0315046Y0142345D01*
Y0142678D01*
X0315213Y0142845D01*
X0315046Y0143678D02*
X0316046D01*
X0315546Y0143178D01*
Y0143844D01*
X0315879Y0144178D02*
X0316046Y0144344D01*
Y0144677D01*
X0315879Y0144844D01*
X0315713D01*
X0315546Y0144677D01*
Y0144511D01*
Y0144677D01*
X0315380Y0144844D01*
X0315213D01*
X0315046Y0144677D01*
Y0144344D01*
X0315213Y0144178D01*
X0315879Y0139745D02*
X0316046Y0139578D01*
Y0139245D01*
X0315879Y0139078D01*
X0315213D01*
X0315046Y0139245D01*
Y0139578D01*
X0315213Y0139745D01*
X0315046Y0140578D02*
X0316046D01*
X0315546Y0140078D01*
Y0140744D01*
X0315046Y0141744D02*
Y0141078D01*
X0315713Y0141744D01*
X0315879D01*
X0316046Y0141577D01*
Y0141244D01*
X0315879Y0141078D01*
X0315079Y0135311D02*
X0315246Y0135145D01*
Y0134811D01*
X0315079Y0134645D01*
X0314413D01*
X0314246Y0134811D01*
Y0135145D01*
X0314413Y0135311D01*
X0314246Y0136144D02*
X0315246D01*
X0314746Y0135645D01*
Y0136311D01*
X0314246Y0136644D02*
Y0136977D01*
Y0136811D01*
X0315246D01*
X0315079Y0136644D01*
X0316279Y0132145D02*
X0316446Y0131978D01*
Y0131645D01*
X0316279Y0131478D01*
X0315613D01*
X0315446Y0131645D01*
Y0131978D01*
X0315613Y0132145D01*
X0315446Y0132978D02*
X0316446D01*
X0315946Y0132478D01*
Y0133144D01*
X0316279Y0133478D02*
X0316446Y0133644D01*
Y0133977D01*
X0316279Y0134144D01*
X0315613D01*
X0315446Y0133977D01*
Y0133644D01*
X0315613Y0133478D01*
X0316279D01*
X0307913Y0141544D02*
X0308079Y0141711D01*
X0308412D01*
X0308579Y0141544D01*
Y0140878D01*
X0308412Y0140711D01*
X0308079D01*
X0307913Y0140878D01*
X0307579Y0141544D02*
X0307413Y0141711D01*
X0307080D01*
X0306913Y0141544D01*
Y0141378D01*
X0307080Y0141211D01*
X0307246D01*
X0307080D01*
X0306913Y0141045D01*
Y0140878D01*
X0307080Y0140711D01*
X0307413D01*
X0307579Y0140878D01*
X0306580D02*
X0306413Y0140711D01*
X0306080D01*
X0305913Y0140878D01*
Y0141544D01*
X0306080Y0141711D01*
X0306413D01*
X0306580Y0141544D01*
Y0141378D01*
X0306413Y0141211D01*
X0305913D01*
X0308179Y0138445D02*
X0308346Y0138278D01*
Y0137945D01*
X0308179Y0137778D01*
X0307513D01*
X0307346Y0137945D01*
Y0138278D01*
X0307513Y0138445D01*
X0308179Y0138778D02*
X0308346Y0138945D01*
Y0139278D01*
X0308179Y0139444D01*
X0308013D01*
X0307846Y0139278D01*
Y0139111D01*
Y0139278D01*
X0307680Y0139444D01*
X0307513D01*
X0307346Y0139278D01*
Y0138945D01*
X0307513Y0138778D01*
X0308179Y0139778D02*
X0308346Y0139944D01*
Y0140277D01*
X0308179Y0140444D01*
X0308013D01*
X0307846Y0140277D01*
X0307680Y0140444D01*
X0307513D01*
X0307346Y0140277D01*
Y0139944D01*
X0307513Y0139778D01*
X0307680D01*
X0307846Y0139944D01*
X0308013Y0139778D01*
X0308179D01*
X0307846Y0139944D02*
Y0140277D01*
X0308513Y0137344D02*
X0308679Y0137511D01*
X0309012D01*
X0309179Y0137344D01*
Y0136678D01*
X0309012Y0136511D01*
X0308679D01*
X0308513Y0136678D01*
X0308179Y0137344D02*
X0308013Y0137511D01*
X0307680D01*
X0307513Y0137344D01*
Y0137178D01*
X0307680Y0137011D01*
X0307846D01*
X0307680D01*
X0307513Y0136845D01*
Y0136678D01*
X0307680Y0136511D01*
X0308013D01*
X0308179Y0136678D01*
X0307180Y0137511D02*
X0306513D01*
Y0137344D01*
X0307180Y0136678D01*
Y0136511D01*
X0311013Y0141644D02*
X0311179Y0141811D01*
X0311512D01*
X0311679Y0141644D01*
Y0140978D01*
X0311512Y0140811D01*
X0311179D01*
X0311013Y0140978D01*
X0310679Y0141644D02*
X0310513Y0141811D01*
X0310180D01*
X0310013Y0141644D01*
Y0141478D01*
X0310180Y0141311D01*
X0310346D01*
X0310180D01*
X0310013Y0141145D01*
Y0140978D01*
X0310180Y0140811D01*
X0310513D01*
X0310679Y0140978D01*
X0309013Y0141811D02*
X0309346Y0141644D01*
X0309680Y0141311D01*
Y0140978D01*
X0309513Y0140811D01*
X0309180D01*
X0309013Y0140978D01*
Y0141145D01*
X0309180Y0141311D01*
X0309680D01*
X0311713Y0135544D02*
X0311879Y0135711D01*
X0312212D01*
X0312379Y0135544D01*
Y0134878D01*
X0312212Y0134711D01*
X0311879D01*
X0311713Y0134878D01*
X0311379Y0135544D02*
X0311213Y0135711D01*
X0310880D01*
X0310713Y0135544D01*
Y0135378D01*
X0310880Y0135211D01*
X0311046D01*
X0310880D01*
X0310713Y0135045D01*
Y0134878D01*
X0310880Y0134711D01*
X0311213D01*
X0311379Y0134878D01*
X0309713Y0135711D02*
X0310380D01*
Y0135211D01*
X0310047Y0135378D01*
X0309880D01*
X0309713Y0135211D01*
Y0134878D01*
X0309880Y0134711D01*
X0310213D01*
X0310380Y0134878D01*
X0311479Y0138545D02*
X0311646Y0138378D01*
Y0138045D01*
X0311479Y0137878D01*
X0310813D01*
X0310646Y0138045D01*
Y0138378D01*
X0310813Y0138545D01*
X0311479Y0138878D02*
X0311646Y0139045D01*
Y0139378D01*
X0311479Y0139544D01*
X0311313D01*
X0311146Y0139378D01*
Y0139211D01*
Y0139378D01*
X0310980Y0139544D01*
X0310813D01*
X0310646Y0139378D01*
Y0139045D01*
X0310813Y0138878D01*
X0310646Y0140377D02*
X0311646D01*
X0311146Y0139878D01*
Y0140544D01*
X0310279Y0136945D02*
X0310446Y0136778D01*
Y0136445D01*
X0310279Y0136278D01*
X0309613D01*
X0309446Y0136445D01*
Y0136778D01*
X0309613Y0136945D01*
X0310279Y0137278D02*
X0310446Y0137445D01*
Y0137778D01*
X0310279Y0137944D01*
X0310113D01*
X0309946Y0137778D01*
Y0137611D01*
Y0137778D01*
X0309780Y0137944D01*
X0309613D01*
X0309446Y0137778D01*
Y0137445D01*
X0309613Y0137278D01*
X0310279Y0138278D02*
X0310446Y0138444D01*
Y0138777D01*
X0310279Y0138944D01*
X0310113D01*
X0309946Y0138777D01*
Y0138611D01*
Y0138777D01*
X0309780Y0138944D01*
X0309613D01*
X0309446Y0138777D01*
Y0138444D01*
X0309613Y0138278D01*
X0269629Y0153863D02*
X0269795Y0154030D01*
X0270128D01*
X0270295Y0153863D01*
Y0153197D01*
X0270128Y0153030D01*
X0269795D01*
X0269629Y0153197D01*
X0269295Y0153863D02*
X0269129Y0154030D01*
X0268796D01*
X0268629Y0153863D01*
Y0153697D01*
X0268796Y0153530D01*
X0268962D01*
X0268796D01*
X0268629Y0153363D01*
Y0153197D01*
X0268796Y0153030D01*
X0269129D01*
X0269295Y0153197D01*
X0267629Y0153030D02*
X0268296D01*
X0267629Y0153697D01*
Y0153863D01*
X0267796Y0154030D01*
X0268129D01*
X0268296Y0153863D01*
X0271733Y0150500D02*
X0271900Y0150334D01*
Y0150000D01*
X0271733Y0149834D01*
X0271067D01*
X0270900Y0150000D01*
Y0150334D01*
X0271067Y0150500D01*
X0271733Y0150833D02*
X0271900Y0151000D01*
Y0151333D01*
X0271733Y0151500D01*
X0271567D01*
X0271400Y0151333D01*
Y0151167D01*
Y0151333D01*
X0271233Y0151500D01*
X0271067D01*
X0270900Y0151333D01*
Y0151000D01*
X0271067Y0150833D01*
X0270900Y0151833D02*
Y0152166D01*
Y0152000D01*
X0271900D01*
X0271733Y0151833D01*
X0271733Y0147334D02*
X0271900Y0147167D01*
Y0146834D01*
X0271733Y0146667D01*
X0271067D01*
X0270900Y0146834D01*
Y0147167D01*
X0271067Y0147334D01*
X0271733Y0147667D02*
X0271900Y0147833D01*
Y0148167D01*
X0271733Y0148333D01*
X0271567D01*
X0271400Y0148167D01*
Y0148000D01*
Y0148167D01*
X0271233Y0148333D01*
X0271067D01*
X0270900Y0148167D01*
Y0147833D01*
X0271067Y0147667D01*
X0271733Y0148666D02*
X0271900Y0148833D01*
Y0149166D01*
X0271733Y0149333D01*
X0271067D01*
X0270900Y0149166D01*
Y0148833D01*
X0271067Y0148666D01*
X0271733D01*
X0269666Y0146133D02*
X0269833Y0146300D01*
X0270166D01*
X0270333Y0146133D01*
Y0145467D01*
X0270166Y0145300D01*
X0269833D01*
X0269666Y0145467D01*
X0268667Y0145300D02*
X0269333D01*
X0268667Y0145967D01*
Y0146133D01*
X0268833Y0146300D01*
X0269167D01*
X0269333Y0146133D01*
X0268334Y0145467D02*
X0268167Y0145300D01*
X0267834D01*
X0267667Y0145467D01*
Y0146133D01*
X0267834Y0146300D01*
X0268167D01*
X0268334Y0146133D01*
Y0145967D01*
X0268167Y0145800D01*
X0267667D01*
X0297166Y0157733D02*
X0297333Y0157900D01*
X0297666D01*
X0297833Y0157733D01*
Y0157067D01*
X0297666Y0156900D01*
X0297333D01*
X0297166Y0157067D01*
X0296167Y0156900D02*
X0296833D01*
X0296167Y0157567D01*
Y0157733D01*
X0296333Y0157900D01*
X0296667D01*
X0296833Y0157733D01*
X0295834D02*
X0295667Y0157900D01*
X0295334D01*
X0295167Y0157733D01*
Y0157567D01*
X0295334Y0157400D01*
X0295167Y0157233D01*
Y0157067D01*
X0295334Y0156900D01*
X0295667D01*
X0295834Y0157067D01*
Y0157233D01*
X0295667Y0157400D01*
X0295834Y0157567D01*
Y0157733D01*
X0295667Y0157400D02*
X0295334D01*
X0289533Y0151734D02*
X0289700Y0151567D01*
Y0151234D01*
X0289533Y0151067D01*
X0288867D01*
X0288700Y0151234D01*
Y0151567D01*
X0288867Y0151734D01*
X0288700Y0152733D02*
Y0152067D01*
X0289367Y0152733D01*
X0289533D01*
X0289700Y0152567D01*
Y0152233D01*
X0289533Y0152067D01*
X0289700Y0153066D02*
Y0153733D01*
X0289533D01*
X0288867Y0153066D01*
X0288700D01*
X0286633Y0159234D02*
X0286800Y0159067D01*
Y0158734D01*
X0286633Y0158567D01*
X0285967D01*
X0285800Y0158734D01*
Y0159067D01*
X0285967Y0159234D01*
X0285800Y0160233D02*
Y0159567D01*
X0286467Y0160233D01*
X0286633D01*
X0286800Y0160067D01*
Y0159733D01*
X0286633Y0159567D01*
X0286800Y0161233D02*
X0286633Y0160900D01*
X0286300Y0160566D01*
X0285967D01*
X0285800Y0160733D01*
Y0161066D01*
X0285967Y0161233D01*
X0286133D01*
X0286300Y0161066D01*
Y0160566D01*
X0290285Y0145477D02*
X0290452Y0145310D01*
Y0144977D01*
X0290285Y0144810D01*
X0289619D01*
X0289452Y0144977D01*
Y0145310D01*
X0289619Y0145477D01*
X0289452Y0146476D02*
Y0145810D01*
X0290118Y0146476D01*
X0290285D01*
X0290452Y0146310D01*
Y0145977D01*
X0290285Y0145810D01*
X0290452Y0147476D02*
Y0146810D01*
X0289952D01*
X0290118Y0147143D01*
Y0147309D01*
X0289952Y0147476D01*
X0289619D01*
X0289452Y0147309D01*
Y0146976D01*
X0289619Y0146810D01*
X0284079Y0163124D02*
X0284246Y0162957D01*
Y0162624D01*
X0284079Y0162457D01*
X0283413D01*
X0283246Y0162624D01*
Y0162957D01*
X0283413Y0163124D01*
X0283246Y0164123D02*
Y0163457D01*
X0283913Y0164123D01*
X0284079D01*
X0284246Y0163957D01*
Y0163624D01*
X0284079Y0163457D01*
X0283246Y0164956D02*
X0284246D01*
X0283746Y0164457D01*
Y0165123D01*
X0288479Y0145445D02*
X0288646Y0145278D01*
Y0144945D01*
X0288479Y0144778D01*
X0287813D01*
X0287646Y0144945D01*
Y0145278D01*
X0287813Y0145445D01*
X0287646Y0146444D02*
Y0145778D01*
X0288313Y0146444D01*
X0288479D01*
X0288646Y0146278D01*
Y0145945D01*
X0288479Y0145778D01*
Y0146778D02*
X0288646Y0146944D01*
Y0147277D01*
X0288479Y0147444D01*
X0288313D01*
X0288146Y0147277D01*
Y0147111D01*
Y0147277D01*
X0287980Y0147444D01*
X0287813D01*
X0287646Y0147277D01*
Y0146944D01*
X0287813Y0146778D01*
X0288349Y0165645D02*
X0288515Y0165478D01*
Y0165145D01*
X0288349Y0164978D01*
X0287682D01*
X0287516Y0165145D01*
Y0165478D01*
X0287682Y0165645D01*
X0287516Y0166644D02*
Y0165978D01*
X0288182Y0166644D01*
X0288349D01*
X0288515Y0166478D01*
Y0166145D01*
X0288349Y0165978D01*
X0287516Y0167644D02*
Y0166978D01*
X0288182Y0167644D01*
X0288349D01*
X0288515Y0167477D01*
Y0167144D01*
X0288349Y0166978D01*
X0286633Y0145800D02*
X0286800Y0145634D01*
Y0145300D01*
X0286633Y0145134D01*
X0285967D01*
X0285800Y0145300D01*
Y0145634D01*
X0285967Y0145800D01*
X0285800Y0146800D02*
Y0146133D01*
X0286467Y0146800D01*
X0286633D01*
X0286800Y0146633D01*
Y0146300D01*
X0286633Y0146133D01*
X0285800Y0147133D02*
Y0147466D01*
Y0147300D01*
X0286800D01*
X0286633Y0147133D01*
X0296833Y0145334D02*
X0297000Y0145167D01*
Y0144834D01*
X0296833Y0144667D01*
X0296167D01*
X0296000Y0144834D01*
Y0145167D01*
X0296167Y0145334D01*
X0296000Y0146333D02*
Y0145667D01*
X0296667Y0146333D01*
X0296833D01*
X0297000Y0146167D01*
Y0145833D01*
X0296833Y0145667D01*
Y0146666D02*
X0297000Y0146833D01*
Y0147166D01*
X0296833Y0147333D01*
X0296167D01*
X0296000Y0147166D01*
Y0146833D01*
X0296167Y0146666D01*
X0296833D01*
X0297083Y0159233D02*
X0297250Y0159400D01*
X0297583D01*
X0297750Y0159233D01*
Y0158567D01*
X0297583Y0158400D01*
X0297250D01*
X0297083Y0158567D01*
X0296750Y0158400D02*
X0296417D01*
X0296583D01*
Y0159400D01*
X0296750Y0159233D01*
X0295917Y0158567D02*
X0295750Y0158400D01*
X0295417D01*
X0295250Y0158567D01*
Y0159233D01*
X0295417Y0159400D01*
X0295750D01*
X0295917Y0159233D01*
Y0159067D01*
X0295750Y0158900D01*
X0295250D01*
X0291533Y0151817D02*
X0291700Y0151650D01*
Y0151317D01*
X0291533Y0151150D01*
X0290867D01*
X0290700Y0151317D01*
Y0151650D01*
X0290867Y0151817D01*
X0290700Y0152150D02*
Y0152483D01*
Y0152317D01*
X0291700D01*
X0291533Y0152150D01*
Y0152983D02*
X0291700Y0153150D01*
Y0153483D01*
X0291533Y0153650D01*
X0291367D01*
X0291200Y0153483D01*
X0291033Y0153650D01*
X0290867D01*
X0290700Y0153483D01*
Y0153150D01*
X0290867Y0152983D01*
X0291033D01*
X0291200Y0153150D01*
X0291367Y0152983D01*
X0291533D01*
X0291200Y0153150D02*
Y0153483D01*
X0285183Y0155933D02*
X0285350Y0156100D01*
X0285683D01*
X0285850Y0155933D01*
Y0155267D01*
X0285683Y0155100D01*
X0285350D01*
X0285183Y0155267D01*
X0284850Y0155100D02*
X0284517D01*
X0284683D01*
Y0156100D01*
X0284850Y0155933D01*
X0284017Y0156100D02*
X0283350D01*
Y0155933D01*
X0284017Y0155267D01*
Y0155100D01*
X0292929Y0164644D02*
X0293096Y0164811D01*
X0293429D01*
X0293596Y0164644D01*
Y0163978D01*
X0293429Y0163811D01*
X0293096D01*
X0292929Y0163978D01*
X0292596Y0163811D02*
X0292263D01*
X0292430D01*
Y0164811D01*
X0292596Y0164644D01*
X0291097Y0164811D02*
X0291430Y0164644D01*
X0291763Y0164311D01*
Y0163978D01*
X0291596Y0163811D01*
X0291263D01*
X0291097Y0163978D01*
Y0164145D01*
X0291263Y0164311D01*
X0291763D01*
X0294767Y0152483D02*
X0294600Y0152650D01*
Y0152983D01*
X0294767Y0153150D01*
X0295433D01*
X0295600Y0152983D01*
Y0152650D01*
X0295433Y0152483D01*
X0295600Y0152150D02*
Y0151817D01*
Y0151983D01*
X0294600D01*
X0294767Y0152150D01*
X0294600Y0150650D02*
Y0151317D01*
X0295100D01*
X0294933Y0150984D01*
Y0150817D01*
X0295100Y0150650D01*
X0295433D01*
X0295600Y0150817D01*
Y0151150D01*
X0295433Y0151317D01*
X0292033Y0145617D02*
X0292200Y0145450D01*
Y0145117D01*
X0292033Y0144950D01*
X0291367D01*
X0291200Y0145117D01*
Y0145450D01*
X0291367Y0145617D01*
X0291200Y0145950D02*
Y0146283D01*
Y0146117D01*
X0292200D01*
X0292033Y0145950D01*
X0291200Y0147283D02*
X0292200D01*
X0291700Y0146783D01*
Y0147450D01*
X0290069Y0171407D02*
X0290235Y0171574D01*
X0290569D01*
X0290735Y0171407D01*
Y0170740D01*
X0290569Y0170574D01*
X0290235D01*
X0290069Y0170740D01*
X0289069Y0170574D02*
X0289736D01*
X0289069Y0171240D01*
Y0171407D01*
X0289236Y0171574D01*
X0289569D01*
X0289736Y0171407D01*
X0291979Y0177011D02*
X0292146Y0176845D01*
Y0176511D01*
X0291979Y0176345D01*
X0291313D01*
X0291146Y0176511D01*
Y0176845D01*
X0291313Y0177011D01*
X0291146Y0177344D02*
Y0177678D01*
Y0177511D01*
X0292146D01*
X0291979Y0177344D01*
M02*
