M48
;Layer_Color=9474304
;FILE_FORMAT=4:2
METRIC
;TYPE=PLATED
T1F00S00C0.20
T2F00S00C0.25
T3F00S00C0.30
T4F00S00C0.40
T5F00S00C0.50
T6F00S00C0.70
T7F00S00C0.80
T8F00S00C0.85
T9F00S00C0.86
T10F00S00C0.90
T11F00S00C0.95
T12F00S00C0.97
T13F00S00C1.10
T14F00S00C1.80
T15F00S00C2.70
T16F00S00C3.00
;TYPE=NON_PLATED
T17F00S00C1.27
T18F00S00C3.20
%
T01
X012245Y011821
X013245Y011661
X013965Y011661
Y011811
X014115Y011851
X014115Y011851
X014115Y011701
Y011551
X015265Y011611
Y011761
X016416Y011850
X016361Y011607
X016705Y011711
X016865
X017345Y011831
X017835Y011741
X017835Y011571
X020190Y011676
X021000Y011830
X021160Y011600
X021160Y011600
X021495Y011600
X021590Y011500
X021830Y011600
X022015Y011615
X022010Y011530
X022095Y011831
X022170Y011830
X022170Y011830
X022320Y011810
X022320Y011810
X022375Y011765
X022431Y011810
X022490Y011760
X022636Y011596
X022666Y011526
X026812Y011661
X027045Y011721
X027435
X027785Y011871
Y011461
X028932Y011466
X029145Y011431
Y011531
Y011631
Y011731
Y011831
X029895Y011811
X030095
X030295
X030495
X030695
X030980Y011750
X031320
X031520
X043818Y012560
X044072
X043945Y012816
X043691
X043818Y013068
X044072
X043945Y013324
X043691
X043818Y013576
X044072
X043945Y013832
X043755Y013956
X043755Y014084
X043755Y014337
X043945Y014340
X043818Y014592
X043754Y014529
X043755Y014848
X043945Y014848
X044072Y015100
X043818
X043945Y015356
X044072Y015608
X043818
X043756Y015672
X043755Y015861
X043945Y015864
X044072Y014592
Y014084
X043629Y013957
X043502
Y014084
X043376Y014212
X043377Y014338
X043501Y014338
X043629Y014338
X043246Y014338
X043120Y014464
X042994Y014465
X042867
Y014592
X042992Y014719
X042994Y014846
X043120Y014845
X043246Y014719
X043501
X043502Y014973
Y015100
Y015227
X043375
Y015354
X043501Y015355
X043502Y015481
Y015608
X043375
X043248
Y015481
X043247Y015355
X043120Y015482
X043120Y015607
X042994Y015608
X042867
Y015735
X042993Y015862
X043247
X043375Y015735
X043629Y015862
Y015481
Y015354
X043246Y015100
X042992
X042993Y015481
X042992Y014338
X042994Y014084
X043120Y014083
X043246Y013958
X043374
X043375Y013830
Y013703
X043374Y013577
X043502Y013576
X043627Y013576
X043502Y013703
X043627Y013830
X043248Y013829
Y013702
X043120
X042994Y013703
X042993Y013829
X042867Y013830
X042865Y013703
X042841Y013477
Y013422
X042993Y013450
X042994Y013322
X043120Y013321
X043121Y013195
X043056Y013068
X043310
X043564
X043500Y013323
X043374Y013321
X043248Y013322
X043381Y013451
X043119Y013831
X042865Y013259
X042929Y012816
X042994Y012814
X043120Y012813
X043121Y012691
X043121Y012560
X043056Y012560
X042867Y012560
X043310Y012560
X043375Y012686
X043437Y012816
X043247Y012816
X043629Y012686
X043564Y012560
X042700Y014250
Y014330
X033144Y014339
X032954Y014337
X032828Y014338
X032700Y014337
X032574Y014211
Y014084
X032573Y013957
X032446
X032447Y013829
Y013702
X032574Y013703
X032573Y013576
X032701Y013576
X032827Y013575
X033017Y013575
X033271
X033144Y013323
X032890
X032699Y013322
X032573Y013321
X032447Y013322
X032319Y013321
X032320Y013195
X032255Y013067
X032510
X032763
X033017
X033271
X033144Y012815
X032890
X032828Y012686
X032763Y012559
X032510
X032320Y012560
X032255Y012559
X032066Y012560
X032129Y012815
X032193Y012814
X032319Y012813
X032320Y012690
X032446Y012815
X032636Y012815
X032574Y012686
X033017Y012559
X033271
X033144Y013831
X032954Y013956
X032828Y013957
X032701
Y014084
X032954Y014083
X033271Y014083
Y014591
X033017
X032953Y014528
X032954Y014847
X033144Y014847
X033017Y015099
X033271
X033144Y015355
X032828Y015354
Y015481
X032701
X032700Y015354
X032574Y015354
Y015227
X032701
Y015100
Y014973
X032700Y014718
X032446
X032319Y014845
X032193Y014846
X032192Y014718
X032066Y014592
Y014465
X032193
X032319Y014464
X032446Y014337
X032192
X032066Y014211
Y014084
X032193
X032319Y014083
X032318Y013830
X032192Y013829
X032193Y013703
X032319Y013702
X032065Y013702
X032066Y013830
X031783Y013825
Y013880
X031783Y013750
Y013695
X031783Y013415
Y013360
X032040Y013421
Y013476
X032192Y013449
X032193Y013322
X032064Y013258
X031783Y012905
Y012850
X031783Y014120
Y014175
Y014305
Y014360
Y014632
Y014687
X031825Y015195
X031825Y015350
X031783Y015649
Y015704
X032066Y015735
Y015608
X032193
X032319Y015607
X032319Y015481
X032192Y015480
X032447Y015481
X032446Y015354
X032447Y015608
X032574
Y015735
X032701Y015608
X033017Y015607
X032955Y015671
X032954Y015861
X032828Y015862
X033144Y015863
X033271Y015607
X032446Y015861
X032192
X032192Y015099
X032446
X032574Y013830
X032827Y013829
X032701Y013703
X032580Y013450
X031020Y013494
X030965
X030520Y013864
X030455Y013836
X030082Y013794
Y013714
Y013634
Y013554
Y013474
Y013394
Y013314
Y013234
X030022Y013194
Y013274
Y013354
Y013434
Y013514
Y013594
Y013674
Y013754
X029682Y013844
X029632Y013794
X029582Y013744
X029532Y013694
X029482Y013644
X029045Y013291
Y013191
X028845
Y013291
X028645Y013291
X028645Y013197
X028445Y013281
Y013351
X028007Y013491
X027920
X027830
X027797Y013301
Y013201
X027850Y013070
Y012970
Y012840
Y012740
Y012610
Y012510
X027788Y012258
Y012108
X027895Y012181
X028175Y012291
X028317Y012183
X028295Y012067
X028428Y012108
Y012258
X028535Y012181
X028813Y012291
X028815Y012291
X028933Y012067
X029145Y012031
Y011931
Y012131
X029705Y011981
X029905Y011981
X030105Y011981
X030305
X030395Y012251
X030195
X029995Y012251
X029795Y012251
X029847Y012459
X029920Y012506
X030070Y012531
X030070Y012431
X029770Y012556
X029707Y012609
X030507Y012581
X030510Y012481
X030570Y012369
X030595Y012251
X030795Y012251
X030770Y012369
X031150Y012330
Y012460
X031350
Y012330
X031250Y012080
X031050
X030885Y011981
X030685Y011981
X031450Y012080
X031650Y012060
X031390Y015160
X031388Y015377
X031157Y015331
X031115Y015288
X031675Y015587
X031730
X029664Y015562
Y015642
X029665Y015420
Y015340
X029515Y015084
X029605Y014975
Y014815
X029515Y014811
X029424Y014815
X029266
X029175Y014811
X029085Y014811
X028995Y014811
X028905Y014811
X028815Y014811
X028725Y014811
X028635Y014811
X028545Y014811
Y014971
X028635Y015011
X028725Y014971
X028905
X029085
X029266Y014975
X029424
X029175Y015081
X028995
X029025Y015481
X028955
X028875
X028991Y015543
X029105Y015481
X029155Y015441
X029175Y015511
X029255Y015531
X029299Y015585
X029465Y015701
Y015781
Y015851
X029400Y015816
X028745Y015771
X028645Y015571
X028685Y015501
X028585Y015461
X028535Y015671
X028425Y015751
Y015831
X028526Y015865
X028200Y015600
X028295Y015331
X028345Y015281
Y015181
X028295Y015231
X028400Y015130
X028635Y014440
Y014440
X028815Y014440
X028815Y014440
X028995Y014441
X028995
X029175Y014440
X029175Y014440
X029515Y014436
X028050Y014530
X027950
X027850
X028200Y013820
X028300
X028250Y013750
X028150
X027575Y013861
X027495
X027482Y013441
X027532Y013391
X027530Y013290
X027480Y013340
X027745Y013251
Y013151
Y013021
Y012921
Y012791
Y012691
Y012561
Y012461
X027630Y012480
X027647Y012418
X027687Y012369
X027730Y012320
X027677Y012183
X027610Y012540
X027570Y012589
X027520Y012640
X027215Y012661
X027135
X027055Y012661
X027055Y012741
X027055Y012821
X026975Y012821
X026895Y012821
X026895Y012901
X026735
X026735Y012821
X026815Y012741
X026895Y012741
X026885Y012541
X026965
X027045
X027085Y012481
X027005
X026925
X026845
X026875Y012191
X026795
X026715
X026635
X026555
X026595Y012131
X026675
X026755
X026835
X026915
X026995
X027075
X027155
X027115Y012191
X027035
X026955
X027145Y012530
X027213
X027055Y012981
X026975
Y013141
X027055
X026975Y013301
X026895
X026815Y013375
X026815Y013461
Y013541
X026815Y013621
X026895Y013621
X026895Y013541
Y013461
X026975Y013381
X027055
X027135Y013381
X027055Y013621
X027055Y013701
X026975Y013701
X026895
X026895Y013781
X026895Y013861
X026815
X026735
Y013941
X026815Y013941
X026895Y013941
X026975Y014021
X027055Y014021
Y013941
X026975Y014101
X026895
X026815
X026815Y014181
X026735Y014101
X026655Y014101
X026655Y014261
X026495
X026494Y014097
X026335Y014101
Y014181
X026095Y014181
X026095Y014101
X026015Y014101
X025935Y014101
X025855Y014101
X025855Y014021
Y013941
Y013861
X025935Y013861
X025935Y013941
X025935Y014021
X025775Y014101
X025695
Y014021
X025615
Y014101
X025695Y014181
X025775Y014181
X025855Y014261
X025695Y014341
X025535Y014421
X025455
X025435Y014341
Y014261
Y014181
Y014061
Y013941
Y013861
X025615
Y013781
X025695
X025775
X025775Y013701
X025855Y013701
Y013621
X025935
Y013701
Y013541
X025855
X025855Y013461
Y013381
X025935
Y013461
X026015
Y013541
Y013381
Y013301
X025935
X025935Y013221
X025935Y013141
X026015Y013141
X026095Y013141
X026175
X026255
X026335Y013141
X026335Y013061
X026255Y013061
X026255Y012981
X026335Y012981
X026335Y012901
X026255Y012821
X026095Y012821
X026095Y012901
X026095Y012981
X026175Y012981
X026175Y013061
Y013221
X026255
X026415Y013221
Y013381
X026415Y013461
X026255
X026175Y013461
X026175Y013381
X026095Y013301
X026335Y013381
X026255Y013621
X026175
Y013701
X026095Y013701
Y013781
X026255Y013701
X026415
X026415Y013621
X026495Y013541
X026655Y013541
X026655Y013621
X026495Y013701
X026735Y013781
X026815Y013701
X026975Y013781
X026815Y014021
X026575Y013941
X026255Y013935
X025775Y013941
X025615
X025615Y013621
X025775
X025695Y013541
Y013381
X025770
X025775Y013301
X025695Y013301
X025695Y013221
X025615
Y013061
X025695
X025775
X025855Y013061
Y013141
X025935Y013061
X025934Y012980
X025935Y012901
X025855
X025775Y012901
X025695Y012901
X025695Y012821
X025615
X025535Y012741
X025455Y012741
X025405Y012671
X025535Y012661
X025515Y012431
X025445
X025595Y012381
X025665
X025745Y012411
X025795Y012371
X025845Y012411
X025895Y012371
X025945Y012411
X026225Y012391
X026275Y012431
X026325Y012391
X026375Y012431
X026425Y012391
X026505
X026575Y012821
X026575Y012901
X026495Y012901
X026495Y012981
X026575Y012981
X026575Y013061
X026495
X026415
X026575Y013221
X026655
X026655Y013301
X026575
X026735Y013141
X026735Y013061
X026815
X026815Y013141
X026655Y012981
X026655Y012901
X025935Y012821
X025855
X025855Y012741
X025855Y012661
Y012981
X025430Y013020
X025431Y012941
X025431Y012861
X025335Y012851
Y012771
X025295Y012721
Y012901
X025335Y012951
X025295Y013001
X025245Y013051
X025270Y013380
X025240Y013420
X025055Y013411
Y013491
X025015Y013451
Y013371
Y013291
X025055Y013331
X025035Y013891
Y013971
Y014051
Y014131
Y014211
Y014291
X024975Y014251
Y014171
Y014091
Y014011
Y013931
X024755Y013711
X024675
X024595
X024515
X024550Y013050
X024450
X024500Y012950
X024600
X025615Y013461
X025855Y013781
X025535Y014261
X025275Y014381
X025225Y014421
X025175Y014461
X025125Y014501
X025285Y014531
X025365
X025443Y014707
X025209Y014857
X025231Y014983
X025015Y015001
X024935Y014981
X024795
Y015061
X024865
X024895Y015271
X024980Y015270
X025080
X025170Y015310
X025170Y015310
X025180Y015400
Y015540
X024509Y015581
X024555Y015631
X024507Y015681
X024504Y015781
X024454Y015731
X025779Y015698
X025779Y015698
X025779Y015828
X025779Y015828
X026120Y015270
X026120Y015270
X026215Y015221
X026195Y015111
X026196Y014988
X026195Y014861
X026215Y014731
X026195Y014581
X026145Y014541
X026095Y014581
X025990Y014800
Y014870
X026340Y014844
X026380Y014780
X026440Y014720
X026480Y014656
X026477Y014868
Y014968
X026360Y015380
X027065Y015441
X027730Y015520
X027680Y015710
X027760Y014530
X027550Y014440
X027430
X027215Y014421
X027135
X026895Y014341
X027395Y012031
X023520Y012320
X023319Y012476
X023325Y012541
X023146Y012543
X023167Y012473
X023150Y012390
X023170Y012258
X023170Y012200
X022957Y012344
X022675Y012300
X022555
X022435
Y012420
Y012540
X022555
Y012420
X022675
Y012540
X022580Y013010
X022500Y013050
X022440Y013010
X022440Y013010
X022180Y013080
X022110Y013050
X022280Y013300
X022535Y013341
X022980Y013340
X022980Y013340
X023330Y013390
X023500Y013560
X023500Y013560
X023240Y013760
X022980Y013820
Y014220
X022980Y014220
X023240Y014170
X023500Y014020
Y014430
X023420Y014610
X022920Y014610
X022666Y014726
X022636Y014796
X022490Y014960
X022431Y015010
X022375Y014965
X022320Y015010
X022320Y015010
X022170Y015030
X022170Y015030
X022095Y015041
X021964Y015196
X021960Y015290
X021954Y015444
X021950Y015594
X021951Y015745
X022435Y015740
Y015620
Y015500
X022555
Y015620
Y015740
X022675
Y015620
Y015500
X022957Y015544
X023150Y015590
X023167Y015673
X023146Y015743
X023170Y015458
X023170Y015400
X023520Y015520
X023650Y015400
Y015330
Y015260
X022007Y014813
X022010Y014730
X021830Y014800
X021495
X021590Y014700
X021160Y014800
X021160Y014800
X021000Y015030
Y015130
X021140Y015220
Y015380
X021150Y015780
X020685Y015431
Y015261
X020195Y015501
X020182Y014984
X020195Y014301
X020195Y013771
X020195Y013251
X020195Y012721
X020190Y012206
X020680Y012136
Y011966
X021000Y011930
X021140Y012020
Y012180
X021150Y012580
X021150Y012740
X021000Y012830
Y012930
X020685Y013011
Y013181
Y014061
Y014231
X022070Y014430
Y014020
X022280Y014180
X022530Y014220
X022530Y013820
X022280Y013760
X022070Y013560
X021590Y013230
X021590Y013230
X021610Y012940
X021950Y012770
X021952Y012695
X021952Y012695
X021951Y012545
X021950Y012394
X021954Y012244
X021960Y012090
X021964Y011996
X019790Y011956
X019790Y011956
X019780Y012216
X019795Y013001
X019795Y013001
X019785Y013261
X019795Y014051
X019795Y014051
X019785Y014311
X019795Y015251
X019795Y015251
X019785Y015511
X018595Y015331
X017835Y014941
Y014771
X017725Y014541
X017575
X017166
X017016
X016605
X016455
X016361Y014807
X016417Y015048
X016705Y014911
X016865
X017345Y015031
X016185Y015271
X016175Y015431
X016285Y015711
X016075Y014331
X016285Y014111
X016175Y013831
X016185Y013671
X016416Y013450
X016361Y013207
X016455Y012941
X016605
X017016
X017166
X017575
X017725
X017835Y013171
Y013341
X017885Y013293
X017945Y013284
X017345Y013431
X016865Y013311
X016700Y013301
X016075Y012731
X016285Y012511
X016175Y012231
X016185Y012071
X018595Y012035
X018595Y013081
X018595Y014131
X015265Y013661
Y013511
Y013361
Y013211
Y012061
Y011911
X013955Y012001
X013955Y012171
X013735Y012081
X013735Y012081
X013505Y012161
X013505Y011991
X013405Y012361
X013245Y012622
X013245Y013261
X013505Y013591
X013505Y013761
X013405Y013961
X013245Y014222
X013245Y014861
X013505Y015191
X013505Y015361
X013405Y015561
X013245Y015822
X013965Y015822
X013965Y015822
Y015672
X013965Y015672
X013955Y015371
X013955Y015201
X013965Y015011
Y014861
X014116Y014902
X014115Y015051
X014115Y015051
X014116Y014752
X013965Y014222
X013965Y014222
Y014072
X013965Y014072
X013955Y013771
X013955Y013601
X013965Y013411
Y013261
X014115Y013301
X014115Y013451
X014115Y013151
X013965Y012622
X013965Y012622
Y012472
X013965Y012472
X013735Y013681
X013735Y013681
X012645Y013661
X012245Y013421
X012155Y014011
X012245Y015021
X012645Y015261
X012155Y015611
X013735Y015281
X013735Y015281
X015265Y015261
Y015111
Y014961
Y014811
X012645Y012061
X012155Y012411
X011405Y012581
Y012731
Y014181
Y014331
Y015781
Y015931
Y017381
Y017531
X011700Y019280
X011410Y019800
X012175Y019831
X012150Y019680
X012380Y019660
X012511Y019654
X012640Y019670
X012390Y019400
X012000Y019280
X013810Y019310
Y019790
X014240Y018760
X014250Y018500
X014250Y018500
X014650Y018750
X014650Y018220
X014890Y019310
X014970
X015790Y019420
X015850Y019480
X015870Y019380
X015870Y019630
Y019750
X015800Y019690
X015800Y019690
X015265Y016861
Y016711
Y016561
Y016411
X014116Y016352
Y016502
X014115Y016651
X014115Y016651
X013965Y016611
Y016461
X013955Y016801
X013955Y016801
X013955Y016971
X013735Y016881
X013735Y016881
X013505Y016961
X013505Y016791
X013505Y016791
X013405Y017161
X013245Y017422
X013245Y017422
X013965
X013965Y017422
X013965Y017272
X013965Y017272
X013245Y016461
X012645Y016861
X012245Y016621
X012155Y017211
X016175Y017031
X016185Y016871
X016416Y016650
X016361Y016407
X016455Y016141
X016605
X017016
X017166
X017575
X017725
X017835Y016371
Y016541
X017915Y016481
X017985Y016551
X017345Y016631
X016865Y016511
X016705
X016075Y015931
X016285Y017311
X016075Y017531
X016455Y017741
X016605
X017016
X017166
X017575
X017725
X017050Y018220
X017050Y018750
X016640Y018760
X016650Y018500
X016650Y018500
X016685Y019381
Y019501
Y019591
Y019661
X016580Y019720
X016580Y019720
X016580Y019720
X016530Y019770
X016590Y019560
X016596Y019441
X016280Y019440
X016190Y019720
X017145Y019261
X017225
X017445Y019281
X017415Y019341
X017445Y019401
X017415Y019461
X018802Y019415
X018802Y019415
X019023Y019183
X019023Y018728
Y018568
X019023Y018233
X019483Y018234
X019483Y018328
X019483Y018328
X019820Y018233
X019820Y018548
Y018728
X019433Y018718
X019483Y019183
X019483Y019183
X019483Y019278
X019620Y019428
X019620Y019428
X019820Y019183
X019785Y017611
X019795Y017351
X019795Y017351
X019785Y016561
X019795Y016301
X019795Y016301
X018595Y016381
X018590Y017432
X020195Y017601
X020195Y017071
X020195Y016551
X020195Y016021
X020685Y016311
Y016481
X021000Y016130
X021000Y016130
Y016030
X021150Y015930
X021610Y016140
X021590Y016430
X022110Y016250
X022180Y016280
X022280Y016500
X022535Y016541
X022500Y016250
X022440Y016210
X022440Y016210
X022580
X022980Y016540
X022980Y016540
X023330Y016590
X023500Y016760
X023500Y016760
X023240Y016960
X022980Y017020
Y017420
X022980Y017420
X023240Y017370
X023500Y017220
Y017630
X023630Y018280
X022670Y018500
Y018700
Y018900
Y019100
X022620Y019710
X022620Y019710
X022840Y019600
X022960
X023095Y019781
X023095Y019781
X023195Y019481
X023795Y019481
X020800Y019250
X020950Y018900
Y018500
X020800Y018340
X020280Y018328
X020281Y018234
X020380Y018650
X020237Y018718
X020380Y018940
X020281Y019184
X020685Y017531
X020768Y017607
X020815Y017651
X020865Y017611
X020915Y017651
X020685Y017361
X022070Y017220
X022280Y017380
X022530Y017420
X022530Y017020
X022280Y016960
X022070Y016760
Y017630
X021950Y015970
X021952Y015895
X024880Y016249
X024880Y016249
X024980Y016250
X024980Y016370
X025080
X025170Y016410
X025170Y016410
X025180Y016500
Y016640
X024780Y016370
X025480Y016250
X026120Y016250
Y016370
X026400
X026350Y016550
X026330Y017080
X026380Y017470
X026120
Y017350
X026249Y017696
X026330Y018180
X026120Y018450
X026120Y018570
X026330Y018720
Y019280
X026120Y019550
X025480Y019550
X024980Y019550
X024980Y019550
X024880Y019549
X024202Y019611
X024245Y019661
X024202Y019711
X024245Y019761
X023937
X023895Y019711
X023937Y019661
X023895Y019611
X024350Y018750
X024780Y018570
X024980
X025080
X025170Y018610
X025170Y018610
X025180Y018700
Y018840
X024980Y018450
X024980Y018450
X024880Y018449
X025480Y018450
X025779Y018028
X025779Y018028
X025779Y017898
X025180Y017740
Y017600
X025170Y017510
X025170Y017510
X025080Y017470
X024980
X024980Y017350
X024880Y017349
X024780Y017470
X025480Y017350
X025779Y016928
X025779Y016928
X025779Y016798
X025779Y016798
X026330Y015980
X027065Y016541
X027280Y016620
X027730
X027680Y016810
X027710Y016980
X027490Y017300
X027280Y017720
X027076Y017656
X027730Y017720
X027680Y017910
X027710Y018080
X027490Y018400
X027280Y018820
X027076Y018756
X027730Y018820
X027680Y019010
X027710Y019180
X027490Y019500
X027020Y019760
X027020Y019760
X026930Y019720
X026830
X026630
X025779Y019128
X025779Y019128
Y018998
X025779Y018998
X027490Y016200
X027710Y015880
X028000Y015950
Y016050
X028200Y015970
X028425Y015941
X028465Y015881
X028530Y016016
X028490Y016066
X028530Y016116
X028490Y016166
X028530Y016216
X028365Y016161
X028565Y016411
X028685Y016451
X028889Y016444
X028970Y016741
X028970Y016741
X029100
X029100Y016741
X028605Y016781
X028405Y016701
X028340Y017100
X028000Y017150
Y017050
X028744Y017100
X028289Y017655
X028000Y018150
Y018250
X028295Y018751
X028695
X028820Y018990
Y019310
X029150Y019196
X029245Y019011
X029365Y018931
X029470Y018830
X029490Y019330
X029365Y019431
X029295
X029074Y019560
X029550Y019530
X029540Y019690
X030350Y019700
X030450Y019750
X030550Y019700
X030650Y019750
X030600Y019050
X031044Y019282
X029950Y019260
X029810Y019080
X029910Y018940
X029165Y018052
X029075Y017841
X029425Y016381
X029395Y016311
X029407Y016167
X029460Y016116
X029411Y016066
X029456Y016016
X029465Y015931
X029397Y015963
X031678Y015962
X031733
X031730Y016340
X031675
X031480Y016295
X031480Y016662
X031678Y016725
X031733
X031480Y017175
X031150Y017400
Y017500
Y017600
Y017700
Y017800
Y017900
Y018000
Y018100
X028346Y019560
X028000Y019450
Y019350
Y019250
X027970Y019720
X027970Y019780
X027970Y019840
X032066Y017639
X032382Y017641
X032510Y017640
X032636Y017641
X032573Y017512
X032446Y017385
X032192Y017386
X032319Y017514
X032827
X032827Y017385
X033081
X033080Y017130
Y017000
Y016880
X033210
X033271Y017131
X032830Y017130
X032826Y017005
X032577Y017005
X032192Y017004
X032066Y017004
X032067Y016876
X032193Y016751
X032319Y016750
X032446Y016624
X032192Y016623
X032066Y016497
Y016370
X032064Y016306
X032193Y016370
X032319Y016369
X032446Y016369
X032446Y016116
X032192
X032066Y016116
Y015989
X032193
X032319Y015988
X031783Y016030
Y016085
X031838Y016300
X031783Y016411
Y016466
X031838Y016562
X031783Y016792
Y016847
X031838Y016925
Y017000
Y017075
X032066Y017132
X032827Y016623
X033017Y016623
X033271
X033144Y016371
X032955Y016370
Y016243
X033017Y016115
X032955Y015988
X032827Y016115
X033271Y016115
X033208Y017639
X033017Y017641
X032890
X042867Y017639
X043183Y017642
X043311Y017640
X043437Y017642
X043373Y017513
X043246Y017386
X042993Y017387
X043120Y017515
X043628
X043627Y017386
X043631Y017131
X043627Y017006
X043378Y017006
X042992Y017005
X042867Y017004
X042868Y016877
X042994Y016751
X043120Y016750
X043246Y016625
X042993Y016624
X042867Y016497
Y016370
X042865Y016307
X042994Y016370
X043120Y016369
X043246Y016370
X043247Y016117
X042993
X042867Y016116
Y015989
X042994
X043120Y015988
X043628Y016116
X043627Y016624
X042867Y017132
X043881Y017131
Y017001
Y016881
X044010Y016880
X044072Y017132
X043881Y017386
X043818Y017642
X043691
X044008Y017640
X044072Y016624
X043818
X043756Y016370
Y016243
X043818Y016116
X043754Y016053
X043756Y015988
X044072Y016116
X043945Y016372
X031044Y020220
X030600Y020000
X030550Y020650
X030450Y020700
X030350Y020650
X030650Y020700
X029950Y020210
X029810Y020010
X029700Y019920
X029365Y019881
X029285
X029150Y020140
X029110Y020350
X029285Y020371
X029365
X029490Y020350
X029490Y020274
X029550Y020480
X029116Y020585
X028860Y020690
X028820Y020250
X028820Y020250
X028820Y019930
X027970Y020700
X027330Y020700
X026830
X026730Y020699
X027030Y019990
Y019850
X027637Y020148
X027629Y020278
X027629Y020278
X025615Y020511
X024925Y020411
X024925Y020241
X024665Y020511
X023445Y020531
X023470Y020240
X023095Y019910
X023095Y019910
X022620Y019940
X022630Y019860
X022550
X022550
X022290Y019950
X022230Y020240
X022230Y020240
X022200Y020540
X022733Y020501
X022465Y020131
X020280Y020080
Y020360
Y020633
X019880Y020670
X019860Y020260
X019755Y020235
X019610Y020170
X019560Y020330
Y020640
X019560Y020640
X017480Y020590
X017480Y020760
Y020240
X017480Y020070
X016510Y020070
X016160Y019970
X015930Y020240
X016160Y020480
X016420Y020530
X015950Y020760
X015770Y020740
X015670Y020460
X015500Y020460
X015360Y020590
X015310Y020840
X014660
Y020470
X014860Y020440
X014940Y020470
X015050Y020440
X014905Y020037
X015110Y019880
X015840Y020240
X014200Y020480
X013980Y020550
X013970Y020620
X013980Y020750
X014070Y020740
X013250Y020750
X013251Y020556
X013020Y020510
X012880
X012700Y020530
X012640Y020480
X012455Y020535
X012380Y020490
X012300
X012210Y020530
X012160Y020470
X012000Y020460
X013570Y020240
X013810Y020170
X013809Y019922
X013570Y019855
X011410Y019970
X011700Y020460
T02
X025760Y014533
Y014628
X025821Y014821
X025621
Y015021
X025821
X023145Y015110
X023050
T03
X028745Y015771
X028855
X028965
X029075
X029185
Y015881
Y015991
Y016101
Y016211
X029075
Y016101
Y015991
Y015881
X028965
Y015991
X028855
Y015881
X028745
Y015991
Y016101
Y016211
X028855
X028965
Y016101
X028855
X022862Y019873
Y020013
T04
X020190Y011676
X020195Y012721
Y013771
X020182Y014984
X015140Y018510
Y018680
X014650Y018220
X017050
X017540Y018510
Y018680
X020195Y017071
Y016021
X022670Y018900
T05
X030000Y020000
X030200
X030400
T06
X027467Y015815
Y016915
Y018015
Y019115
T07
X010650Y012222
X010904Y012476
X011158Y012730
X011153Y013023
X010899Y013277
X011153Y013531
X011158Y013822
X010904Y014076
X011158Y014330
X011153Y014623
X010899Y014877
X011153Y015131
X011154Y015426
X010900Y015680
X010646Y015426
X010645Y015131
Y014623
X010650Y014330
Y013822
X010645Y013531
Y013023
X010650Y012730
X011158Y012222
X011154Y015934
X011158Y016230
X010904Y016484
X011158Y016738
X011158Y017022
X010904Y017276
X011158Y017530
X010650
X010650Y017940
X011158Y018194
Y018448
X011412Y018702
X010650
X011412Y017940
X010650Y017022
X010650Y016738
Y016230
X010646Y015934
T08
X025840Y015370
X026810Y015610
X015345Y015531
Y013931
Y012331
Y017131
X015365Y018581
X012965
X025840Y018670
X025840Y017570
Y016470
X026810Y016710
Y017810
Y018910
X027690Y019820
X030060Y019590
Y020540
X028230Y020190
X023795Y020041
X023195Y020041
X023115Y020670
X022615Y020668
X021121Y020630
X021125Y020361
X021121Y020080
X019631Y019999
T09
X029285Y011531
Y011731
X029485
Y011531
Y011931
X029285
Y012131
Y012331
X029485
Y012131
X029345Y013541
Y013741
X029145
Y013541
X028945
Y013741
X028745
Y013541
X028545
Y013741
X028115Y014821
X027915
Y015021
X028115
X027715
X027515
X027315
Y014821
X027515
X027715
X018300Y014530
Y014330
X018100
Y014130
Y013930
Y013730
Y013530
X018300
Y013330
X018100
Y013130
X018300
Y012930
X018100
Y012730
X018300
Y013730
Y013930
Y014130
X018100Y014530
X030800Y016000
X031000
Y016200
X030800
Y016400
X031000
Y016600
X030800
Y016800
X031000
X031000Y017500
Y017700
Y017900
Y018100
Y018300
X030800
Y018100
Y017900
Y017700
Y017500
T10
X010560Y011486
Y011740
X010814
Y011486
Y011994
X010560
T11
X018850Y012036
X019104
X019109Y013081
X018855
Y014131
X019109
Y015331
X018855
X015555Y014401
X015301
X014859
X014605
X014351
X013013Y014401
X012759
X012505
Y012801
X012759
X013013
X014351Y012801
X014605
X014859
X015301Y012801
X015555
Y016001
X015301
X014859
X014605
X014351
X013013Y016001
X012759
X012505
Y017601
X012759
X013013
X012530Y018340
Y018594
Y018848
X012030Y018854
Y018600
Y018346
X013310Y018580
X013564
X014351Y017601
X014605
X014859
X015301
X015555
X015710Y018580
X015964
X018855Y017431
X019109
Y016381
X018855
X011974Y020700
X011720
T12
X011625Y011593
Y011847
X012795Y011845
Y011591
Y012099
Y012353
Y013191
Y013445
Y013699
Y013953
Y014791
Y015045
Y015299
Y015553
X011625Y015555
Y015301
Y015047
Y014793
Y013955
Y013701
Y013447
Y013193
Y012355
Y012101
Y016393
Y016647
Y016901
Y017155
X012795Y017153
Y016899
Y016645
Y016391
T13
X024600Y019746
X024854
X025108
X025362
X025616
Y020000
X025362
X025108
X024854
X024600
X023215Y020943
X022515
T14
X031450Y019150
Y019700
X031870
X032290
X032710
Y019150
X032290
X031870
T15
X018200Y011730
X032700Y011800
X043500
X012000Y012900
X018200Y015930
X032700Y018400
X043500Y018400
X018200Y020130
X010900
T16
X032710Y020430
X031450
T17
X043500Y012381
X032700Y012381
X032395Y017819
X043195Y017819
T18
X010750Y010935
X033622Y011660
X010750Y019475
X033622Y020613
M30
