G04*
G04 #@! TF.GenerationSoftware,Altium Limited,Altium Designer,21.3.2 (30)*
G04*
G04 Layer_Color=16711935*
%FSAX43Y43*%
%MOMM*%
G71*
G04*
G04 #@! TF.SameCoordinates,57E60B56-A11A-4758-90C9-2252AEC72F12*
G04*
G04*
G04 #@! TF.FilePolarity,Negative*
G04*
G01*
G75*
%ADD25R,1.100X0.900*%
%ADD31R,0.900X1.100*%
%ADD37O,0.800X0.400*%
%ADD44R,1.100X1.800*%
%ADD49R,0.600X0.700*%
%ADD50R,0.700X0.600*%
%ADD51R,0.900X1.400*%
%ADD91C,3.000*%
%ADD92C,1.500*%
%ADD93C,2.000*%
%ADD94O,1.700X1.500*%
%ADD95R,1.700X1.500*%
%ADD96C,1.600*%
%ADD97R,1.600X1.600*%
%ADD98C,4.100*%
%ADD99C,0.600*%
%ADD100C,0.100*%
%ADD101R,1.472X1.472*%
%ADD102C,1.472*%
%ADD103R,1.472X1.472*%
G04:AMPARAMS|DCode=104|XSize=1.6mm|YSize=1.6mm|CornerRadius=0.425mm|HoleSize=0mm|Usage=FLASHONLY|Rotation=0.000|XOffset=0mm|YOffset=0mm|HoleType=Round|Shape=RoundedRectangle|*
%AMROUNDEDRECTD104*
21,1,1.600,0.750,0,0,0.0*
21,1,0.750,1.600,0,0,0.0*
1,1,0.850,0.375,-0.375*
1,1,0.850,-0.375,-0.375*
1,1,0.850,-0.375,0.375*
1,1,0.850,0.375,0.375*
%
%ADD104ROUNDEDRECTD104*%
%ADD105O,1.500X1.700*%
%ADD106R,1.500X1.700*%
G04:AMPARAMS|DCode=107|XSize=1.6mm|YSize=1.6mm|CornerRadius=0.425mm|HoleSize=0mm|Usage=FLASHONLY|Rotation=90.000|XOffset=0mm|YOffset=0mm|HoleType=Round|Shape=RoundedRectangle|*
%AMROUNDEDRECTD107*
21,1,1.600,0.750,0,0,90.0*
21,1,0.750,1.600,0,0,90.0*
1,1,0.850,0.375,0.375*
1,1,0.850,0.375,-0.375*
1,1,0.850,-0.375,-0.375*
1,1,0.850,-0.375,0.375*
%
%ADD107ROUNDEDRECTD107*%
G04:AMPARAMS|DCode=108|XSize=1.4mm|YSize=1.4mm|CornerRadius=0.375mm|HoleSize=0mm|Usage=FLASHONLY|Rotation=180.000|XOffset=0mm|YOffset=0mm|HoleType=Round|Shape=RoundedRectangle|*
%AMROUNDEDRECTD108*
21,1,1.400,0.650,0,0,180.0*
21,1,0.650,1.400,0,0,180.0*
1,1,0.750,-0.325,0.325*
1,1,0.750,0.325,0.325*
1,1,0.750,0.325,-0.325*
1,1,0.750,-0.325,-0.325*
%
%ADD108ROUNDEDRECTD108*%
%ADD109C,1.400*%
%ADD110C,0.700*%
%ADD111C,1.700*%
%ADD112R,1.700X1.700*%
%ADD113C,2.600*%
G04:AMPARAMS|DCode=114|XSize=2.6mm|YSize=2.6mm|CornerRadius=0.675mm|HoleSize=0mm|Usage=FLASHONLY|Rotation=270.000|XOffset=0mm|YOffset=0mm|HoleType=Round|Shape=RoundedRectangle|*
%AMROUNDEDRECTD114*
21,1,2.600,1.250,0,0,270.0*
21,1,1.250,2.600,0,0,270.0*
1,1,1.350,-0.625,-0.625*
1,1,1.350,-0.625,0.625*
1,1,1.350,0.625,0.625*
1,1,1.350,0.625,-0.625*
%
%ADD114ROUNDEDRECTD114*%
%ADD115C,1.200*%
%ADD116C,0.500*%
%ADD117C,1.100*%
%ADD118C,5.100*%
%ADD119C,0.900*%
%ADD120R,0.900X0.400*%
%ADD244R,0.250X0.250*%
%ADD245R,0.300X0.300*%
%ADD246R,0.250X0.250*%
%ADD247R,0.300X0.300*%
%ADD249R,0.790X1.700*%
%ADD250R,0.400X0.900*%
%ADD251R,1.700X0.790*%
%ADD252R,0.500X0.900*%
D25*
X0255887Y0151103D02*
D03*
Y0149403D02*
D03*
X0258900Y0151100D02*
D03*
X0230200Y0147800D02*
D03*
Y0146100D02*
D03*
X0231700Y0147800D02*
D03*
Y0146100D02*
D03*
X0233200Y0147800D02*
D03*
Y0146100D02*
D03*
X0258900Y0149400D02*
D03*
X0257387Y0149403D02*
D03*
Y0151103D02*
D03*
X0254387Y0149403D02*
D03*
Y0151103D02*
D03*
X0281700Y0158700D02*
D03*
Y0157000D02*
D03*
X0265739Y0148824D02*
D03*
Y0147124D02*
D03*
X0265728Y0150430D02*
D03*
Y0152130D02*
D03*
X0285446Y0131411D02*
D03*
Y0133111D02*
D03*
X0287446Y0133111D02*
D03*
Y0131411D02*
D03*
X0289446Y0133111D02*
D03*
Y0131411D02*
D03*
X0291446Y0133111D02*
D03*
Y0131411D02*
D03*
X0250146Y0204111D02*
D03*
Y0202411D02*
D03*
X0253146Y0202411D02*
D03*
Y0204111D02*
D03*
X0256146D02*
D03*
Y0202411D02*
D03*
X0192546Y0191911D02*
D03*
Y0193611D02*
D03*
Y0182411D02*
D03*
Y0184111D02*
D03*
X0164846Y0149811D02*
D03*
Y0148111D02*
D03*
X0163046Y0154411D02*
D03*
Y0152711D02*
D03*
X0164846Y0133811D02*
D03*
Y0132111D02*
D03*
X0163046Y0138411D02*
D03*
Y0136711D02*
D03*
X0164846Y0165811D02*
D03*
Y0164111D02*
D03*
X0163046Y0170411D02*
D03*
Y0168711D02*
D03*
X0199771Y0121636D02*
D03*
Y0119936D02*
D03*
X0189125Y0193682D02*
D03*
Y0191982D02*
D03*
X0189125Y0183982D02*
D03*
Y0185682D02*
D03*
X0197204Y0193682D02*
D03*
Y0191981D02*
D03*
X0197199Y0183781D02*
D03*
Y0185482D02*
D03*
X0269900Y0155200D02*
D03*
Y0156900D02*
D03*
X0206100Y0190400D02*
D03*
Y0192100D02*
D03*
Y0183800D02*
D03*
Y0185500D02*
D03*
X0144500Y0185400D02*
D03*
Y0187100D02*
D03*
X0168500Y0185400D02*
D03*
Y0187100D02*
D03*
X0199946Y0130411D02*
D03*
Y0132111D02*
D03*
Y0140911D02*
D03*
Y0142611D02*
D03*
Y0152911D02*
D03*
Y0154611D02*
D03*
X0164846Y0116111D02*
D03*
Y0117811D02*
D03*
X0163046Y0120711D02*
D03*
Y0122411D02*
D03*
X0138300Y0207400D02*
D03*
X0156600Y0205700D02*
D03*
X0146600Y0205800D02*
D03*
X0142000Y0205700D02*
D03*
Y0207400D02*
D03*
X0138300Y0205700D02*
D03*
X0146600Y0207500D02*
D03*
X0156600Y0207400D02*
D03*
X0199946Y0173911D02*
D03*
Y0175611D02*
D03*
Y0165111D02*
D03*
Y0163411D02*
D03*
X0269900Y0167900D02*
D03*
Y0166200D02*
D03*
X0278600D02*
D03*
Y0167900D02*
D03*
Y0169400D02*
D03*
Y0171100D02*
D03*
X0269900Y0178900D02*
D03*
Y0177200D02*
D03*
X0278600D02*
D03*
Y0178900D02*
D03*
Y0180400D02*
D03*
Y0182100D02*
D03*
Y0156900D02*
D03*
Y0155200D02*
D03*
Y0160100D02*
D03*
Y0158400D02*
D03*
X0269900Y0189900D02*
D03*
Y0188200D02*
D03*
X0278600Y0189900D02*
D03*
Y0188200D02*
D03*
Y0193100D02*
D03*
Y0191400D02*
D03*
D31*
X0286100Y0173800D02*
D03*
X0284400D02*
D03*
X0286100Y0172400D02*
D03*
X0284400D02*
D03*
X0286100Y0171000D02*
D03*
X0284400D02*
D03*
X0234900Y0151100D02*
D03*
X0247300Y0131600D02*
D03*
X0249000D02*
D03*
Y0127100D02*
D03*
X0247300D02*
D03*
Y0130100D02*
D03*
X0249000D02*
D03*
Y0128600D02*
D03*
X0247300D02*
D03*
X0274900Y0161000D02*
D03*
X0276600D02*
D03*
X0274900Y0172000D02*
D03*
X0276600D02*
D03*
X0274900Y0183000D02*
D03*
X0276600D02*
D03*
X0274900Y0194000D02*
D03*
X0276600D02*
D03*
X0233200Y0151100D02*
D03*
X0268100Y0147100D02*
D03*
X0269800D02*
D03*
X0269800Y0148800D02*
D03*
X0268100D02*
D03*
X0268062Y0152130D02*
D03*
X0269762D02*
D03*
X0268051Y0150430D02*
D03*
X0269751D02*
D03*
X0196500Y0204700D02*
D03*
X0198200D02*
D03*
X0161300Y0198700D02*
D03*
X0150215Y0197911D02*
D03*
X0125600Y0202700D02*
D03*
X0122400Y0199200D02*
D03*
X0159600Y0198700D02*
D03*
X0124100Y0199200D02*
D03*
X0148515Y0197911D02*
D03*
X0123900Y0202700D02*
D03*
D37*
X0241346Y0197611D02*
D03*
Y0197111D02*
D03*
Y0196611D02*
D03*
Y0196111D02*
D03*
X0240046Y0197611D02*
D03*
Y0197111D02*
D03*
Y0196611D02*
D03*
Y0196111D02*
D03*
D44*
X0103746Y0164840D02*
D03*
X0106746D02*
D03*
X0103746Y0156800D02*
D03*
X0106746D02*
D03*
X0103800Y0184700D02*
D03*
X0106800D02*
D03*
X0103800Y0181700D02*
D03*
X0106800D02*
D03*
X0103746Y0172760D02*
D03*
X0106746D02*
D03*
X0103746Y0132711D02*
D03*
X0106746D02*
D03*
X0103746Y0140711D02*
D03*
X0106746D02*
D03*
X0103746Y0124811D02*
D03*
X0106746D02*
D03*
X0103746Y0148811D02*
D03*
X0106746D02*
D03*
D49*
X0255500Y0147800D02*
D03*
X0254200D02*
D03*
X0266046Y0140211D02*
D03*
X0267346D02*
D03*
X0261346Y0139011D02*
D03*
X0260046D02*
D03*
X0256546Y0131411D02*
D03*
X0257846D02*
D03*
X0261346Y0140011D02*
D03*
X0260046D02*
D03*
X0256546Y0129811D02*
D03*
X0257846D02*
D03*
X0268646Y0129911D02*
D03*
X0267346D02*
D03*
X0271746Y0117211D02*
D03*
X0273046D02*
D03*
X0215900Y0116000D02*
D03*
X0217200D02*
D03*
X0214000Y0116000D02*
D03*
X0212700D02*
D03*
X0220900Y0119100D02*
D03*
X0222200D02*
D03*
X0224600D02*
D03*
X0223300D02*
D03*
X0225600Y0129200D02*
D03*
X0224300D02*
D03*
X0137346Y0152011D02*
D03*
X0138646D02*
D03*
X0137346Y0136011D02*
D03*
X0138646D02*
D03*
X0137346Y0168011D02*
D03*
X0138646D02*
D03*
Y0120011D02*
D03*
X0137346D02*
D03*
X0161246Y0148111D02*
D03*
X0162546D02*
D03*
X0159546Y0152711D02*
D03*
X0160846D02*
D03*
X0161246Y0132111D02*
D03*
X0162546D02*
D03*
X0159546Y0136711D02*
D03*
X0160846D02*
D03*
X0161246Y0164111D02*
D03*
X0162546D02*
D03*
X0159546Y0168711D02*
D03*
X0160846D02*
D03*
X0220900Y0151100D02*
D03*
X0222200D02*
D03*
X0212700Y0148000D02*
D03*
X0214000D02*
D03*
X0217200Y0148000D02*
D03*
X0215900D02*
D03*
X0224600Y0151100D02*
D03*
X0223300D02*
D03*
X0225600Y0161200D02*
D03*
X0224300D02*
D03*
X0291946Y0163011D02*
D03*
X0293246D02*
D03*
X0293946Y0157411D02*
D03*
X0292646D02*
D03*
X0285246Y0157711D02*
D03*
X0286546D02*
D03*
X0293946Y0158911D02*
D03*
X0292646D02*
D03*
X0286146Y0156711D02*
D03*
X0287446D02*
D03*
X0197950Y0203350D02*
D03*
X0196650D02*
D03*
X0223100Y0198600D02*
D03*
X0224400D02*
D03*
X0227100Y0197100D02*
D03*
X0228400D02*
D03*
X0230900D02*
D03*
X0229600D02*
D03*
X0162546Y0116111D02*
D03*
X0161246D02*
D03*
X0160846Y0120711D02*
D03*
X0159546D02*
D03*
X0128800Y0206300D02*
D03*
X0161100Y0197200D02*
D03*
X0148800Y0203400D02*
D03*
X0150052Y0199300D02*
D03*
X0135700Y0201700D02*
D03*
Y0199200D02*
D03*
Y0197900D02*
D03*
X0126400D02*
D03*
X0125400Y0203900D02*
D03*
X0122600Y0197900D02*
D03*
X0159800Y0197200D02*
D03*
X0150100Y0203400D02*
D03*
X0137000Y0197900D02*
D03*
Y0199200D02*
D03*
X0125100Y0197900D02*
D03*
X0127500Y0206300D02*
D03*
X0137000Y0201700D02*
D03*
X0123900Y0197900D02*
D03*
X0148752Y0199300D02*
D03*
X0124100Y0203900D02*
D03*
D50*
X0229200Y0151400D02*
D03*
Y0150100D02*
D03*
X0256994Y0169283D02*
D03*
Y0167983D02*
D03*
X0275494Y0202783D02*
D03*
Y0201483D02*
D03*
X0267346Y0133511D02*
D03*
Y0132211D02*
D03*
X0267346Y0143111D02*
D03*
Y0141811D02*
D03*
X0281765Y0120656D02*
D03*
Y0121956D02*
D03*
X0288152Y0120656D02*
D03*
Y0121956D02*
D03*
X0256994Y0156983D02*
D03*
Y0158283D02*
D03*
X0263046Y0149811D02*
D03*
Y0151111D02*
D03*
X0302896Y0124411D02*
D03*
Y0125711D02*
D03*
X0221000Y0116800D02*
D03*
Y0115500D02*
D03*
X0220400Y0126600D02*
D03*
Y0127900D02*
D03*
X0220500Y0121400D02*
D03*
Y0120100D02*
D03*
X0117846Y0151011D02*
D03*
Y0152311D02*
D03*
Y0135011D02*
D03*
Y0136311D02*
D03*
Y0167011D02*
D03*
Y0168311D02*
D03*
Y0120311D02*
D03*
Y0119011D02*
D03*
X0221000Y0147500D02*
D03*
Y0148800D02*
D03*
X0220500Y0152100D02*
D03*
Y0153400D02*
D03*
X0220400Y0159900D02*
D03*
Y0158600D02*
D03*
X0198471Y0120136D02*
D03*
Y0121436D02*
D03*
X0288945Y0155611D02*
D03*
Y0156911D02*
D03*
X0284846Y0162811D02*
D03*
Y0164111D02*
D03*
X0286846Y0165711D02*
D03*
Y0167011D02*
D03*
X0291046Y0155611D02*
D03*
Y0156911D02*
D03*
X0291646Y0179711D02*
D03*
Y0178411D02*
D03*
X0295146Y0145261D02*
D03*
Y0146561D02*
D03*
X0256994Y0189983D02*
D03*
Y0191283D02*
D03*
X0256994Y0178983D02*
D03*
Y0180283D02*
D03*
X0143200Y0186900D02*
D03*
Y0185600D02*
D03*
X0167200Y0186900D02*
D03*
Y0185600D02*
D03*
X0198646Y0131911D02*
D03*
Y0130611D02*
D03*
Y0142411D02*
D03*
Y0141111D02*
D03*
Y0154411D02*
D03*
Y0153111D02*
D03*
X0154300Y0205900D02*
D03*
X0133700Y0205700D02*
D03*
Y0207000D02*
D03*
X0154300Y0204600D02*
D03*
X0198646Y0175411D02*
D03*
Y0174111D02*
D03*
Y0163611D02*
D03*
Y0164911D02*
D03*
D51*
X0161800Y0194400D02*
D03*
X0159900D02*
D03*
D91*
X0240100Y0115300D02*
D03*
X0333500Y0194800D02*
D03*
X0182000Y0196300D02*
D03*
Y0122300D02*
D03*
D92*
X0231150Y0206700D02*
D03*
X0226150Y0206675D02*
D03*
D93*
X0232150Y0209425D02*
D03*
X0225150D02*
D03*
D94*
X0127946Y0123531D02*
D03*
Y0120991D02*
D03*
Y0118451D02*
D03*
X0116246Y0118471D02*
D03*
Y0121011D02*
D03*
Y0123551D02*
D03*
X0127946Y0139531D02*
D03*
Y0136991D02*
D03*
Y0134451D02*
D03*
X0116246Y0134471D02*
D03*
Y0137011D02*
D03*
Y0139551D02*
D03*
X0127946Y0155531D02*
D03*
Y0152991D02*
D03*
Y0150451D02*
D03*
X0116246Y0150471D02*
D03*
Y0153011D02*
D03*
Y0155551D02*
D03*
X0127946Y0171531D02*
D03*
Y0168991D02*
D03*
Y0166451D02*
D03*
X0116246Y0166471D02*
D03*
Y0169011D02*
D03*
Y0171551D02*
D03*
X0120300Y0186000D02*
D03*
Y0188540D02*
D03*
X0125300Y0185940D02*
D03*
Y0188480D02*
D03*
D95*
X0127946Y0115911D02*
D03*
X0116246Y0115931D02*
D03*
X0127946Y0131911D02*
D03*
X0116246Y0131931D02*
D03*
X0127946Y0147911D02*
D03*
X0116246Y0147931D02*
D03*
X0127946Y0163911D02*
D03*
X0116246Y0163931D02*
D03*
X0120300Y0183460D02*
D03*
X0125300Y0183400D02*
D03*
D96*
X0105600Y0114860D02*
D03*
Y0117400D02*
D03*
Y0119940D02*
D03*
X0108140Y0114860D02*
D03*
Y0117400D02*
D03*
D97*
Y0119940D02*
D03*
D98*
X0107500Y0109350D02*
D03*
Y0194750D02*
D03*
X0336220Y0116600D02*
D03*
Y0206130D02*
D03*
D99*
X0257600Y0145325D02*
D03*
Y0146275D02*
D03*
X0230500Y0151100D02*
D03*
X0231450D02*
D03*
X0258210Y0148205D02*
D03*
X0256210D02*
D03*
X0283400Y0171000D02*
D03*
X0257794Y0178983D02*
D03*
X0231500Y0123900D02*
D03*
X0168646Y0133111D02*
D03*
X0211500Y0127400D02*
D03*
X0276375Y0201483D02*
D03*
X0257794Y0169283D02*
D03*
X0257794Y0167983D02*
D03*
X0248800Y0162495D02*
D03*
X0249800Y0162500D02*
D03*
X0251700Y0153100D02*
D03*
X0254800Y0162500D02*
D03*
X0257794Y0158283D02*
D03*
X0257794Y0156983D02*
D03*
X0261200Y0152700D02*
D03*
X0173446Y0166311D02*
D03*
X0173446Y0150311D02*
D03*
X0167046Y0165111D02*
D03*
X0168646D02*
D03*
X0167046Y0149111D02*
D03*
X0168646D02*
D03*
X0162846Y0173111D02*
D03*
X0160746Y0175311D02*
D03*
X0162846Y0157111D02*
D03*
X0160746Y0159311D02*
D03*
X0175750Y0177411D02*
D03*
X0177250D02*
D03*
X0170163D02*
D03*
X0171663D02*
D03*
X0164546D02*
D03*
X0166046D02*
D03*
X0175750Y0161411D02*
D03*
X0177250D02*
D03*
X0170163D02*
D03*
X0171663D02*
D03*
X0164546D02*
D03*
X0166046D02*
D03*
X0152646Y0164111D02*
D03*
Y0165611D02*
D03*
Y0168611D02*
D03*
Y0167111D02*
D03*
Y0148111D02*
D03*
Y0149611D02*
D03*
Y0152611D02*
D03*
Y0151111D02*
D03*
X0141158Y0165023D02*
D03*
Y0163523D02*
D03*
Y0149023D02*
D03*
Y0147523D02*
D03*
X0219500Y0155943D02*
D03*
X0219512Y0157447D02*
D03*
X0219600Y0152900D02*
D03*
X0219540Y0154441D02*
D03*
X0211500Y0157800D02*
D03*
X0211500Y0159300D02*
D03*
X0211400Y0152200D02*
D03*
Y0153800D02*
D03*
X0215900Y0164300D02*
D03*
X0222800Y0165000D02*
D03*
X0225300Y0170200D02*
D03*
X0225300Y0174200D02*
D03*
X0222800Y0173800D02*
D03*
X0222800Y0169600D02*
D03*
X0270200Y0197600D02*
D03*
X0249800Y0184500D02*
D03*
X0178346Y0149411D02*
D03*
Y0147711D02*
D03*
Y0115711D02*
D03*
X0210000Y0129300D02*
D03*
Y0161300D02*
D03*
Y0160300D02*
D03*
Y0119300D02*
D03*
Y0118300D02*
D03*
Y0128300D02*
D03*
Y0150300D02*
D03*
Y0151300D02*
D03*
X0173446Y0118311D02*
D03*
X0168646Y0117111D02*
D03*
X0141146Y0115511D02*
D03*
X0167046Y0117111D02*
D03*
X0160746Y0127311D02*
D03*
X0162846Y0125111D02*
D03*
X0141146Y0117011D02*
D03*
X0152646Y0119111D02*
D03*
Y0120611D02*
D03*
Y0117611D02*
D03*
Y0116111D02*
D03*
X0166046Y0129411D02*
D03*
X0164546D02*
D03*
X0171663D02*
D03*
X0170163D02*
D03*
X0177250D02*
D03*
X0175750D02*
D03*
X0173446Y0134311D02*
D03*
X0141146Y0131511D02*
D03*
X0160746Y0143311D02*
D03*
X0162846Y0141111D02*
D03*
X0141146Y0133011D02*
D03*
X0152646Y0135111D02*
D03*
Y0136611D02*
D03*
Y0133611D02*
D03*
Y0132111D02*
D03*
X0166046Y0145411D02*
D03*
X0164546D02*
D03*
X0171663D02*
D03*
X0170163D02*
D03*
X0177250D02*
D03*
X0175750D02*
D03*
X0211400Y0121800D02*
D03*
Y0120200D02*
D03*
X0211500Y0125800D02*
D03*
X0219540Y0122441D02*
D03*
X0219600Y0120900D02*
D03*
X0222800Y0137600D02*
D03*
X0222800Y0141800D02*
D03*
X0219512Y0125447D02*
D03*
X0215900Y0132300D02*
D03*
X0222800Y0133000D02*
D03*
X0219515Y0126950D02*
D03*
X0219500Y0123943D02*
D03*
X0225300Y0142200D02*
D03*
X0225300Y0138200D02*
D03*
X0211600Y0116000D02*
D03*
X0139800Y0205500D02*
D03*
X0123000Y0204900D02*
D03*
X0148900Y0193100D02*
D03*
X0138100D02*
D03*
X0158700Y0193800D02*
D03*
X0161900Y0197200D02*
D03*
X0162800Y0194400D02*
D03*
X0157900Y0194200D02*
D03*
X0158700Y0196300D02*
D03*
X0158000Y0196900D02*
D03*
X0158700Y0197500D02*
D03*
X0158500Y0194800D02*
D03*
X0165300Y0197700D02*
D03*
X0165800Y0197200D02*
D03*
X0165900Y0195600D02*
D03*
X0165957Y0194415D02*
D03*
X0166846Y0196611D02*
D03*
Y0195911D02*
D03*
Y0195011D02*
D03*
Y0193811D02*
D03*
X0159300Y0202400D02*
D03*
X0161600Y0204800D02*
D03*
X0164200Y0205300D02*
D03*
X0161600Y0199700D02*
D03*
X0153100Y0208400D02*
D03*
X0153600Y0205900D02*
D03*
X0121746Y0198311D02*
D03*
X0128800Y0205100D02*
D03*
X0130200D02*
D03*
X0114100Y0198000D02*
D03*
Y0199700D02*
D03*
X0117000Y0204600D02*
D03*
X0120000D02*
D03*
Y0192800D02*
D03*
X0117000D02*
D03*
X0163611Y0116066D02*
D03*
Y0148066D02*
D03*
Y0132066D02*
D03*
Y0164066D02*
D03*
X0299500Y0202100D02*
D03*
Y0192600D02*
D03*
X0295500Y0204800D02*
D03*
Y0195300D02*
D03*
X0291500Y0201400D02*
D03*
Y0191964D02*
D03*
X0288600Y0206900D02*
D03*
X0174800Y0200700D02*
D03*
Y0205900D02*
D03*
X0234700Y0202400D02*
D03*
X0227329Y0205006D02*
D03*
X0222300Y0202400D02*
D03*
X0222000Y0205400D02*
D03*
X0229600Y0196000D02*
D03*
X0228400D02*
D03*
X0166400Y0187600D02*
D03*
X0170500Y0187500D02*
D03*
X0195600Y0206400D02*
D03*
X0202800Y0206334D02*
D03*
Y0203600D02*
D03*
X0195600Y0203300D02*
D03*
X0202800Y0200800D02*
D03*
X0288200Y0202500D02*
D03*
Y0199300D02*
D03*
Y0193100D02*
D03*
Y0189900D02*
D03*
X0225500Y0198600D02*
D03*
X0226300D02*
D03*
X0203800Y0189400D02*
D03*
Y0186500D02*
D03*
X0194825Y0183281D02*
D03*
X0194825Y0191831D02*
D03*
X0198199Y0185481D02*
D03*
Y0187281D02*
D03*
X0196199Y0194281D02*
D03*
X0202372Y0187176D02*
D03*
X0202799Y0183281D02*
D03*
X0190225Y0187281D02*
D03*
Y0185682D02*
D03*
X0194325Y0187182D02*
D03*
X0188018Y0194145D02*
D03*
X0282886Y0176551D02*
D03*
X0284046Y0167011D02*
D03*
X0290746Y0178411D02*
D03*
X0286046Y0167811D02*
D03*
X0196100Y0201700D02*
D03*
X0201946Y0143011D02*
D03*
X0197846Y0143111D02*
D03*
X0146500Y0187500D02*
D03*
X0142400Y0187600D02*
D03*
X0201946Y0176011D02*
D03*
X0197846Y0176111D02*
D03*
X0201946Y0165511D02*
D03*
X0197846Y0165611D02*
D03*
X0201946Y0155011D02*
D03*
X0197846Y0155111D02*
D03*
X0201946Y0132511D02*
D03*
X0197846Y0132611D02*
D03*
X0257794Y0191283D02*
D03*
X0248800Y0195495D02*
D03*
X0254800Y0195500D02*
D03*
X0257794Y0180283D02*
D03*
X0254800Y0184500D02*
D03*
X0249800Y0173500D02*
D03*
X0254800D02*
D03*
X0276294Y0202783D02*
D03*
X0268300Y0207000D02*
D03*
X0267300Y0206995D02*
D03*
X0273300Y0207000D02*
D03*
X0197796Y0122161D02*
D03*
X0201896Y0122061D02*
D03*
X0139546Y0121711D02*
D03*
X0135046Y0121611D02*
D03*
X0139646Y0126221D02*
D03*
X0139646Y0116611D02*
D03*
X0139646Y0124721D02*
D03*
X0139646Y0118111D02*
D03*
X0137346Y0120811D02*
D03*
Y0152811D02*
D03*
X0139546Y0153711D02*
D03*
X0135046Y0153611D02*
D03*
X0139646Y0156721D02*
D03*
Y0158221D02*
D03*
X0139646Y0148611D02*
D03*
Y0150111D02*
D03*
X0137346Y0136811D02*
D03*
X0139546Y0137711D02*
D03*
X0135046Y0137611D02*
D03*
X0139646Y0140721D02*
D03*
Y0142221D02*
D03*
X0139646Y0132611D02*
D03*
Y0134111D02*
D03*
X0137346Y0168811D02*
D03*
X0139546Y0169711D02*
D03*
X0135046Y0169611D02*
D03*
X0139646Y0172721D02*
D03*
Y0174221D02*
D03*
X0139646Y0164611D02*
D03*
Y0166111D02*
D03*
X0215900Y0115000D02*
D03*
X0221700Y0118300D02*
D03*
X0223200Y0118100D02*
D03*
X0220100Y0115300D02*
D03*
X0233300Y0165900D02*
D03*
X0232400Y0173700D02*
D03*
Y0169600D02*
D03*
X0229800Y0174200D02*
D03*
Y0170200D02*
D03*
Y0165400D02*
D03*
X0224400Y0162100D02*
D03*
X0231666Y0156732D02*
D03*
X0224308Y0150096D02*
D03*
X0235200Y0123200D02*
D03*
X0223200Y0150100D02*
D03*
X0221700Y0150300D02*
D03*
X0220100Y0147300D02*
D03*
X0215900Y0147000D02*
D03*
X0211600Y0148000D02*
D03*
X0224308Y0118096D02*
D03*
X0224400Y0130100D02*
D03*
X0229800Y0142200D02*
D03*
X0233300Y0133900D02*
D03*
X0232400Y0141700D02*
D03*
Y0137600D02*
D03*
X0229800Y0138200D02*
D03*
Y0133400D02*
D03*
X0231666Y0124732D02*
D03*
X0235200Y0155200D02*
D03*
X0226200Y0199400D02*
D03*
Y0197100D02*
D03*
X0198600Y0202600D02*
D03*
X0291647Y0180517D02*
D03*
X0165800Y0197200D02*
D03*
X0166500Y0185000D02*
D03*
X0197946Y0140511D02*
D03*
X0142500Y0185000D02*
D03*
X0197946Y0173511D02*
D03*
Y0163011D02*
D03*
Y0152511D02*
D03*
Y0130011D02*
D03*
X0257794Y0189983D02*
D03*
X0251700Y0186100D02*
D03*
X0249800Y0195500D02*
D03*
X0251700Y0175100D02*
D03*
Y0164100D02*
D03*
X0197896Y0119561D02*
D03*
X0230947Y0199098D02*
D03*
X0230946Y0197811D02*
D03*
X0139546Y0120011D02*
D03*
X0135046Y0119911D02*
D03*
X0132446Y0116611D02*
D03*
X0141146Y0118511D02*
D03*
X0139546Y0152011D02*
D03*
X0135046Y0151911D02*
D03*
X0132446Y0148611D02*
D03*
X0141146Y0150511D02*
D03*
X0139546Y0136011D02*
D03*
X0135046Y0135911D02*
D03*
X0132446Y0132611D02*
D03*
X0141146Y0134511D02*
D03*
X0139546Y0168011D02*
D03*
X0135046Y0167911D02*
D03*
X0132446Y0164611D02*
D03*
X0141146Y0166511D02*
D03*
X0235000Y0167600D02*
D03*
X0231500Y0155900D02*
D03*
X0235000Y0135600D02*
D03*
X0224350Y0123000D02*
D03*
Y0124200D02*
D03*
Y0125400D02*
D03*
X0225550D02*
D03*
Y0124200D02*
D03*
Y0123000D02*
D03*
X0226750Y0125400D02*
D03*
Y0124200D02*
D03*
Y0123000D02*
D03*
X0224350Y0155000D02*
D03*
Y0156200D02*
D03*
Y0157400D02*
D03*
X0225550D02*
D03*
Y0156200D02*
D03*
Y0155000D02*
D03*
X0226750Y0157400D02*
D03*
Y0156200D02*
D03*
Y0155000D02*
D03*
X0288893Y0164442D02*
D03*
D100*
X0323952Y0178191D02*
D03*
X0327000Y0123809D02*
D03*
X0435000Y0123809D02*
D03*
X0431952Y0178191D02*
D03*
X0327100Y0204300D02*
D03*
X0314500D02*
D03*
D101*
X0294846Y0115311D02*
D03*
X0310000Y0160000D02*
D03*
X0310000Y0175000D02*
D03*
X0183000Y0127300D02*
D03*
D102*
X0292846Y0115311D02*
D03*
X0294846Y0117311D02*
D03*
X0292846D02*
D03*
X0294846Y0119311D02*
D03*
X0292846D02*
D03*
X0294846Y0121311D02*
D03*
X0292846D02*
D03*
X0294846Y0123311D02*
D03*
X0292846D02*
D03*
X0273146Y0150211D02*
D03*
X0275146Y0148211D02*
D03*
Y0150211D02*
D03*
X0277146Y0148211D02*
D03*
Y0150211D02*
D03*
X0279146Y0148211D02*
D03*
Y0150211D02*
D03*
X0281146Y0148211D02*
D03*
Y0150211D02*
D03*
X0308000Y0160000D02*
D03*
X0310000Y0162000D02*
D03*
X0308000D02*
D03*
X0310000Y0164000D02*
D03*
X0308000D02*
D03*
X0310000Y0166000D02*
D03*
X0308000D02*
D03*
X0310000Y0168000D02*
D03*
X0308000D02*
D03*
X0308000Y0183000D02*
D03*
X0310000D02*
D03*
X0308000Y0181000D02*
D03*
X0310000D02*
D03*
X0308000Y0179000D02*
D03*
X0310000D02*
D03*
X0308000Y0177000D02*
D03*
X0310000D02*
D03*
X0308000Y0175000D02*
D03*
X0293446Y0137411D02*
D03*
Y0135411D02*
D03*
X0291446Y0137411D02*
D03*
Y0135411D02*
D03*
X0289446Y0137411D02*
D03*
Y0135411D02*
D03*
X0287446Y0137411D02*
D03*
Y0135411D02*
D03*
X0285446Y0137411D02*
D03*
X0183000Y0133300D02*
D03*
Y0131300D02*
D03*
X0181000Y0135300D02*
D03*
X0183000D02*
D03*
X0181000Y0133300D02*
D03*
Y0131300D02*
D03*
Y0129300D02*
D03*
X0183000D02*
D03*
X0181000Y0127300D02*
D03*
Y0137300D02*
D03*
X0183000Y0139300D02*
D03*
X0181000D02*
D03*
X0183000Y0137300D02*
D03*
X0181000Y0141300D02*
D03*
X0183000Y0143300D02*
D03*
X0181000D02*
D03*
X0183000Y0141300D02*
D03*
X0181000Y0145300D02*
D03*
X0183000D02*
D03*
D103*
X0273146Y0148211D02*
D03*
X0285446Y0135411D02*
D03*
D104*
X0258400Y0153700D02*
D03*
X0211213Y0206300D02*
D03*
X0153446Y0155311D02*
D03*
Y0139311D02*
D03*
Y0171311D02*
D03*
X0276900Y0198200D02*
D03*
X0258400Y0186700D02*
D03*
X0258400Y0175700D02*
D03*
Y0164700D02*
D03*
X0211246Y0203611D02*
D03*
X0196307Y0199990D02*
D03*
X0153446Y0123311D02*
D03*
X0268100Y0178100D02*
D03*
Y0167100D02*
D03*
Y0156100D02*
D03*
X0300600Y0195900D02*
D03*
Y0205400D02*
D03*
X0268100Y0189100D02*
D03*
D105*
X0148586Y0160011D02*
D03*
X0146046D02*
D03*
X0153006D02*
D03*
X0130126Y0160011D02*
D03*
X0127586D02*
D03*
X0148586Y0144011D02*
D03*
X0146046D02*
D03*
X0153006D02*
D03*
X0130126Y0144011D02*
D03*
X0127586D02*
D03*
X0148586Y0176011D02*
D03*
X0146046D02*
D03*
X0153006D02*
D03*
X0130126Y0176011D02*
D03*
X0127586D02*
D03*
X0188496Y0120361D02*
D03*
X0133100Y0185800D02*
D03*
X0157100Y0185800D02*
D03*
X0188546Y0130811D02*
D03*
Y0141311D02*
D03*
Y0153311D02*
D03*
X0146046Y0128011D02*
D03*
X0148586D02*
D03*
X0153006Y0128011D02*
D03*
X0127586D02*
D03*
X0130126D02*
D03*
X0117200Y0207000D02*
D03*
X0188546Y0163811D02*
D03*
Y0174311D02*
D03*
D106*
X0143506Y0160011D02*
D03*
X0155546D02*
D03*
X0125046Y0160011D02*
D03*
X0143506Y0144011D02*
D03*
X0155546D02*
D03*
X0125046Y0144011D02*
D03*
X0143506Y0176011D02*
D03*
X0155546D02*
D03*
X0125046Y0176011D02*
D03*
X0191036Y0120361D02*
D03*
X0135640Y0185800D02*
D03*
X0159640Y0185800D02*
D03*
X0191086Y0130811D02*
D03*
Y0141311D02*
D03*
Y0153311D02*
D03*
X0143506Y0128011D02*
D03*
X0155546Y0128011D02*
D03*
X0125046D02*
D03*
X0119740Y0207000D02*
D03*
X0191086Y0163811D02*
D03*
Y0174311D02*
D03*
D107*
X0211213Y0200800D02*
D03*
X0231946Y0200411D02*
D03*
X0237946Y0200411D02*
D03*
X0129646Y0185811D02*
D03*
X0153646D02*
D03*
X0282300Y0201900D02*
D03*
D108*
X0109000Y0156800D02*
D03*
X0109040Y0164840D02*
D03*
X0108986Y0148771D02*
D03*
X0109040Y0140760D02*
D03*
X0108986Y0132771D02*
D03*
X0109040Y0124760D02*
D03*
Y0172760D02*
D03*
D109*
X0111540Y0159340D02*
D03*
X0106460D02*
D03*
Y0154260D02*
D03*
X0111540D02*
D03*
X0111580Y0167380D02*
D03*
X0106500D02*
D03*
Y0162300D02*
D03*
X0111580D02*
D03*
X0111526Y0151311D02*
D03*
X0106446D02*
D03*
Y0146231D02*
D03*
X0111526D02*
D03*
X0111580Y0143300D02*
D03*
X0106500D02*
D03*
Y0138220D02*
D03*
X0111580D02*
D03*
X0111526Y0135311D02*
D03*
X0106446D02*
D03*
Y0130231D02*
D03*
X0111526D02*
D03*
X0111580Y0127300D02*
D03*
X0106500D02*
D03*
Y0122220D02*
D03*
X0111580D02*
D03*
Y0175300D02*
D03*
X0106500D02*
D03*
Y0170220D02*
D03*
X0111580D02*
D03*
X0111580Y0184480D02*
D03*
Y0181940D02*
D03*
X0114120Y0187020D02*
D03*
X0106500D02*
D03*
Y0179400D02*
D03*
X0114120D02*
D03*
D110*
X0228625Y0198725D02*
D03*
Y0200125D02*
D03*
X0291854Y0162111D02*
D03*
Y0161011D02*
D03*
Y0159911D02*
D03*
Y0158811D02*
D03*
Y0157711D02*
D03*
X0290754Y0162111D02*
D03*
Y0161011D02*
D03*
Y0159911D02*
D03*
Y0158811D02*
D03*
Y0157711D02*
D03*
X0289654Y0162111D02*
D03*
Y0161011D02*
D03*
Y0159911D02*
D03*
Y0158811D02*
D03*
Y0157711D02*
D03*
X0288554Y0162111D02*
D03*
Y0161011D02*
D03*
Y0159911D02*
D03*
Y0158811D02*
D03*
Y0157711D02*
D03*
X0287454Y0162111D02*
D03*
Y0161011D02*
D03*
Y0159911D02*
D03*
Y0158811D02*
D03*
Y0157711D02*
D03*
D111*
X0251080Y0200000D02*
D03*
Y0197460D02*
D03*
X0248540Y0200000D02*
D03*
Y0197460D02*
D03*
X0246000Y0200000D02*
D03*
X0253620Y0197460D02*
D03*
X0256160Y0200000D02*
D03*
Y0197460D02*
D03*
X0253620Y0200000D02*
D03*
D112*
X0246000Y0197460D02*
D03*
D113*
X0327100Y0191500D02*
D03*
X0322900D02*
D03*
X0318700D02*
D03*
X0314500D02*
D03*
X0327100Y0197000D02*
D03*
X0322900D02*
D03*
X0318700D02*
D03*
D114*
X0314500D02*
D03*
D115*
X0274675Y0169150D02*
D03*
Y0180150D02*
D03*
Y0158150D02*
D03*
Y0191150D02*
D03*
D116*
X0295400Y0196900D02*
D03*
X0294700Y0188300D02*
D03*
X0297000Y0199200D02*
D03*
X0294900Y0203500D02*
D03*
X0287439Y0171003D02*
D03*
X0252307Y0149829D02*
D03*
X0254425Y0147075D02*
D03*
X0259900Y0148700D02*
D03*
Y0148000D02*
D03*
X0247800Y0163700D02*
D03*
Y0174700D02*
D03*
X0247800Y0185700D02*
D03*
X0266300Y0197200D02*
D03*
X0248946Y0152711D02*
D03*
X0310500Y0120800D02*
D03*
X0236500Y0152600D02*
D03*
X0126400Y0196700D02*
D03*
X0262488Y0176964D02*
D03*
X0263500Y0165500D02*
D03*
X0263600Y0153800D02*
D03*
X0272800Y0188200D02*
D03*
X0272800Y0177200D02*
D03*
Y0166200D02*
D03*
X0245000Y0129500D02*
D03*
X0246000D02*
D03*
X0244500Y0130500D02*
D03*
X0245500D02*
D03*
X0252400Y0134200D02*
D03*
X0267146Y0121911D02*
D03*
X0247946Y0150611D02*
D03*
X0251246Y0145011D02*
D03*
X0264798Y0146563D02*
D03*
X0252246Y0144211D02*
D03*
X0263402Y0148437D02*
D03*
X0268746Y0121911D02*
D03*
X0254446Y0124311D02*
D03*
X0263800Y0147800D02*
D03*
X0252446Y0130511D02*
D03*
X0267546Y0121311D02*
D03*
X0247946Y0149811D02*
D03*
X0280071Y0134911D02*
D03*
X0265946Y0121311D02*
D03*
X0251746Y0144611D02*
D03*
X0264400Y0147200D02*
D03*
X0265546Y0121911D02*
D03*
X0266746Y0121311D02*
D03*
X0279196Y0134911D02*
D03*
X0267946Y0121911D02*
D03*
X0255146Y0124311D02*
D03*
X0266346Y0121911D02*
D03*
X0268346Y0121311D02*
D03*
X0275500Y0144400D02*
D03*
X0274300D02*
D03*
X0275700Y0125889D02*
D03*
X0276100Y0125400D02*
D03*
X0275200Y0126400D02*
D03*
X0277300Y0123200D02*
D03*
X0276300Y0124800D02*
D03*
X0167005Y0133011D02*
D03*
X0164157Y0166500D02*
D03*
X0164169Y0150483D02*
D03*
X0164157Y0134500D02*
D03*
Y0118500D02*
D03*
X0274900Y0162000D02*
D03*
Y0173000D02*
D03*
X0274900Y0184000D02*
D03*
X0274900Y0195000D02*
D03*
X0280000Y0194500D02*
D03*
X0279700Y0198400D02*
D03*
X0279700Y0197800D02*
D03*
X0303500Y0206500D02*
D03*
X0304500Y0207000D02*
D03*
X0305500Y0206500D02*
D03*
X0306500Y0207000D02*
D03*
X0306000Y0200000D02*
D03*
Y0190500D02*
D03*
X0306500Y0197500D02*
D03*
X0305500Y0197000D02*
D03*
X0304500Y0197500D02*
D03*
X0303500Y0197000D02*
D03*
X0236300Y0182800D02*
D03*
X0156700Y0204600D02*
D03*
X0151100Y0198800D02*
D03*
X0142000Y0204800D02*
D03*
X0135700Y0202400D02*
D03*
X0135700Y0198550D02*
D03*
X0138100Y0197900D02*
D03*
X0278500Y0145300D02*
D03*
X0280500D02*
D03*
X0279500D02*
D03*
X0277600D02*
D03*
X0283000Y0138200D02*
D03*
X0282500Y0137500D02*
D03*
X0282000Y0138200D02*
D03*
X0281500Y0137500D02*
D03*
X0208000Y0183400D02*
D03*
Y0192500D02*
D03*
X0280000Y0192500D02*
D03*
Y0193500D02*
D03*
Y0181500D02*
D03*
Y0182500D02*
D03*
Y0170500D02*
D03*
Y0171500D02*
D03*
Y0160500D02*
D03*
Y0159500D02*
D03*
X0263800Y0174700D02*
D03*
X0264000Y0163700D02*
D03*
X0284000Y0151300D02*
D03*
X0243500Y0187500D02*
D03*
X0313500Y0124600D02*
D03*
X0311500D02*
D03*
Y0123300D02*
D03*
X0313500D02*
D03*
X0236500Y0153300D02*
D03*
Y0154000D02*
D03*
X0229200Y0146100D02*
D03*
X0234200Y0146100D02*
D03*
X0282000Y0159700D02*
D03*
Y0156000D02*
D03*
X0264772Y0149675D02*
D03*
Y0148675D02*
D03*
X0262146Y0152211D02*
D03*
X0261946Y0148611D02*
D03*
X0296641Y0155617D02*
D03*
Y0156417D02*
D03*
X0276865Y0123694D02*
D03*
X0276465Y0124183D02*
D03*
X0275300Y0132900D02*
D03*
X0274800Y0133400D02*
D03*
X0277446Y0124611D02*
D03*
Y0125611D02*
D03*
X0311500Y0174000D02*
D03*
Y0175000D02*
D03*
Y0176000D02*
D03*
Y0177000D02*
D03*
Y0178000D02*
D03*
Y0179000D02*
D03*
Y0180000D02*
D03*
Y0181000D02*
D03*
X0311150Y0152875D02*
D03*
X0313875Y0153775D02*
D03*
X0313900Y0151600D02*
D03*
X0317826Y0128496D02*
D03*
Y0133596D02*
D03*
Y0129046D02*
D03*
Y0138796D02*
D03*
Y0138246D02*
D03*
X0317826Y0136946D02*
D03*
X0317826Y0134146D02*
D03*
X0317826Y0137496D02*
D03*
X0317826Y0164661D02*
D03*
Y0164111D02*
D03*
X0317301Y0163396D02*
D03*
X0316751D02*
D03*
X0314801Y0162946D02*
D03*
X0314801Y0171746D02*
D03*
X0317826Y0168471D02*
D03*
Y0167921D02*
D03*
X0317326Y0167246D02*
D03*
X0316776D02*
D03*
X0314801Y0166621D02*
D03*
X0317826Y0157041D02*
D03*
Y0156491D02*
D03*
X0316751Y0155871D02*
D03*
X0317301D02*
D03*
X0316776Y0159621D02*
D03*
X0317326D02*
D03*
X0317826Y0160301D02*
D03*
Y0160851D02*
D03*
X0317826Y0146871D02*
D03*
Y0143596D02*
D03*
Y0143046D02*
D03*
Y0141746D02*
D03*
Y0141196D02*
D03*
Y0146321D02*
D03*
X0316501Y0120602D02*
D03*
X0312500Y0120800D02*
D03*
X0314500D02*
D03*
X0315200Y0117500D02*
D03*
X0313200D02*
D03*
X0309800D02*
D03*
X0278500Y0129700D02*
D03*
Y0127400D02*
D03*
Y0130700D02*
D03*
Y0126100D02*
D03*
Y0125100D02*
D03*
Y0128400D02*
D03*
X0278296Y0134911D02*
D03*
X0295146Y0144361D02*
D03*
X0311571Y0153311D02*
D03*
X0294821Y0136436D02*
D03*
X0295821Y0137436D02*
D03*
X0296821Y0138436D02*
D03*
X0296321Y0137936D02*
D03*
X0295321Y0136936D02*
D03*
X0307696Y0123686D02*
D03*
X0305696D02*
D03*
X0309646Y0134936D02*
D03*
X0310196D02*
D03*
X0305196Y0138636D02*
D03*
X0304546Y0138361D02*
D03*
X0300696Y0124311D02*
D03*
X0305071Y0125811D02*
D03*
X0305096Y0124811D02*
D03*
X0300696Y0125311D02*
D03*
X0299196Y0125061D02*
D03*
X0298471Y0124586D02*
D03*
X0297696Y0125561D02*
D03*
X0297071Y0126086D02*
D03*
X0307946Y0122511D02*
D03*
X0305946Y0122511D02*
D03*
X0303946Y0122511D02*
D03*
X0301946D02*
D03*
X0299946Y0122511D02*
D03*
X0297946Y0122511D02*
D03*
X0306946Y0118111D02*
D03*
X0304946D02*
D03*
X0302946D02*
D03*
X0300946D02*
D03*
X0298946D02*
D03*
X0306846Y0119811D02*
D03*
X0308846Y0119811D02*
D03*
X0303046D02*
D03*
X0301046D02*
D03*
X0299046Y0119811D02*
D03*
X0297046Y0119811D02*
D03*
X0268121Y0116611D02*
D03*
X0291446Y0117311D02*
D03*
Y0118311D02*
D03*
Y0119311D02*
D03*
Y0115311D02*
D03*
Y0114311D02*
D03*
Y0120311D02*
D03*
Y0116311D02*
D03*
Y0121311D02*
D03*
X0289321Y0114661D02*
D03*
X0275321Y0133911D02*
D03*
X0274821Y0134411D02*
D03*
X0300223Y0131938D02*
D03*
X0300823Y0132338D02*
D03*
X0300223Y0132738D02*
D03*
X0300823Y0133138D02*
D03*
X0300223Y0133538D02*
D03*
X0300823Y0137938D02*
D03*
X0300223Y0137538D02*
D03*
X0300823Y0137138D02*
D03*
X0300223Y0136738D02*
D03*
X0300823Y0136338D02*
D03*
X0300223Y0135938D02*
D03*
X0300823Y0135538D02*
D03*
X0300223Y0135138D02*
D03*
X0300823Y0134738D02*
D03*
X0300223Y0134338D02*
D03*
X0300823Y0133938D02*
D03*
X0286946Y0187511D02*
D03*
X0282946D02*
D03*
X0257794Y0169283D02*
D03*
Y0167983D02*
D03*
X0285346Y0121811D02*
D03*
X0284277Y0121080D02*
D03*
Y0122580D02*
D03*
X0283165Y0121830D02*
D03*
X0276765D02*
D03*
X0277877Y0122580D02*
D03*
Y0121080D02*
D03*
X0285346Y0121811D02*
D03*
X0278946D02*
D03*
X0277846Y0118711D02*
D03*
X0288133Y0122911D02*
D03*
X0289335Y0120666D02*
D03*
X0282948Y0120666D02*
D03*
X0277846Y0114611D02*
D03*
X0288146Y0122911D02*
D03*
X0281746Y0122911D02*
D03*
X0224646Y0201311D02*
D03*
X0234446Y0205311D02*
D03*
X0273946Y0120311D02*
D03*
X0270446Y0117211D02*
D03*
X0274346D02*
D03*
X0252085Y0148565D02*
D03*
X0249346Y0149811D02*
D03*
X0270646Y0154411D02*
D03*
Y0165411D02*
D03*
X0275746Y0138611D02*
D03*
X0274946D02*
D03*
X0294646Y0158511D02*
D03*
X0226357Y0115958D02*
D03*
X0294646Y0159311D02*
D03*
X0226657Y0115258D02*
D03*
X0220700Y0176300D02*
D03*
Y0172200D02*
D03*
Y0144300D02*
D03*
Y0140200D02*
D03*
X0290446Y0132911D02*
D03*
Y0131911D02*
D03*
X0288446Y0132911D02*
D03*
Y0131911D02*
D03*
X0286449Y0131968D02*
D03*
X0284446Y0132811D02*
D03*
Y0133511D02*
D03*
X0286446Y0132911D02*
D03*
X0270757Y0176558D02*
D03*
Y0187558D02*
D03*
X0277446Y0127911D02*
D03*
Y0129211D02*
D03*
Y0132511D02*
D03*
Y0131511D02*
D03*
Y0130211D02*
D03*
Y0126911D02*
D03*
X0277971Y0132011D02*
D03*
Y0133011D02*
D03*
X0248800Y0162495D02*
D03*
X0249800Y0152700D02*
D03*
X0250800D02*
D03*
X0251700Y0153100D02*
D03*
X0251800Y0154000D02*
D03*
Y0155400D02*
D03*
X0257794Y0156983D02*
D03*
Y0158283D02*
D03*
X0261200Y0152700D02*
D03*
Y0162500D02*
D03*
X0121546Y0172111D02*
D03*
Y0156111D02*
D03*
X0284896Y0161661D02*
D03*
X0282946Y0153311D02*
D03*
X0283446Y0152811D02*
D03*
X0286846Y0155011D02*
D03*
X0285296Y0160161D02*
D03*
X0283446Y0151811D02*
D03*
X0284896Y0160661D02*
D03*
X0282946Y0152311D02*
D03*
X0250146Y0150011D02*
D03*
X0238946Y0197111D02*
D03*
Y0196111D02*
D03*
X0242446Y0197611D02*
D03*
Y0196611D02*
D03*
X0242023Y0197111D02*
D03*
Y0196111D02*
D03*
X0239369Y0197611D02*
D03*
Y0196611D02*
D03*
X0248646Y0150611D02*
D03*
X0262146Y0147311D02*
D03*
X0261946Y0151111D02*
D03*
X0261962Y0149881D02*
D03*
X0270846Y0124811D02*
D03*
X0271546Y0121311D02*
D03*
X0206796Y0119661D02*
D03*
X0271146Y0121911D02*
D03*
X0206796Y0121361D02*
D03*
X0270046Y0124811D02*
D03*
X0270746Y0121311D02*
D03*
X0206846Y0130111D02*
D03*
X0268446Y0124811D02*
D03*
X0269146Y0121311D02*
D03*
X0206846Y0152611D02*
D03*
X0269546Y0121911D02*
D03*
X0206846Y0142311D02*
D03*
X0269246Y0124811D02*
D03*
X0269946Y0121311D02*
D03*
X0206846Y0140611D02*
D03*
X0270346Y0121911D02*
D03*
X0206846Y0131811D02*
D03*
X0207684Y0176073D02*
D03*
X0265046Y0123911D02*
D03*
X0245146Y0137111D02*
D03*
X0249246Y0202411D02*
D03*
X0245546Y0156311D02*
D03*
X0245068Y0156811D02*
D03*
X0244536Y0157311D02*
D03*
X0245094Y0155811D02*
D03*
X0245043Y0157811D02*
D03*
X0250346Y0138911D02*
D03*
X0249746Y0139311D02*
D03*
X0250346Y0139711D02*
D03*
X0249746Y0140111D02*
D03*
X0250346Y0140511D02*
D03*
X0249746Y0140911D02*
D03*
X0250346Y0141311D02*
D03*
X0249746Y0141711D02*
D03*
X0250346Y0142111D02*
D03*
X0249746Y0142511D02*
D03*
X0250346Y0142911D02*
D03*
X0246746Y0137111D02*
D03*
X0247546D02*
D03*
X0220065Y0148130D02*
D03*
X0220150Y0116150D02*
D03*
X0219640Y0151960D02*
D03*
X0220946Y0150411D02*
D03*
X0219640Y0119960D02*
D03*
X0220946Y0118311D02*
D03*
X0216100Y0161400D02*
D03*
Y0129400D02*
D03*
X0225354Y0133411D02*
D03*
Y0165411D02*
D03*
X0226657Y0147258D02*
D03*
X0226357Y0147958D02*
D03*
X0264246Y0123911D02*
D03*
X0263746Y0124311D02*
D03*
X0263246Y0123911D02*
D03*
X0262746Y0124311D02*
D03*
X0262246Y0123911D02*
D03*
X0259446Y0124111D02*
D03*
X0258946Y0123711D02*
D03*
X0258446Y0124111D02*
D03*
X0257946Y0123711D02*
D03*
X0257446Y0124111D02*
D03*
X0245946Y0137111D02*
D03*
X0256646Y0123811D02*
D03*
X0255946D02*
D03*
X0250546Y0134911D02*
D03*
X0250146Y0134511D02*
D03*
X0250546Y0134111D02*
D03*
X0250146Y0133711D02*
D03*
X0250546Y0133311D02*
D03*
X0250146Y0132911D02*
D03*
X0134046Y0155611D02*
D03*
Y0171611D02*
D03*
X0256146Y0205111D02*
D03*
X0246646Y0205111D02*
D03*
X0249246Y0204111D02*
D03*
X0257794Y0189983D02*
D03*
X0291158Y0205845D02*
D03*
X0292446Y0190111D02*
D03*
X0293646Y0189311D02*
D03*
X0292946Y0194311D02*
D03*
X0293646D02*
D03*
Y0198811D02*
D03*
X0292846D02*
D03*
Y0203711D02*
D03*
X0293646D02*
D03*
X0283457Y0195600D02*
D03*
X0290735D02*
D03*
X0310435Y0202200D02*
D03*
X0310435Y0192822D02*
D03*
X0294900Y0202737D02*
D03*
X0295146Y0148111D02*
D03*
X0293971Y0159626D02*
D03*
X0286446Y0155711D02*
D03*
X0285296Y0161161D02*
D03*
X0284246Y0157511D02*
D03*
Y0158311D02*
D03*
X0285255Y0158646D02*
D03*
X0284646Y0158811D02*
D03*
D03*
X0284246Y0159411D02*
D03*
D03*
X0286352Y0150105D02*
D03*
X0179846Y0165511D02*
D03*
X0121546Y0124111D02*
D03*
Y0140111D02*
D03*
X0114046Y0125811D02*
D03*
Y0141811D02*
D03*
Y0157811D02*
D03*
Y0173811D02*
D03*
X0174446Y0194011D02*
D03*
X0124550Y0205350D02*
D03*
X0138085Y0199215D02*
D03*
X0223750Y0149650D02*
D03*
Y0117650D02*
D03*
X0178846Y0132933D02*
D03*
X0179446Y0132844D02*
D03*
X0197548Y0202352D02*
D03*
X0149051Y0200373D02*
D03*
X0125105Y0196545D02*
D03*
X0209500Y0189000D02*
D03*
X0202807Y0191836D02*
D03*
X0289046Y0149711D02*
D03*
Y0148111D02*
D03*
X0287246D02*
D03*
Y0149711D02*
D03*
X0285446Y0148111D02*
D03*
Y0149711D02*
D03*
X0292662Y0148146D02*
D03*
Y0149746D02*
D03*
X0294241Y0148146D02*
D03*
Y0149746D02*
D03*
X0290846Y0148111D02*
D03*
Y0149711D02*
D03*
X0296046Y0148146D02*
D03*
Y0149746D02*
D03*
X0289696Y0167411D02*
D03*
X0290996D02*
D03*
X0294246Y0163811D02*
D03*
X0285646Y0164111D02*
D03*
X0291546Y0154411D02*
D03*
X0122446Y0118211D02*
D03*
Y0150211D02*
D03*
Y0134211D02*
D03*
Y0166211D02*
D03*
X0286352Y0144405D02*
D03*
X0291752D02*
D03*
X0288152Y0144405D02*
D03*
X0289946Y0144411D02*
D03*
X0126446Y0120611D02*
D03*
X0132446Y0126221D02*
D03*
X0126446Y0152611D02*
D03*
X0132446Y0158221D02*
D03*
X0126446Y0136611D02*
D03*
X0132446Y0142221D02*
D03*
X0126446Y0168611D02*
D03*
X0132446Y0174221D02*
D03*
X0137346Y0120811D02*
D03*
X0139646Y0126221D02*
D03*
Y0124721D02*
D03*
X0137346Y0136811D02*
D03*
X0139646Y0140721D02*
D03*
Y0142221D02*
D03*
X0137346Y0152811D02*
D03*
X0139646Y0156721D02*
D03*
Y0158221D02*
D03*
X0137346Y0168811D02*
D03*
X0139646Y0172721D02*
D03*
Y0174221D02*
D03*
X0146500Y0182200D02*
D03*
X0201896Y0116761D02*
D03*
X0201946Y0127211D02*
D03*
X0170500Y0182200D02*
D03*
X0201946Y0137711D02*
D03*
X0201815Y0149841D02*
D03*
X0211600Y0116000D02*
D03*
X0201946Y0160211D02*
D03*
X0229800Y0142200D02*
D03*
X0211600Y0148000D02*
D03*
X0201946Y0170711D02*
D03*
X0194825Y0183282D02*
D03*
X0221700Y0118300D02*
D03*
X0223200Y0118100D02*
D03*
X0188018Y0194145D02*
D03*
X0224400Y0130100D02*
D03*
X0194825Y0191831D02*
D03*
X0221700Y0150300D02*
D03*
X0229800Y0174200D02*
D03*
Y0133400D02*
D03*
X0196199Y0194281D02*
D03*
X0223200Y0150100D02*
D03*
X0224400Y0162100D02*
D03*
X0195600Y0206400D02*
D03*
X0229800Y0165400D02*
D03*
X0226700Y0189000D02*
D03*
X0225500Y0198600D02*
D03*
X0222300Y0202400D02*
D03*
X0257794Y0180283D02*
D03*
X0257794Y0191283D02*
D03*
X0287454Y0157711D02*
D03*
X0289696Y0167411D02*
D03*
X0290996D02*
D03*
X0276294Y0202783D02*
D03*
X0288200Y0202500D02*
D03*
X0235000Y0144300D02*
D03*
X0198199Y0182332D02*
D03*
X0235000Y0176300D02*
D03*
X0174800Y0202400D02*
D03*
X0190225Y0182332D02*
D03*
X0158400Y0202400D02*
D03*
X0155000Y0204600D02*
D03*
X0123900Y0194000D02*
D03*
X0149700Y0193100D02*
D03*
X0138100Y0201700D02*
D03*
X0123800Y0204900D02*
D03*
X0132500Y0207500D02*
D03*
X0194833Y0182336D02*
D03*
X0202807D02*
D03*
X0235000Y0172200D02*
D03*
X0198199Y0191831D02*
D03*
X0235000Y0140200D02*
D03*
X0174800Y0207600D02*
D03*
X0190225Y0191831D02*
D03*
X0159500Y0207600D02*
D03*
X0123800Y0196600D02*
D03*
X0194825Y0192782D02*
D03*
X0261200Y0185700D02*
D03*
X0295146Y0150837D02*
D03*
X0285346Y0156711D02*
D03*
X0291746Y0155111D02*
D03*
X0225000Y0130500D02*
D03*
Y0162500D02*
D03*
X0218300Y0116000D02*
D03*
X0224900Y0117600D02*
D03*
X0218300Y0148000D02*
D03*
X0261200Y0174700D02*
D03*
X0224900Y0149600D02*
D03*
X0148600Y0204400D02*
D03*
X0157700Y0207400D02*
D03*
X0261200Y0163700D02*
D03*
X0158000Y0196900D02*
D03*
X0283646Y0161611D02*
D03*
X0285846Y0154611D02*
D03*
X0289952Y0150805D02*
D03*
X0289909Y0155428D02*
D03*
X0293996Y0158161D02*
D03*
X0291752Y0150805D02*
D03*
X0293946Y0163111D02*
D03*
X0286846Y0164511D02*
D03*
X0285301Y0162163D02*
D03*
X0270200Y0197600D02*
D03*
X0226200Y0197100D02*
D03*
X0230946Y0197811D02*
D03*
X0230947Y0199098D02*
D03*
X0251700Y0175100D02*
D03*
X0249800Y0195500D02*
D03*
X0249800Y0184500D02*
D03*
X0251700Y0186100D02*
D03*
X0251700Y0164100D02*
D03*
X0141146Y0118511D02*
D03*
X0197946Y0173511D02*
D03*
Y0152511D02*
D03*
Y0130011D02*
D03*
Y0163011D02*
D03*
Y0140511D02*
D03*
X0165800Y0197200D02*
D03*
X0197896Y0119561D02*
D03*
X0235000Y0135600D02*
D03*
Y0167600D02*
D03*
X0142500Y0185000D02*
D03*
X0166500D02*
D03*
X0135046Y0167911D02*
D03*
X0141146Y0166511D02*
D03*
X0139546Y0168011D02*
D03*
X0132446Y0174221D02*
D03*
X0141146Y0150511D02*
D03*
X0291752Y0144405D02*
D03*
X0286352D02*
D03*
X0288152D02*
D03*
X0289946Y0144411D02*
D03*
X0122100Y0205300D02*
D03*
X0140700Y0207400D02*
D03*
X0158700Y0193800D02*
D03*
X0226700Y0191000D02*
D03*
X0279700Y0197200D02*
D03*
X0220700Y0135600D02*
D03*
X0219500Y0127696D02*
D03*
X0126400Y0204800D02*
D03*
X0132512Y0205564D02*
D03*
X0139800Y0207500D02*
D03*
X0149400Y0204700D02*
D03*
X0146600D02*
D03*
X0165100Y0200700D02*
D03*
X0290246Y0154811D02*
D03*
X0291046D02*
D03*
X0296645Y0153404D02*
D03*
X0288746Y0154811D02*
D03*
X0296645Y0154204D02*
D03*
X0289546Y0154811D02*
D03*
X0172246Y0192611D02*
D03*
X0121500Y0196800D02*
D03*
X0171446Y0192611D02*
D03*
X0121600Y0204700D02*
D03*
X0127000Y0205300D02*
D03*
X0277100Y0191800D02*
D03*
Y0180800D02*
D03*
Y0169800D02*
D03*
Y0158800D02*
D03*
X0291752Y0148105D02*
D03*
X0286352D02*
D03*
X0288152D02*
D03*
X0289952D02*
D03*
X0178346Y0163711D02*
D03*
X0179146Y0164811D02*
D03*
X0210000Y0161300D02*
D03*
X0263300Y0192800D02*
D03*
X0261200Y0195500D02*
D03*
X0263300Y0181800D02*
D03*
X0261200Y0184500D02*
D03*
X0263300Y0170800D02*
D03*
X0261200Y0173500D02*
D03*
X0263300Y0159800D02*
D03*
X0291100Y0203500D02*
D03*
X0279700Y0207000D02*
D03*
X0270300Y0198500D02*
D03*
X0269300Y0197200D02*
D03*
X0251800Y0165000D02*
D03*
X0250800Y0163700D02*
D03*
X0251800Y0176000D02*
D03*
X0250800Y0174700D02*
D03*
X0248800Y0184495D02*
D03*
X0250800Y0185700D02*
D03*
X0251800Y0187000D02*
D03*
X0251800Y0166400D02*
D03*
X0249800Y0163700D02*
D03*
X0248800Y0173495D02*
D03*
X0249800Y0174700D02*
D03*
X0251800Y0177400D02*
D03*
X0251800Y0188400D02*
D03*
X0249800Y0185700D02*
D03*
X0270300Y0199900D02*
D03*
X0268300Y0197200D02*
D03*
X0292991Y0155849D02*
D03*
X0233246Y0125411D02*
D03*
X0221800Y0130800D02*
D03*
Y0162800D02*
D03*
X0208646Y0176111D02*
D03*
X0206846Y0163111D02*
D03*
Y0173611D02*
D03*
X0208146Y0176511D02*
D03*
X0209146D02*
D03*
X0206846Y0154311D02*
D03*
Y0164811D02*
D03*
Y0175311D02*
D03*
X0174146Y0193411D02*
D03*
X0174446Y0192811D02*
D03*
X0174146Y0194611D02*
D03*
X0150500Y0204400D02*
D03*
X0139700Y0206200D02*
D03*
X0146600Y0208400D02*
D03*
X0276800Y0190100D02*
D03*
Y0179100D02*
D03*
Y0168100D02*
D03*
Y0157100D02*
D03*
X0294596Y0161161D02*
D03*
X0292546Y0155311D02*
D03*
X0237948Y0194810D02*
D03*
X0231946Y0194811D02*
D03*
X0222900Y0199500D02*
D03*
X0185950Y0120350D02*
D03*
X0185946Y0130811D02*
D03*
X0185955Y0141306D02*
D03*
X0185946Y0153311D02*
D03*
Y0163811D02*
D03*
X0185901Y0174317D02*
D03*
X0294900Y0193300D02*
D03*
X0299100Y0189400D02*
D03*
X0298100Y0200100D02*
D03*
Y0190800D02*
D03*
X0263300Y0187200D02*
D03*
X0161746Y0122311D02*
D03*
Y0138311D02*
D03*
X0214950Y0116000D02*
D03*
X0219515Y0158950D02*
D03*
X0233193Y0124758D02*
D03*
X0221100Y0130500D02*
D03*
X0134046Y0123611D02*
D03*
Y0139611D02*
D03*
X0221100Y0162500D02*
D03*
X0161846Y0120711D02*
D03*
Y0136711D02*
D03*
Y0152711D02*
D03*
Y0168711D02*
D03*
X0198800Y0206700D02*
D03*
X0178346Y0117411D02*
D03*
Y0131711D02*
D03*
Y0133411D02*
D03*
Y0165411D02*
D03*
X0114046Y0127311D02*
D03*
Y0143311D02*
D03*
Y0159311D02*
D03*
Y0175311D02*
D03*
X0294646Y0157011D02*
D03*
Y0157811D02*
D03*
X0161746Y0154311D02*
D03*
Y0170311D02*
D03*
X0214950Y0148000D02*
D03*
X0219500Y0159696D02*
D03*
X0220700Y0167600D02*
D03*
X0219515Y0126950D02*
D03*
X0215900Y0132300D02*
D03*
X0277300Y0188200D02*
D03*
Y0177200D02*
D03*
Y0166200D02*
D03*
Y0155200D02*
D03*
X0231457Y0125433D02*
D03*
X0225800Y0130100D02*
D03*
X0231703Y0122579D02*
D03*
X0231700Y0122000D02*
D03*
X0229567Y0123444D02*
D03*
Y0155444D02*
D03*
D03*
X0231457Y0157433D02*
D03*
D03*
X0231700Y0154000D02*
D03*
X0231703Y0154579D02*
D03*
X0225800Y0162100D02*
D03*
D03*
X0294109Y0160664D02*
D03*
X0294074Y0161674D02*
D03*
X0294564Y0160159D02*
D03*
X0209500Y0185000D02*
D03*
X0226700Y0187000D02*
D03*
Y0185000D02*
D03*
D117*
X0304000Y0200000D02*
D03*
X0302000D02*
D03*
X0300000D02*
D03*
D118*
X0435000Y0184000D02*
D03*
Y0118000D02*
D03*
X0327000Y0184000D02*
D03*
X0327000Y0118000D02*
D03*
X0120000Y0129000D02*
D03*
X0109000Y0201300D02*
D03*
X0182000Y0117300D02*
D03*
Y0159300D02*
D03*
Y0201300D02*
D03*
D119*
X0151400Y0185100D02*
D03*
Y0186800D02*
D03*
X0175400Y0185100D02*
D03*
Y0186800D02*
D03*
X0170500Y0182200D02*
D03*
X0226700Y0189000D02*
D03*
X0201946Y0137711D02*
D03*
X0146500Y0182200D02*
D03*
X0201946Y0170711D02*
D03*
Y0160211D02*
D03*
Y0127211D02*
D03*
X0201896Y0116761D02*
D03*
X0201815Y0149841D02*
D03*
D120*
X0258545Y0146550D02*
D03*
Y0146050D02*
D03*
Y0145550D02*
D03*
Y0145050D02*
D03*
X0256655Y0146550D02*
D03*
Y0146050D02*
D03*
Y0145550D02*
D03*
Y0145050D02*
D03*
D244*
X0270246Y0144211D02*
D03*
X0270746D02*
D03*
X0267784Y0128574D02*
D03*
X0268284D02*
D03*
X0256546Y0136711D02*
D03*
X0257046D02*
D03*
X0256296Y0127119D02*
D03*
X0255796D02*
D03*
X0258003Y0142914D02*
D03*
X0257503D02*
D03*
X0255896Y0133419D02*
D03*
X0256396D02*
D03*
X0257946Y0127811D02*
D03*
X0257446D02*
D03*
X0266130Y0127920D02*
D03*
X0266630D02*
D03*
X0268701Y0142104D02*
D03*
X0269201D02*
D03*
X0269479Y0138913D02*
D03*
X0269979D02*
D03*
X0269500Y0135957D02*
D03*
X0270000D02*
D03*
X0268701Y0131877D02*
D03*
X0269201D02*
D03*
X0270376Y0129021D02*
D03*
X0269876D02*
D03*
X0262346Y0135411D02*
D03*
X0261846D02*
D03*
X0265646Y0136211D02*
D03*
X0265146D02*
D03*
X0263491Y0133016D02*
D03*
X0263991D02*
D03*
X0289702Y0149143D02*
D03*
X0290202D02*
D03*
X0288396Y0149111D02*
D03*
X0287896D02*
D03*
X0286102Y0149143D02*
D03*
X0286602D02*
D03*
X0295396Y0149175D02*
D03*
X0294896D02*
D03*
X0291502Y0149143D02*
D03*
X0292002D02*
D03*
D245*
X0270496Y0143711D02*
D03*
Y0144711D02*
D03*
X0268034Y0128074D02*
D03*
Y0129074D02*
D03*
X0256796Y0136211D02*
D03*
Y0137211D02*
D03*
X0256046Y0127619D02*
D03*
Y0126619D02*
D03*
X0257753Y0143414D02*
D03*
Y0142414D02*
D03*
X0256146Y0132919D02*
D03*
Y0133919D02*
D03*
X0257696Y0128311D02*
D03*
Y0127311D02*
D03*
X0266380Y0127420D02*
D03*
Y0128420D02*
D03*
X0268951Y0141604D02*
D03*
Y0142604D02*
D03*
X0269729Y0138413D02*
D03*
Y0139413D02*
D03*
X0269750Y0135457D02*
D03*
Y0136457D02*
D03*
X0268951Y0131377D02*
D03*
Y0132377D02*
D03*
X0270126Y0129521D02*
D03*
Y0128521D02*
D03*
X0262096Y0135911D02*
D03*
Y0134911D02*
D03*
X0265396Y0136711D02*
D03*
Y0135711D02*
D03*
X0263741Y0132516D02*
D03*
Y0133516D02*
D03*
X0289952Y0148643D02*
D03*
Y0149643D02*
D03*
X0288146Y0149611D02*
D03*
Y0148611D02*
D03*
X0286352Y0148643D02*
D03*
Y0149643D02*
D03*
X0295146Y0149675D02*
D03*
Y0148675D02*
D03*
X0291752Y0148643D02*
D03*
Y0149643D02*
D03*
D246*
X0271746Y0127417D02*
D03*
Y0127917D02*
D03*
X0257358Y0138836D02*
D03*
Y0138336D02*
D03*
X0262254Y0128761D02*
D03*
Y0129261D02*
D03*
X0255642Y0143672D02*
D03*
Y0143172D02*
D03*
X0259060Y0142081D02*
D03*
Y0141581D02*
D03*
X0262127Y0140768D02*
D03*
Y0141268D02*
D03*
X0265746Y0141561D02*
D03*
Y0142061D02*
D03*
X0261946Y0137911D02*
D03*
Y0137411D02*
D03*
X0262546Y0133611D02*
D03*
Y0133111D02*
D03*
X0264546Y0137311D02*
D03*
Y0137811D02*
D03*
X0266346Y0131111D02*
D03*
Y0131611D02*
D03*
X0277877Y0122080D02*
D03*
Y0121580D02*
D03*
X0284277D02*
D03*
Y0122080D02*
D03*
D247*
X0272246Y0127667D02*
D03*
X0271246D02*
D03*
X0256858Y0138586D02*
D03*
X0257858D02*
D03*
X0262754Y0129011D02*
D03*
X0261754D02*
D03*
X0255142Y0143422D02*
D03*
X0256142D02*
D03*
X0258560Y0141831D02*
D03*
X0259560D02*
D03*
X0262627Y0141018D02*
D03*
X0261627D02*
D03*
X0266246Y0141811D02*
D03*
X0265246D02*
D03*
X0261446Y0137661D02*
D03*
X0262446D02*
D03*
X0262046Y0133361D02*
D03*
X0263046D02*
D03*
X0265046Y0137561D02*
D03*
X0264046D02*
D03*
X0266846Y0131361D02*
D03*
X0265846D02*
D03*
X0277377Y0121830D02*
D03*
X0278377D02*
D03*
X0284777D02*
D03*
X0283777D02*
D03*
D249*
X0257600Y0145800D02*
D03*
D250*
X0231725Y0150155D02*
D03*
X0231225D02*
D03*
X0230725D02*
D03*
X0230225D02*
D03*
X0231725Y0152045D02*
D03*
X0231225D02*
D03*
X0230725D02*
D03*
X0230225D02*
D03*
D251*
X0230975Y0151100D02*
D03*
D252*
X0247296Y0202136D02*
D03*
X0246646D02*
D03*
X0245996D02*
D03*
Y0204286D02*
D03*
X0246646D02*
D03*
X0247296D02*
D03*
M02*
