G04*
G04 #@! TF.GenerationSoftware,Altium Limited,Altium Designer,21.8.1 (53)*
G04*
G04 Layer_Color=16711935*
%FSAX43Y43*%
%MOMM*%
G71*
G04*
G04 #@! TF.SameCoordinates,84DC94BE-3BC4-41EC-B0AB-4FBC39C73DE4*
G04*
G04*
G04 #@! TF.FilePolarity,Positive*
G04*
G01*
G75*
%ADD10C,0.100*%
D10*
X0341300Y0202900D02*
G03*
X0341300Y0201100I0000000J-0000900D01*
G01*
X0145000Y0110925D02*
G03*
X0141350Y0110925I-0001825J0000000D01*
G01*
X0158100Y0107450D02*
G03*
X0156200Y0107450I-0000950J0000000D01*
G01*
X0336300Y0112750D02*
G03*
X0341300Y0117750I-0000000J0005000D01*
G01*
X0341300Y0206150D02*
G03*
X0336300Y0211150I-0005000J-0000000D01*
G01*
X0341300Y0202900D02*
Y0206150D01*
X0100000Y0104500D02*
Y0211150D01*
Y0104500D02*
X0115000D01*
Y0112750D01*
X0133350D01*
Y0104500D02*
Y0112750D01*
Y0104500D02*
X0141350D01*
Y0110925D01*
X0145000Y0100500D02*
Y0110925D01*
Y0100500D02*
X0145500Y0100000D01*
X0155700D01*
X0156200Y0100500D01*
Y0107450D01*
X0158100Y0100500D02*
Y0107450D01*
Y0100500D02*
X0158600Y0100000D01*
X0164800D01*
X0165300Y0100500D01*
Y0112750D01*
X0100000Y0211150D02*
X0336300D01*
X0165300Y0112750D02*
X0336300D01*
X0341300Y0117750D02*
X0341300Y0201100D01*
M02*
